<svg width="25" height="25" viewBox="0 0 25 25" fill="none" xmlns="http://www.w3.org/2000/svg">
<path d="M12.1582 2.17578C6.6582 2.17578 2.1582 6.66578 2.1582 12.1958C2.1582 17.1958 5.8182 21.3458 10.5982 22.0958V15.0958H8.0582V12.1958H10.5982V9.98578C10.5982 7.47578 12.0882 6.09578 14.3782 6.09578C15.4682 6.09578 16.6082 6.28578 16.6082 6.28578V8.75578H15.3482C14.1082 8.75578 13.7182 9.52578 13.7182 10.3158V12.1958H16.4982L16.0482 15.0958H13.7182V22.0958C16.0746 21.7236 18.2204 20.5213 19.7681 18.7058C21.3159 16.8904 22.1636 14.5814 22.1582 12.1958C22.1582 6.66578 17.6582 2.17578 12.1582 2.17578Z" fill="#242D3C"/>
</svg>
