<svg width="25" height="25" viewBox="0 0 25 25" fill="none" xmlns="http://www.w3.org/2000/svg">
<path d="M7.9582 2.13574H16.3582C19.5582 2.13574 22.1582 4.73574 22.1582 7.93574V16.3357C22.1582 17.874 21.5471 19.3493 20.4594 20.437C19.3717 21.5247 17.8965 22.1357 16.3582 22.1357H7.9582C4.7582 22.1357 2.1582 19.5357 2.1582 16.3357V7.93574C2.1582 6.39749 2.76927 4.92223 3.85698 3.83452C4.94469 2.74681 6.41995 2.13574 7.9582 2.13574ZM7.7582 4.13574C6.80342 4.13574 5.88775 4.51503 5.21262 5.19016C4.53749 5.86529 4.1582 6.78096 4.1582 7.73574V16.5357C4.1582 18.5257 5.7682 20.1357 7.7582 20.1357H16.5582C17.513 20.1357 18.4287 19.7565 19.1038 19.0813C19.7789 18.4062 20.1582 17.4905 20.1582 16.5357V7.73574C20.1582 5.74574 18.5482 4.13574 16.5582 4.13574H7.7582ZM17.4082 5.63574C17.7397 5.63574 18.0577 5.76744 18.2921 6.00186C18.5265 6.23628 18.6582 6.55422 18.6582 6.88574C18.6582 7.21726 18.5265 7.53521 18.2921 7.76963C18.0577 8.00405 17.7397 8.13574 17.4082 8.13574C17.0767 8.13574 16.7587 8.00405 16.5243 7.76963C16.2899 7.53521 16.1582 7.21726 16.1582 6.88574C16.1582 6.55422 16.2899 6.23628 16.5243 6.00186C16.7587 5.76744 17.0767 5.63574 17.4082 5.63574ZM12.1582 7.13574C13.4843 7.13574 14.7561 7.66253 15.6937 8.60021C16.6314 9.53789 17.1582 10.8097 17.1582 12.1357C17.1582 13.4618 16.6314 14.7336 15.6937 15.6713C14.7561 16.609 13.4843 17.1357 12.1582 17.1357C10.8321 17.1357 9.56035 16.609 8.62267 15.6713C7.68499 14.7336 7.1582 13.4618 7.1582 12.1357C7.1582 10.8097 7.68499 9.53789 8.62267 8.60021C9.56035 7.66253 10.8321 7.13574 12.1582 7.13574ZM12.1582 9.13574C11.3626 9.13574 10.5995 9.45181 10.0369 10.0144C9.47427 10.577 9.1582 11.3401 9.1582 12.1357C9.1582 12.9314 9.47427 13.6945 10.0369 14.2571C10.5995 14.8197 11.3626 15.1357 12.1582 15.1357C12.9539 15.1357 13.7169 14.8197 14.2795 14.2571C14.8421 13.6945 15.1582 12.9314 15.1582 12.1357C15.1582 11.3401 14.8421 10.577 14.2795 10.0144C13.7169 9.45181 12.9539 9.13574 12.1582 9.13574Z" fill="#242D3C"/>
</svg>
