<svg width="25" height="25" viewBox="0 0 25 25" fill="none" xmlns="http://www.w3.org/2000/svg">
<path d="M22.6182 6.13574C21.8482 6.48574 21.0182 6.71574 20.1582 6.82574C21.0382 6.29574 21.7182 5.45574 22.0382 4.44574C21.2082 4.94574 20.2882 5.29574 19.3182 5.49574C18.5282 4.63574 17.4182 4.13574 16.1582 4.13574C13.8082 4.13574 11.8882 6.05574 11.8882 8.42574C11.8882 8.76574 11.9282 9.09574 11.9982 9.40574C8.43824 9.22574 5.26824 7.51574 3.15824 4.92574C2.78824 5.55574 2.57824 6.29574 2.57824 7.07574C2.57824 8.56574 3.32824 9.88574 4.48824 10.6357C3.77824 10.6357 3.11824 10.4357 2.53824 10.1357V10.1657C2.53824 12.2457 4.01824 13.9857 5.97824 14.3757C5.34897 14.548 4.68834 14.5719 4.04824 14.4457C4.31985 15.2982 4.85178 16.0442 5.56926 16.5787C6.28674 17.1132 7.15369 17.4094 8.04824 17.4257C6.53187 18.6262 4.65224 19.2751 2.71824 19.2657C2.37824 19.2657 2.03824 19.2457 1.69824 19.2057C3.59824 20.4257 5.85824 21.1357 8.27824 21.1357C16.1582 21.1357 20.4882 14.5957 20.4882 8.92574C20.4882 8.73574 20.4882 8.55574 20.4782 8.36574C21.3182 7.76574 22.0382 7.00574 22.6182 6.13574Z" fill="#242D3C"/>
</svg>
