<?xml version="1.0" standalone="no"?>
<!DOCTYPE svg PUBLIC "-//W3C//DTD SVG 1.1//EN" "http://www.w3.org/Graphics/SVG/1.1/DTD/svg11.dtd" >
<svg xmlns="http://www.w3.org/2000/svg" xmlns:xlink="http://www.w3.org/1999/xlink" version="1.1">
<metadata>
Created by FontForge 20170731 at Wed Nov  3 15:43:28 2021
 By Aleksey,,,
Copyright 2019 The Readex Pro Project Authors (https://github.com/ThomasJockin/readexpro)
</metadata>
<defs>
<font id="ReadexPro-Bold" horiz-adv-x="0" >
  <font-face 
    font-family="Readex Pro"
    font-weight="700"
    font-stretch="normal"
    units-per-em="1000"
    panose-1="0 0 0 0 0 0 0 0 0 0"
    ascent="800"
    descent="-200"
    x-height="531"
    cap-height="700"
    bbox="-214 -555 1514 1157"
    underline-thickness="50"
    underline-position="-175"
    unicode-range="U+000D-FD3F"
  />
<missing-glyph horiz-adv-x="584" 
d="M75 0q-35 0 -35 35v630q0 35 35 35h434q35 0 35 -35v-630q0 -35 -35 -35h-434zM75 30h413q3 0 4 2t-1 4l-415 598q-2 3 -4 2.5t-2 -4.5v-597q0 -5 5 -5zM508 66q2 -3 4 -2.5t2 4.5v597q0 5 -5 5h-414q-3 0 -4 -2t1 -4z" />
    <glyph glyph-name="fi" unicode="fi" horiz-adv-x="716" 
d="M105 0v557q0 52 22.5 93.5t63.5 66.5t95 25q37 0 69 -11.5t57 -31.5l-46 -117q-13 7 -25 11t-22 4q-18 0 -30 -6t-17.5 -18t-5.5 -30v-543h-81h-46.5h-33.5zM27 382v134h348v-134h-348zM475 0v531h161v-531h-161zM556 636q-46 0 -71.5 21.5t-25.5 61.5q0 37 26 60t71 23
q44 0 69.5 -21.5t25.5 -61.5q0 -37 -25.5 -60t-69.5 -23z" />
    <glyph glyph-name="fl" unicode="fl" horiz-adv-x="698" 
d="M105 0v557q0 52 22.5 93.5t63.5 66.5t95 25q37 0 69 -11.5t57 -31.5l-46 -117q-13 7 -25 11t-22 4q-18 0 -30 -6t-17.5 -18t-5.5 -30v-543h-81h-46.5h-33.5zM27 382v134h348v-134h-348zM466 0v740h161v-740h-161z" />
    <glyph glyph-name="f_f" unicode="ff" horiz-adv-x="790" 
d="M105 0v557q0 52 22.5 93.5t63.5 66.5t95 25q37 0 69 -11.5t57 -31.5l-46 -117q-13 7 -25 11t-22 4q-18 0 -30 -6t-17.5 -18t-5.5 -30v-543h-81h-46.5h-33.5zM27 382v134h348v-134h-348zM500 0v557q0 52 22.5 93.5t63.5 66.5t95 25q37 0 69 -11.5t57 -31.5l-46 -117
q-13 7 -25 11t-22 4q-18 0 -30 -6t-17.5 -18t-5.5 -30v-543h-81h-46.5h-33.5zM422 382v134h348v-134h-348z" />
    <glyph glyph-name="f_f_i" unicode="ffi" horiz-adv-x="1110" 
d="M105 0v557q0 52 22.5 93.5t63.5 66.5t95 25q37 0 69 -11.5t57 -31.5l-46 -117q-13 7 -25 11t-22 4q-18 0 -30 -6t-17.5 -18t-5.5 -30v-543h-81h-46.5h-33.5zM27 382v134h348v-134h-348zM500 0v557q0 52 22.5 93.5t63.5 66.5t95 25q37 0 69 -11.5t57 -31.5l-46 -117
q-13 7 -25 11t-22 4q-18 0 -30 -6t-17.5 -18t-5.5 -30v-543h-81h-46.5h-33.5zM422 382v134h348v-134h-348zM869 0v531h161v-531h-161zM950 636q-46 0 -71.5 21.5t-25.5 61.5q0 37 26 60t71 23q44 0 69.5 -21.5t25.5 -61.5q0 -37 -25.5 -60t-69.5 -23z" />
    <glyph glyph-name="f_f_l" unicode="ffl" horiz-adv-x="1093" 
d="M105 0v557q0 52 22.5 93.5t63.5 66.5t95 25q37 0 69 -11.5t57 -31.5l-46 -117q-13 7 -25 11t-22 4q-18 0 -30 -6t-17.5 -18t-5.5 -30v-543h-81h-46.5h-33.5zM27 382v134h348v-134h-348zM500 0v557q0 52 22.5 93.5t63.5 66.5t95 25q37 0 69 -11.5t57 -31.5l-46 -117
q-13 7 -25 11t-22 4q-18 0 -30 -6t-17.5 -18t-5.5 -30v-543h-81h-46.5h-33.5zM422 382v134h348v-134h-348zM860 0v740h161v-740h-161z" />
    <glyph glyph-name="uniFE82" unicode="&#x622;" horiz-adv-x="344" arabic-form="final" 
d="M261 0q-50 0 -86 10t-59.5 31.5t-35 55.5t-11.5 82v561h161v-503q0 -22 3 -37.5t11 -25t22.5 -13.5t38.5 -4h39v-157h-83zM249 820q-33 0 -57.5 8t-44.5 18t-40 18t-43 8q-22 0 -41 -8t-34 -22l-54 65q29 33 50.5 48.5t41.5 20.5t43 5q34 0 62 -13t58.5 -26t70.5 -13
q18 0 37.5 6.5t38.5 13.5l28 -81q-23 -29 -53.5 -38.5t-62.5 -9.5z" />
    <glyph glyph-name="uniFE84" unicode="&#x623;" horiz-adv-x="344" arabic-form="final" 
d="M261 0q-50 0 -86 10t-59.5 31.5t-35 55.5t-11.5 82v561h161v-503q0 -22 3 -37.5t11 -25t22.5 -13.5t38.5 -4h39v-157h-83zM40 810v83h24q-3 5 -5.5 14t-2.5 20q0 42 30 67t79 25q21 0 40 -5t34 -13l-31 -74q-9 4 -17.5 6t-17.5 2q-15 0 -22.5 -6t-7.5 -15q0 -8 8 -14.5
t35 -6.5h60v-83h-206z" />
    <glyph glyph-name="uniFE86" unicode="&#x624;" horiz-adv-x="548" arabic-form="final" 
d="M138 572v100h29q-4 6 -7 16.5t-3 23.5q0 51 36 81t95 30q17 0 32.5 -3t30 -7.5t26.5 -11.5l-37 -89q-11 5 -21.5 7.5t-20.5 2.5q-18 0 -27 -7t-9 -18q0 -7 3.5 -12.5t15 -9t32.5 -3.5h72v-100h-247zM211 -230q-52 0 -107.5 17t-103.5 62l50 103q32 -9 64.5 -14t63.5 -5
q60 0 97.5 18t57.5 49h-47q-66 0 -111 12.5t-73 36t-40.5 56t-12.5 72.5q0 56 17.5 104t48 83.5t70 55.5t84.5 20q65 0 109.5 -29t72.5 -79t40 -113q2 -14 4.5 -29.5t3.5 -32.5h49v-157h-63q-12 -39 -33.5 -79t-55 -74.5t-79.5 -55.5t-106 -21zM277 157h74q-1 9 -2 17t-3 15
q-7 29 -21 50.5t-31 33t-36 11.5q-15 0 -29 -10t-23 -28.5t-9 -42.5q0 -13 7 -23.5t24.5 -16.5t48.5 -6z" />
    <glyph glyph-name="uniFE88" unicode="&#x625;" horiz-adv-x="344" arabic-form="final" 
d="M261 0q-50 0 -86 10t-59.5 31.5t-35 55.5t-11.5 82v561h161v-503q0 -22 3 -37.5t11 -25t22.5 -13.5t38.5 -4h39v-157h-83zM42 -269v83h24q-3 5 -5.5 14t-2.5 20q0 42 29.5 67t79.5 25q21 0 40 -5t34 -13l-31 -74q-9 4 -17.5 6t-17.5 2q-15 0 -22.5 -6t-7.5 -15
q0 -5 3.5 -10t12.5 -8t27 -3h60v-83h-206z" />
    <glyph glyph-name="uniFE8B" unicode="&#x626;" horiz-adv-x="364" arabic-form="initial" 
d="M31 572v100h29q-4 6 -7 16.5t-3 23.5q0 51 36 81t95 30q17 0 32.5 -3t30 -7.5t26.5 -11.5l-37 -89q-11 5 -21.5 7.5t-20.5 2.5q-18 0 -27 -7t-9 -18q0 -7 3.5 -12.5t15 -9t32.5 -3.5h72v-100h-247zM0 0v157h176q-8 35 -31 78t-58 87l144 147q30 -57 52 -125t22.5 -152.5
t-36.5 -191.5h-269zM0 157h10v-157h-10q-30 0 -30 78q0 79 30 79z" />
    <glyph glyph-name="uniFE8C" unicode="&#x626;" horiz-adv-x="410" arabic-form="medial" 
d="M117 483v100h29q-4 6 -7 16.5t-3 23.5q0 51 36 81t95 30q17 0 32.5 -3t30 -7.5t26.5 -11.5l-37 -89q-11 5 -21.5 7.5t-20.5 2.5q-18 0 -27 -7t-9 -18q0 -7 3.5 -12.5t15 -9t32.5 -3.5h72v-100h-247zM0 0v157h139q4 17 7 46t5 58.5t1 49.5l188 66q-18 -73 -35.5 -136.5
t-41 -122t-60.5 -118.5h-203zM410 0q-69 0 -116.5 13.5t-79.5 32t-55 34.5l85 99q14 -7 33 -12t42 -7.5t48 -2.5h43v-157v0zM0 157h10v-157h-10q-30 0 -30 78q0 79 30 79z" />
    <glyph glyph-name="uniFE8A" unicode="&#x626;" horiz-adv-x="818" arabic-form="final" 
d="M74 330v100h29q-4 6 -7 16.5t-3 23.5q0 51 36 81t95 30q17 0 32.5 -3t30 -7.5t26.5 -11.5l-37 -89q-11 5 -21.5 7.5t-20.5 2.5q-18 0 -27 -7t-9 -18q0 -7 3.5 -12.5t15 -9t32.5 -3.5h72v-100h-247zM360 -230q-76 0 -138.5 15t-108 47t-70 82.5t-24.5 121.5q0 41 11.5 97
t36.5 108l138 -43q-12 -35 -18.5 -65t-6.5 -59q0 -35 12 -62.5t37 -46.5t63 -28.5t90 -9.5q72 0 118 8.5t72 22.5t36 30t10 31q0 9 -6 16.5t-26 19.5t-62 32l65 136q59 -37 93.5 -62t51.5 -43t22.5 -34.5t5.5 -36.5q0 -33 -11 -71t-37 -74.5t-72 -66t-115 -47.5t-167 -18z
M814 0q-11 0 -37 5t-59 15t-67 24.5t-61 33.5l-1 145q45 -22 79.5 -35.5t60 -20t43 -8.5t28.5 -2h18v-157h-4z" />
    <glyph glyph-name="uniFE8E" unicode="&#x627;" horiz-adv-x="344" arabic-form="final" 
d="M261 0q-50 0 -86 10t-59.5 31.5t-35 55.5t-11.5 82v561h161v-503q0 -22 3 -37.5t11 -25t22.5 -13.5t38.5 -4h39v-157h-83z" />
    <glyph glyph-name="uniFE91" unicode="&#x628;" horiz-adv-x="364" arabic-form="initial" 
d="M0 0v157h176q-8 35 -31 78t-58 87l144 147q30 -57 52 -125t22.5 -152.5t-36.5 -191.5h-269zM0 157h10v-157h-10q-30 0 -30 78q0 79 30 79zM170 -269l-106 107l101 106l105 -106z" />
    <glyph glyph-name="uniFE92" unicode="&#x628;" horiz-adv-x="410" arabic-form="medial" 
d="M0 0v157h139q4 17 7 46t5 58.5t1 49.5l188 66q-18 -73 -35.5 -136.5t-41 -122t-60.5 -118.5h-203zM410 0q-69 0 -116.5 13.5t-79.5 32t-55 34.5l85 99q14 -7 33 -12t42 -7.5t48 -2.5h43v-157v0zM0 157h10v-157h-10q-30 0 -30 78q0 79 30 79zM201 -269l-106 107l101 106
l105 -106z" />
    <glyph glyph-name="uniFE90" unicode="&#x628;" horiz-adv-x="1006" arabic-form="final" 
d="M298 0q-150 0 -214.5 54.5t-64.5 153.5q0 44 16 101t57 130l118 -52q-16 -45 -23 -76.5t-7 -56.5q0 -39 17 -60t47.5 -29t70.5 -8h371l24 -157h-412zM596 0v157h139q4 17 7 46t5 58.5t1 49.5l188 66q-18 -73 -35.5 -136.5t-41 -122t-60.5 -118.5h-203zM1006 0
q-69 0 -116.5 13.5t-79.5 32t-55 34.5l85 99q14 -7 33 -12t42 -7.5t48 -2.5h43v-157v0zM596 157h10v-157h-10q-30 0 -30 78q0 79 30 79zM457 -269l-106 107l101 106l105 -106z" />
    <glyph glyph-name="uniFE94" unicode="&#x629;" horiz-adv-x="599" arabic-form="final" 
d="M267 15q-73 0 -129 21t-87.5 61t-31.5 96q0 52 27.5 94t77 76.5t117 65t146.5 59.5l24 -158q-67 -16 -111.5 -33.5t-70.5 -35t-37.5 -33t-11.5 -26.5q0 -13 17 -21.5t64 -8.5q10 0 29 1t44 4.5t53 10.5l37 -132q-40 -19 -75.5 -30t-81.5 -11zM511 0q-64 0 -102.5 17.5
t-58 45t-26 59.5t-6.5 60v352h161v-307q0 -39 20.5 -54.5t66.5 -15.5h33v-157h-88zM192 590l-105 106l99 107l105 -107zM368 590l-105 106l100 107l105 -107z" />
    <glyph glyph-name="uniFE97" unicode="&#x62a;" horiz-adv-x="364" arabic-form="initial" 
d="M0 0v157h176q-8 35 -31 78t-58 87l144 147q30 -57 52 -125t22.5 -152.5t-36.5 -191.5h-269zM0 157h10v-157h-10q-30 0 -30 78q0 79 30 79zM77 524l-105 106l99 107l105 -107zM253 524l-105 106l100 107l105 -107z" />
    <glyph glyph-name="uniFE98" unicode="&#x62a;" horiz-adv-x="410" arabic-form="medial" 
d="M0 0v157h139q4 17 7 46t5 58.5t1 49.5l188 66q-18 -73 -35.5 -136.5t-41 -122t-60.5 -118.5h-203zM410 0q-69 0 -116.5 13.5t-79.5 32t-55 34.5l85 99q14 -7 33 -12t42 -7.5t48 -2.5h43v-157v0zM0 157h10v-157h-10q-30 0 -30 78q0 79 30 79zM162 435l-105 106l99 107
l105 -107zM338 435l-105 106l100 107l105 -107z" />
    <glyph glyph-name="uniFE96" unicode="&#x62a;" horiz-adv-x="1006" arabic-form="final" 
d="M298 0q-150 0 -214.5 54.5t-64.5 153.5q0 44 16 101t57 130l118 -52q-16 -45 -23 -76.5t-7 -56.5q0 -39 17 -60t47.5 -29t70.5 -8h371l24 -157h-412zM596 0v157h139q4 17 7 46t5 58.5t1 49.5l188 66q-18 -73 -35.5 -136.5t-41 -122t-60.5 -118.5h-203zM1006 0
q-69 0 -116.5 13.5t-79.5 32t-55 34.5l85 99q14 -7 33 -12t42 -7.5t48 -2.5h43v-157v0zM596 157h10v-157h-10q-30 0 -30 78q0 79 30 79zM371 455l-105 106l99 107l105 -107zM547 455l-105 106l100 107l105 -107z" />
    <glyph glyph-name="uniFE9B" unicode="&#x62b;" horiz-adv-x="364" arabic-form="initial" 
d="M0 0v157h176q-8 35 -31 78t-58 87l144 147q30 -57 52 -125t22.5 -152.5t-36.5 -191.5h-269zM0 157h10v-157h-10q-30 0 -30 78q0 79 30 79zM163 671l-107 106l101 107l105 -107zM77 504l-105 107l99 106l105 -106zM253 504l-105 107l100 106l105 -106z" />
    <glyph glyph-name="uniFE9C" unicode="&#x62b;" horiz-adv-x="410" arabic-form="medial" 
d="M0 0v157h139q4 17 7 46t5 58.5t1 49.5l188 66q-18 -73 -35.5 -136.5t-41 -122t-60.5 -118.5h-203zM410 0q-69 0 -116.5 13.5t-79.5 32t-55 34.5l85 99q14 -7 33 -12t42 -7.5t48 -2.5h43v-157v0zM0 157h10v-157h-10q-30 0 -30 78q0 79 30 79zM248 582l-107 106l101 107
l105 -107zM162 415l-105 107l99 106l105 -106zM338 415l-105 107l100 106l105 -106z" />
    <glyph glyph-name="uniFE9A" unicode="&#x62b;" horiz-adv-x="1006" arabic-form="final" 
d="M298 0q-150 0 -214.5 54.5t-64.5 153.5q0 44 16 101t57 130l118 -52q-16 -45 -23 -76.5t-7 -56.5q0 -39 17 -60t47.5 -29t70.5 -8h371l24 -157h-412zM596 0v157h139q4 17 7 46t5 58.5t1 49.5l188 66q-18 -73 -35.5 -136.5t-41 -122t-60.5 -118.5h-203zM1006 0
q-69 0 -116.5 13.5t-79.5 32t-55 34.5l85 99q14 -7 33 -12t42 -7.5t48 -2.5h43v-157v0zM596 157h10v-157h-10q-30 0 -30 78q0 79 30 79zM457 602l-107 106l101 107l105 -107zM371 435l-105 107l99 106l105 -106zM547 435l-105 107l100 106l105 -106z" />
    <glyph glyph-name="uniFE9F" unicode="&#x62c;" horiz-adv-x="717" arabic-form="initial" 
d="M0 0v157h23q91 0 153 4t105 12.5t75 21.5t63 31q7 4 12 7t9.5 5.5t7.5 3.5q-37 19 -67 32.5t-56.5 22t-50 12.5t-47.5 4q-31 0 -57 -17t-55 -59l-103 53q34 71 73 110t81 54.5t83 15.5q54 0 99.5 -16t85.5 -40t78 -47.5t76 -39.5t81 -15l-3 -136q-26 -7 -64 -20.5
t-88 -39.5q-40 -21 -84 -41.5t-101 -37.5t-134 -27t-182 -10h-13zM0 157h10v-157h-10q-30 0 -30 78q0 79 30 79zM314 -269l-106 107l101 106l105 -106z" />
    <glyph glyph-name="uniFEA0" unicode="&#x62c;" horiz-adv-x="754" arabic-form="medial" 
d="M724 0q-67 0 -109.5 12t-71 39.5t-52.5 72.5l107 50q11 -6 24.5 -9.5t36 -5.5t57.5 -2h38v-157h-30zM0 157h10v-157h-10q-30 0 -30 78q0 79 30 79zM0 0v157h23q91 0 153 4t105 12.5t75 21.5t63 31q7 4 12 7t9.5 5.5t7.5 3.5q-37 19 -67 32.5t-56.5 22t-50 12.5t-47.5 4
q-31 0 -57 -17t-55 -59l-103 53q34 71 73 110t81 54.5t83 15.5q54 0 99.5 -16t85.5 -40t78 -47.5t76 -39.5t81 -15l-3 -136q-26 -7 -64 -20.5t-88 -39.5q-40 -21 -84 -41.5t-101 -37.5t-134 -27t-182 -10h-13zM0 157h10v-157h-10q-30 0 -30 78q0 79 30 79zM314 -269
l-106 107l101 106l105 -106z" />
    <glyph glyph-name="uniFE9E" unicode="&#x62c;" horiz-adv-x="730" arabic-form="final" 
d="M700 0q-67 0 -110 12t-71 39.5t-53 72.5l108 50q11 -6 24.5 -9.5t36 -5.5t57.5 -2h38v-157h-30zM675 -269l34 -124q-53 -20 -102 -34.5t-101.5 -21.5t-114.5 -7q-81 0 -149 19.5t-118 57t-78 91.5t-28 124q0 68 25 129t75.5 113t127.5 94.5t181 73.5q-21 10 -41.5 18
t-41 14.5t-40 10t-37.5 3.5q-30 0 -55 -10.5t-46.5 -31.5t-44.5 -52l-88 49q31 64 69.5 108.5t87.5 68.5t110 24q48 0 92.5 -14.5t85 -36t76.5 -42t66 -34t54 -11.5v-129q-97 -24 -186 -53t-158.5 -67.5t-110 -90.5t-40.5 -121q0 -45 31 -78t92.5 -51.5t151.5 -18.5
q48 0 86 4t71 10.5t64 15.5zM409 -207l-82 83l78 83l82 -83z" />
    <glyph glyph-name="uniFEA3" unicode="&#x62d;" horiz-adv-x="717" arabic-form="initial" 
d="M0 0v157h23q91 0 153 4t105 12.5t75 21.5t63 31q7 4 12 7t9.5 5.5t7.5 3.5q-37 19 -67 32.5t-56.5 22t-50 12.5t-47.5 4q-31 0 -57 -17t-55 -59l-103 53q34 71 73 110t81 54.5t83 15.5q54 0 99.5 -16t85.5 -40t78 -47.5t76 -39.5t81 -15l-3 -136q-26 -7 -64 -20.5
t-88 -39.5q-40 -21 -84 -41.5t-101 -37.5t-134 -27t-182 -10h-13zM0 157h10v-157h-10q-30 0 -30 78q0 79 30 79z" />
    <glyph glyph-name="uniFEA4" unicode="&#x62d;" horiz-adv-x="754" arabic-form="medial" 
d="M724 0q-67 0 -109.5 12t-71 39.5t-52.5 72.5l107 50q11 -6 24.5 -9.5t36 -5.5t57.5 -2h38v-157h-30zM0 157h10v-157h-10q-30 0 -30 78q0 79 30 79zM0 0v157h23q91 0 153 4t105 12.5t75 21.5t63 31q7 4 12 7t9.5 5.5t7.5 3.5q-37 19 -67 32.5t-56.5 22t-50 12.5t-47.5 4
q-31 0 -57 -17t-55 -59l-103 53q34 71 73 110t81 54.5t83 15.5q54 0 99.5 -16t85.5 -40t78 -47.5t76 -39.5t81 -15l-3 -136q-26 -7 -64 -20.5t-88 -39.5q-40 -21 -84 -41.5t-101 -37.5t-134 -27t-182 -10h-13zM0 157h10v-157h-10q-30 0 -30 78q0 79 30 79z" />
    <glyph glyph-name="uniFEA2" unicode="&#x62d;" horiz-adv-x="730" arabic-form="final" 
d="M700 0q-67 0 -110 12t-71 39.5t-53 72.5l108 50q11 -6 24.5 -9.5t36 -5.5t57.5 -2h38v-157h-30zM675 -269l34 -124q-53 -20 -102 -34.5t-101.5 -21.5t-114.5 -7q-81 0 -149 19.5t-118 57t-78 91.5t-28 124q0 68 25 129t75.5 113t127.5 94.5t181 73.5q-21 10 -41.5 18
t-41 14.5t-40 10t-37.5 3.5q-30 0 -55 -10.5t-46.5 -31.5t-44.5 -52l-88 49q31 64 69.5 108.5t87.5 68.5t110 24q48 0 92.5 -14.5t85 -36t76.5 -42t66 -34t54 -11.5v-129q-97 -24 -186 -53t-158.5 -67.5t-110 -90.5t-40.5 -121q0 -45 31 -78t92.5 -51.5t151.5 -18.5
q48 0 86 4t71 10.5t64 15.5z" />
    <glyph glyph-name="uniFEA7" unicode="&#x62e;" horiz-adv-x="717" arabic-form="initial" 
d="M0 0v157h23q91 0 153 4t105 12.5t75 21.5t63 31q7 4 12 7t9.5 5.5t7.5 3.5q-37 19 -67 32.5t-56.5 22t-50 12.5t-47.5 4q-31 0 -57 -17t-55 -59l-103 53q34 71 73 110t81 54.5t83 15.5q54 0 99.5 -16t85.5 -40t78 -47.5t76 -39.5t81 -15l-3 -136q-26 -7 -64 -20.5
t-88 -39.5q-40 -21 -84 -41.5t-101 -37.5t-134 -27t-182 -10h-13zM0 157h10v-157h-10q-30 0 -30 78q0 79 30 79zM252 554l-106 106l101 107l105 -107z" />
    <glyph glyph-name="uniFEA8" unicode="&#x62e;" horiz-adv-x="754" arabic-form="medial" 
d="M724 0q-67 0 -109.5 12t-71 39.5t-52.5 72.5l107 50q11 -6 24.5 -9.5t36 -5.5t57.5 -2h38v-157h-30zM0 157h10v-157h-10q-30 0 -30 78q0 79 30 79zM0 0v157h23q91 0 153 4t105 12.5t75 21.5t63 31q7 4 12 7t9.5 5.5t7.5 3.5q-37 19 -67 32.5t-56.5 22t-50 12.5t-47.5 4
q-31 0 -57 -17t-55 -59l-103 53q34 71 73 110t81 54.5t83 15.5q54 0 99.5 -16t85.5 -40t78 -47.5t76 -39.5t81 -15l-3 -136q-26 -7 -64 -20.5t-88 -39.5q-40 -21 -84 -41.5t-101 -37.5t-134 -27t-182 -10h-13zM0 157h10v-157h-10q-30 0 -30 78q0 79 30 79zM252 554l-106 106
l101 107l105 -107z" />
    <glyph glyph-name="uniFEA6" unicode="&#x62e;" horiz-adv-x="730" arabic-form="final" 
d="M700 0q-67 0 -110 12t-71 39.5t-53 72.5l108 50q11 -6 24.5 -9.5t36 -5.5t57.5 -2h38v-157h-30zM675 -269l34 -124q-53 -20 -102 -34.5t-101.5 -21.5t-114.5 -7q-81 0 -149 19.5t-118 57t-78 91.5t-28 124q0 68 25 129t75.5 113t127.5 94.5t181 73.5q-21 10 -41.5 18
t-41 14.5t-40 10t-37.5 3.5q-30 0 -55 -10.5t-46.5 -31.5t-44.5 -52l-88 49q31 64 69.5 108.5t87.5 68.5t110 24q48 0 92.5 -14.5t85 -36t76.5 -42t66 -34t54 -11.5v-129q-97 -24 -186 -53t-158.5 -67.5t-110 -90.5t-40.5 -121q0 -45 31 -78t92.5 -51.5t151.5 -18.5
q48 0 86 4t71 10.5t64 15.5zM303 532l-106 106l101 107l105 -107z" />
    <glyph glyph-name="uniFEAA" unicode="&#x62f;" horiz-adv-x="570" arabic-form="final" 
d="M57 0l-28 157h287q45 0 63.5 9t24.5 20l42 -134q-3 -19 -25.5 -30.5t-51.5 -16.5t-53 -5h-259zM180 358l123 159l176 -317q11 -19 22 -28t25 -12t34 -3h10v-157h-10q-33 0 -61 3.5t-53.5 15t-50.5 34.5t-51 63z" />
    <glyph glyph-name="uniFEAC" unicode="&#x630;" horiz-adv-x="570" arabic-form="final" 
d="M57 0l-28 157h287q45 0 63.5 9t24.5 20l42 -134q-3 -19 -25.5 -30.5t-51.5 -16.5t-53 -5h-259zM180 358l123 159l176 -317q11 -19 22 -28t25 -12t34 -3h10v-157h-10q-33 0 -61 3.5t-53.5 15t-50.5 34.5t-51 63zM271 552l-106 106l101 107l105 -107z" />
    <glyph glyph-name="uniFEAE" unicode="&#x631;" horiz-adv-x="492" arabic-form="final" 
d="M107 -256q-45 0 -99.5 20t-98.5 57l50 101q40 -12 67 -16.5t51 -4.5q54 0 95.5 20.5t65 55.5t23.5 76q0 34 -10.5 57.5t-27 45t-35.5 49.5l215 -104v-24v-24q0 -30 -9.5 -70t-30.5 -81.5t-55.5 -77.5t-84 -58t-116.5 -22zM482 0q-36 0 -67.5 6.5t-59 20.5t-52 36
t-48.5 53l-130 167l128 157l126 -220q14 -24 26 -38t29.5 -19.5t47.5 -5.5h10v-157h-10z" />
    <glyph glyph-name="uniFEB0" unicode="&#x632;" horiz-adv-x="492" arabic-form="final" 
d="M107 -256q-45 0 -99.5 20t-98.5 57l50 101q40 -12 67 -16.5t51 -4.5q54 0 95.5 20.5t65 55.5t23.5 76q0 34 -10.5 57.5t-27 45t-35.5 49.5l215 -104v-24v-24q0 -30 -9.5 -70t-30.5 -81.5t-55.5 -77.5t-84 -58t-116.5 -22zM482 0q-36 0 -67.5 6.5t-59 20.5t-52 36
t-48.5 53l-130 167l128 157l126 -220q14 -24 26 -38t29.5 -19.5t47.5 -5.5h10v-157h-10zM196 489l-106 106l101 107l105 -107z" />
    <glyph glyph-name="uniFEB3" unicode="&#x633;" horiz-adv-x="945" arabic-form="initial" 
d="M674 0q-69 0 -116.5 13.5t-79.5 32t-55 34.5l89 96q18 -8 49.5 -13.5t69.5 -5.5h123q-12 45 -34.5 87.5t-51.5 79.5l144 146q23 -42 42 -90.5t27.5 -105t1.5 -124.5t-36 -150h-173zM0 0v157h96q3 21 4.5 43t1.5 47t-3 54l189 65q-14 -70 -27 -119t-28.5 -87t-37 -75
t-53.5 -85h-142zM310 0q-75 0 -127 13.5t-82.5 31t-42.5 28.5l59 117q25 -16 62 -24.5t81 -8.5h121q3 15 4.5 37.5t1.5 50t-3 56.5l191 65q-15 -70 -28 -119t-29 -87t-37.5 -75t-52.5 -85h-118zM0 157h10v-157h-10q-30 0 -30 78q0 79 30 79z" />
    <glyph glyph-name="uniFEB4" unicode="&#x633;" horiz-adv-x="960" arabic-form="medial" 
d="M667 0q-69 0 -116.5 13.5t-79.5 32t-55 34.5l84 99q46 -22 123 -22h126q-10 19 -20 39.5t-22.5 45.5t-30.5 56l186 125q8 -60 12.5 -127.5t-3 -141t-34.5 -154.5h-170zM0 0v157h96q3 21 5 43t1.5 47t-3.5 54l190 65q-14 -70 -27 -119t-29 -87t-37.5 -75t-53.5 -85h-142z
M310 0q-75 0 -127 13.5t-82.5 31t-42.5 27.5l59 117q25 -15 61.5 -23.5t80.5 -8.5h122q3 15 5 37.5t2 50t-3 56.5l191 65q-15 -70 -28.5 -119t-29 -87t-37.5 -75t-53 -85h-118zM955 0q-53 0 -94.5 9t-72.5 23.5t-54 28.5l61 119q12 -6 26 -10t29 -7t32 -4.5t35 -1.5h43v-157
h-5zM0 157h10v-157h-10q-30 0 -30 78q0 79 30 79z" />
    <glyph glyph-name="uniFEB2" unicode="&#x633;" horiz-adv-x="1351" arabic-form="final" 
d="M1057 0q-69 0 -116.5 13.5t-79.5 32t-55 34.5l85 99q44 -22 123 -22h126q-7 14 -17.5 34.5t-24.5 47.5t-32 59l186 125q9 -44 13 -112.5t-3.5 -149t-34.5 -161.5h-170zM660 0v157h109q4 21 5.5 43t1.5 47t-3 54l190 65q-14 -70 -27 -119t-29 -87t-37.5 -75t-53.5 -85
h-156zM1343 0q-51 0 -92 9t-72 23.5t-54 28.5l61 119q12 -6 26 -10t29 -7t32 -4.5t35 -1.5h43v-157h-8zM331 -256q-88 0 -148 23t-96 61.5t-52 84.5t-16 91q0 47 12 107.5t38 122.5l133 -42q-16 -50 -22.5 -85t-6.5 -61q0 -48 22 -80.5t63 -48.5t97 -16q28 0 58 7t55.5 21.5
t41.5 35t16 47.5q0 19 -5.5 46t-19.5 66.5t-41 94.5l125 152q40 -71 57.5 -130.5t22.5 -104.5t5 -73q0 -99 -41 -170.5t-116.5 -110t-181.5 -38.5z" />
    <glyph glyph-name="uniFEB7" unicode="&#x634;" horiz-adv-x="945" arabic-form="initial" 
d="M674 0q-69 0 -116.5 13.5t-79.5 32t-55 34.5l89 96q18 -8 49.5 -13.5t69.5 -5.5h123q-12 45 -34.5 87.5t-51.5 79.5l144 146q23 -42 42 -90.5t27.5 -105t1.5 -124.5t-36 -150h-173zM0 0v157h96q3 21 4.5 43t1.5 47t-3 54l189 65q-14 -70 -27 -119t-28.5 -87t-37 -75
t-53.5 -85h-142zM310 0q-75 0 -127 13.5t-82.5 31t-42.5 28.5l59 117q25 -16 62 -24.5t81 -8.5h121q3 15 4.5 37.5t1.5 50t-3 56.5l191 65q-15 -70 -28 -119t-29 -87t-37.5 -75t-52.5 -85h-118zM0 157h10v-157h-10q-30 0 -30 78q0 79 30 79zM490 565l-107 106l101 107
l105 -107zM404 398l-105 107l99 106l105 -106zM580 398l-105 107l100 106l105 -106z" />
    <glyph glyph-name="uniFEB8" unicode="&#x634;" horiz-adv-x="960" arabic-form="medial" 
d="M667 0q-69 0 -116.5 13.5t-79.5 32t-55 34.5l84 99q46 -22 123 -22h126q-10 19 -20 39.5t-22.5 45.5t-30.5 56l186 125q8 -60 12.5 -127.5t-3 -141t-34.5 -154.5h-170zM0 0v157h96q3 21 5 43t1.5 47t-3.5 54l190 65q-14 -70 -27 -119t-29 -87t-37.5 -75t-53.5 -85h-142z
M310 0q-75 0 -127 13.5t-82.5 31t-42.5 27.5l59 117q25 -15 61.5 -23.5t80.5 -8.5h122q3 15 5 37.5t2 50t-3 56.5l191 65q-15 -70 -28.5 -119t-29 -87t-37.5 -75t-53 -85h-118zM955 0q-53 0 -94.5 9t-72.5 23.5t-54 28.5l61 119q12 -6 26 -10t29 -7t32 -4.5t35 -1.5h43v-157
h-5zM0 157h10v-157h-10q-30 0 -30 78q0 79 30 79zM492 565l-107 106l101 107l105 -107zM406 398l-105 107l99 106l105 -106zM582 398l-105 107l100 106l105 -106z" />
    <glyph glyph-name="uniFEB6" unicode="&#x634;" horiz-adv-x="1351" arabic-form="final" 
d="M1057 0q-69 0 -116.5 13.5t-79.5 32t-55 34.5l85 99q44 -22 123 -22h126q-7 14 -17.5 34.5t-24.5 47.5t-32 59l186 125q9 -44 13 -112.5t-3.5 -149t-34.5 -161.5h-170zM660 0v157h109q4 21 5.5 43t1.5 47t-3 54l190 65q-14 -70 -27 -119t-29 -87t-37.5 -75t-53.5 -85
h-156zM1343 0q-51 0 -92 9t-72 23.5t-54 28.5l61 119q12 -6 26 -10t29 -7t32 -4.5t35 -1.5h43v-157h-8zM331 -256q-88 0 -148 23t-96 61.5t-52 84.5t-16 91q0 47 12 107.5t38 122.5l133 -42q-16 -50 -22.5 -85t-6.5 -61q0 -48 22 -80.5t63 -48.5t97 -16q28 0 58 7t55.5 21.5
t41.5 35t16 47.5q0 19 -5.5 46t-19.5 66.5t-41 94.5l125 152q40 -71 57.5 -130.5t22.5 -104.5t5 -73q0 -99 -41 -170.5t-116.5 -110t-181.5 -38.5zM868 565l-107 106l101 107l105 -107zM782 398l-105 107l99 106l105 -106zM958 398l-105 107l100 106l105 -106z" />
    <glyph glyph-name="uniFEBB" unicode="&#x635;" horiz-adv-x="1093" arabic-form="initial" 
d="M398 0v157h470q2 43 -8 78.5t-36 57t-72 21.5q-58 0 -116 -37.5t-113 -105.5t-106 -160l-92 143q72 105 143.5 175t144.5 105.5t148 35.5q96 0 156.5 -39.5t89 -106.5t27.5 -151t-29 -173h-607zM0 0v157h139q4 17 7 46t5 58.5t1 49.5l188 66q-18 -73 -35.5 -136.5
t-41 -122t-60.5 -118.5h-203zM410 0q-69 0 -116.5 13.5t-79.5 32t-55 34.5l85 99q14 -7 33 -12t42 -7.5t48 -2.5h43v-157v0zM0 157h10v-157h-10q-30 0 -30 78q0 79 30 79z" />
    <glyph glyph-name="uniFEBC" unicode="&#x635;" horiz-adv-x="1125" arabic-form="medial" 
d="M973 204q31 -29 69.5 -38t82.5 -9v-157q-58 0 -112.5 24t-88.5 80zM398 0v157h470q2 43 -8 78.5t-36 57t-72 21.5q-58 0 -116 -37.5t-113 -105.5t-106 -160l-92 143q72 105 143.5 175t144.5 105.5t148 35.5q96 0 156.5 -39.5t89 -106.5t27.5 -151t-29 -173h-607zM0 0v157
h139q4 17 7 46t5 58.5t1 49.5l188 66q-18 -73 -35.5 -136.5t-41 -122t-60.5 -118.5h-203zM410 0q-69 0 -116.5 13.5t-79.5 32t-55 34.5l85 99q14 -7 33 -12t42 -7.5t48 -2.5h43v-157v0zM0 157h10v-157h-10q-30 0 -30 78q0 79 30 79z" />
    <glyph glyph-name="uniFEBA" unicode="&#x635;" horiz-adv-x="1514" arabic-form="final" 
d="M1362 204q31 -29 69.5 -38t82.5 -9v-157q-58 0 -112.5 24t-88.5 80zM759 0v157h498q2 43 -8 78.5t-36 57t-72 21.5q-58 0 -116 -37.5t-113 -105.5t-106 -160l-92 143q72 105 143.5 175t144.5 105.5t148 35.5q96 0 156.5 -39.5t89 -106.5t27.5 -151t-29 -173h-635z
M331 -256q-88 0 -148 23.5t-96 63t-52 88t-16 99.5q0 40 12.5 92.5t34.5 111.5l133 -42q-13 -41 -19.5 -74.5t-6.5 -59.5q0 -36 12.5 -63.5t36 -45.5t57.5 -27t76 -9q28 0 58 7.5t55.5 23.5t41.5 40.5t16 58.5q0 21 -2.5 47t-22.5 63l105 68q10 -11 25 -35t27 -53.5
t12 -57.5q0 -99 -41 -170.5t-116.5 -110t-181.5 -38.5zM749 0q-46 0 -85.5 14t-71 35t-53.5 44.5t-33 41.5l-58 94l126 152l66 -147q14 -31 24 -47.5t27 -23t48 -6.5h20v-157h-10z" />
    <glyph glyph-name="uniFEBF" unicode="&#x636;" horiz-adv-x="1093" arabic-form="initial" 
d="M398 0v157h470q2 43 -8 78.5t-36 57t-72 21.5q-58 0 -116 -37.5t-113 -105.5t-106 -160l-92 143q72 105 143.5 175t144.5 105.5t148 35.5q96 0 156.5 -39.5t89 -106.5t27.5 -151t-29 -173h-607zM0 0v157h139q4 17 7 46t5 58.5t1 49.5l188 66q-18 -73 -35.5 -136.5
t-41 -122t-60.5 -118.5h-203zM410 0q-69 0 -116.5 13.5t-79.5 32t-55 34.5l85 99q14 -7 33 -12t42 -7.5t48 -2.5h43v-157v0zM0 157h10v-157h-10q-30 0 -30 78q0 79 30 79zM734 554l-106 106l101 107l105 -107z" />
    <glyph glyph-name="uniFEC0" unicode="&#x636;" horiz-adv-x="1125" arabic-form="medial" 
d="M973 204q31 -29 69.5 -38t82.5 -9v-157q-58 0 -112.5 24t-88.5 80zM398 0v157h470q2 43 -8 78.5t-36 57t-72 21.5q-58 0 -116 -37.5t-113 -105.5t-106 -160l-92 143q72 105 143.5 175t144.5 105.5t148 35.5q96 0 156.5 -39.5t89 -106.5t27.5 -151t-29 -173h-607zM0 0v157
h139q4 17 7 46t5 58.5t1 49.5l188 66q-18 -73 -35.5 -136.5t-41 -122t-60.5 -118.5h-203zM410 0q-69 0 -116.5 13.5t-79.5 32t-55 34.5l85 99q14 -7 33 -12t42 -7.5t48 -2.5h43v-157v0zM0 157h10v-157h-10q-30 0 -30 78q0 79 30 79zM734 554l-106 106l101 107l105 -107z" />
    <glyph glyph-name="uniFEBE" unicode="&#x636;" horiz-adv-x="1514" arabic-form="final" 
d="M1362 204q31 -29 69.5 -38t82.5 -9v-157q-58 0 -112.5 24t-88.5 80zM759 0v157h498q2 43 -8 78.5t-36 57t-72 21.5q-58 0 -116 -37.5t-113 -105.5t-106 -160l-92 143q72 105 143.5 175t144.5 105.5t148 35.5q96 0 156.5 -39.5t89 -106.5t27.5 -151t-29 -173h-635z
M331 -256q-88 0 -148 23.5t-96 63t-52 88t-16 99.5q0 40 12.5 92.5t34.5 111.5l133 -42q-13 -41 -19.5 -74.5t-6.5 -59.5q0 -36 12.5 -63.5t36 -45.5t57.5 -27t76 -9q28 0 58 7.5t55.5 23.5t41.5 40.5t16 58.5q0 21 -2.5 47t-22.5 63l105 68q10 -11 25 -35t27 -53.5
t12 -57.5q0 -99 -41 -170.5t-116.5 -110t-181.5 -38.5zM749 0q-46 0 -85.5 14t-71 35t-53.5 44.5t-33 41.5l-58 94l126 152l66 -147q14 -31 24 -47.5t27 -23t48 -6.5h20v-157h-10zM1123 554l-106 106l101 107l105 -107z" />
    <glyph glyph-name="uniFEC3" unicode="&#x637;" horiz-adv-x="852" arabic-form="initial" 
d="M0 0v157h627q3 43 -8 78.5t-39 57t-80 21.5t-113 -31t-115 -97.5t-87 -174.5l-40 143q42 105 101 175t129 105.5t145 35.5q96 0 157 -39.5t89 -106.5t27 -151t-29 -173h-764zM92 0v740h161v-740h-161zM0 157h10v-157h-10q-30 0 -30 78q0 79 30 79z" />
    <glyph glyph-name="uniFEC4" unicode="&#x637;" horiz-adv-x="884" arabic-form="medial" 
d="M732 204q31 -29 69.5 -38t82.5 -9v-157q-58 0 -112.5 24t-88.5 80zM0 0v157h627q3 43 -8 78.5t-39 57t-80 21.5t-113 -31t-115 -97.5t-87 -174.5l-40 143q42 105 101 175t129 105.5t145 35.5q96 0 157 -39.5t89 -106.5t27 -151t-29 -173h-764zM92 0v740h161v-740h-161z
M0 157h10v-157h-10q-30 0 -30 78q0 79 30 79z" />
    <glyph glyph-name="uniFEC2" unicode="&#x637;" horiz-adv-x="895" arabic-form="final" 
d="M743 204q31 -29 69.5 -38t82.5 -9v-157q-58 0 -112.5 24t-88.5 80zM19 0v157h618q3 43 -8 78.5t-39 57t-80 21.5t-113 -31t-115 -97.5t-87 -174.5l-40 143q42 105 101 175t129 105.5t145 35.5q96 0 157 -39.5t89.5 -106.5t27 -151t-28.5 -173h-756zM102 0v740h161v-740
h-161z" />
    <glyph glyph-name="uniFEC7" unicode="&#x638;" horiz-adv-x="852" arabic-form="initial" 
d="M0 0v157h627q3 43 -8 78.5t-39 57t-80 21.5t-113 -31t-115 -97.5t-87 -174.5l-40 143q42 105 101 175t129 105.5t145 35.5q96 0 157 -39.5t89 -106.5t27 -151t-29 -173h-764zM92 0v740h161v-740h-161zM0 157h10v-157h-10q-30 0 -30 78q0 79 30 79zM495 554l-106 106
l101 107l105 -107z" />
    <glyph glyph-name="uniFEC8" unicode="&#x638;" horiz-adv-x="884" arabic-form="medial" 
d="M732 204q31 -29 69.5 -38t82.5 -9v-157q-58 0 -112.5 24t-88.5 80zM0 0v157h627q3 43 -8 78.5t-39 57t-80 21.5t-113 -31t-115 -97.5t-87 -174.5l-40 143q42 105 101 175t129 105.5t145 35.5q96 0 157 -39.5t89 -106.5t27 -151t-29 -173h-764zM92 0v740h161v-740h-161z
M0 157h10v-157h-10q-30 0 -30 78q0 79 30 79zM495 554l-106 106l101 107l105 -107z" />
    <glyph glyph-name="uniFEC6" unicode="&#x638;" horiz-adv-x="895" arabic-form="final" 
d="M743 204q31 -29 69.5 -38t82.5 -9v-157q-58 0 -112.5 24t-88.5 80zM19 0v157h618q3 43 -8 78.5t-39 57t-80 21.5t-113 -31t-115 -97.5t-87 -174.5l-40 143q42 105 101 175t129 105.5t145 35.5q96 0 157 -39.5t89.5 -106.5t27 -151t-28.5 -173h-756zM102 0v740h161v-740
h-161zM505 554l-106 106l101 107l105 -107z" />
    <glyph glyph-name="uniFECB" unicode="&#x639;" horiz-adv-x="557" arabic-form="initial" 
d="M0 0v157h100q-7 14 -14 39t-7 58q0 68 31.5 116.5t88.5 74t134 25.5q47 0 92 -10.5t80 -28.5l-64 -139q-28 11 -54.5 16.5t-53.5 5.5q-49 0 -71 -23t-22 -56q0 -20 12.5 -38t40.5 -29t74 -11h141v-157h-508zM0 157h10v-157h-10q-30 0 -30 78q0 79 30 79z" />
    <glyph glyph-name="uniFECC" unicode="&#x639;" horiz-adv-x="628" arabic-form="medial" 
d="M603 0q-56 0 -101 0.5t-83.5 5.5t-73.5 16.5t-70.5 33.5t-75.5 58l-120 109v195q34 15 79.5 26.5t92.5 18.5t84 7q65 0 118 -17t84.5 -52t31.5 -90q0 -29 -8 -56.5t-21.5 -53t-30.5 -47.5q6 2 12 2.5t11 0.5h96v-157h-25zM0 0v157h128q30 0 49.5 1.5t39 5t49.5 8.5
l74 -140q-51 -15 -116.5 -23.5t-133.5 -8.5h-90zM335 164q21 18 37.5 36t26 36t9.5 34q0 9 -7 19.5t-23 17.5t-43 7q-25 0 -62 -3.5t-66 -11.5l92 -97q11 -10 19.5 -20t16.5 -18zM0 157h10v-157h-10q-30 0 -30 78q0 79 30 79z" />
    <glyph glyph-name="uniFECA" unicode="&#x639;" horiz-adv-x="647" arabic-form="final" 
d="M362 -456q-98 0 -178 31.5t-127.5 91.5t-47.5 147q0 52 15 95.5t47.5 81t83 71t120.5 65.5l113 -81q-69 -36 -118 -70.5t-74.5 -70.5t-25.5 -80q0 -36 25.5 -64t74.5 -44t119 -16q74 0 127.5 8.5t96.5 18.5l38 -130q-63 -26 -115 -37.5t-95 -14t-79 -2.5zM353 170
q21 16 37.5 32.5t26.5 34t10 33.5q0 9 -7 19.5t-22.5 17.5t-42.5 7q-26 0 -63 -3.5t-66 -11.5l93 -97q11 -10 19 -17t15 -15zM626 0q-70 0 -123 1.5t-97 11t-87.5 33t-94.5 68.5l-126 109v195q34 15 79.5 26.5t92.5 18.5t85 7q65 0 118 -17t84 -52t31 -90q0 -29 -9.5 -57
t-27.5 -53.5t-46 -46.5q22 2 29.5 2.5t11.5 0.5h101v-157h-21z" />
    <glyph glyph-name="uniFECF" unicode="&#x63a;" horiz-adv-x="557" arabic-form="initial" 
d="M0 0v157h100q-7 14 -14 39t-7 58q0 68 31.5 116.5t88.5 74t134 25.5q47 0 92 -10.5t80 -28.5l-64 -139q-28 11 -54.5 16.5t-53.5 5.5q-49 0 -71 -23t-22 -56q0 -20 12.5 -38t40.5 -29t74 -11h141v-157h-508zM0 157h10v-157h-10q-30 0 -30 78q0 79 30 79zM336 554
l-106 106l101 107l105 -107z" />
    <glyph glyph-name="uniFED0" unicode="&#x63a;" horiz-adv-x="628" arabic-form="medial" 
d="M603 0q-56 0 -101 0.5t-83.5 5.5t-73.5 16.5t-70.5 33.5t-75.5 58l-120 109v195q34 15 79.5 26.5t92.5 18.5t84 7q65 0 118 -17t84.5 -52t31.5 -90q0 -29 -8 -56.5t-21.5 -53t-30.5 -47.5q6 2 12 2.5t11 0.5h96v-157h-25zM0 0v157h128q30 0 49.5 1.5t39 5t49.5 8.5
l74 -140q-51 -15 -116.5 -23.5t-133.5 -8.5h-90zM335 164q21 18 37.5 36t26 36t9.5 34q0 9 -7 19.5t-23 17.5t-43 7q-25 0 -62 -3.5t-66 -11.5l92 -97q11 -10 19.5 -20t16.5 -18zM0 157h10v-157h-10q-30 0 -30 78q0 79 30 79zM338 554l-106 106l101 107l105 -107z" />
    <glyph glyph-name="uniFECE" unicode="&#x63a;" horiz-adv-x="647" arabic-form="final" 
d="M362 -456q-98 0 -178 31.5t-127.5 91.5t-47.5 147q0 52 15 95.5t47.5 81t83 71t120.5 65.5l113 -81q-69 -36 -118 -70.5t-74.5 -70.5t-25.5 -80q0 -36 25.5 -64t74.5 -44t119 -16q74 0 127.5 8.5t96.5 18.5l38 -130q-63 -26 -115 -37.5t-95 -14t-79 -2.5zM353 170
q21 16 37.5 32.5t26.5 34t10 33.5q0 9 -7 19.5t-22.5 17.5t-42.5 7q-26 0 -63 -3.5t-66 -11.5l93 -97q11 -10 19 -17t15 -15zM626 0q-70 0 -123 1.5t-97 11t-87.5 33t-94.5 68.5l-126 109v195q34 15 79.5 26.5t92.5 18.5t85 7q65 0 118 -17t84 -52t31 -90q0 -29 -9.5 -57
t-27.5 -53.5t-46 -46.5q22 2 29.5 2.5t11.5 0.5h101v-157h-21zM358 554l-106 106l101 107l105 -107z" />
    <glyph glyph-name="uniFED3" unicode="&#x641;" horiz-adv-x="603" arabic-form="initial" 
d="M0 0v157h386q1 14 1.5 25t1 31.5t0.5 60.5q0 17 -4.5 45t-14.5 56t-28.5 47t-47.5 19q-20 0 -35 -11t-22.5 -27t-7.5 -33q0 -15 9 -23.5t25.5 -12.5t40.5 -4q27 0 49.5 2t41.5 4l92 -81q-43 -28 -98.5 -41.5t-116.5 -13.5q-46 0 -83.5 8.5t-64.5 26t-41.5 46t-14.5 67.5
q0 52 19 97t52 79.5t75.5 54t88.5 19.5q68 0 122.5 -34t86.5 -105.5t32 -184.5q0 -34 -4.5 -83t-12 -99.5t-17.5 -91.5h-510zM0 157h10v-157h-10q-30 0 -30 78q0 79 30 79zM306 682l-106 106l101 107l105 -107z" />
    <glyph glyph-name="uniFED4" unicode="&#x641;" horiz-adv-x="612" arabic-form="medial" 
d="M0 0v157h144q-3 -1 -7.5 -3t-10 -3.5t-10.5 -2.5q-22 29 -30 59t-8 61q0 41 15 79t45 69t74.5 49t102.5 18q59 0 103.5 -18t74.5 -49t45.5 -69t15.5 -79q0 -32 -8.5 -61.5t-30.5 -58.5q-9 2 -10 4t-10 5h117v-157h-25q-71 0 -118 1.5t-80.5 6.5t-65.5 17q-15 -5 -29 -9.5
t-33.5 -8t-51 -5.5t-82.5 -2h-127zM315 149q24 11 40 27t24 36t8 42q0 20 -8.5 36t-24.5 26t-39 10q-22 0 -38 -10t-24.5 -26.5t-8.5 -35.5q0 -22 8 -41.5t24 -35.5t39 -28zM0 157h10v-157h-10q-30 0 -30 78q0 79 30 79zM318 567l-106 106l101 107l105 -107z" />
    <glyph glyph-name="uniFED2" unicode="&#x641;" horiz-adv-x="1145" arabic-form="final" 
d="M298 0q-100 0 -161.5 24.5t-89.5 71t-28 112.5q0 44 16 101t57 130l118 -52q-16 -45 -23 -76.5t-7 -56.5q0 -39 17 -60t47.5 -29t70.5 -8h369l-114 -157h-272zM533 0v157h144q-3 -1 -7.5 -3t-10 -3.5t-10.5 -2.5q-22 29 -30 59t-8 61q0 41 15 79t45 69t74.5 49t102.5 18
q59 0 103.5 -18t74.5 -49t45.5 -69t15.5 -79q0 -32 -8.5 -61.5t-30.5 -58.5q-9 2 -10 4t-10 5h117v-157h-25q-71 0 -117.5 1.5t-80.5 6.5t-66 17q-15 -5 -29 -9.5t-33.5 -8t-51 -5.5t-82.5 -2h-127zM848 149q24 11 40 27t24 36t8 42q0 20 -8.5 36t-24.5 26t-39 10
q-22 0 -38 -10t-24.5 -26.5t-8.5 -35.5q0 -22 8 -41.5t24 -35.5t39 -28zM533 157h10v-157h-10q-30 0 -30 78q0 79 30 79zM852 567l-106 106l101 107l105 -107z" />
    <glyph glyph-name="uniFED7" unicode="&#x642;" horiz-adv-x="603" arabic-form="initial" 
d="M0 0v157h386q1 14 1.5 25t1 31.5t0.5 60.5q0 17 -4.5 45t-14.5 56t-28.5 47t-47.5 19q-20 0 -35 -11t-22.5 -27t-7.5 -33q0 -15 9 -23.5t25.5 -12.5t40.5 -4q27 0 49.5 2t41.5 4l92 -81q-43 -28 -98.5 -41.5t-116.5 -13.5q-46 0 -83.5 8.5t-64.5 26t-41.5 46t-14.5 67.5
q0 52 19 97t52 79.5t75.5 54t88.5 19.5q68 0 122.5 -34t86.5 -105.5t32 -184.5q0 -34 -4.5 -83t-12 -99.5t-17.5 -91.5h-510zM0 157h10v-157h-10q-30 0 -30 78q0 79 30 79zM218 682l-105 106l99 107l105 -107zM394 682l-105 106l100 107l105 -107z" />
    <glyph glyph-name="uniFED8" unicode="&#x642;" horiz-adv-x="612" arabic-form="medial" 
d="M0 0v157h144q-3 -1 -7.5 -3t-10 -3.5t-10.5 -2.5q-22 29 -30 59t-8 61q0 41 15 79t45 69t74.5 49t102.5 18q59 0 103.5 -18t74.5 -49t45.5 -69t15.5 -79q0 -32 -8.5 -61.5t-30.5 -58.5q-9 2 -10 4t-10 5h117v-157h-25q-71 0 -118 1.5t-80.5 6.5t-65.5 17q-15 -5 -29 -9.5
t-33.5 -8t-51 -5.5t-82.5 -2h-127zM315 149q24 11 40 27t24 36t8 42q0 20 -8.5 36t-24.5 26t-39 10q-22 0 -38 -10t-24.5 -26.5t-8.5 -35.5q0 -22 8 -41.5t24 -35.5t39 -28zM0 157h10v-157h-10q-30 0 -30 78q0 79 30 79zM230 567l-105 106l99 107l105 -107zM406 567
l-105 106l100 107l105 -107z" />
    <glyph glyph-name="uniFED6" unicode="&#x642;" horiz-adv-x="819" arabic-form="final" 
d="M360 -230q-82 0 -145.5 16.5t-107 49.5t-66 83t-22.5 117q0 37 10.5 89t35.5 119l141 -45q-18 -54 -22 -82t-4 -52q0 -45 21 -75.5t65.5 -46.5t115.5 -16q47 0 89.5 6t76 22t52.5 45h-48q-66 0 -111 12.5t-73 36t-40.5 56t-12.5 72.5q0 56 17.5 104t48 83.5t70 55.5
t84.5 20q66 0 112 -31t74 -86.5t39 -129.5q2 -9 3 -18l2 -18h54v-157h-68q-17 -68 -63.5 -120t-127 -81t-200.5 -29zM543 157h74q-1 9 -2.5 18t-4.5 17q-7 28 -20.5 48.5t-30.5 32t-35 11.5q-15 0 -29 -10t-23 -28.5t-9 -42.5q0 -20 17 -33t63 -13zM450 524l-105 106l99 107
l105 -107zM626 524l-105 106l100 107l105 -107z" />
    <glyph glyph-name="uniFEDB" unicode="&#x643;" horiz-adv-x="495" arabic-form="initial" 
d="M64 537l280 233l106 -126l-274 -227l25 59q114 -32 176.5 -99t80 -162.5t-4.5 -214.5h-453v157h315q-12 46 -44 87t-83.5 70.5t-123.5 40.5v182zM0 157h10v-157h-10q-30 0 -30 78q0 79 30 79z" />
    <glyph glyph-name="uniFEDC" unicode="&#x643;" horiz-adv-x="573" arabic-form="medial" 
d="M421 204q31 -29 69.5 -38t82.5 -9v-157q-58 0 -112.5 24t-88.5 80zM64 537l280 233l106 -126l-274 -227l25 59q114 -32 176.5 -99t80 -162.5t-4.5 -214.5h-453v157h315q-12 46 -44 87t-83.5 70.5t-123.5 40.5v182zM0 157h10v-157h-10q-30 0 -30 78q0 79 30 79z" />
    <glyph glyph-name="uniFEDA" unicode="&#x643;" horiz-adv-x="982" arabic-form="final" 
d="M862 157h120v-157h-120v157zM298 0q-150 0 -214.5 54.5t-64.5 153.5q0 44 16 101t57 130l118 -52q-16 -45 -23 -76.5t-7 -56.5q0 -39 17 -60t47.5 -29t70.5 -8h519v-157h-536zM731 0v740h161v-740h-161zM345 301v100h29q-4 6 -7 16.5t-3 23.5q0 51 36 81t95 30
q17 0 32.5 -3t30 -7.5t26.5 -11.5l-37 -89q-11 5 -21.5 7.5t-20.5 2.5q-18 0 -27 -7t-9 -18q0 -7 3.5 -12.5t15 -9t32.5 -3.5h72v-100h-247z" />
    <glyph glyph-name="uniFEDF" unicode="&#x644;" horiz-adv-x="327" arabic-form="initial" 
d="M0 0v157h97v583h161v-740h-258zM0 157h10v-157h-10q-30 0 -30 78q0 79 30 79z" />
    <glyph glyph-name="uniFEE0" unicode="&#x644;" horiz-adv-x="348" arabic-form="medial" 
d="M228 157h120v-157h-120v157zM0 0v157h97v583h161v-740h-258zM0 157h10v-157h-10q-30 0 -30 78q0 79 30 79z" />
    <glyph glyph-name="uniFEDE" unicode="&#x644;" horiz-adv-x="777" arabic-form="final" 
d="M657 157h120v-157h-120v157zM331 -230q-88 0 -148 23t-96 61.5t-52 84.5t-16 91q0 47 11.5 101t35.5 117l133 -42q-13 -41 -19.5 -74.5t-6.5 -59.5q0 -48 21.5 -80.5t61 -48.5t92.5 -16q34 0 65.5 8t57 27.5t40.5 52.5t15 83v642h161v-643q0 -102 -40.5 -175
t-119.5 -112.5t-196 -39.5z" />
    <glyph glyph-name="uniFEE3" unicode="&#x645;" horiz-adv-x="621" arabic-form="initial" 
d="M0 0v157h5q12 0 22 4.5t22 19.5t30 46q28 50 56.5 89.5t60 67t68 42t79.5 14.5q67 0 115 -33t74.5 -91t29 -133t-20.5 -160q-37 -20 -80 -30.5t-87.5 -11t-87.5 9t-80.5 30t-67 52.5t-46.5 75l102 71q12 -14 33.5 -28.5t50 -27.5t64 -21.5t75.5 -9.5q-1 27 -8 53.5
t-18.5 49t-27.5 36t-36 13.5q-12 0 -28.5 -11t-39.5 -43.5t-57 -98.5q-20 -39 -38 -64t-39 -40t-49.5 -21t-70.5 -6h-5zM0 157h10v-157h-10q-30 0 -30 78q0 79 30 79z" />
    <glyph glyph-name="uniFEE4" unicode="&#x645;" horiz-adv-x="665" arabic-form="medial" 
d="M0 0v157h3q12 0 22.5 5t22.5 17t26.5 33.5t34.5 54.5q29 48 56 81.5t53.5 53.5t53.5 29t55 9q46 0 83 -20t69 -63.5t63 -116.5q17 -37 32.5 -55t34.5 -23t45 -5h11v-157h-50q-43 0 -75.5 14t-56.5 37.5t-41.5 50.5t-29.5 53q-19 40 -34 69t-29 44.5t-30 15.5
q-9 0 -24 -10.5t-34.5 -34.5t-45.5 -66q-26 -43 -46 -73t-38 -49.5t-36 -30.5t-39 -15.5t-49 -4.5h-7zM531 45q-35 -40 -80.5 -55t-94 -12t-94 19t-82 40t-57.5 50l81 95q13 -11 40.5 -25t65 -25.5t80.5 -15t87 6.5zM0 157h10v-157h-10q-30 0 -30 78q0 79 30 79z" />
    <glyph glyph-name="uniFEE2" unicode="&#x645;" horiz-adv-x="656" arabic-form="final" 
d="M199 -497l30 36l-165 17l23 -7q-4 91 -15 171t-23.5 147t-21 121t-8.5 94q0 22 6 54t29.5 72t75.5 86q33 30 73 64t83.5 58t85.5 24q30 0 55 -21.5t52.5 -71t67.5 -132.5q6 -11 13 -21.5t18 -18.5t28.5 -13t43.5 -5h6v-157h-11q-44 0 -76 9t-57 30t-46.5 57t-44.5 91
q-18 43 -31.5 63.5t-24 27t-19.5 6.5q-5 0 -14.5 -4t-27.5 -15.5t-47 -36.5q-35 -29 -53.5 -53t-25.5 -45.5t-7 -44.5q0 -65 11.5 -127.5t23.5 -130t13 -147t-20 -177.5zM387 -16q-14 0 -36.5 4t-48 11.5t-48 16t-37.5 17.5q-15 11 -26.5 24t-19 39.5t-9.5 76.5l30 48
q15 -15 44.5 -33t68 -32.5t79 -20.5t77.5 4l27 -77q-4 -17 -16.5 -35t-33.5 -30.5t-51 -12.5z" />
    <glyph glyph-name="uniFEE7" unicode="&#x646;" horiz-adv-x="364" arabic-form="initial" 
d="M0 0v157h176q-8 35 -31 78t-58 87l144 147q30 -57 52 -125t22.5 -152.5t-36.5 -191.5h-269zM0 157h10v-157h-10q-30 0 -30 78q0 79 30 79zM165 524l-106 106l101 107l105 -107z" />
    <glyph glyph-name="uniFEE8" unicode="&#x646;" horiz-adv-x="410" arabic-form="medial" 
d="M0 0v157h139q4 17 7 46t5 58.5t1 49.5l188 66q-18 -73 -35.5 -136.5t-41 -122t-60.5 -118.5h-203zM410 0q-69 0 -116.5 13.5t-79.5 32t-55 34.5l85 99q14 -7 33 -12t42 -7.5t48 -2.5h43v-157v0zM0 157h10v-157h-10q-30 0 -30 78q0 79 30 79zM250 435l-106 106l101 107
l105 -107z" />
    <glyph glyph-name="uniFEE6" unicode="&#x646;" horiz-adv-x="759" arabic-form="final" 
d="M331 -256q-88 0 -148 23.5t-96 63t-52 88t-16 99.5q0 40 12.5 92.5t34.5 111.5l133 -42q-13 -41 -19.5 -74.5t-6.5 -59.5q0 -36 12.5 -63.5t36 -45.5t57.5 -27t76 -9q28 0 58 7.5t55.5 23.5t41.5 40.5t16 58.5q0 21 -2.5 47t-22.5 63l105 68q10 -11 25 -35t27 -53.5
t12 -57.5q0 -99 -41 -170.5t-116.5 -110t-181.5 -38.5zM749 0q-46 0 -85.5 14t-71 35t-53.5 44.5t-33 41.5l-58 94l126 152l66 -147q14 -31 24 -47.5t27 -23t48 -6.5h20v-157h-10zM339 337l-106 106l101 107l105 -107z" />
    <glyph glyph-name="uniFEEB" unicode="&#x647;" horiz-adv-x="660" arabic-form="initial" 
d="M0 0v157h34h16t15 -0.5t19 -0.5q-1 9 -3.5 24t-2.5 31q0 41 18.5 74.5t54 53t86.5 19.5q52 0 87 -19.5t53.5 -53t18.5 -74.5q0 -16 -2 -31t-4 -24q22 0 36 0.5t22.5 0.5h12.5h17q-6 77 -33.5 131t-77 86t-120 44t-162.5 5l11 157q141 4 248 -24t175 -96t91.5 -181
t-1.5 -279h-186q-52 0 -98 5.5t-84 17.5q-41 -12 -94 -17.5t-112 -5.5h-35zM237 146q14 8 21 22.5t7 34.5q0 17 -8 27.5t-20 10.5q-11 0 -20 -10.5t-9 -27.5q0 -20 7 -34.5t22 -22.5zM0 157h10v-157h-10q-30 0 -30 78q0 79 30 79z" />
    <glyph glyph-name="uniFEEC" unicode="&#x647;" horiz-adv-x="565" arabic-form="medial" 
d="M280 -230q-90 0 -152 30.5t-91 83t-22 116.5h-15v157h41q11 37 20 67t18.5 59t22 62t29.5 76l142 111q67 -51 110.5 -95.5t68.5 -82.5t35.5 -70.5t10.5 -59.5q0 -11 -1 -29.5t-6 -37.5h74v-157h-72q12 -15 20.5 -35t8.5 -40q0 -41 -25 -76.5t-78.5 -57t-138.5 -21.5z
M292 -73q43 0 58.5 9t15.5 25q0 8 -8.5 17t-28.5 15.5t-56 6.5h-97q-1 -19 7 -33t23.5 -23t37 -13t48.5 -4zM201 157h67q18 0 31 3t21 9.5t12 17t4 25.5q0 20 -8 41.5t-26.5 47t-48.5 56.5l12 18q-10 -31 -19.5 -61.5t-17.5 -59t-15 -53t-12 -44.5zM0 157h10v-157h-10
q-30 0 -30 78q0 79 30 79z" />
    <glyph glyph-name="uniFEEA" unicode="&#x647;" horiz-adv-x="599" arabic-form="final" 
d="M267 15q-73 0 -129 21t-87.5 61t-31.5 96q0 52 27.5 94t77 76.5t117 65t146.5 59.5l24 -158q-67 -16 -111.5 -33.5t-70.5 -35t-37.5 -33t-11.5 -26.5q0 -13 17 -21.5t64 -8.5q10 0 29 1t44 4.5t53 10.5l37 -132q-40 -19 -75.5 -30t-81.5 -11zM511 0q-64 0 -102.5 17.5
t-58 45t-26 59.5t-6.5 60v352h161v-307q0 -39 20.5 -54.5t66.5 -15.5h33v-157h-88z" />
    <glyph glyph-name="uniFEEE" unicode="&#x648;" horiz-adv-x="548" arabic-form="final" 
d="M211 -230q-52 0 -107.5 17t-103.5 62l50 103q32 -9 64.5 -14t63.5 -5q60 0 97.5 18t57.5 49h-47q-66 0 -111 12.5t-73 36t-40.5 56t-12.5 72.5q0 56 17.5 104t48 83.5t70 55.5t84.5 20q65 0 109.5 -29t72.5 -79t40 -113q2 -14 4.5 -29.5t3.5 -32.5h49v-157h-63
q-12 -39 -33.5 -79t-55 -74.5t-79.5 -55.5t-106 -21zM277 157h74q-1 9 -2 17t-3 15q-7 29 -21 50.5t-31 33t-36 11.5q-15 0 -29 -10t-23 -28.5t-9 -42.5q0 -13 7 -23.5t24.5 -16.5t48.5 -6z" />
    <glyph glyph-name="uniFEF0" unicode="&#x649;" horiz-adv-x="818" arabic-form="final" 
d="M360 -230q-76 0 -138.5 15t-108 47t-70 82.5t-24.5 121.5q0 41 11.5 97t36.5 108l138 -43q-12 -35 -18.5 -65t-6.5 -59q0 -35 12 -62.5t37 -46.5t63 -28.5t90 -9.5q72 0 118 8.5t72 22.5t36 30t10 31q0 9 -6 16.5t-26 19.5t-62 32l65 136q59 -37 93.5 -62t51.5 -43
t22.5 -34.5t5.5 -36.5q0 -33 -11 -71t-37 -74.5t-72 -66t-115 -47.5t-167 -18zM814 0q-11 0 -37 5t-59 15t-67 24.5t-61 33.5l-1 145q45 -22 79.5 -35.5t60 -20t43 -8.5t28.5 -2h18v-157h-4z" />
    <glyph glyph-name="uniFEF3" unicode="&#x64a;" horiz-adv-x="364" arabic-form="initial" 
d="M0 0v157h176q-8 35 -31 78t-58 87l144 147q30 -57 52 -125t22.5 -152.5t-36.5 -191.5h-269zM0 157h10v-157h-10q-30 0 -30 78q0 79 30 79zM84 -269l-105 107l99 106l105 -106zM260 -269l-105 107l100 106l105 -106z" />
    <glyph glyph-name="uniFEF4" unicode="&#x64a;" horiz-adv-x="410" arabic-form="medial" 
d="M0 0v157h139q4 17 7 46t5 58.5t1 49.5l188 66q-18 -73 -35.5 -136.5t-41 -122t-60.5 -118.5h-203zM410 0q-69 0 -116.5 13.5t-79.5 32t-55 34.5l85 99q14 -7 33 -12t42 -7.5t48 -2.5h43v-157v0zM0 157h10v-157h-10q-30 0 -30 78q0 79 30 79zM115 -269l-105 107l99 106
l105 -106zM291 -269l-105 107l100 106l105 -106z" />
    <glyph glyph-name="uniFEF2" unicode="&#x64a;" horiz-adv-x="818" arabic-form="final" 
d="M360 -230q-76 0 -138.5 15t-108 47t-70 82.5t-24.5 121.5q0 41 11.5 97t36.5 108l138 -43q-12 -35 -18.5 -65t-6.5 -59q0 -35 12 -62.5t37 -46.5t63 -28.5t90 -9.5q72 0 118 8.5t72 22.5t36 30t10 31q0 9 -6 16.5t-26 19.5t-62 32l65 136q59 -37 93.5 -62t51.5 -43
t22.5 -34.5t5.5 -36.5q0 -33 -11 -71t-37 -74.5t-72 -66t-115 -47.5t-167 -18zM814 0q-11 0 -37 5t-59 15t-67 24.5t-61 33.5l-1 145q45 -22 79.5 -35.5t60 -20t43 -8.5t28.5 -2h18v-157h-4zM276 -499l-105 107l99 106l105 -106zM452 -499l-105 107l100 106l105 -106z" />
    <glyph glyph-name="uni066E.init" unicode="&#x66e;" horiz-adv-x="364" 
d="M0 0v157h176q-8 35 -31 78t-58 87l144 147q30 -57 52 -125t22.5 -152.5t-36.5 -191.5h-269zM0 157h10v-157h-10q-30 0 -30 78q0 79 30 79z" />
    <glyph glyph-name="uni066E.medi" unicode="&#x66e;" horiz-adv-x="410" 
d="M0 0v157h139q4 17 7 46t5 58.5t1 49.5l188 66q-18 -73 -35.5 -136.5t-41 -122t-60.5 -118.5h-203zM410 0q-69 0 -116.5 13.5t-79.5 32t-55 34.5l85 99q14 -7 33 -12t42 -7.5t48 -2.5h43v-157v0zM0 157h10v-157h-10q-30 0 -30 78q0 79 30 79z" />
    <glyph glyph-name="uni066E.fina" unicode="&#x66e;" horiz-adv-x="1006" 
d="M298 0q-150 0 -214.5 54.5t-64.5 153.5q0 44 16 101t57 130l118 -52q-16 -45 -23 -76.5t-7 -56.5q0 -39 17 -60t47.5 -29t70.5 -8h371l24 -157h-412zM596 0v157h139q4 17 7 46t5 58.5t1 49.5l188 66q-18 -73 -35.5 -136.5t-41 -122t-60.5 -118.5h-203zM1006 0
q-69 0 -116.5 13.5t-79.5 32t-55 34.5l85 99q14 -7 33 -12t42 -7.5t48 -2.5h43v-157v0zM596 157h10v-157h-10q-30 0 -30 78q0 79 30 79z" />
    <glyph glyph-name="uni066F.fina" unicode="&#x66f;" horiz-adv-x="819" 
d="M360 -230q-82 0 -145.5 16.5t-107 49.5t-66 83t-22.5 117q0 37 10.5 89t35.5 119l141 -45q-18 -54 -22 -82t-4 -52q0 -45 21 -75.5t65.5 -46.5t115.5 -16q47 0 89.5 6t76 22t52.5 45h-48q-66 0 -111 12.5t-73 36t-40.5 56t-12.5 72.5q0 56 17.5 104t48 83.5t70 55.5
t84.5 20q66 0 112 -31t74 -86.5t39 -129.5q2 -9 3 -18l2 -18h54v-157h-68q-17 -68 -63.5 -120t-127 -81t-200.5 -29zM543 157h74q-1 9 -2.5 18t-4.5 17q-7 28 -20.5 48.5t-30.5 32t-35 11.5q-15 0 -29 -10t-23 -28.5t-9 -42.5q0 -20 17 -33t63 -13z" />
    <glyph glyph-name="uniFB51" unicode="&#x671;" horiz-adv-x="344" arabic-form="final" 
d="M261 0q-50 0 -86 10t-59.5 31.5t-35 55.5t-11.5 82v561h161v-503q0 -22 3 -37.5t11 -25t22.5 -13.5t38.5 -4h39v-157h-83zM-34 920l81 27q-4 -44 -14 -71.5t-21 -44.5t-20 -32h-58v82h32q2 10 1.5 14t-1.5 25zM95 837l-52 21q23 68 63.5 102.5t90.5 34.5q39 0 62.5 -25
t25 -69t-25.5 -102h-189q-23 0 -45 7t-42 19l48 67q14 -11 39 -11h148q1 18 -7.5 25t-21.5 7q-19 0 -43 -14.5t-51 -61.5z" />
    <glyph glyph-name="uni06A1.init" unicode="&#x6a1;" horiz-adv-x="603" 
d="M0 0v157h386q1 14 1.5 25t1 31.5t0.5 60.5q0 17 -4.5 45t-14.5 56t-28.5 47t-47.5 19q-20 0 -35 -11t-22.5 -27t-7.5 -33q0 -15 9 -23.5t25.5 -12.5t40.5 -4q27 0 49.5 2t41.5 4l92 -81q-43 -28 -98.5 -41.5t-116.5 -13.5q-46 0 -83.5 8.5t-64.5 26t-41.5 46t-14.5 67.5
q0 52 19 97t52 79.5t75.5 54t88.5 19.5q68 0 122.5 -34t86.5 -105.5t32 -184.5q0 -34 -4.5 -83t-12 -99.5t-17.5 -91.5h-510zM0 157h10v-157h-10q-30 0 -30 78q0 79 30 79z" />
    <glyph glyph-name="uni06A1.medi" unicode="&#x6a1;" horiz-adv-x="612" 
d="M0 0v157h144q-3 -1 -7.5 -3t-10 -3.5t-10.5 -2.5q-22 29 -30 59t-8 61q0 41 15 79t45 69t74.5 49t102.5 18q59 0 103.5 -18t74.5 -49t45.5 -69t15.5 -79q0 -32 -8.5 -61.5t-30.5 -58.5q-9 2 -10 4t-10 5h117v-157h-25q-71 0 -118 1.5t-80.5 6.5t-65.5 17q-15 -5 -29 -9.5
t-33.5 -8t-51 -5.5t-82.5 -2h-127zM315 149q24 11 40 27t24 36t8 42q0 20 -8.5 36t-24.5 26t-39 10q-22 0 -38 -10t-24.5 -26.5t-8.5 -35.5q0 -22 8 -41.5t24 -35.5t39 -28zM0 157h10v-157h-10q-30 0 -30 78q0 79 30 79z" />
    <glyph glyph-name="uni06A1.fina" unicode="&#x6a1;" horiz-adv-x="1145" 
d="M298 0q-100 0 -161.5 24.5t-89.5 71t-28 112.5q0 44 16 101t57 130l118 -52q-16 -45 -23 -76.5t-7 -56.5q0 -39 17 -60t47.5 -29t70.5 -8h369l-114 -157h-272zM533 0v157h144q-3 -1 -7.5 -3t-10 -3.5t-10.5 -2.5q-22 29 -30 59t-8 61q0 41 15 79t45 69t74.5 49t102.5 18
q59 0 103.5 -18t74.5 -49t45.5 -69t15.5 -79q0 -32 -8.5 -61.5t-30.5 -58.5q-9 2 -10 4t-10 5h117v-157h-25q-71 0 -117.5 1.5t-80.5 6.5t-66 17q-15 -5 -29 -9.5t-33.5 -8t-51 -5.5t-82.5 -2h-127zM848 149q24 11 40 27t24 36t8 42q0 20 -8.5 36t-24.5 26t-39 10
q-22 0 -38 -10t-24.5 -26.5t-8.5 -35.5q0 -22 8 -41.5t24 -35.5t39 -28zM533 157h10v-157h-10q-30 0 -30 78q0 79 30 79z" />
    <glyph glyph-name="uniFB6C" unicode="&#x6a4;" horiz-adv-x="603" arabic-form="initial" 
d="M0 0v157h386q1 14 1.5 25t1 31.5t0.5 60.5q0 17 -4.5 45t-14.5 56t-28.5 47t-47.5 19q-20 0 -35 -11t-22.5 -27t-7.5 -33q0 -15 9 -23.5t25.5 -12.5t40.5 -4q27 0 49.5 2t41.5 4l92 -81q-43 -28 -98.5 -41.5t-116.5 -13.5q-46 0 -83.5 8.5t-64.5 26t-41.5 46t-14.5 67.5
q0 52 19 97t52 79.5t75.5 54t88.5 19.5q68 0 122.5 -34t86.5 -105.5t32 -184.5q0 -34 -4.5 -83t-12 -99.5t-17.5 -91.5h-510zM0 157h10v-157h-10q-30 0 -30 78q0 79 30 79zM304 829l-107 106l101 107l105 -107zM218 662l-105 107l99 106l105 -106zM394 662l-105 107l100 106
l105 -106z" />
    <glyph glyph-name="uniFB6D" unicode="&#x6a4;" horiz-adv-x="612" arabic-form="medial" 
d="M0 0v157h144q-3 -1 -7.5 -3t-10 -3.5t-10.5 -2.5q-22 29 -30 59t-8 61q0 41 15 79t45 69t74.5 49t102.5 18q59 0 103.5 -18t74.5 -49t45.5 -69t15.5 -79q0 -32 -8.5 -61.5t-30.5 -58.5q-9 2 -10 4t-10 5h117v-157h-25q-71 0 -118 1.5t-80.5 6.5t-65.5 17q-15 -5 -29 -9.5
t-33.5 -8t-51 -5.5t-82.5 -2h-127zM315 149q24 11 40 27t24 36t8 42q0 20 -8.5 36t-24.5 26t-39 10q-22 0 -38 -10t-24.5 -26.5t-8.5 -35.5q0 -22 8 -41.5t24 -35.5t39 -28zM0 157h10v-157h-10q-30 0 -30 78q0 79 30 79zM316 714l-107 106l101 107l105 -107zM230 547
l-105 107l99 106l105 -106zM406 547l-105 107l100 106l105 -106z" />
    <glyph glyph-name="uniFB6B" unicode="&#x6a4;" horiz-adv-x="1145" arabic-form="final" 
d="M298 0q-100 0 -161.5 24.5t-89.5 71t-28 112.5q0 44 16 101t57 130l118 -52q-16 -45 -23 -76.5t-7 -56.5q0 -39 17 -60t47.5 -29t70.5 -8h369l-114 -157h-272zM533 0v157h144q-3 -1 -7.5 -3t-10 -3.5t-10.5 -2.5q-22 29 -30 59t-8 61q0 41 15 79t45 69t74.5 49t102.5 18
q59 0 103.5 -18t74.5 -49t45.5 -69t15.5 -79q0 -32 -8.5 -61.5t-30.5 -58.5q-9 2 -10 4t-10 5h117v-157h-25q-71 0 -117.5 1.5t-80.5 6.5t-66 17q-15 -5 -29 -9.5t-33.5 -8t-51 -5.5t-82.5 -2h-127zM848 149q24 11 40 27t24 36t8 42q0 20 -8.5 36t-24.5 26t-39 10
q-22 0 -38 -10t-24.5 -26.5t-8.5 -35.5q0 -22 8 -41.5t24 -35.5t39 -28zM533 157h10v-157h-10q-30 0 -30 78q0 79 30 79zM850 714l-107 106l101 107l105 -107zM764 547l-105 107l99 106l105 -106zM940 547l-105 107l100 106l105 -106z" />
    <glyph glyph-name="uniFB9F" unicode="&#x6ba;" horiz-adv-x="759" arabic-form="final" 
d="M331 -256q-88 0 -148 23.5t-96 63t-52 88t-16 99.5q0 40 12.5 92.5t34.5 111.5l133 -42q-13 -41 -19.5 -74.5t-6.5 -59.5q0 -36 12.5 -63.5t36 -45.5t57.5 -27t76 -9q28 0 58 7.5t55.5 23.5t41.5 40.5t16 58.5q0 21 -2.5 47t-22.5 63l105 68q10 -11 25 -35t27 -53.5
t12 -57.5q0 -99 -41 -170.5t-116.5 -110t-181.5 -38.5zM749 0q-46 0 -85.5 14t-71 35t-53.5 44.5t-33 41.5l-58 94l126 152l66 -147q14 -31 24 -47.5t27 -23t48 -6.5h20v-157h-10z" />
    <glyph glyph-name=".notdef" horiz-adv-x="584" 
d="M75 0q-35 0 -35 35v630q0 35 35 35h434q35 0 35 -35v-630q0 -35 -35 -35h-434zM75 30h413q3 0 4 2t-1 4l-415 598q-2 3 -4 2.5t-2 -4.5v-597q0 -5 5 -5zM508 66q2 -3 4 -2.5t2 4.5v597q0 5 -5 5h-414q-3 0 -4 -2t1 -4z" />
    <glyph glyph-name=".null" 
 />
    <glyph glyph-name="nonmarkingreturn" horiz-adv-x="333" 
 />
    <glyph glyph-name="CR" unicode="&#xd;" horiz-adv-x="277" 
 />
    <glyph glyph-name="space" unicode=" " horiz-adv-x="319" 
 />
    <glyph glyph-name="exclam" unicode="!" horiz-adv-x="307" 
d="M103 255q-9 62 -17 127.5t-13 131t-5 124.5v73h170v-73q0 -60 -5 -126.5t-13 -132t-17 -124.5h-100zM152 -11q-41 0 -64 23.5t-23 66.5q0 39 24 65t63 26q41 0 64 -23.5t23 -67.5q0 -40 -24 -65t-63 -25z" />
    <glyph glyph-name="quotedbl" unicode="&#x22;" horiz-adv-x="478" 
d="M272 436l20 264h164l-84 -264h-100zM42 436l20 264h165l-84 -264h-101z" />
    <glyph glyph-name="numbersign" unicode="#" horiz-adv-x="732" 
d="M367 0l120 700h142l-120 -700h-142zM47 149v130h602v-130h-602zM105 0l120 700h142l-120 -700h-142zM85 430v130h601v-130h-601z" />
    <glyph glyph-name="dollar" unicode="$" horiz-adv-x="635" 
d="M320 -10q-98 0 -169.5 31t-122.5 89l83 131q55 -59 107.5 -83t109.5 -24q28 0 49 7t33.5 20.5t12.5 32.5q0 15 -7.5 26.5t-20.5 21t-30.5 16.5t-37.5 12.5t-41 9.5q-77 16 -128 45.5t-75.5 73.5t-24.5 103q0 64 36.5 112t96.5 75t130 27q86 0 153 -26t119 -82l-74 -119
q-40 42 -89.5 62t-103.5 20q-29 0 -51 -7t-33.5 -20.5t-11.5 -32.5q0 -16 9.5 -28.5t26.5 -21.5t38.5 -15.5t45.5 -10.5q55 -11 100 -29t77 -44.5t49.5 -62t17.5 -81.5q0 -72 -35 -123t-97 -78t-142 -27zM259 -91l11 465l82 -33l12 -432h-105zM380 339l-84 34l-11 415h106z
" />
    <glyph glyph-name="percent" unicode="%" horiz-adv-x="964" 
d="M168 0l463 700h150l-468 -700h-145zM216 329q-51 0 -91 25.5t-62.5 69.5t-22.5 101q0 56 22.5 100t62 69t91.5 25t91 -25t61 -69t22 -101q0 -55 -23 -99.5t-62 -70t-89 -25.5zM216 433q16 0 27 11t17 31.5t6 48.5t-6 48.5t-17 31.5t-27 11t-28 -11.5t-18.5 -31.5
t-6.5 -48q0 -42 14.5 -66.5t38.5 -24.5zM746 -9q-50 0 -90.5 25.5t-63.5 69.5t-23 99q0 57 22.5 101t62.5 69.5t92 25.5q51 0 90 -25.5t61 -69.5t22 -101q0 -55 -22.5 -99t-61.5 -69.5t-89 -25.5zM746 94q16 0 27 11.5t17 32t6 47.5q0 42 -13 67t-37 25q-16 0 -28 -11.5
t-18.5 -32t-6.5 -48.5q0 -41 14.5 -66t38.5 -25z" />
    <glyph glyph-name="ampersand" unicode="&#x26;" horiz-adv-x="778" 
d="M581 0l-71 75l-60 54l-146 156q-39 40 -65 75t-42 65t-23 56t-7 48q0 54 28.5 96t79 66.5t115.5 24.5q50 0 94 -16.5t76.5 -46.5t45.5 -71l-127 -75q-17 41 -36.5 56t-46.5 15q-21 0 -36 -6.5t-23 -19.5t-8 -33t16 -47.5t40.5 -57t49 -56t42.5 -44.5l74 -81l69 -62
l160 -171h-199zM326 -10q-78 0 -140.5 30.5t-99 82t-36.5 114.5q0 74 42.5 132.5t127.5 89.5l100 -99q-57 -12 -85 -39.5t-28 -71.5q0 -33 16 -57.5t46.5 -38t73.5 -13.5q39 0 73.5 16t61.5 46t44.5 71.5t22.5 92.5h150q-9 -64 -31 -118.5t-56 -98.5t-77 -75t-95 -47.5
t-110 -16.5z" />
    <glyph glyph-name="quotesingle" unicode="'" horiz-adv-x="251" 
d="M43 436l20 264h166l-85 -264h-101z" />
    <glyph glyph-name="parenleft" unicode="(" horiz-adv-x="390" 
d="M289 -186q-122 76 -186 190t-64 254q0 139 64.5 253.5t186.5 190.5l91 -86q-92 -64 -137.5 -157.5t-45.5 -200.5q0 -106 45.5 -200.5t137.5 -157.5z" />
    <glyph glyph-name="parenright" unicode=")" horiz-adv-x="389" 
d="M99 -186l-90 86q92 64 137.5 158t45.5 200q0 107 -45.5 201t-137.5 157l91 86q122 -76 186 -190t64 -254q0 -139 -64.5 -253.5t-186.5 -190.5z" />
    <glyph glyph-name="asterisk" unicode="*" horiz-adv-x="438" 
d="M165 353l14 134l17 -2l-125 -84l-53 92l134 54l-1 -8l-134 60l54 92l127 -93l-19 -1l-16 137h115l-15 -142l-16 6l120 92l54 -93l-136 -60v9l135 -53l-54 -91l-118 86l16 -1l16 -134h-115z" />
    <glyph glyph-name="plus" unicode="+" horiz-adv-x="597" 
d="M47 218v130h502v-130h-502zM225 40l1 487h145l-1 -487h-145z" />
    <glyph glyph-name="comma" unicode="," horiz-adv-x="288" 
d="M85 -201l-47 57q41 19 65.5 47t24.5 47q0 10 -5 20t-22 24q-23 17 -31.5 33.5t-8.5 36.5q0 32 23 49.5t58 17.5q30 0 53.5 -16t37 -44.5t13.5 -66.5q0 -33 -12 -65t-34 -60t-51 -48.5t-64 -31.5z" />
    <glyph glyph-name="hyphen" unicode="-" horiz-adv-x="446" 
d="M52 214v147h344v-147h-344z" />
    <glyph glyph-name="period" unicode="." horiz-adv-x="256" 
d="M128 -11q-41 0 -63.5 23.5t-22.5 66.5q0 40 23.5 65.5t62.5 25.5q41 0 64 -23.5t23 -67.5q0 -40 -24.5 -65t-62.5 -25z" />
    <glyph glyph-name="slash" unicode="/" horiz-adv-x="593" 
d="M6 -142l417 842h159l-415 -842h-161z" />
    <glyph glyph-name="zero" unicode="0" horiz-adv-x="672" 
d="M336 -10q-94 0 -160 43t-101 123.5t-35 193.5t35 193.5t101 123.5t160 43t160 -43t101 -123.5t35 -193.5t-35 -193.5t-101 -123.5t-160 -43zM336 135q64 0 98.5 56t34.5 159q0 107 -34.5 164t-98.5 57t-99 -57t-35 -164q0 -103 35 -159t99 -56z" />
    <glyph glyph-name="one" unicode="1" horiz-adv-x="563" 
d="M212 50v565l38 -84l-149 -70l-30 151l200 98h109v-660h-168zM85 0v151h426v-151h-426z" />
    <glyph glyph-name="two" unicode="2" horiz-adv-x="548" 
d="M61 0l-34 84l201 222q18 19 38 43t38.5 49.5t30 49.5t11.5 43q0 20 -8.5 35t-25 23.5t-42.5 8.5q-22 0 -43 -12t-39.5 -35.5t-34.5 -59.5l-126 70q21 58 59.5 102t90.5 69t111 24q62 0 111.5 -26t79 -71.5t29.5 -106.5q0 -27 -7.5 -56t-24 -61.5t-43.5 -69.5t-66 -80
l-155 -169l-21 75h348v-151h-478z" />
    <glyph glyph-name="three" unicode="3" horiz-adv-x="589" 
d="M286 -10q-85 0 -148 35.5t-116 122.5l124 78q21 -34 44.5 -55t49 -30.5t52.5 -9.5q28 0 51 12.5t37 35t14 52.5q0 31 -12 51.5t-35 31.5t-56 11q-14 0 -31.5 -3.5t-36.5 -9.5t-39 -14l-37 99l168 185l46 -26l-290 5v145h430l32 -62l-231 -247l-39 47q8 3 26 6.5t34 3.5
q46 0 87 -17t73 -47t50 -70t18 -87q0 -70 -35.5 -125t-95.5 -86.5t-134 -31.5z" />
    <glyph glyph-name="four" unicode="4" horiz-adv-x="661" 
d="M347 0v563l89 -3l-248 -303l-23 30h461v-141h-538l-69 132l354 428h139v-706h-165z" />
    <glyph glyph-name="five" unicode="5" horiz-adv-x="595" 
d="M282 -7q-79 0 -143.5 31.5t-106.5 91.5l92 102q41 -46 75.5 -62t76.5 -16q32 0 57 13t39 36t14 51q0 30 -14.5 53.5t-39 37t-55.5 13.5q-22 0 -41.5 -3.5t-41.5 -13t-54 -27.5l-73 98l43 308h402v-145h-320l43 56l-32 -219l-59 21q18 16 45.5 28.5t59 20.5t62.5 8
q67 0 119 -30.5t82.5 -84t30.5 -123.5q0 -69 -34.5 -124.5t-93.5 -88t-133 -32.5z" />
    <glyph glyph-name="six" unicode="6" horiz-adv-x="577" 
d="M293 0q-54 0 -101.5 19.5t-83 54t-55.5 80.5t-20 99q1 48 14.5 94.5t38.5 95.5t59 105l97 163h157l5 -10l-135 -213q-26 -42 -45 -79.5t-34.5 -73.5t-30.5 -76l-32 73q14 47 47.5 82.5t76.5 55.5t83 20q59 0 108.5 -31.5t79 -83.5t29.5 -114q0 -74 -33.5 -133.5
t-91.5 -93.5t-133 -34zM295 141q31 0 55.5 14t38.5 39.5t14 57.5q0 28 -14.5 53t-38.5 40t-54 15q-32 0 -57 -14.5t-39 -39t-14 -54.5q0 -31 14 -56.5t38.5 -40t56.5 -14.5z" />
    <glyph glyph-name="seven" unicode="7" horiz-adv-x="555" 
d="M85 0l281 636l46 -79h-364v149h457l15 -82l-263 -624h-172z" />
    <glyph glyph-name="eight" unicode="8" horiz-adv-x="598" 
d="M298 -3q-71 0 -129.5 27.5t-93.5 74.5t-35 106q0 39 10 70t30 55.5t49 42t67 29.5l-12 -41q-37 15 -64 38.5t-42 54t-15 66.5q0 55 31.5 98t85 68t118.5 25q66 0 119.5 -25t85 -68t31.5 -98q0 -36 -14 -66t-41 -53t-68 -40l-9 37q46 -12 81 -38t55 -65t20 -90
q0 -59 -35 -106.5t-93.5 -74.5t-131.5 -27zM298 132q28 0 50 11t34.5 30t12.5 43q0 25 -12.5 44.5t-34 31t-50.5 11.5q-26 0 -48 -11.5t-35 -31t-13 -44.5q0 -24 13 -43t35 -30t48 -11zM298 439q25 0 44 9.5t30 26t11 37.5q0 22 -11 38.5t-30 26.5t-43 10q-25 0 -44 -10
t-30 -26.5t-11 -38.5q0 -21 11 -37.5t30 -26t43 -9.5z" />
    <glyph glyph-name="nine" unicode="9" horiz-adv-x="576" 
d="M207 0l-4 10l220 444l28 -63q-13 -46 -48 -82t-79 -56.5t-84 -20.5q-57 0 -105 31.5t-77 83t-29 111.5q0 73 34.5 131.5t93.5 93t134 34.5q53 0 100 -19t82.5 -52.5t55.5 -77t20 -93.5q0 -35 -6 -69.5t-18.5 -70.5t-30 -75.5t-40.5 -86.5l-88 -173h-159zM281 368
q31 0 54.5 13.5t37 36.5t13.5 52q0 31 -13 55t-36.5 38t-54.5 14q-30 0 -52.5 -13.5t-35 -37.5t-12.5 -56q0 -26 13.5 -49.5t36 -38t49.5 -14.5z" />
    <glyph glyph-name="colon" unicode=":" horiz-adv-x="256" 
d="M128 -10q-41 0 -63.5 23.5t-22.5 66.5q0 40 23.5 65.5t62.5 25.5q41 0 64 -23.5t23 -67.5q0 -40 -24.5 -65t-62.5 -25zM128 360q-41 0 -63.5 23.5t-22.5 66.5q0 40 23.5 65.5t62.5 25.5q41 0 64 -23.5t23 -67.5q0 -40 -24.5 -65t-62.5 -25z" />
    <glyph glyph-name="semicolon" unicode=";" horiz-adv-x="292" 
d="M89 -201l-47 57q41 19 65.5 47t24.5 47q0 10 -5 20t-22 24q-23 17 -31.5 33.5t-8.5 36.5q0 32 23 49.5t58 17.5q30 0 53.5 -16t37 -44.5t13.5 -66.5q0 -33 -12 -65t-34 -60t-51 -48.5t-64 -31.5zM145 361q-41 0 -63.5 23.5t-22.5 66.5q0 40 23.5 65.5t62.5 25.5
q41 0 64 -23.5t23 -67.5q0 -40 -24.5 -65t-62.5 -25z" />
    <glyph glyph-name="less" unicode="&#x3c;" horiz-adv-x="527" 
d="M429 -14l-387 222v98l387 222l65 -127l-340 -179v71l340 -180z" />
    <glyph glyph-name="equal" unicode="=" horiz-adv-x="622" 
d="M67 325v130h488v-130h-488zM67 108v129h488v-129h-488z" />
    <glyph glyph-name="greater" unicode="&#x3e;" horiz-adv-x="527" 
d="M106 -14l-66 127l342 180v-71l-342 179l66 127l388 -222v-98z" />
    <glyph glyph-name="question" unicode="?" horiz-adv-x="537" 
d="M196 241l-33 130q37 9 68.5 21.5t55 28t37 36t13.5 46.5q0 20 -10 34t-26 22t-35 8q-26 0 -50 -9.5t-49.5 -28.5t-56.5 -47l-82 113q32 33 70.5 60t84 43.5t96.5 16.5q69 0 117.5 -27t74.5 -73.5t26 -104.5q0 -49 -24 -90.5t-69.5 -76.5t-109.5 -67l-11 -35h-87zM159 79
q0 40 24 65.5t63 25.5q41 0 63.5 -23.5t22.5 -67.5q0 -40 -23.5 -65t-62.5 -25q-41 0 -64 23.5t-23 66.5z" />
    <glyph glyph-name="at" unicode="@" horiz-adv-x="964" 
d="M414 -162q-88 0 -157 26.5t-117.5 75t-74 116t-25.5 149.5q0 118 41.5 211.5t115.5 159t171.5 100t208.5 34.5q79 0 143 -22.5t110 -64.5t70.5 -99.5t24.5 -127.5q0 -69 -19.5 -131t-54.5 -111t-82 -77t-101 -28q-38 0 -68 13t-47 37t-17 55q0 17 1.5 33.5t2.5 34.5
l26 -21q-16 -48 -41.5 -82t-58.5 -52t-73 -18q-45 0 -81 24t-57 66.5t-21 97.5q0 48 18.5 98t51.5 92t77 68t96 26q31 0 55 -16.5t39 -45t18 -66.5l-31 -30l29 147h146l-59 -316q-4 -24 8.5 -34t28.5 -10q27 0 50.5 19.5t41 53t27.5 77t10 91.5q0 75 -32 128t-92 81.5
t-146 28.5q-102 0 -184 -28.5t-140.5 -82.5t-89.5 -132t-31 -178q0 -68 19 -121.5t56.5 -90.5t92 -56.5t124.5 -19.5q48 0 81.5 6.5t64 19.5t68.5 34l38 -69q-59 -30 -101.5 -45.5t-78 -21.5t-75.5 -6zM435 170q26 0 50.5 17t42 45t22.5 61q3 15 4.5 27t1.5 22
q0 20 -6.5 34.5t-19 22t-32.5 7.5q-31 0 -56.5 -23.5t-40.5 -61t-15 -80.5q0 -32 13.5 -51.5t35.5 -19.5z" />
    <glyph glyph-name="A" unicode="A" horiz-adv-x="697" 
d="M0 0l277 700h145l275 -700h-172l-133 355q-7 21 -15.5 45t-16.5 50t-15 50t-12 45l29 1q-6 -25 -13 -49t-15 -48t-16.5 -47.5t-17.5 -48.5l-132 -353h-168zM132 134l54 130h320l54 -130h-428z" />
    <glyph glyph-name="B" unicode="B" horiz-adv-x="701" 
d="M87 0v700h310q73 0 122.5 -20.5t75.5 -59t26 -93.5q0 -59 -29.5 -99t-84.5 -56l-1 21q45 -11 79.5 -36.5t53.5 -62t19 -82.5q0 -53 -18.5 -93t-52 -66.5t-79 -39.5t-100.5 -13h-321zM249 143h152q42 0 65.5 20t23.5 57q0 23 -11.5 39t-32.5 24t-50 8h-147v-148zM249 420
h125q26 0 44 8.5t27.5 24t9.5 36.5q0 32 -22 50t-66 18h-118v-137z" />
    <glyph glyph-name="C" unicode="C" horiz-adv-x="693" 
d="M405 -10q-79 0 -145.5 26.5t-115 75t-75 115t-26.5 145.5q0 78 27.5 144t77.5 115t117.5 76t146.5 27q50 0 98 -13t89.5 -38.5t71.5 -61.5l-105 -119q-31 34 -69.5 53t-85.5 19q-40 0 -75.5 -14t-61.5 -41t-41 -64t-15 -84q0 -46 14.5 -83.5t42 -64t66 -40.5t85.5 -14
q31 0 59.5 8.5t53.5 24.5t43 36l83 -132q-24 -27 -65.5 -49t-92 -34.5t-102.5 -12.5z" />
    <glyph glyph-name="D" unicode="D" horiz-adv-x="772" 
d="M87 0v700h295q77 0 141 -25.5t110 -72t71 -111t25 -141.5q0 -78 -25 -142t-71 -110.5t-109.5 -72t-141.5 -25.5h-295zM258 118l-22 33h141q41 0 74 14t56.5 40.5t36 63t12.5 81.5t-12.5 81.5t-36 63t-56.5 40.5t-74 14h-144l25 31v-462z" />
    <glyph glyph-name="E" unicode="E" horiz-adv-x="645" 
d="M87 0v700h488v-146h-321v-408h332v-146h-499zM168 286v140h363v-140h-363z" />
    <glyph glyph-name="F" unicode="F" horiz-adv-x="618" 
d="M87 0v700h171v-700h-171zM167 268v143h364v-143h-364zM167 549v151h404v-151h-404z" />
    <glyph glyph-name="G" unicode="G" horiz-adv-x="781" 
d="M412 -10q-84 0 -151.5 27t-116.5 76t-75 115t-26 144t28 144t78.5 115t120 76t152.5 27q57 0 108.5 -15t94 -41t70.5 -59l-105 -110q-36 34 -77.5 53.5t-93.5 19.5q-43 0 -79.5 -15.5t-64 -44t-42.5 -67t-15 -83.5t16 -83t44.5 -66.5t66.5 -44.5t82 -16q31 0 57.5 9.5
t47 26t32 39t11.5 48.5v26l22 -34h-191v135h329q2 -11 3 -30t1.5 -36.5t0.5 -27.5q0 -68 -24.5 -124.5t-69 -97.5t-104.5 -63.5t-130 -22.5z" />
    <glyph glyph-name="H" unicode="H" horiz-adv-x="780" 
d="M522 0v700h171v-700h-171zM87 0v700h171v-700h-171zM155 272v154h457v-154h-457z" />
    <glyph glyph-name="I" unicode="I" horiz-adv-x="555" 
d="M74 0v144h118v412h-118v144h407v-144h-118v-412h118v-144h-407z" />
    <glyph glyph-name="J" unicode="J" horiz-adv-x="667" 
d="M262 -10q-38 0 -71.5 8.5t-61.5 25t-50.5 40t-37.5 52.5l98 102q19 -27 36 -43.5t34 -23.5t36 -7q24 0 42.5 11.5t28.5 31.5t10 45v319h-129v149h403v-149h-108v-338q0 -51 -17.5 -92t-48.5 -70t-73 -45t-91 -16z" />
    <glyph glyph-name="K" unicode="K" horiz-adv-x="742" 
d="M214 205l-44 145l346 350h203zM87 0v700h171v-700h-171zM537 0l-259 342l115 99l344 -441h-200z" />
    <glyph glyph-name="L" unicode="L" horiz-adv-x="610" 
d="M87 0v700h171v-549h312v-151h-483z" />
    <glyph glyph-name="M" unicode="M" horiz-adv-x="878" 
d="M87 0v700h153l254 -413l-108 1l257 412h148v-700h-166v212q0 92 4.5 165.5t15.5 144.5l19 -52l-193 -299h-68l-189 297l19 54q12 -67 16.5 -138.5t4.5 -171.5v-212h-167z" />
    <glyph glyph-name="N" unicode="N" horiz-adv-x="808" 
d="M87 0v700h153l368 -499l-33 4q-7 56 -12 104.5t-6.5 101.5t-1.5 122v167h166v-700h-155l-382 514l49 -7q7 -61 11 -101t6 -68.5t3 -53t1 -54.5v-230h-167z" />
    <glyph glyph-name="O" unicode="O" horiz-adv-x="810" 
d="M406 -10q-79 0 -145.5 27t-115 75.5t-75.5 115t-27 145.5q0 78 27 144.5t75.5 115.5t115 76t145.5 27q78 0 144 -27t114.5 -76t75.5 -115.5t27 -145.5q0 -78 -27 -144t-75.5 -115t-114.5 -76t-144 -27zM406 151q41 0 75 15t59.5 42t39.5 64t14 80q0 44 -14 81t-39.5 64.5
t-59.5 42.5t-75 15t-75.5 -15t-60 -42.5t-39.5 -64.5t-14 -81q0 -58 24.5 -103.5t67 -71.5t97.5 -26z" />
    <glyph glyph-name="P" unicode="P" horiz-adv-x="662" 
d="M87 0v700h303q66 0 118 -30t82 -81.5t30 -117.5q0 -67 -30 -121t-82 -85t-118 -31h-132v-234h-171zM256 385h111q22 0 39.5 10.5t28.5 29.5t11 43q0 25 -11 43t-28.5 28t-39.5 10h-111v-164z" />
    <glyph glyph-name="Q" unicode="Q" horiz-adv-x="810" 
d="M614 -111l-268 362l126 88l264 -359zM406 -10q-79 0 -145.5 27t-115 75.5t-75.5 115t-27 145.5q0 78 27 144.5t75.5 115.5t115 76t145.5 27q78 0 144 -27t114.5 -76t75.5 -115.5t27 -145.5q0 -78 -27 -144t-75.5 -115t-114.5 -76t-144 -27zM406 151q41 0 75 15t59.5 42
t39.5 64t14 80q0 44 -14 81t-39.5 64.5t-59.5 42.5t-75 15t-75.5 -15t-60 -42.5t-39.5 -64.5t-14 -81q0 -58 24.5 -103.5t67 -71.5t97.5 -26z" />
    <glyph glyph-name="R" unicode="R" horiz-adv-x="704" 
d="M87 0v700h317q68 0 122 -29t85.5 -79.5t31.5 -115.5q0 -66 -31.5 -118t-85.5 -82.5t-122 -30.5h-154v-245h-163zM476 0l-178 317l175 25l198 -343zM250 378h139q26 0 45.5 11.5t30 31.5t10.5 46q0 27 -12.5 47t-35 31.5t-53.5 11.5h-124v-179z" />
    <glyph glyph-name="S" unicode="S" horiz-adv-x="635" 
d="M320 -10q-104 0 -175.5 36.5t-122.5 103.5l104 117q49 -67 99 -90t103 -23q27 0 48.5 7t34 20.5t12.5 32.5q0 15 -7.5 27t-20.5 21t-30 16.5t-37.5 12.5t-41.5 9q-58 12 -100.5 31.5t-71 47t-42.5 63t-14 80.5q0 64 36.5 112t96.5 75t130 27q102 0 164.5 -32.5
t99.5 -89.5l-106 -103q-31 40 -70.5 60t-82.5 20q-29 0 -51 -7t-33.5 -20.5t-11.5 -32.5q0 -16 9.5 -28.5t26.5 -21.5t39 -15.5t46 -10.5q55 -11 99.5 -29t76.5 -44.5t49.5 -62t17.5 -81.5q0 -72 -35 -123t-97 -78t-142 -27z" />
    <glyph glyph-name="T" unicode="T" horiz-adv-x="655" 
d="M239 0v549h-206v151h590v-151h-213v-549h-171z" />
    <glyph glyph-name="U" unicode="U" horiz-adv-x="764" 
d="M383 -6q-87 0 -154.5 35.5t-106.5 98t-39 141.5v432h172v-423q0 -38 17 -68t46.5 -47.5t64.5 -17.5q37 0 67 17.5t47.5 47.5t17.5 68v423h166v-432q0 -79 -38.5 -141.5t-105.5 -98t-154 -35.5z" />
    <glyph glyph-name="V" unicode="V" horiz-adv-x="716" 
d="M285 0l-280 700h178l134 -353q12 -31 20.5 -55t15 -44.5t12.5 -41t13 -46.5h-31q9 35 17 62t18 56t25 69l129 353h174l-281 -700h-144z" />
    <glyph glyph-name="W" unicode="W" horiz-adv-x="998" 
d="M216 0l-211 700h174l106 -368q9 -32 15 -65.5t10 -62t5 -44.5l-23 -1q7 38 11 67t10 54.5t15 51.5l105 277h137l103 -277q12 -33 19.5 -62.5t12 -55t7.5 -50.5l-21 -4q2 19 3.5 34t2.5 29.5t3 30t6 35t11 44.5l104 367h171l-211 -700h-130l-167 402l19 -2l-153 -400h-134
z" />
    <glyph glyph-name="X" unicode="X" horiz-adv-x="707" 
d="M499 0l-216 313l-279 387h208l212 -309l283 -391h-208zM-1 0l267 382l137 -81l-206 -301h-198zM440 324l-136 78l195 298h198z" />
    <glyph glyph-name="Y" unicode="Y" horiz-adv-x="690" 
d="M269 0v349l7 -49l-283 400h194l215 -308l-87 3l193 305h189l-271 -411l15 69v-358h-172z" />
    <glyph glyph-name="Z" unicode="Z" horiz-adv-x="683" 
d="M60 0v114l374 497l58 -67h-406v156h528v-113l-371 -498l-60 61h442v-150h-565z" />
    <glyph glyph-name="bracketleft" unicode="[" horiz-adv-x="422" 
d="M80 -190v890h297v-136h-149l6 8v-638l-10 12h153v-136h-297z" />
    <glyph glyph-name="backslash" unicode="\" horiz-adv-x="584" 
d="M419 -107l-398 807h160l401 -807h-163z" />
    <glyph glyph-name="bracketright" unicode="]" horiz-adv-x="422" 
d="M45 -190v136h149l-6 -8v638l10 -12h-153v136h297v-890h-297z" />
    <glyph glyph-name="asciicircum" unicode="^" horiz-adv-x="592" 
d="M12 361l219 372h131l218 -372h-163l-161 281l81 2l-165 -283h-160z" />
    <glyph glyph-name="underscore" unicode="_" horiz-adv-x="686" 
d="M40 -192v130h606v-130h-606z" />
    <glyph glyph-name="grave" unicode="`" horiz-adv-x="500" 
d="M328 584l-204 110l74 105l178 -141z" />
    <glyph glyph-name="a" unicode="a" horiz-adv-x="566" 
d="M354 0v326q0 41 -22.5 60.5t-62.5 19.5q-39 0 -69.5 -14.5t-58.5 -47.5l-96 93q48 49 110 77t135 28q67 0 116 -20t76 -61t27 -104v-357h-155zM216 -10q-50 0 -90.5 20t-64 55.5t-23.5 83.5q0 41 15 72t44.5 51.5t74 31t103.5 10.5h161l-9 -101h-148q-21 0 -37 -3.5
t-27 -11t-16.5 -17.5t-5.5 -24q0 -15 8 -26t21.5 -17t31.5 -6q26 0 49.5 8.5t42 24.5t29.5 37l28 -72q-21 -34 -50.5 -60t-64 -41t-72.5 -15z" />
    <glyph glyph-name="b" unicode="b" horiz-adv-x="658" 
d="M390 -10q-36 0 -68.5 10t-59.5 26.5t-44.5 38.5t-22.5 46l35 12l-9 -121h-150v738h162v-333l-33 11q6 25 23 47t42.5 39.5t56.5 27.5t64 10q69 0 122.5 -36t84.5 -98.5t31 -142.5t-30.5 -142t-83.5 -97.5t-120 -35.5zM348 125q36 0 62.5 17.5t41.5 49t15 73.5
q0 43 -14.5 74.5t-41.5 49t-63 17.5t-63 -17.5t-42 -49t-15 -74.5q0 -42 15 -73.5t42 -49t63 -17.5z" />
    <glyph glyph-name="c" unicode="c" horiz-adv-x="545" 
d="M304 -10q-77 0 -138.5 36t-96.5 98.5t-35 140.5q0 80 35 142.5t96.5 98.5t138.5 36q71 0 130.5 -25.5t93.5 -69.5l-87 -106q-13 17 -32 31t-42 22t-48 8q-38 0 -67 -17.5t-45 -48.5t-16 -70q0 -38 16.5 -68.5t45.5 -48.5t65 -18q26 0 48 7t40.5 20t34.5 31l87 -106
q-34 -42 -95 -67.5t-129 -25.5z" />
    <glyph glyph-name="d" unicode="d" horiz-adv-x="654" 
d="M273 -10q-68 0 -122.5 35t-85.5 97.5t-31 142.5t31 142.5t85.5 98.5t123.5 36q36 0 69.5 -11t60 -30t43.5 -43t21 -51l-39 -9v342h161v-740h-150l-9 120l32 -6q-2 -24 -18 -46.5t-42.5 -40t-59.5 -27.5t-70 -10zM313 123q37 0 63.5 17.5t41.5 49.5t15 75q0 44 -15 76
t-41.5 49.5t-63.5 17.5q-36 0 -62.5 -17.5t-41.5 -49.5t-15 -76q0 -43 15 -75t41.5 -49.5t62.5 -17.5z" />
    <glyph glyph-name="e" unicode="e" horiz-adv-x="587" 
d="M324 -10q-88 0 -153.5 35t-101 96.5t-35.5 140.5q0 62 20 113.5t56.5 88.5t86 57.5t108.5 20.5q56 0 102 -20t80 -56t52 -85t17 -107l-1 -44h-422l-24 91h315l-17 -18v20q-2 25 -15.5 43.5t-35 29.5t-48.5 11q-40 0 -67.5 -15.5t-41.5 -44.5t-14 -72t18.5 -76t54 -51
t84.5 -18q33 0 60 10t58 34l75 -106q-31 -26 -66 -43.5t-71.5 -26t-73.5 -8.5z" />
    <glyph glyph-name="f" unicode="f" horiz-adv-x="395" 
d="M105 0v557q0 52 22.5 93.5t63.5 66.5t95 25q37 0 69 -11.5t57 -31.5l-46 -117q-13 7 -25 11t-22 4q-18 0 -30 -6t-17.5 -18t-5.5 -30v-543h-81h-46.5h-33.5zM27 382v134h348v-134h-348z" />
    <glyph glyph-name="g" unicode="g" horiz-adv-x="670" 
d="M314 -230q-64 0 -128.5 18.5t-104.5 48.5l56 114q32 -22 72.5 -34.5t84.5 -12.5q51 0 83 15t47.5 45t15.5 75v88l30 -6q-6 -31 -33.5 -58t-67.5 -43t-84 -16q-72 0 -129 33.5t-89.5 93t-32.5 137.5q0 80 32.5 142t88.5 97t126 35q29 0 56.5 -6.5t51 -18.5t42 -27
t30.5 -33t15 -36l-33 -10l6 120h153v-487q0 -65 -19.5 -116t-57 -86t-90.5 -53.5t-121 -18.5zM318 129q39 0 67.5 17t44 48t15.5 72q0 43 -15.5 74t-44 48.5t-67.5 17.5q-37 0 -65 -17.5t-43.5 -48.5t-15.5 -73t15.5 -73t43.5 -48t65 -17z" />
    <glyph glyph-name="h" unicode="h" horiz-adv-x="636" 
d="M71 0v740h159v-317l-33 -12q11 36 39.5 65.5t68.5 47.5t84 18q60 0 101 -24.5t61.5 -73t20.5 -119.5v-325h-161v313q0 32 -9 53t-27 31t-45 9q-21 0 -39 -6.5t-31.5 -19t-20.5 -28.5t-7 -36v-316h-81h-46.5h-33.5z" />
    <glyph glyph-name="i" unicode="i" horiz-adv-x="321" 
d="M80 0v531h161v-531h-161zM161 636q-46 0 -71.5 21.5t-25.5 61.5q0 37 26 60t71 23q44 0 69.5 -21.5t25.5 -61.5q0 -37 -25.5 -60t-69.5 -23z" />
    <glyph glyph-name="j" unicode="j" horiz-adv-x="317" 
d="M24 -210l-62 124q68 0 94.5 27.5t26.5 99.5v490h161v-528q0 -72 -25.5 -119.5t-74.5 -70.5t-120 -23zM166 636q-46 0 -70.5 21.5t-24.5 61.5q0 37 25 60t70 23t70.5 -21.5t25.5 -61.5q0 -37 -26 -60t-70 -23z" />
    <glyph glyph-name="k" unicode="k" horiz-adv-x="627" 
d="M225 156l-57 122l247 253h211zM71 0v740h161v-740h-161zM430 0l-185 240l114 88l262 -328h-191z" />
    <glyph glyph-name="l" unicode="l" horiz-adv-x="304" 
d="M71 0v740h161v-740h-161z" />
    <glyph glyph-name="m" unicode="m" horiz-adv-x="962" 
d="M70 0v531h153l5 -96l-22 -2q11 26 30 46t42.5 33.5t49.5 21t52 7.5q40 0 71.5 -12t55 -39t37.5 -72l-24 4l7 14q14 24 34.5 43.5t45.5 33.5t51.5 21t51.5 7q63 0 105 -25t63 -73.5t21 -119.5v-323h-161v311q0 47 -19.5 70.5t-58.5 23.5q-21 0 -38.5 -6.5t-30 -19
t-19.5 -28.5t-7 -36v-315h-161v312q0 45 -20.5 69t-57.5 24q-20 0 -37.5 -6.5t-30 -19t-19.5 -28.5t-7 -36v-315h-162z" />
    <glyph glyph-name="n" unicode="n" horiz-adv-x="636" 
d="M71 0v531h153l6 -108l-33 -12q11 36 39.5 65.5t68.5 47.5t84 18q60 0 101 -24.5t61.5 -73t20.5 -119.5v-325h-161v313q0 32 -9 53t-27 31t-45 9q-21 0 -39 -6.5t-31.5 -19t-20.5 -28.5t-7 -36v-316h-81h-46.5h-33.5z" />
    <glyph glyph-name="o" unicode="o" horiz-adv-x="640" 
d="M320 -10q-82 0 -147 35.5t-102 98t-37 141.5q0 81 37 143.5t102 98t147 35.5q83 0 147.5 -35.5t101.5 -98t37 -143.5q0 -79 -37 -141.5t-101.5 -98t-147.5 -35.5zM320 128q36 0 63.5 18t43.5 49t15 70q1 41 -15 72.5t-43.5 49t-63.5 17.5q-35 0 -63 -18t-44 -49t-16 -72
q0 -39 16 -70t44 -49t63 -18z" />
    <glyph glyph-name="p" unicode="p" horiz-adv-x="658" 
d="M71 -220v751h153l7 -117l-31 9q6 32 33.5 58.5t68.5 43t87 16.5q68 0 121 -35t83.5 -97.5t30.5 -143.5q0 -79 -30.5 -141t-84 -97.5t-121.5 -35.5q-46 0 -87 17.5t-69 45.5t-36 61l37 15v-350h-162zM349 127q36 0 62.5 17t41 48.5t14.5 72.5q0 42 -14.5 73.5t-41 49
t-62.5 17.5q-37 0 -64 -17.5t-42 -48.5t-15 -74q0 -41 15 -72.5t42 -48.5t64 -17z" />
    <glyph glyph-name="q" unicode="q" horiz-adv-x="658" 
d="M426 -220v347l34 -8q-3 -25 -19.5 -48t-42.5 -41.5t-58 -29t-66 -10.5q-69 0 -123.5 35.5t-85.5 98t-31 141.5q0 81 31 143.5t84.5 98t120.5 35.5q38 0 72 -10.5t61 -29t43.5 -41.5t18.5 -49l-37 -6l6 125h153v-751h-161zM311 127q36 0 63 17t41.5 48t14.5 73
q0 43 -14.5 74.5t-41.5 49t-63 17.5t-63 -17.5t-42 -49t-15 -74.5q0 -41 15 -72.5t42 -48.5t63 -17z" />
    <glyph glyph-name="r" unicode="r" horiz-adv-x="456" 
d="M71 0v531h153l7 -173l-30 34q13 42 40 76t64.5 54t78.5 20q18 0 33.5 -2.5t27.5 -7.5l-43 -177q-11 6 -29.5 10.5t-38.5 4.5q-22 0 -40.5 -7.5t-32 -21.5t-21 -33t-7.5 -43v-265h-162z" />
    <glyph glyph-name="s" unicode="s" horiz-adv-x="495" 
d="M250 -10q-76 0 -136 24.5t-96 67.5l98 84q31 -31 70 -45.5t74 -14.5q13 0 23 3t17.5 8.5t11.5 13t4 17.5q0 20 -17 30q-8 5 -29 12.5t-54 15.5q-47 12 -81.5 29t-56.5 39q-20 20 -30.5 46t-10.5 58q0 49 29.5 86t77.5 57.5t104 20.5q44 0 83.5 -10t74 -28t61.5 -43
l-85 -95q-17 17 -40 30.5t-46 22t-43 8.5q-15 0 -26.5 -2.5t-19 -8t-11.5 -13t-4 -16.5q0 -11 5.5 -19.5t15.5 -15.5q9 -5 31.5 -13t59.5 -18q47 -13 80.5 -29.5t53.5 -38.5q17 -17 24.5 -39.5t7.5 -48.5q0 -51 -28.5 -90.5t-78 -62t-113.5 -22.5z" />
    <glyph glyph-name="t" unicode="t" horiz-adv-x="399" 
d="M115 0v665h161v-665h-161zM21 390v141h357v-141h-357z" />
    <glyph glyph-name="u" unicode="u" horiz-adv-x="643" 
d="M252 -10q-58 0 -100 25.5t-64.5 73t-22.5 114.5v328h161v-304q0 -49 23.5 -76.5t65.5 -27.5q21 0 38 6.5t29.5 19t19.5 29.5t7 37v316h161v-531h-151l-6 109l29 12q-11 -37 -39.5 -67t-67.5 -47t-83 -17z" />
    <glyph glyph-name="v" unicode="v" horiz-adv-x="607" 
d="M235 0l-222 531h177l132 -393l-39 -5l136 398h176l-234 -531h-126z" />
    <glyph glyph-name="w" unicode="w" horiz-adv-x="834" 
d="M187 0l-174 531h169l98 -343l-22 4l110 266h94l117 -267l-24 -2l98 342h169l-181 -531h-118l-116 284l13 -2l-114 -282h-119z" />
    <glyph glyph-name="x" unicode="x" horiz-adv-x="607" 
d="M398 0l-113 171l-52 72l-210 288h193l110 -164l55 -77l208 -290h-191zM18 0l214 297l86 -103l-110 -194h-190zM371 231l-86 103l105 197h189z" />
    <glyph glyph-name="y" unicode="y" horiz-adv-x="621" 
d="M139 -230l121 284l2 -84l-257 561h182l112 -268q9 -19 17 -43t12 -45l-23 -13q6 15 13.5 38t16.5 49l98 282h183l-225 -531l-91 -230h-161z" />
    <glyph glyph-name="z" unicode="z" horiz-adv-x="550" 
d="M50 0v94l281 357v-51h-281v131h440v-97l-265 -348l-4 45h277v-131h-448z" />
    <glyph glyph-name="braceleft" unicode="{" horiz-adv-x="426" 
d="M365 -206q-52 11 -90 27.5t-63 40.5t-37 56.5t-12 74.5l1 95q0 50 -22 73.5t-63 24.5h-40v128h42q41 1 62 24t21 74l-1 95q0 82 48.5 129.5t153.5 69.5l35 -115q-35 -11 -55.5 -23t-29 -31.5t-8.5 -54.5l2 -84q0 -58 -35 -97t-110 -58v15q75 -21 110 -60t35 -96l-2 -84
q0 -32 8.5 -50t29 -29.5t55.5 -24.5z" />
    <glyph glyph-name="bar" unicode="|" horiz-adv-x="316" 
d="M82 -193v933h152v-933h-152z" />
    <glyph glyph-name="braceright" unicode="}" horiz-adv-x="426" 
d="M61 -206l-35 115q36 12 56 23.5t28 31t8 54.5l-2 84q0 58 35 97t110 58l1 -15q-76 21 -111 60t-35 96l2 84q0 32 -8 50t-28 30t-56 24l35 120q52 -10 90 -27t62.5 -41t36.5 -56.5t12 -74.5l-1 -95q0 -49 22 -73t63 -25h41v-128h-43q-41 -1 -62 -24t-21 -74l1 -95
q0 -82 -48.5 -129t-152.5 -70z" />
    <glyph glyph-name="asciitilde" unicode="~" horiz-adv-x="557" 
d="M382 202q-16 0 -36 4.5t-39 11.5t-36 14q-15 7 -31.5 13t-31 10t-23.5 4q-19 0 -29 -16t-10 -46h-115q0 95 37.5 146.5t115.5 51.5q17 0 36.5 -5.5t38.5 -13t34 -14.5q13 -5 27.5 -11t28 -10t23.5 -4q17 0 27.5 16.5t8.5 41.5l115 -2q0 -63 -16 -105.5t-47 -64t-78 -21.5
z" />
    <glyph glyph-name="uni00A0" unicode="&#xa0;" horiz-adv-x="319" 
 />
    <glyph glyph-name="exclamdown" unicode="&#xa1;" horiz-adv-x="307" 
d="M201 275q9 -61 17 -127t13 -131t5 -125v-73h-170v73q0 60 5 126.5t13.5 132t16.5 124.5h100zM152 541q41 0 64 -23t23 -67q0 -39 -24 -65t-63 -26q-41 0 -64 24t-23 67q0 40 24 65t63 25z" />
    <glyph glyph-name="cent" unicode="&#xa2;" horiz-adv-x="562" 
d="M321 78q-79 0 -141.5 36t-98 98.5t-35.5 140.5q0 80 35.5 142.5t98 98.5t141.5 36q71 0 130.5 -25.5t93.5 -69.5l-88 -106q-13 17 -32.5 31t-42.5 22t-48 8q-38 0 -68 -17.5t-46.5 -48.5t-16.5 -70q0 -38 17 -68.5t46.5 -48.5t68.5 -18q25 0 47 7t41 20t34 31l87 -106
q-34 -43 -94.5 -68t-128.5 -25zM263 0v109l25 38v408l-25 51v100h122v-101l-22 -46v-414l22 -37v-108h-122z" />
    <glyph glyph-name="sterling" unicode="&#xa3;" horiz-adv-x="637" 
d="M187 53l-77 21q28 16 46 52t18 70q0 19 -5.5 44.5t-14 54.5t-18.5 57q-12 38 -18 61.5t-8.5 40.5t-2.5 33q0 70 31 121t87.5 79.5t131.5 28.5q71 0 123.5 -23.5t77.5 -67.5l-121 -94q-16 20 -37.5 30t-48.5 10q-28 0 -50 -12.5t-34.5 -34.5t-12.5 -50q0 -31 9 -61.5
t17 -59.5q11 -34 19.5 -67t8.5 -57q0 -30 -11.5 -58.5t-38 -57t-71.5 -60.5zM447 -22q-34 0 -69.5 9.5t-56.5 15.5q-13 4 -30 9t-36 9t-37 4q-33 0 -68 -10t-72 -27l-58 114q44 27 95.5 42.5t104.5 15.5q31 0 55 -5t67 -20q21 -7 46 -14.5t52 -7.5q23 0 50.5 8.5t57.5 26.5
l72 -105q-34 -31 -82 -48t-91 -17zM44 303v96h425v-96h-425z" />
    <glyph glyph-name="currency" unicode="&#xa4;" horiz-adv-x="560" 
d="M281 110q-59 0 -106 25.5t-74 69.5t-27 100t27 100.5t74 70t106 25.5t106 -25.5t74 -70t27 -100.5t-27 -100t-73.5 -69.5t-106.5 -25.5zM131 60l-100 100l88 91l99 -103zM114 369l-86 82l100 99l87 -85zM281 229q21 0 37 9.5t25 27t9 39.5q0 23 -9 40.5t-25 27.5t-37 10
q-20 0 -36 -10t-25 -27.5t-9 -40.5q0 -22 9 -39.5t25 -27t36 -9.5zM434 63l-89 87l98 102l90 -89zM441 360l-99 99l92 96l100 -99z" />
    <glyph glyph-name="yen" unicode="&#xa5;" horiz-adv-x="690" 
d="M269 0v349l7 -49l-283 400h194l215 -308l-87 3l193 305h189l-271 -411l15 69v-358h-172zM143 120v74l436 -1v-74zM143 244v73l436 -1v-73z" />
    <glyph glyph-name="brokenbar" unicode="&#xa6;" horiz-adv-x="322" 
d="M84 -202v394h155v-394h-155zM84 347v393h155v-393h-155z" />
    <glyph glyph-name="section" unicode="&#xa7;" horiz-adv-x="574" 
d="M347 130l-39 82q43 4 62 20.5t19 38.5q0 17 -13.5 29t-43.5 24l-86 29q-30 13 -59 29.5t-53.5 38.5t-39 52.5t-14.5 71.5q0 47 24 85.5t74.5 62t129.5 23.5q48 0 89 -10.5t73.5 -30.5t56.5 -47l-84 -91q-25 22 -48.5 34.5t-45.5 18t-42 5.5q-34 0 -53.5 -14t-19.5 -37
q0 -15 10 -27.5t28 -21.5t41 -17l84 -31q74 -28 110.5 -68t34.5 -96q-2 -45 -26 -78t-67 -52t-102 -23zM270 -144q-48 0 -92.5 12t-81 33t-61.5 48l79 96q44 -37 84 -53t71 -16q38 0 58 13t20 38q0 15 -12 26t-32 20.5t-43 18.5l-86 30q-70 27 -105.5 67t-35.5 96
q0 42 22 76t64.5 55t101.5 24l38 -86q-23 -2 -38.5 -10t-23.5 -20t-8 -27q0 -19 15.5 -32.5t49.5 -25.5l70 -24q52 -20 91.5 -43.5t62 -56.5t22.5 -82t-24 -89.5t-74.5 -64t-131.5 -23.5z" />
    <glyph glyph-name="dieresis" unicode="&#xa8;" horiz-adv-x="500" 
d="M371 625q-42 0 -65 23t-23 63q0 38 24 62t64 24q41 0 64 -22.5t23 -63.5q0 -37 -23.5 -61.5t-63.5 -24.5zM130 625q-42 0 -64.5 23t-22.5 63q0 38 23.5 62t63.5 24q42 0 64.5 -22.5t22.5 -63.5q0 -37 -23.5 -61.5t-63.5 -24.5z" />
    <glyph glyph-name="copyright" unicode="&#xa9;" horiz-adv-x="790" 
d="M394 -18q-76 0 -143 28t-117 78.5t-78.5 117.5t-28.5 144t28.5 144t78.5 117.5t117 78.5t143 28q77 0 143.5 -28t117 -78.5t79 -117.5t28.5 -144t-28.5 -144t-79 -117.5t-117 -78.5t-143.5 -28zM411 143q-59 0 -107.5 27t-77 74t-28.5 106q0 57 28.5 104t77 75t107.5 28
q36 0 70 -12.5t65 -35.5l-49 -106q-23 17 -41 23t-33 6q-25 0 -45 -11t-31 -29.5t-11 -41.5q0 -25 11 -44t31 -29.5t45 -10.5q17 0 37 6.5t40 22.5l50 -108q-31 -22 -66.5 -33t-72.5 -11zM394 57q61 0 114 22.5t93.5 63t63 93.5t22.5 114q0 62 -22.5 115t-63 93t-93.5 62.5
t-114 22.5t-113.5 -22.5t-92.5 -62.5t-62.5 -93t-22.5 -115q0 -61 22.5 -114t62 -93.5t92.5 -63t114 -22.5z" />
    <glyph glyph-name="ordfeminine" unicode="&#xaa;" horiz-adv-x="390" 
d="M139 391q-37 0 -64.5 21.5t-42.5 59.5t-15 90q0 46 17 82t47.5 56.5t69.5 20.5q56 0 81.5 -32t25.5 -93l-20 52v67h117v-314h-117v73l20 33q0 -29 -14.5 -56t-41 -43.5t-63.5 -16.5zM186 482q25 0 40.5 20.5t15.5 53.5q0 35 -15 54.5t-43 19.5q-21 0 -35.5 -20t-14.5 -49
q0 -24 6 -42t17.5 -27.5t28.5 -9.5z" />
    <glyph glyph-name="guillemotleft" unicode="&#xab;" horiz-adv-x="561" 
d="M432 27l-175 225v12l174 228l92 -64l-120 -186l-1 34l121 -185zM185 27l-175 225v12l174 228l92 -64l-120 -186l-1 34l121 -185z" />
    <glyph glyph-name="logicalnot" unicode="&#xac;" horiz-adv-x="670" 
d="M477 106v211l63 -41h-498v140h586v-310h-151z" />
    <glyph glyph-name="uni00AD" unicode="&#xad;" horiz-adv-x="452" 
d="M58 214v147h344v-147h-344z" />
    <glyph glyph-name="registered" unicode="&#xae;" horiz-adv-x="506" 
d="M259 236q-70 0 -127.5 33.5t-91 90t-33.5 125.5q0 68 34 124t91.5 89.5t126.5 33.5q51 0 95.5 -19.5t78.5 -53.5t53 -79t19 -96q0 -68 -33 -124.5t-89 -90t-124 -33.5zM259 302q50 0 91.5 24t66 65.5t24.5 92.5t-24.5 92.5t-66 66t-91.5 24.5q-52 0 -94.5 -24.5
t-67.5 -66t-25 -92.5t25 -92.5t67.5 -65.5t94.5 -24zM292 367l-36 89l68 17l55 -106h-87zM159 367v239h122q38 0 61 -21t23 -54q0 -35 -24.5 -56.5t-59.5 -21.5h-56l14 11v-97h-80zM239 496l-13 7h35q12 0 19.5 5.5t7.5 14.5q0 10 -7 15.5t-18 5.5h-39l15 8v-56z" />
    <glyph glyph-name="macron" unicode="&#xaf;" horiz-adv-x="424" 
d="M83 633v102h334v-102h-334z" />
    <glyph glyph-name="degree" unicode="&#xb0;" horiz-adv-x="532" 
d="M266 393q-47 0 -85 21.5t-60 58t-22 80.5q0 46 22 82.5t59.5 58t85.5 21.5t86 -21.5t59.5 -58t21.5 -81.5q0 -44 -22 -81t-60 -58.5t-85 -21.5zM266 490q17 0 30 8.5t21 23t8 32.5t-7.5 32t-21 22.5t-30.5 8.5t-30.5 -8.5t-21 -23t-7.5 -32.5t8 -32.5t21.5 -22.5t29.5 -8
z" />
    <glyph glyph-name="plusminus" unicode="&#xb1;" horiz-adv-x="638" 
d="M67 310v131h503v-131h-503zM68 -8v132h503v-132h-503zM243 181v394h152v-394h-152z" />
    <glyph glyph-name="uni00B2" unicode="&#xb2;" horiz-adv-x="364" 
d="M60 418l-14 85l102 81q15 11 29.5 24.5t24.5 29t10 30.5q0 13 -6.5 20.5t-20.5 7.5q-19 0 -37.5 -14.5t-32.5 -37.5l-77 55q31 47 69 71.5t87 24.5q58 0 93 -32t35 -78q0 -40 -19.5 -70t-47.5 -52.5t-56 -39.5l-53 -39l2 25h182v-91h-270z" />
    <glyph glyph-name="uni00B3" unicode="&#xb3;" horiz-adv-x="355" 
d="M176 412q-41 0 -73 8.5t-67 25.5l45 79q18 -10 35.5 -15.5t36.5 -5.5q22 0 36 10.5t14 27.5q0 15 -12.5 24.5t-35.5 9.5q-13 0 -27 -3t-28 -8l-23 63l140 96l8 -27h-161v91h217l10 -84l-118 -85l-6 7q10 6 22 9t19 3q46 0 75.5 -28.5t29.5 -75.5q0 -36 -19 -63.5t-50 -43
t-68 -15.5z" />
    <glyph glyph-name="acute" unicode="&#xb4;" horiz-adv-x="500" 
d="M172 583l-48 74l178 141l74 -105z" />
    <glyph glyph-name="uni00B5" unicode="&#xb5;" horiz-adv-x="639" 
d="M75 -162v693h158v-308q0 -33 9 -55t27 -33.5t44 -11.5q21 0 38.5 7.5t31 21t20.5 31t7 38.5v310h158v-531h-149l-5 100l14 -10q-19 -36 -42.5 -57t-53 -31.5t-67.5 -12.5q-12 0 -22.5 3t-17.5 8.5t-11 11.5l13 52l6 -226h-158z" />
    <glyph glyph-name="paragraph" unicode="&#xb6;" horiz-adv-x="765" 
d="M246 0v315l47 -42h-62q-54 0 -96.5 27t-67 75t-24.5 109q0 65 28 113.5t78.5 75.5t118.5 27h410v-700h-166v659l50 -66h-228l78 58v-651h-166z" />
    <glyph glyph-name="periodcentered" unicode="&#xb7;" horiz-adv-x="256" 
d="M128 253q-41 0 -63.5 23.5t-22.5 66.5q0 40 23.5 65.5t62.5 25.5q41 0 64 -23.5t23 -67.5q0 -40 -24.5 -65t-62.5 -25z" />
    <glyph glyph-name="cedilla" unicode="&#xb8;" horiz-adv-x="500" 
d="M152 -246l-10 75q21 0 43.5 5t38 14.5t15.5 20.5q0 12 -11.5 19t-28.5 10.5t-32 3.5l-17 13l70 110h82l-45 -67q52 -7 77 -33t25 -64q0 -30 -19 -51t-50 -34t-67.5 -18t-70.5 -4z" />
    <glyph glyph-name="uni00B9" unicode="&#xb9;" horiz-adv-x="290" 
d="M115 430v290l17 -40l-60 -37l-46 83l117 69h87v-365h-58h-27.5h-29.5z" />
    <glyph glyph-name="ordmasculine" unicode="&#xba;" horiz-adv-x="398" 
d="M199 392q-49 0 -87 21t-59.5 57t-21.5 82q0 47 21.5 83.5t59.5 58t87 21.5q47 0 85 -21.5t60.5 -58.5t22.5 -83t-22 -82t-59.5 -57t-86.5 -21zM197 478q26 0 40 21.5t14 54.5q0 34 -14 54.5t-40 20.5q-23 0 -38 -21.5t-15 -53.5q0 -34 14.5 -55t38.5 -21z" />
    <glyph glyph-name="guillemotright" unicode="&#xbb;" horiz-adv-x="562" 
d="M378 29l-93 64l121 186l-1 -34l-119 185l91 64l175 -225v-12zM130 29l-93 64l121 186l-1 -34l-119 185l91 64l175 -225v-12z" />
    <glyph glyph-name="onequarter" unicode="&#xbc;" horiz-adv-x="820" 
d="M123 360v290l17 -40l-60 -37l-46 83l117 69h87v-365h-58h-27.5h-29.5zM89 0l467 700h147l-468 -700h-146zM711 160h74v-90h-74v90zM528 126l-16 34h145l-34 -33v154l29 -11zM728 -1h-121v104l30 -33h-175l-20 82l180 216h106v-369z" />
    <glyph glyph-name="onehalf" unicode="&#xbd;" horiz-adv-x="826" 
d="M123 360v290l17 -40l-60 -37l-46 83l117 69h87v-365h-58h-27.5h-29.5zM92 0l467 700h147l-468 -700h-146zM521 0l-14 85l102 81q15 11 29.5 24.5t24.5 29t10 30.5q0 13 -6.5 20.5t-20.5 7.5q-19 0 -37.5 -14.5t-32.5 -37.5l-77 55q31 47 69 71.5t87 24.5q58 0 93 -32
t35 -78q0 -40 -19.5 -70t-47.5 -52.5t-56 -39.5l-53 -39l2 25h182v-91h-270z" />
    <glyph glyph-name="threequarters" unicode="&#xbe;" horiz-adv-x="848" 
d="M162 342q-41 0 -73 8.5t-67 25.5l45 79q18 -10 35.5 -15.5t36.5 -5.5q22 0 36 10.5t14 27.5q0 15 -12.5 24.5t-35.5 9.5q-13 0 -27 -3t-28 -8l-23 63l140 96l8 -27h-161v91h217l10 -84l-118 -85l-6 7q10 6 22 9t19 3q46 0 75.5 -28.5t29.5 -75.5q0 -36 -19 -63.5t-50 -43
t-68 -15.5zM122 0l467 700h147l-468 -700h-146zM739 160h74v-90h-74v90zM556 126l-16 34h145l-34 -33v154l29 -11zM756 -1h-121v104l30 -33h-175l-20 82l180 216h106v-369z" />
    <glyph glyph-name="questiondown" unicode="&#xbf;" horiz-adv-x="537" 
d="M329 293l33 -130q-37 -9 -68.5 -21.5t-55 -28t-37 -36t-13.5 -46.5q0 -19 10 -33.5t26.5 -22.5t34.5 -8q26 0 50 9.5t49.5 28.5t56.5 47l82 -113q-31 -32 -70 -59.5t-84 -44t-97 -16.5q-68 0 -117 27t-75 73.5t-26 104.5q0 50 24 91t69.5 76t109.5 67l11 35h87zM366 455
q0 -40 -24 -65.5t-63 -25.5q-41 0 -63.5 24t-22.5 67q0 40 23.5 65t62.5 25q41 0 64 -23t23 -67z" />
    <glyph glyph-name="Agrave" unicode="&#xc0;" horiz-adv-x="697" 
d="M0 0l277 700h145l275 -700h-172l-133 355q-7 21 -15.5 45t-16.5 50t-15 50t-12 45l29 1q-6 -25 -13 -49t-15 -48t-16.5 -47.5t-17.5 -48.5l-132 -353h-168zM132 134l54 130h320l54 -130h-428zM446 748l-227 78l57 118l209 -116z" />
    <glyph glyph-name="Aacute" unicode="&#xc1;" horiz-adv-x="697" 
d="M0 0l277 700h145l275 -700h-172l-133 355q-7 21 -15.5 45t-16.5 50t-15 50t-12 45l29 1q-6 -25 -13 -49t-15 -48t-16.5 -47.5t-17.5 -48.5l-132 -353h-168zM132 134l54 130h320l54 -130h-428zM261 748l-37 80l209 116l55 -118z" />
    <glyph glyph-name="Acircumflex" unicode="&#xc2;" horiz-adv-x="697" 
d="M0 0l277 700h145l275 -700h-172l-133 355q-7 21 -15.5 45t-16.5 50t-15 50t-12 45l29 1q-6 -25 -13 -49t-15 -48t-16.5 -47.5t-17.5 -48.5l-132 -353h-168zM132 134l54 130h320l54 -130h-428zM218 753l-51 58l137 107h91l136 -107l-50 -58l-146 71h29z" />
    <glyph glyph-name="Atilde" unicode="&#xc3;" horiz-adv-x="697" 
d="M0 0l277 700h145l275 -700h-172l-133 355q-7 21 -15.5 45t-16.5 50t-15 50t-12 45l29 1q-6 -25 -13 -49t-15 -48t-16.5 -47.5t-17.5 -48.5l-132 -353h-168zM132 134l54 130h320l54 -130h-428zM427 767q-20 0 -40.5 6.5t-44.5 16.5q-18 8 -30 12t-22 4q-14 0 -22.5 -10
t-8.5 -29h-100q0 67 36.5 105t92.5 38q18 0 35.5 -5t43.5 -17q16 -7 27.5 -11.5t20.5 -4.5q13 0 20 10.5t6 27.5h99q0 -39 -14 -71.5t-39.5 -52t-59.5 -19.5z" />
    <glyph glyph-name="Adieresis" unicode="&#xc4;" horiz-adv-x="697" 
d="M0 0l277 700h145l275 -700h-172l-133 355q-7 21 -15.5 45t-16.5 50t-15 50t-12 45l29 1q-6 -25 -13 -49t-15 -48t-16.5 -47.5t-17.5 -48.5l-132 -353h-168zM132 134l54 130h320l54 -130h-428zM470 754q-43 0 -65 22t-22 63q0 35 22.5 60t64.5 25q44 0 65.5 -22.5
t21.5 -62.5q0 -36 -22.5 -60.5t-64.5 -24.5zM226 754q-43 0 -65 22t-22 63q0 35 22.5 60t64.5 25q44 0 66 -22.5t22 -62.5q0 -36 -23 -60.5t-65 -24.5z" />
    <glyph glyph-name="Aring" unicode="&#xc5;" horiz-adv-x="697" 
d="M0 0l277 700h145l275 -700h-172l-133 355q-7 21 -15.5 45t-16.5 50t-15 50t-12 45l29 1q-6 -25 -13 -49t-15 -48t-16.5 -47.5t-17.5 -48.5l-132 -353h-168zM132 134l54 130h320l54 -130h-428zM349 673q-35 0 -65 17t-48.5 45t-18.5 61q0 35 18 64t48.5 46.5t65.5 17.5
q36 0 66 -17.5t48.5 -46.5t18.5 -64q0 -33 -18.5 -61t-48.5 -45t-66 -17zM349 756q17 0 29 11.5t12 28.5t-12 28.5t-29 11.5q-16 0 -28 -11.5t-12 -28.5t12 -28.5t28 -11.5z" />
    <glyph glyph-name="AE" unicode="&#xc6;" horiz-adv-x="1072" 
d="M-8 0l488 700h533v-141h-327v-137h282v-136h-282v-145h327v-141h-490v141h-267l92 134h175v279l26 -8l-373 -546h-184z" />
    <glyph glyph-name="Ccedilla" unicode="&#xc7;" horiz-adv-x="693" 
d="M405 -10q-79 0 -145.5 26.5t-115 75t-75 115t-26.5 145.5q0 78 27.5 144t77.5 115t117.5 76t146.5 27q50 0 98 -13t89.5 -38.5t71.5 -61.5l-105 -119q-31 34 -69.5 53t-85.5 19q-40 0 -75.5 -14t-61.5 -41t-41 -64t-15 -84q0 -46 14.5 -83.5t42 -64t66 -40.5t85.5 -14
q31 0 59.5 8.5t53.5 24.5t43 36l83 -132q-24 -27 -65.5 -49t-92 -34.5t-102.5 -12.5zM297 -246l-10 75q21 0 43.5 5t38 14.5t15.5 20.5q0 12 -11.5 19t-27.5 10.5t-31 3.5l-18 13l69 110h83l-45 -67q51 -7 76.5 -33t25.5 -64q0 -30 -19 -51t-50.5 -34t-67.5 -18t-71 -4z" />
    <glyph glyph-name="Egrave" unicode="&#xc8;" horiz-adv-x="645" 
d="M87 0v700h488v-146h-321v-408h332v-146h-499zM168 286v140h363v-140h-363zM440 748l-227 78l57 118l209 -116z" />
    <glyph glyph-name="Eacute" unicode="&#xc9;" horiz-adv-x="645" 
d="M87 0v700h488v-146h-321v-408h332v-146h-499zM168 286v140h363v-140h-363zM254 748l-37 80l209 116l55 -118z" />
    <glyph glyph-name="Ecircumflex" unicode="&#xca;" horiz-adv-x="645" 
d="M87 0v700h488v-146h-321v-408h332v-146h-499zM168 286v140h363v-140h-363zM211 753l-51 58l137 107h91l136 -107l-50 -58l-146 71h29z" />
    <glyph glyph-name="Edieresis" unicode="&#xcb;" horiz-adv-x="645" 
d="M87 0v700h488v-146h-321v-408h332v-146h-499zM168 286v140h363v-140h-363zM464 754q-43 0 -65 22t-22 63q0 35 22.5 60t64.5 25q44 0 65.5 -22.5t21.5 -62.5q0 -36 -22.5 -60.5t-64.5 -24.5zM220 754q-43 0 -65 22t-22 63q0 35 22.5 60t64.5 25q44 0 66 -22.5t22 -62.5
q0 -36 -23 -60.5t-65 -24.5z" />
    <glyph glyph-name="Igrave" unicode="&#xcc;" horiz-adv-x="555" 
d="M74 0v144h118v412h-118v144h407v-144h-118v-412h118v-144h-407zM375 748l-227 78l57 118l209 -116z" />
    <glyph glyph-name="Iacute" unicode="&#xcd;" horiz-adv-x="555" 
d="M74 0v144h118v412h-118v144h407v-144h-118v-412h118v-144h-407zM189 748l-37 80l209 116l55 -118z" />
    <glyph glyph-name="Icircumflex" unicode="&#xce;" horiz-adv-x="555" 
d="M74 0v144h118v412h-118v144h407v-144h-118v-412h118v-144h-407zM146 753l-51 58l137 107h91l136 -107l-50 -58l-146 71h29z" />
    <glyph glyph-name="Idieresis" unicode="&#xcf;" horiz-adv-x="555" 
d="M74 0v144h118v412h-118v144h407v-144h-118v-412h118v-144h-407zM399 754q-43 0 -65 22t-22 63q0 35 22.5 60t64.5 25q44 0 65.5 -22.5t21.5 -62.5q0 -36 -22.5 -60.5t-64.5 -24.5zM155 754q-43 0 -65 22t-22 63q0 35 22.5 60t64.5 25q44 0 66 -22.5t22 -62.5
q0 -36 -23 -60.5t-65 -24.5z" />
    <glyph glyph-name="Eth" unicode="&#xd0;" horiz-adv-x="772" 
d="M36 290v120h324v-120h-324zM87 0v700h295q77 0 141 -25.5t110 -72t71 -111t25 -141.5q0 -78 -25 -142t-71 -110.5t-109.5 -72t-141.5 -25.5h-295zM258 118l-22 33h141q41 0 74 14t56.5 40.5t36 63t12.5 81.5t-12.5 81.5t-36 63t-56.5 40.5t-74 14h-144l25 31v-462z" />
    <glyph glyph-name="Ntilde" unicode="&#xd1;" horiz-adv-x="808" 
d="M87 0v700h153l368 -499l-33 4q-7 56 -12 104.5t-6.5 101.5t-1.5 122v167h166v-700h-155l-382 514l49 -7q7 -61 11 -101t6 -68.5t3 -53t1 -54.5v-230h-167zM482 767q-20 0 -40.5 6.5t-44.5 16.5q-18 8 -30 12t-22 4q-14 0 -22.5 -10t-8.5 -29h-100q0 67 36.5 105t92.5 38
q18 0 35.5 -5t43.5 -17q16 -7 27.5 -11.5t20.5 -4.5q13 0 20 10.5t6 27.5h99q0 -39 -14 -71.5t-39.5 -52t-59.5 -19.5z" />
    <glyph glyph-name="Ograve" unicode="&#xd2;" horiz-adv-x="810" 
d="M406 -10q-79 0 -145.5 27t-115 75.5t-75.5 115t-27 145.5q0 78 27 144.5t75.5 115.5t115 76t145.5 27q78 0 144 -27t114.5 -76t75.5 -115.5t27 -145.5q0 -78 -27 -144t-75.5 -115t-114.5 -76t-144 -27zM406 151q41 0 75 15t59.5 42t39.5 64t14 80q0 44 -14 81t-39.5 64.5
t-59.5 42.5t-75 15t-75.5 -15t-60 -42.5t-39.5 -64.5t-14 -81q0 -58 24.5 -103.5t67 -71.5t97.5 -26zM502 748l-227 78l57 118l209 -116z" />
    <glyph glyph-name="Oacute" unicode="&#xd3;" horiz-adv-x="810" 
d="M406 -10q-79 0 -145.5 27t-115 75.5t-75.5 115t-27 145.5q0 78 27 144.5t75.5 115.5t115 76t145.5 27q78 0 144 -27t114.5 -76t75.5 -115.5t27 -145.5q0 -78 -27 -144t-75.5 -115t-114.5 -76t-144 -27zM406 151q41 0 75 15t59.5 42t39.5 64t14 80q0 44 -14 81t-39.5 64.5
t-59.5 42.5t-75 15t-75.5 -15t-60 -42.5t-39.5 -64.5t-14 -81q0 -58 24.5 -103.5t67 -71.5t97.5 -26zM317 748l-37 80l209 116l55 -118z" />
    <glyph glyph-name="Ocircumflex" unicode="&#xd4;" horiz-adv-x="810" 
d="M406 -10q-79 0 -145.5 27t-115 75.5t-75.5 115t-27 145.5q0 78 27 144.5t75.5 115.5t115 76t145.5 27q78 0 144 -27t114.5 -76t75.5 -115.5t27 -145.5q0 -78 -27 -144t-75.5 -115t-114.5 -76t-144 -27zM406 151q41 0 75 15t59.5 42t39.5 64t14 80q0 44 -14 81t-39.5 64.5
t-59.5 42.5t-75 15t-75.5 -15t-60 -42.5t-39.5 -64.5t-14 -81q0 -58 24.5 -103.5t67 -71.5t97.5 -26zM273 753l-51 58l137 107h91l136 -107l-50 -58l-146 71h29z" />
    <glyph glyph-name="Otilde" unicode="&#xd5;" horiz-adv-x="810" 
d="M406 -10q-79 0 -145.5 27t-115 75.5t-75.5 115t-27 145.5q0 78 27 144.5t75.5 115.5t115 76t145.5 27q78 0 144 -27t114.5 -76t75.5 -115.5t27 -145.5q0 -78 -27 -144t-75.5 -115t-114.5 -76t-144 -27zM406 151q41 0 75 15t59.5 42t39.5 64t14 80q0 44 -14 81t-39.5 64.5
t-59.5 42.5t-75 15t-75.5 -15t-60 -42.5t-39.5 -64.5t-14 -81q0 -58 24.5 -103.5t67 -71.5t97.5 -26zM483 767q-20 0 -40.5 6.5t-44.5 16.5q-18 8 -30 12t-22 4q-14 0 -22.5 -10t-8.5 -29h-100q0 67 36.5 105t92.5 38q18 0 35.5 -5t43.5 -17q16 -7 27.5 -11.5t20.5 -4.5
q13 0 20 10.5t6 27.5h99q0 -39 -14 -71.5t-39.5 -52t-59.5 -19.5z" />
    <glyph glyph-name="Odieresis" unicode="&#xd6;" horiz-adv-x="810" 
d="M406 -10q-79 0 -145.5 27t-115 75.5t-75.5 115t-27 145.5q0 78 27 144.5t75.5 115.5t115 76t145.5 27q78 0 144 -27t114.5 -76t75.5 -115.5t27 -145.5q0 -78 -27 -144t-75.5 -115t-114.5 -76t-144 -27zM406 151q41 0 75 15t59.5 42t39.5 64t14 80q0 44 -14 81t-39.5 64.5
t-59.5 42.5t-75 15t-75.5 -15t-60 -42.5t-39.5 -64.5t-14 -81q0 -58 24.5 -103.5t67 -71.5t97.5 -26zM526 754q-43 0 -65 22t-22 63q0 35 22.5 60t64.5 25q44 0 65.5 -22.5t21.5 -62.5q0 -36 -22.5 -60.5t-64.5 -24.5zM282 754q-43 0 -65 22t-22 63q0 35 22.5 60t64.5 25
q44 0 66 -22.5t22 -62.5q0 -36 -23 -60.5t-65 -24.5z" />
    <glyph glyph-name="multiply" unicode="&#xd7;" horiz-adv-x="532" 
d="M397 52l-360 361l97 94l361 -359zM133 49l-94 98l360 360l95 -96z" />
    <glyph glyph-name="Oslash" unicode="&#xd8;" horiz-adv-x="805" 
d="M139 -33l-64 54l589 721l69 -48zM405 -10q-79 0 -145.5 27t-115 75.5t-75.5 115t-27 145.5q0 78 27 144.5t75.5 115.5t115 76t145.5 27q78 0 144 -27t114.5 -76t75.5 -115.5t27 -145.5q0 -78 -27 -144t-75.5 -115t-114.5 -76t-144 -27zM405 151q41 0 75 15t59.5 42
t39.5 64t14 80q0 44 -14 81t-39.5 64.5t-59.5 42.5t-75 15t-75.5 -15t-60 -42.5t-39.5 -64.5t-14 -81q0 -58 24.5 -103.5t67 -71.5t97.5 -26z" />
    <glyph glyph-name="Ugrave" unicode="&#xd9;" horiz-adv-x="764" 
d="M383 -6q-87 0 -154.5 35.5t-106.5 98t-39 141.5v432h172v-423q0 -38 17 -68t46.5 -47.5t64.5 -17.5q37 0 67 17.5t47.5 47.5t17.5 68v423h166v-432q0 -79 -38.5 -141.5t-105.5 -98t-154 -35.5zM479 748l-227 78l57 118l209 -116z" />
    <glyph glyph-name="Uacute" unicode="&#xda;" horiz-adv-x="764" 
d="M383 -6q-87 0 -154.5 35.5t-106.5 98t-39 141.5v432h172v-423q0 -38 17 -68t46.5 -47.5t64.5 -17.5q37 0 67 17.5t47.5 47.5t17.5 68v423h166v-432q0 -79 -38.5 -141.5t-105.5 -98t-154 -35.5zM294 748l-37 80l209 116l55 -118z" />
    <glyph glyph-name="Ucircumflex" unicode="&#xdb;" horiz-adv-x="764" 
d="M383 -6q-87 0 -154.5 35.5t-106.5 98t-39 141.5v432h172v-423q0 -38 17 -68t46.5 -47.5t64.5 -17.5q37 0 67 17.5t47.5 47.5t17.5 68v423h166v-432q0 -79 -38.5 -141.5t-105.5 -98t-154 -35.5zM250 753l-51 58l137 107h91l136 -107l-50 -58l-146 71h29z" />
    <glyph glyph-name="Udieresis" unicode="&#xdc;" horiz-adv-x="764" 
d="M383 -6q-87 0 -154.5 35.5t-106.5 98t-39 141.5v432h172v-423q0 -38 17 -68t46.5 -47.5t64.5 -17.5q37 0 67 17.5t47.5 47.5t17.5 68v423h166v-432q0 -79 -38.5 -141.5t-105.5 -98t-154 -35.5zM503 754q-43 0 -65 22t-22 63q0 35 22.5 60t64.5 25q44 0 65.5 -22.5
t21.5 -62.5q0 -36 -22.5 -60.5t-64.5 -24.5zM259 754q-43 0 -65 22t-22 63q0 35 22.5 60t64.5 25q44 0 66 -22.5t22 -62.5q0 -36 -23 -60.5t-65 -24.5z" />
    <glyph glyph-name="Yacute" unicode="&#xdd;" horiz-adv-x="690" 
d="M269 0v349l7 -49l-283 400h194l215 -308l-87 3l193 305h189l-271 -411l15 69v-358h-172zM256 748l-37 80l209 116l55 -118z" />
    <glyph glyph-name="Thorn" unicode="&#xde;" horiz-adv-x="663" 
d="M87 0v700h171v-111h133q66 0 118 -30t82 -82t30 -118q0 -67 -30 -121t-82 -85t-118 -31h-133v-122h-171zM258 273h110q22 0 39.5 10.5t28.5 29.5t11 44t-11 43t-28.5 28t-39.5 10h-110v-165z" />
    <glyph glyph-name="germandbls" unicode="&#xdf;" horiz-adv-x="671" 
d="M429 -10q-42 0 -74 12.5t-58 37.5l63 110q20 -14 34 -19.5t30 -5.5q30 0 48.5 21t18.5 56q0 38 -20 66t-53 48t-74 33v86q21 9 36 19.5t24.5 21.5t14 23.5t4.5 26.5q0 30 -21 46.5t-58 16.5q-39 0 -59.5 -24.5t-20.5 -65.5v-499h-158v499q0 70 29 123t84 82.5t132 29.5
q64 0 114 -20t79 -57.5t29 -90.5q0 -32 -13.5 -63.5t-37.5 -57.5t-58 -42l-2 35q54 -17 95.5 -50t65 -79t23.5 -105q0 -60 -28.5 -108.5t-77.5 -77t-111 -28.5zM27 365v138h152v-138h-152z" />
    <glyph glyph-name="agrave" unicode="&#xe0;" horiz-adv-x="566" 
d="M354 0v326q0 41 -22.5 60.5t-62.5 19.5q-39 0 -69.5 -14.5t-58.5 -47.5l-96 93q48 49 110 77t135 28q67 0 116 -20t76 -61t27 -104v-357h-155zM216 -10q-50 0 -90.5 20t-64 55.5t-23.5 83.5q0 41 15 72t44.5 51.5t74 31t103.5 10.5h161l-9 -101h-148q-21 0 -37 -3.5
t-27 -11t-16.5 -17.5t-5.5 -24q0 -15 8 -26t21.5 -17t31.5 -6q26 0 49.5 8.5t42 24.5t29.5 37l28 -72q-21 -34 -50.5 -60t-64 -41t-72.5 -15zM341 590l-204 110l74 105l178 -141z" />
    <glyph glyph-name="aacute" unicode="&#xe1;" horiz-adv-x="566" 
d="M354 0v326q0 41 -22.5 60.5t-62.5 19.5q-39 0 -69.5 -14.5t-58.5 -47.5l-96 93q48 49 110 77t135 28q67 0 116 -20t76 -61t27 -104v-357h-155zM216 -10q-50 0 -90.5 20t-64 55.5t-23.5 83.5q0 41 15 72t44.5 51.5t74 31t103.5 10.5h161l-9 -101h-148q-21 0 -37 -3.5
t-27 -11t-16.5 -17.5t-5.5 -24q0 -15 8 -26t21.5 -17t31.5 -6q26 0 49.5 8.5t42 24.5t29.5 37l28 -72q-21 -34 -50.5 -60t-64 -41t-72.5 -15zM204 589l-48 74l178 141l74 -105z" />
    <glyph glyph-name="acircumflex" unicode="&#xe2;" horiz-adv-x="566" 
d="M354 0v326q0 41 -22.5 60.5t-62.5 19.5q-39 0 -69.5 -14.5t-58.5 -47.5l-96 93q48 49 110 77t135 28q67 0 116 -20t76 -61t27 -104v-357h-155zM216 -10q-50 0 -90.5 20t-64 55.5t-23.5 83.5q0 41 15 72t44.5 51.5t74 31t103.5 10.5h161l-9 -101h-148q-21 0 -37 -3.5
t-27 -11t-16.5 -17.5t-5.5 -24q0 -15 8 -26t21.5 -17t31.5 -6q26 0 49.5 8.5t42 24.5t29.5 37l28 -72q-21 -34 -50.5 -60t-64 -41t-72.5 -15zM149 601l-58 50l144 129h96l144 -129l-58 -50l-149 85h30z" />
    <glyph glyph-name="atilde" unicode="&#xe3;" horiz-adv-x="566" 
d="M354 0v326q0 41 -22.5 60.5t-62.5 19.5q-39 0 -69.5 -14.5t-58.5 -47.5l-96 93q48 49 110 77t135 28q67 0 116 -20t76 -61t27 -104v-357h-155zM216 -10q-50 0 -90.5 20t-64 55.5t-23.5 83.5q0 41 15 72t44.5 51.5t74 31t103.5 10.5h161l-9 -101h-148q-21 0 -37 -3.5
t-27 -11t-16.5 -17.5t-5.5 -24q0 -15 8 -26t21.5 -17t31.5 -6q26 0 49.5 8.5t42 24.5t29.5 37l28 -72q-21 -34 -50.5 -60t-64 -41t-72.5 -15zM350 614q-16 0 -33.5 6t-40.5 21q-18 14 -28.5 20t-17.5 6q-15 0 -25 -11.5t-13 -36.5l-90 11q0 57 31.5 97.5t84.5 40.5
q17 0 33.5 -5.5t39.5 -21.5q14 -10 25.5 -18t22.5 -8q14 0 23.5 12.5t13.5 35.5l89 -12q-1 -36 -15.5 -67.5t-39.5 -50.5t-60 -19z" />
    <glyph glyph-name="adieresis" unicode="&#xe4;" horiz-adv-x="566" 
d="M354 0v326q0 41 -22.5 60.5t-62.5 19.5q-39 0 -69.5 -14.5t-58.5 -47.5l-96 93q48 49 110 77t135 28q67 0 116 -20t76 -61t27 -104v-357h-155zM216 -10q-50 0 -90.5 20t-64 55.5t-23.5 83.5q0 41 15 72t44.5 51.5t74 31t103.5 10.5h161l-9 -101h-148q-21 0 -37 -3.5
t-27 -11t-16.5 -17.5t-5.5 -24q0 -15 8 -26t21.5 -17t31.5 -6q26 0 49.5 8.5t42 24.5t29.5 37l28 -72q-21 -34 -50.5 -60t-64 -41t-72.5 -15zM404 631q-42 0 -65 23t-23 63q0 38 24 62t64 24q41 0 64 -22.5t23 -63.5q0 -37 -23.5 -61.5t-63.5 -24.5zM163 631q-42 0 -64.5 23
t-22.5 63q0 38 23.5 62t63.5 24q42 0 64.5 -22.5t22.5 -63.5q0 -37 -23.5 -61.5t-63.5 -24.5z" />
    <glyph glyph-name="aring" unicode="&#xe5;" horiz-adv-x="566" 
d="M354 0v326q0 41 -22.5 60.5t-62.5 19.5q-39 0 -69.5 -14.5t-58.5 -47.5l-96 93q48 49 110 77t135 28q67 0 116 -20t76 -61t27 -104v-357h-155zM216 -10q-50 0 -90.5 20t-64 55.5t-23.5 83.5q0 41 15 72t44.5 51.5t74 31t103.5 10.5h161l-9 -101h-148q-21 0 -37 -3.5
t-27 -11t-16.5 -17.5t-5.5 -24q0 -15 8 -26t21.5 -17t31.5 -6q26 0 49.5 8.5t42 24.5t29.5 37l28 -72q-21 -34 -50.5 -60t-64 -41t-72.5 -15zM283 605q-32 0 -59.5 16t-44.5 42t-17 57q0 32 16.5 59t44 43t60.5 16t60.5 -16t44 -43t16.5 -59q0 -31 -16.5 -57t-44 -42
t-60.5 -16zM283 685q16 0 26.5 10.5t10.5 24.5q0 17 -10.5 27.5t-26.5 10.5t-26.5 -10.5t-10.5 -26.5q0 -15 10.5 -25.5t26.5 -10.5z" />
    <glyph glyph-name="ae" unicode="&#xe6;" horiz-adv-x="904" 
d="M220 -10q-51 0 -92.5 20t-65.5 55.5t-24 83.5q0 41 15.5 72t46 52t75.5 31t104 10h454l-10 -11v21q-2 24 -15 43t-34 29.5t-48 10.5q-39 0 -66.5 -15.5t-41.5 -44.5t-14 -72q0 -42 20 -75t57 -51.5t87 -18.5q35 0 63 10t59 34l70 -107q-31 -26 -66 -43.5t-71.5 -25.5
t-72.5 -8q-87 0 -151.5 34.5t-100 96t-35.5 141.5q0 61 19.5 112.5t55 89t83 58t103.5 20.5q73 0 129.5 -35t88.5 -95.5t31 -137.5l-1 -49h-591q-21 0 -36.5 -4.5t-26 -12.5t-16 -20t-5.5 -27t7.5 -27t21 -19t31.5 -7q27 0 50.5 8.5t42 24.5t29.5 37l52 -84
q-21 -32 -54.5 -55.5t-74 -36t-82.5 -12.5zM360 248v85q0 19 -6.5 32.5t-18 22.5t-28 13.5t-37.5 4.5q-39 0 -66.5 -14.5t-50.5 -47.5l-96 94q38 47 99.5 75.5t136.5 28.5q48 0 86.5 -10.5t66 -32t42 -54.5t14.5 -77v-117z" />
    <glyph glyph-name="ccedilla" unicode="&#xe7;" horiz-adv-x="545" 
d="M304 -10q-77 0 -138.5 36t-96.5 98.5t-35 140.5q0 80 35 142.5t96.5 98.5t138.5 36q71 0 130.5 -25.5t93.5 -69.5l-87 -106q-13 17 -32 31t-42 22t-48 8q-38 0 -67 -17.5t-45 -48.5t-16 -70q0 -38 16.5 -68.5t45.5 -48.5t65 -18q26 0 48 7t40.5 20t34.5 31l87 -106
q-34 -42 -95 -67.5t-129 -25.5zM206 -246l-10 75q21 0 43.5 5t38 14.5t15.5 20.5q0 12 -11.5 19t-28.5 10.5t-32 3.5l-17 13l70 110h82l-45 -67q52 -7 77 -33t25 -64q0 -30 -19 -51t-50 -34t-67.5 -18t-70.5 -4z" />
    <glyph glyph-name="egrave" unicode="&#xe8;" horiz-adv-x="586" 
d="M324 -10q-88 0 -153.5 35t-101 96.5t-35.5 140.5q0 62 20 113.5t56.5 88.5t86 57.5t108.5 20.5q56 0 102 -20t80 -56t52 -85t17 -107l-1 -44h-422l-24 91h315l-17 -18v20q-2 25 -15.5 43.5t-35 29.5t-48.5 11q-40 0 -67.5 -15.5t-41.5 -44.5t-14 -72t18.5 -76t54 -51
t84.5 -18q33 0 60 10t58 34l75 -106q-31 -26 -66 -43.5t-71.5 -26t-73.5 -8.5zM363 590l-204 110l74 105l178 -141z" />
    <glyph glyph-name="eacute" unicode="&#xe9;" horiz-adv-x="586" 
d="M324 -10q-88 0 -153.5 35t-101 96.5t-35.5 140.5q0 62 20 113.5t56.5 88.5t86 57.5t108.5 20.5q56 0 102 -20t80 -56t52 -85t17 -107l-1 -44h-422l-24 91h315l-17 -18v20q-2 25 -15.5 43.5t-35 29.5t-48.5 11q-40 0 -67.5 -15.5t-41.5 -44.5t-14 -72t18.5 -76t54 -51
t84.5 -18q33 0 60 10t58 34l75 -106q-31 -26 -66 -43.5t-71.5 -26t-73.5 -8.5zM227 589l-48 74l178 141l74 -105z" />
    <glyph glyph-name="ecircumflex" unicode="&#xea;" horiz-adv-x="586" 
d="M324 -10q-88 0 -153.5 35t-101 96.5t-35.5 140.5q0 62 20 113.5t56.5 88.5t86 57.5t108.5 20.5q56 0 102 -20t80 -56t52 -85t17 -107l-1 -44h-422l-24 91h315l-17 -18v20q-2 25 -15.5 43.5t-35 29.5t-48.5 11q-40 0 -67.5 -15.5t-41.5 -44.5t-14 -72t18.5 -76t54 -51
t84.5 -18q33 0 60 10t58 34l75 -106q-31 -26 -66 -43.5t-71.5 -26t-73.5 -8.5zM171 601l-58 50l144 129h96l144 -129l-58 -50l-149 85h30z" />
    <glyph glyph-name="edieresis" unicode="&#xeb;" horiz-adv-x="586" 
d="M324 -10q-88 0 -153.5 35t-101 96.5t-35.5 140.5q0 62 20 113.5t56.5 88.5t86 57.5t108.5 20.5q56 0 102 -20t80 -56t52 -85t17 -107l-1 -44h-422l-24 91h315l-17 -18v20q-2 25 -15.5 43.5t-35 29.5t-48.5 11q-40 0 -67.5 -15.5t-41.5 -44.5t-14 -72t18.5 -76t54 -51
t84.5 -18q33 0 60 10t58 34l75 -106q-31 -26 -66 -43.5t-71.5 -26t-73.5 -8.5zM425 631q-42 0 -65 23t-23 63q0 38 24 62t64 24q41 0 64 -22.5t23 -63.5q0 -37 -23.5 -61.5t-63.5 -24.5zM184 631q-42 0 -64.5 23t-22.5 63q0 38 23.5 62t63.5 24q42 0 64.5 -22.5t22.5 -63.5
q0 -37 -23.5 -61.5t-63.5 -24.5z" />
    <glyph glyph-name="igrave" unicode="&#xec;" horiz-adv-x="290" 
d="M64 0v531h161v-531h-161zM203 590l-204 110l74 105l178 -141z" />
    <glyph glyph-name="iacute" unicode="&#xed;" horiz-adv-x="290" 
d="M64 0v531h161v-531h-161zM66 589l-48 74l178 141l74 -105z" />
    <glyph glyph-name="icircumflex" unicode="&#xee;" horiz-adv-x="290" 
d="M64 0v531h161v-531h-161zM11 601l-58 50l144 129h96l144 -129l-58 -50l-149 85h30z" />
    <glyph glyph-name="idieresis" unicode="&#xef;" horiz-adv-x="290" 
d="M64 0v531h161v-531h-161zM265 631q-42 0 -65 23t-23 63q0 38 24 62t64 24q41 0 64 -22.5t23 -63.5q0 -37 -23.5 -61.5t-63.5 -24.5zM24 631q-42 0 -64.5 23t-22.5 63q0 38 23.5 62t63.5 24q42 0 64.5 -22.5t22.5 -63.5q0 -37 -23.5 -61.5t-63.5 -24.5z" />
    <glyph glyph-name="eth" unicode="&#xf0;" horiz-adv-x="596" 
d="M297 -7q-76 0 -135.5 35t-93.5 95t-34 133q0 53 20.5 100t55.5 83t80.5 57t95.5 21t89.5 -20.5t66 -58.5t36.5 -91l-95 32q-3 55 -16 96.5t-38 73t-64.5 54.5t-96.5 40l49 103q63 -16 116.5 -44.5t95.5 -69.5t72 -93.5t45.5 -115t15.5 -135.5q0 -87 -33.5 -153.5
t-93 -104t-138.5 -37.5zM298 130q32 0 58 17.5t41 47.5t15 67q0 36 -15 65.5t-41 46.5t-58 17t-58 -17t-41 -46t-15 -66t15 -67t41 -47.5t58 -17.5zM150 516l-13 67l157 40l58 27l147 33l19 -67l-114 -26l-44 -25z" />
    <glyph glyph-name="ntilde" unicode="&#xf1;" horiz-adv-x="636" 
d="M71 0v531h153l6 -108l-33 -12q11 36 39.5 65.5t68.5 47.5t84 18q60 0 101 -24.5t61.5 -73t20.5 -119.5v-325h-161v313q0 32 -9 53t-27 31t-45 9q-21 0 -39 -6.5t-31.5 -19t-20.5 -28.5t-7 -36v-316h-81h-46.5h-33.5zM416 614q-16 0 -33.5 6t-40.5 21q-18 14 -28.5 20
t-17.5 6q-15 0 -25 -11.5t-13 -36.5l-90 11q0 57 31.5 97.5t84.5 40.5q17 0 33.5 -5.5t39.5 -21.5q14 -10 25.5 -18t22.5 -8q14 0 23.5 12.5t13.5 35.5l89 -12q-1 -36 -15.5 -67.5t-39.5 -50.5t-60 -19z" />
    <glyph glyph-name="ograve" unicode="&#xf2;" horiz-adv-x="640" 
d="M320 -10q-82 0 -147 35.5t-102 98t-37 141.5q0 81 37 143.5t102 98t147 35.5q83 0 147.5 -35.5t101.5 -98t37 -143.5q0 -79 -37 -141.5t-101.5 -98t-147.5 -35.5zM320 128q36 0 63.5 18t43.5 49t15 70q1 41 -15 72.5t-43.5 49t-63.5 17.5q-35 0 -63 -18t-44 -49t-16 -72
q0 -39 16 -70t44 -49t63 -18zM378 590l-204 110l74 105l178 -141z" />
    <glyph glyph-name="oacute" unicode="&#xf3;" horiz-adv-x="640" 
d="M320 -10q-82 0 -147 35.5t-102 98t-37 141.5q0 81 37 143.5t102 98t147 35.5q83 0 147.5 -35.5t101.5 -98t37 -143.5q0 -79 -37 -141.5t-101.5 -98t-147.5 -35.5zM320 128q36 0 63.5 18t43.5 49t15 70q1 41 -15 72.5t-43.5 49t-63.5 17.5q-35 0 -63 -18t-44 -49t-16 -72
q0 -39 16 -70t44 -49t63 -18zM242 589l-48 74l178 141l74 -105z" />
    <glyph glyph-name="ocircumflex" unicode="&#xf4;" horiz-adv-x="640" 
d="M320 -10q-82 0 -147 35.5t-102 98t-37 141.5q0 81 37 143.5t102 98t147 35.5q83 0 147.5 -35.5t101.5 -98t37 -143.5q0 -79 -37 -141.5t-101.5 -98t-147.5 -35.5zM320 128q36 0 63.5 18t43.5 49t15 70q1 41 -15 72.5t-43.5 49t-63.5 17.5q-35 0 -63 -18t-44 -49t-16 -72
q0 -39 16 -70t44 -49t63 -18zM186 601l-58 50l144 129h96l144 -129l-58 -50l-149 85h30z" />
    <glyph glyph-name="otilde" unicode="&#xf5;" horiz-adv-x="640" 
d="M320 -10q-82 0 -147 35.5t-102 98t-37 141.5q0 81 37 143.5t102 98t147 35.5q83 0 147.5 -35.5t101.5 -98t37 -143.5q0 -79 -37 -141.5t-101.5 -98t-147.5 -35.5zM320 128q36 0 63.5 18t43.5 49t15 70q1 41 -15 72.5t-43.5 49t-63.5 17.5q-35 0 -63 -18t-44 -49t-16 -72
q0 -39 16 -70t44 -49t63 -18zM386 614q-16 0 -33.5 6t-40.5 21q-18 14 -28.5 20t-17.5 6q-15 0 -25 -11.5t-13 -36.5l-90 11q0 57 31.5 97.5t84.5 40.5q17 0 33.5 -5.5t39.5 -21.5q14 -10 25.5 -18t22.5 -8q14 0 23.5 12.5t13.5 35.5l89 -12q-1 -36 -15.5 -67.5t-39.5 -50.5
t-60 -19z" />
    <glyph glyph-name="odieresis" unicode="&#xf6;" horiz-adv-x="640" 
d="M320 -10q-82 0 -147 35.5t-102 98t-37 141.5q0 81 37 143.5t102 98t147 35.5q83 0 147.5 -35.5t101.5 -98t37 -143.5q0 -79 -37 -141.5t-101.5 -98t-147.5 -35.5zM320 128q36 0 63.5 18t43.5 49t15 70q1 41 -15 72.5t-43.5 49t-63.5 17.5q-35 0 -63 -18t-44 -49t-16 -72
q0 -39 16 -70t44 -49t63 -18zM440 631q-42 0 -65 23t-23 63q0 38 24 62t64 24q41 0 64 -22.5t23 -63.5q0 -37 -23.5 -61.5t-63.5 -24.5zM199 631q-42 0 -64.5 23t-22.5 63q0 38 23.5 62t63.5 24q42 0 64.5 -22.5t22.5 -63.5q0 -37 -23.5 -61.5t-63.5 -24.5z" />
    <glyph glyph-name="divide" unicode="&#xf7;" horiz-adv-x="597" 
d="M43 198v131h511v-131h-511zM296 -26q-27 0 -47.5 10.5t-32 30t-11.5 45.5q0 25 11.5 44t32.5 30t47 11q28 0 48 -10.5t31.5 -29.5t11.5 -45q0 -24 -11.5 -43.5t-32 -31t-47.5 -11.5zM296 380q-27 0 -47.5 10.5t-32 29.5t-11.5 44t11.5 44.5t32.5 30.5t47 11
q28 0 48 -10.5t31.5 -29.5t11.5 -46q0 -24 -11.5 -43t-32 -30t-47.5 -11z" />
    <glyph glyph-name="oslash" unicode="&#xf8;" horiz-adv-x="640" 
d="M120 -36l-67 50l462 546l68 -50zM320 -10q-82 0 -147 35.5t-102 98t-37 141.5q0 81 37 143.5t102 98t147 35.5q83 0 147.5 -35.5t101.5 -98t37 -143.5q0 -79 -37 -141.5t-101.5 -98t-147.5 -35.5zM320 128q36 0 63.5 18t43.5 49t15 70q1 41 -15 72.5t-43.5 49t-63.5 17.5
q-35 0 -63 -18t-44 -49t-16 -72q0 -39 16 -70t44 -49t63 -18z" />
    <glyph glyph-name="ugrave" unicode="&#xf9;" horiz-adv-x="643" 
d="M252 -10q-58 0 -100 25.5t-64.5 73t-22.5 114.5v328h161v-304q0 -49 23.5 -76.5t65.5 -27.5q21 0 38 6.5t29.5 19t19.5 29.5t7 37v316h161v-531h-151l-6 109l29 12q-11 -37 -39.5 -67t-67.5 -47t-83 -17zM380 590l-204 110l74 105l178 -141z" />
    <glyph glyph-name="uacute" unicode="&#xfa;" horiz-adv-x="643" 
d="M252 -10q-58 0 -100 25.5t-64.5 73t-22.5 114.5v328h161v-304q0 -49 23.5 -76.5t65.5 -27.5q21 0 38 6.5t29.5 19t19.5 29.5t7 37v316h161v-531h-151l-6 109l29 12q-11 -37 -39.5 -67t-67.5 -47t-83 -17zM244 589l-48 74l178 141l74 -105z" />
    <glyph glyph-name="ucircumflex" unicode="&#xfb;" horiz-adv-x="643" 
d="M252 -10q-58 0 -100 25.5t-64.5 73t-22.5 114.5v328h161v-304q0 -49 23.5 -76.5t65.5 -27.5q21 0 38 6.5t29.5 19t19.5 29.5t7 37v316h161v-531h-151l-6 109l29 12q-11 -37 -39.5 -67t-67.5 -47t-83 -17zM188 601l-58 50l144 129h96l144 -129l-58 -50l-149 85h30z" />
    <glyph glyph-name="udieresis" unicode="&#xfc;" horiz-adv-x="643" 
d="M252 -10q-58 0 -100 25.5t-64.5 73t-22.5 114.5v328h161v-304q0 -49 23.5 -76.5t65.5 -27.5q21 0 38 6.5t29.5 19t19.5 29.5t7 37v316h161v-531h-151l-6 109l29 12q-11 -37 -39.5 -67t-67.5 -47t-83 -17zM442 631q-42 0 -65 23t-23 63q0 38 24 62t64 24q41 0 64 -22.5
t23 -63.5q0 -37 -23.5 -61.5t-63.5 -24.5zM201 631q-42 0 -64.5 23t-22.5 63q0 38 23.5 62t63.5 24q42 0 64.5 -22.5t22.5 -63.5q0 -37 -23.5 -61.5t-63.5 -24.5z" />
    <glyph glyph-name="yacute" unicode="&#xfd;" horiz-adv-x="621" 
d="M139 -230l121 284l2 -84l-257 561h182l112 -268q9 -19 17 -43t12 -45l-23 -13q6 15 13.5 38t16.5 49l98 282h183l-225 -531l-91 -230h-161zM233 589l-48 74l178 141l74 -105z" />
    <glyph glyph-name="thorn" unicode="&#xfe;" horiz-adv-x="657" 
d="M71 -220v960h162v-327l-33 10q6 32 33.5 58.5t68.5 43t87 16.5q68 0 121 -35t83 -97.5t30 -143.5q0 -79 -30.5 -141t-83.5 -97.5t-122 -35.5q-45 0 -86 17.5t-69 46t-36 61.5l37 14v-350h-162zM348 127q36 0 62.5 17t41 48.5t14.5 72.5q0 42 -14.5 73.5t-41 49
t-62.5 17.5t-63 -17.5t-42 -48.5t-15 -74q0 -41 15 -72.5t42 -48.5t63 -17z" />
    <glyph glyph-name="ydieresis" unicode="&#xff;" horiz-adv-x="621" 
d="M139 -230l121 284l2 -84l-257 561h182l112 -268q9 -19 17 -43t12 -45l-23 -13q6 15 13.5 38t16.5 49l98 282h183l-225 -531l-91 -230h-161zM431 631q-42 0 -65 23t-23 63q0 38 24 62t64 24q41 0 64 -22.5t23 -63.5q0 -37 -23.5 -61.5t-63.5 -24.5zM190 631
q-42 0 -64.5 23t-22.5 63q0 38 23.5 62t63.5 24q42 0 64.5 -22.5t22.5 -63.5q0 -37 -23.5 -61.5t-63.5 -24.5z" />
    <glyph glyph-name="Amacron" unicode="&#x100;" horiz-adv-x="697" 
d="M0 0l277 700h145l275 -700h-172l-133 355q-7 21 -15.5 45t-16.5 50t-15 50t-12 45l29 1q-6 -25 -13 -49t-15 -48t-16.5 -47.5t-17.5 -48.5l-132 -353h-168zM132 134l54 130h320l54 -130h-428zM169 787v103h361v-103h-361z" />
    <glyph glyph-name="amacron" unicode="&#x101;" horiz-adv-x="566" 
d="M354 0v326q0 41 -22.5 60.5t-62.5 19.5q-39 0 -69.5 -14.5t-58.5 -47.5l-96 93q48 49 110 77t135 28q67 0 116 -20t76 -61t27 -104v-357h-155zM216 -10q-50 0 -90.5 20t-64 55.5t-23.5 83.5q0 41 15 72t44.5 51.5t74 31t103.5 10.5h161l-9 -101h-148q-21 0 -37 -3.5
t-27 -11t-16.5 -17.5t-5.5 -24q0 -15 8 -26t21.5 -17t31.5 -6q26 0 49.5 8.5t42 24.5t29.5 37l28 -72q-21 -34 -50.5 -60t-64 -41t-72.5 -15zM116 639v102h334v-102h-334z" />
    <glyph glyph-name="Abreve" unicode="&#x102;" horiz-adv-x="697" 
d="M0 0l277 700h145l275 -700h-172l-133 355q-7 21 -15.5 45t-16.5 50t-15 50t-12 45l29 1q-6 -25 -13 -49t-15 -48t-16.5 -47.5t-17.5 -48.5l-132 -353h-168zM132 134l54 130h320l54 -130h-428zM350 756q-45 0 -82.5 19.5t-62.5 54t-35 78.5l104 12q10 -25 30.5 -41.5
t45.5 -16.5q26 0 46 16.5t30 41.5l104 -12q-9 -44 -34.5 -78.5t-62.5 -54t-83 -19.5z" />
    <glyph glyph-name="abreve" unicode="&#x103;" horiz-adv-x="566" 
d="M354 0v326q0 41 -22.5 60.5t-62.5 19.5q-39 0 -69.5 -14.5t-58.5 -47.5l-96 93q48 49 110 77t135 28q67 0 116 -20t76 -61t27 -104v-357h-155zM216 -10q-50 0 -90.5 20t-64 55.5t-23.5 83.5q0 41 15 72t44.5 51.5t74 31t103.5 10.5h161l-9 -101h-148q-21 0 -37 -3.5
t-27 -11t-16.5 -17.5t-5.5 -24q0 -15 8 -26t21.5 -17t31.5 -6q26 0 49.5 8.5t42 24.5t29.5 37l28 -72q-21 -34 -50.5 -60t-64 -41t-72.5 -15zM283 600q-69 0 -117 42.5t-63 118.5l104 12q11 -31 31 -49.5t45 -18.5t45.5 18.5t30.5 49.5l104 -12q-15 -76 -63 -118.5
t-117 -42.5z" />
    <glyph glyph-name="Aogonek" unicode="&#x104;" horiz-adv-x="697" 
d="M0 0l277 700h145l275 -700h-172l-133 355q-7 21 -15.5 45t-16.5 50t-15 50t-12 45l29 1q-6 -25 -13 -49t-15 -48t-16.5 -47.5t-17.5 -48.5l-132 -353h-168zM132 134l54 130h320l54 -130h-428zM571 -210q-33 0 -60.5 13.5t-44 38t-16.5 55.5q0 26 11.5 49t33 42.5
t52.5 35.5t70 27l38 -51q-39 -7 -65.5 -29.5t-26.5 -47.5q0 -13 7 -21t18 -8t18.5 6t14.5 18l71 -53q-15 -32 -46.5 -53.5t-74.5 -21.5z" />
    <glyph glyph-name="aogonek" unicode="&#x105;" horiz-adv-x="566" 
d="M354 0v326q0 41 -22.5 60.5t-62.5 19.5q-39 0 -69.5 -14.5t-58.5 -47.5l-96 93q48 49 110 77t135 28q67 0 116 -20t76 -61t27 -104v-357h-155zM216 -10q-50 0 -90.5 20t-64 55.5t-23.5 83.5q0 41 15 72t44.5 51.5t74 31t103.5 10.5h161l-9 -101h-148q-21 0 -37 -3.5
t-27 -11t-16.5 -17.5t-5.5 -24q0 -15 8 -26t21.5 -17t31.5 -6q26 0 49.5 8.5t42 24.5t29.5 37l28 -72q-21 -34 -50.5 -60t-64 -41t-72.5 -15zM395 -209q-33 0 -60.5 14.5t-44 40t-16.5 56.5q0 26 10.5 47t32.5 39t54.5 32t75.5 26l40 -46q-27 -6 -50 -18.5t-36.5 -28
t-13.5 -32.5q0 -12 7 -19.5t20 -7.5q9 0 16 6t15 18l71 -51q-15 -28 -46.5 -52t-74.5 -24z" />
    <glyph glyph-name="Cacute" unicode="&#x106;" horiz-adv-x="693" 
d="M405 -10q-79 0 -145.5 26.5t-115 75t-75 115t-26.5 145.5q0 78 27.5 144t77.5 115t117.5 76t146.5 27q50 0 98 -13t89.5 -38.5t71.5 -61.5l-105 -119q-31 34 -69.5 53t-85.5 19q-40 0 -75.5 -14t-61.5 -41t-41 -64t-15 -84q0 -46 14.5 -83.5t42 -64t66 -40.5t85.5 -14
q31 0 59.5 8.5t53.5 24.5t43 36l83 -132q-24 -27 -65.5 -49t-92 -34.5t-102.5 -12.5zM322 748l-37 80l209 116l55 -118z" />
    <glyph glyph-name="cacute" unicode="&#x107;" horiz-adv-x="545" 
d="M304 -10q-77 0 -138.5 36t-96.5 98.5t-35 140.5q0 80 35 142.5t96.5 98.5t138.5 36q71 0 130.5 -25.5t93.5 -69.5l-87 -106q-13 17 -32 31t-42 22t-48 8q-38 0 -67 -17.5t-45 -48.5t-16 -70q0 -38 16.5 -68.5t45.5 -48.5t65 -18q26 0 48 7t40.5 20t34.5 31l87 -106
q-34 -42 -95 -67.5t-129 -25.5zM225 589l-48 74l178 141l74 -105z" />
    <glyph glyph-name="Ccircumflex" unicode="&#x108;" horiz-adv-x="693" 
d="M405 -10q-79 0 -145.5 26.5t-115 75t-75 115t-26.5 145.5q0 78 27.5 144t77.5 115t117.5 76t146.5 27q50 0 98 -13t89.5 -38.5t71.5 -61.5l-105 -119q-31 34 -69.5 53t-85.5 19q-40 0 -75.5 -14t-61.5 -41t-41 -64t-15 -84q0 -46 14.5 -83.5t42 -64t66 -40.5t85.5 -14
q31 0 59.5 8.5t53.5 24.5t43 36l83 -132q-24 -27 -65.5 -49t-92 -34.5t-102.5 -12.5zM278 753l-51 58l137 107h91l136 -107l-50 -58l-146 71h29z" />
    <glyph glyph-name="ccircumflex" unicode="&#x109;" horiz-adv-x="545" 
d="M304 -10q-77 0 -138.5 36t-96.5 98.5t-35 140.5q0 80 35 142.5t96.5 98.5t138.5 36q71 0 130.5 -25.5t93.5 -69.5l-87 -106q-13 17 -32 31t-42 22t-48 8q-38 0 -67 -17.5t-45 -48.5t-16 -70q0 -38 16.5 -68.5t45.5 -48.5t65 -18q26 0 48 7t40.5 20t34.5 31l87 -106
q-34 -42 -95 -67.5t-129 -25.5zM170 601l-58 50l144 129h96l144 -129l-58 -50l-149 85h30z" />
    <glyph glyph-name="Cdotaccent" unicode="&#x10a;" horiz-adv-x="693" 
d="M405 -10q-79 0 -145.5 26.5t-115 75t-75 115t-26.5 145.5q0 78 27.5 144t77.5 115t117.5 76t146.5 27q50 0 98 -13t89.5 -38.5t71.5 -61.5l-105 -119q-31 34 -69.5 53t-85.5 19q-40 0 -75.5 -14t-61.5 -41t-41 -64t-15 -84q0 -46 14.5 -83.5t42 -64t66 -40.5t85.5 -14
q31 0 59.5 8.5t53.5 24.5t43 36l83 -132q-24 -27 -65.5 -49t-92 -34.5t-102.5 -12.5zM410 756q-46 0 -71 22t-25 61q0 35 25 59t71 24q47 0 71.5 -22t24.5 -61q0 -35 -25.5 -59t-70.5 -24z" />
    <glyph glyph-name="cdotaccent" unicode="&#x10b;" horiz-adv-x="545" 
d="M304 -10q-77 0 -138.5 36t-96.5 98.5t-35 140.5q0 80 35 142.5t96.5 98.5t138.5 36q71 0 130.5 -25.5t93.5 -69.5l-87 -106q-13 17 -32 31t-42 22t-48 8q-38 0 -67 -17.5t-45 -48.5t-16 -70q0 -38 16.5 -68.5t45.5 -48.5t65 -18q26 0 48 7t40.5 20t34.5 31l87 -106
q-34 -42 -95 -67.5t-129 -25.5zM304 636q-46 0 -71 21.5t-25 61.5q0 37 25.5 60t70.5 23q46 0 71 -21.5t25 -61.5q0 -37 -25.5 -60t-70.5 -23z" />
    <glyph glyph-name="Ccaron" unicode="&#x10c;" horiz-adv-x="693" 
d="M405 -10q-79 0 -145.5 26.5t-115 75t-75 115t-26.5 145.5q0 78 27.5 144t77.5 115t117.5 76t146.5 27q50 0 98 -13t89.5 -38.5t71.5 -61.5l-105 -119q-31 34 -69.5 53t-85.5 19q-40 0 -75.5 -14t-61.5 -41t-41 -64t-15 -84q0 -46 14.5 -83.5t42 -64t66 -40.5t85.5 -14
q31 0 59.5 8.5t53.5 24.5t43 36l83 -132q-24 -27 -65.5 -49t-92 -34.5t-102.5 -12.5zM362 754l-134 109l50 56l147 -71h-30l147 71l50 -56l-134 -109h-96z" />
    <glyph glyph-name="ccaron" unicode="&#x10d;" horiz-adv-x="545" 
d="M304 -10q-77 0 -138.5 36t-96.5 98.5t-35 140.5q0 80 35 142.5t96.5 98.5t138.5 36q71 0 130.5 -25.5t93.5 -69.5l-87 -106q-13 17 -32 31t-42 22t-48 8q-38 0 -67 -17.5t-45 -48.5t-16 -70q0 -38 16.5 -68.5t45.5 -48.5t65 -18q26 0 48 7t40.5 20t34.5 31l87 -106
q-34 -42 -95 -67.5t-129 -25.5zM256 607l-139 129l58 50l144 -85h-30l144 85l58 -50l-139 -129h-96z" />
    <glyph glyph-name="Dcaron" unicode="&#x10e;" horiz-adv-x="772" 
d="M87 0v700h295q77 0 141 -25.5t110 -72t71 -111t25 -141.5q0 -78 -25 -142t-71 -110.5t-109.5 -72t-141.5 -25.5h-295zM258 118l-22 33h141q41 0 74 14t56.5 40.5t36 63t12.5 81.5t-12.5 81.5t-36 63t-56.5 40.5t-74 14h-144l25 31v-462zM338 754l-134 109l50 56l147 -71
h-30l147 71l50 -56l-134 -109h-96z" />
    <glyph glyph-name="dcaron" unicode="&#x10f;" horiz-adv-x="752" 
d="M273 -10q-68 0 -122.5 35t-85.5 97.5t-31 142.5t31 142.5t85.5 98.5t123.5 36q36 0 69.5 -11t60 -30t43.5 -43t21 -51l-39 -9v342h161v-740h-150l-9 120l32 -6q-2 -24 -18 -46.5t-42.5 -40t-59.5 -27.5t-70 -10zM313 123q37 0 63.5 17.5t41.5 49.5t15 75q0 44 -15 76
t-41.5 49.5t-63.5 17.5q-36 0 -62.5 -17.5t-41.5 -49.5t-15 -76q0 -43 15 -75t41.5 -49.5t62.5 -17.5zM685 487l-40 55q14 4 31 13t29.5 20.5t12.5 24.5q0 8 -6 12.5t-19 8.5q-21 9 -29.5 21.5t-8.5 32.5q0 32 23 48.5t58 16.5q42 0 71.5 -24.5t29.5 -72.5
q0 -29 -10.5 -53.5t-31 -44t-48 -34t-62.5 -24.5z" />
    <glyph glyph-name="Dcroat" unicode="&#x110;" horiz-adv-x="772" 
d="M36 290v120h324v-120h-324zM87 0v700h295q77 0 141 -25.5t110 -72t71 -111t25 -141.5q0 -78 -25 -142t-71 -110.5t-109.5 -72t-141.5 -25.5h-295zM258 118l-22 33h141q41 0 74 14t56.5 40.5t36 63t12.5 81.5t-12.5 81.5t-36 63t-56.5 40.5t-74 14h-144l25 31v-462z" />
    <glyph glyph-name="dcroat" unicode="&#x111;" horiz-adv-x="654" 
d="M318 574v120h324v-120h-324zM273 -10q-68 0 -122.5 35t-85.5 97.5t-31 142.5t31 142.5t85.5 98.5t123.5 36q36 0 69.5 -11t60 -30t43.5 -43t21 -51l-39 -9v342h161v-740h-150l-9 120l32 -6q-2 -24 -18 -46.5t-42.5 -40t-59.5 -27.5t-70 -10zM313 123q37 0 63.5 17.5
t41.5 49.5t15 75q0 44 -15 76t-41.5 49.5t-63.5 17.5q-36 0 -62.5 -17.5t-41.5 -49.5t-15 -76q0 -43 15 -75t41.5 -49.5t62.5 -17.5z" />
    <glyph glyph-name="Emacron" unicode="&#x112;" horiz-adv-x="645" 
d="M87 0v700h488v-146h-321v-408h332v-146h-499zM168 286v140h363v-140h-363zM161 787v103h361v-103h-361z" />
    <glyph glyph-name="emacron" unicode="&#x113;" horiz-adv-x="586" 
d="M324 -10q-88 0 -153.5 35t-101 96.5t-35.5 140.5q0 62 20 113.5t56.5 88.5t86 57.5t108.5 20.5q56 0 102 -20t80 -56t52 -85t17 -107l-1 -44h-422l-24 91h315l-17 -18v20q-2 25 -15.5 43.5t-35 29.5t-48.5 11q-40 0 -67.5 -15.5t-41.5 -44.5t-14 -72t18.5 -76t54 -51
t84.5 -18q33 0 60 10t58 34l75 -106q-31 -26 -66 -43.5t-71.5 -26t-73.5 -8.5zM138 639v102h334v-102h-334z" />
    <glyph glyph-name="Ebreve" unicode="&#x114;" horiz-adv-x="645" 
d="M87 0v700h488v-146h-321v-408h332v-146h-499zM168 286v140h363v-140h-363zM342 756q-45 0 -82.5 19.5t-62.5 54t-35 78.5l104 12q10 -25 30.5 -41.5t45.5 -16.5q26 0 46 16.5t30 41.5l104 -12q-9 -44 -34.5 -78.5t-62.5 -54t-83 -19.5z" />
    <glyph glyph-name="ebreve" unicode="&#x115;" horiz-adv-x="586" 
d="M324 -10q-88 0 -153.5 35t-101 96.5t-35.5 140.5q0 62 20 113.5t56.5 88.5t86 57.5t108.5 20.5q56 0 102 -20t80 -56t52 -85t17 -107l-1 -44h-422l-24 91h315l-17 -18v20q-2 25 -15.5 43.5t-35 29.5t-48.5 11q-40 0 -67.5 -15.5t-41.5 -44.5t-14 -72t18.5 -76t54 -51
t84.5 -18q33 0 60 10t58 34l75 -106q-31 -26 -66 -43.5t-71.5 -26t-73.5 -8.5zM305 600q-69 0 -117 42.5t-63 118.5l104 12q11 -31 31 -49.5t45 -18.5t45.5 18.5t30.5 49.5l104 -12q-15 -76 -63 -118.5t-117 -42.5z" />
    <glyph glyph-name="Edotaccent" unicode="&#x116;" horiz-adv-x="645" 
d="M87 0v700h488v-146h-321v-408h332v-146h-499zM168 286v140h363v-140h-363zM342 756q-46 0 -71 22t-25 61q0 35 25 59t71 24q47 0 71.5 -22t24.5 -61q0 -35 -25.5 -59t-70.5 -24z" />
    <glyph glyph-name="edotaccent" unicode="&#x117;" horiz-adv-x="586" 
d="M324 -10q-88 0 -153.5 35t-101 96.5t-35.5 140.5q0 62 20 113.5t56.5 88.5t86 57.5t108.5 20.5q56 0 102 -20t80 -56t52 -85t17 -107l-1 -44h-422l-24 91h315l-17 -18v20q-2 25 -15.5 43.5t-35 29.5t-48.5 11q-40 0 -67.5 -15.5t-41.5 -44.5t-14 -72t18.5 -76t54 -51
t84.5 -18q33 0 60 10t58 34l75 -106q-31 -26 -66 -43.5t-71.5 -26t-73.5 -8.5zM305 636q-46 0 -71 21.5t-25 61.5q0 37 25.5 60t70.5 23q46 0 71 -21.5t25 -61.5q0 -37 -25.5 -60t-70.5 -23z" />
    <glyph glyph-name="Eogonek" unicode="&#x118;" horiz-adv-x="645" 
d="M87 0v700h488v-146h-321v-408h332v-146h-499zM168 286v140h363v-140h-363zM461 -210q-33 0 -60.5 13.5t-44 38t-16.5 55.5q0 26 11.5 49t33 42.5t52.5 35.5t70 27l38 -51q-39 -7 -65.5 -29.5t-26.5 -47.5q0 -13 7 -21t18 -8t18.5 6t14.5 18l71 -53q-15 -32 -46.5 -53.5
t-74.5 -21.5z" />
    <glyph glyph-name="eogonek" unicode="&#x119;" horiz-adv-x="587" 
d="M382 -204q-53 0 -83.5 31.5t-30.5 74.5q0 42 25.5 74t71 59.5t105.5 55.5l29 -49q-58 -32 -89 -57t-31 -53q0 -15 8 -23.5t21 -8.5q11 0 18.5 6t16.5 17l69 -51q-16 -28 -48.5 -52t-81.5 -24zM324 -10q-88 0 -153.5 35t-101 96.5t-35.5 140.5q0 62 20 113.5t56.5 88.5
t86 57.5t108.5 20.5q56 0 102 -20t80 -56t52 -85t17 -107l-1 -44h-422l-24 91h315l-17 -18v20q-2 25 -15.5 43.5t-35 29.5t-48.5 11q-40 0 -67.5 -15.5t-41.5 -44.5t-14 -72t18.5 -76t54 -51t84.5 -18q33 0 60 10t58 34l75 -106q-31 -26 -66 -43.5t-71.5 -26t-73.5 -8.5z
" />
    <glyph glyph-name="Ecaron" unicode="&#x11a;" horiz-adv-x="645" 
d="M87 0v700h488v-146h-321v-408h332v-146h-499zM168 286v140h363v-140h-363zM294 754l-134 109l50 56l147 -71h-30l147 71l50 -56l-134 -109h-96z" />
    <glyph glyph-name="ecaron" unicode="&#x11b;" horiz-adv-x="586" 
d="M324 -10q-88 0 -153.5 35t-101 96.5t-35.5 140.5q0 62 20 113.5t56.5 88.5t86 57.5t108.5 20.5q56 0 102 -20t80 -56t52 -85t17 -107l-1 -44h-422l-24 91h315l-17 -18v20q-2 25 -15.5 43.5t-35 29.5t-48.5 11q-40 0 -67.5 -15.5t-41.5 -44.5t-14 -72t18.5 -76t54 -51
t84.5 -18q33 0 60 10t58 34l75 -106q-31 -26 -66 -43.5t-71.5 -26t-73.5 -8.5zM257 607l-139 129l58 50l144 -85h-30l144 85l58 -50l-139 -129h-96z" />
    <glyph glyph-name="Gcircumflex" unicode="&#x11c;" horiz-adv-x="781" 
d="M412 -10q-84 0 -151.5 27t-116.5 76t-75 115t-26 144t28 144t78.5 115t120 76t152.5 27q57 0 108.5 -15t94 -41t70.5 -59l-105 -110q-36 34 -77.5 53.5t-93.5 19.5q-43 0 -79.5 -15.5t-64 -44t-42.5 -67t-15 -83.5t16 -83t44.5 -66.5t66.5 -44.5t82 -16q31 0 57.5 9.5
t47 26t32 39t11.5 48.5v26l22 -34h-191v135h329q2 -11 3 -30t1.5 -36.5t0.5 -27.5q0 -68 -24.5 -124.5t-69 -97.5t-104.5 -63.5t-130 -22.5zM280 753l-51 58l137 107h91l136 -107l-50 -58l-146 71h29z" />
    <glyph glyph-name="gcircumflex" unicode="&#x11d;" horiz-adv-x="670" 
d="M314 -230q-64 0 -128.5 18.5t-104.5 48.5l56 114q32 -22 72.5 -34.5t84.5 -12.5q51 0 83 15t47.5 45t15.5 75v88l30 -6q-6 -31 -33.5 -58t-67.5 -43t-84 -16q-72 0 -129 33.5t-89.5 93t-32.5 137.5q0 80 32.5 142t88.5 97t126 35q29 0 56.5 -6.5t51 -18.5t42 -27
t30.5 -33t15 -36l-33 -10l6 120h153v-487q0 -65 -19.5 -116t-57 -86t-90.5 -53.5t-121 -18.5zM318 129q39 0 67.5 17t44 48t15.5 72q0 43 -15.5 74t-44 48.5t-67.5 17.5q-37 0 -65 -17.5t-43.5 -48.5t-15.5 -73t15.5 -73t43.5 -48t65 -17zM201 601l-58 50l144 129h96
l144 -129l-58 -50l-149 85h30z" />
    <glyph glyph-name="Gbreve" unicode="&#x11e;" horiz-adv-x="781" 
d="M412 -10q-84 0 -151.5 27t-116.5 76t-75 115t-26 144t28 144t78.5 115t120 76t152.5 27q57 0 108.5 -15t94 -41t70.5 -59l-105 -110q-36 34 -77.5 53.5t-93.5 19.5q-43 0 -79.5 -15.5t-64 -44t-42.5 -67t-15 -83.5t16 -83t44.5 -66.5t66.5 -44.5t82 -16q31 0 57.5 9.5
t47 26t32 39t11.5 48.5v26l22 -34h-191v135h329q2 -11 3 -30t1.5 -36.5t0.5 -27.5q0 -68 -24.5 -124.5t-69 -97.5t-104.5 -63.5t-130 -22.5zM411 756q-45 0 -82.5 19.5t-62.5 54t-35 78.5l104 12q10 -25 30.5 -41.5t45.5 -16.5q26 0 46 16.5t30 41.5l104 -12
q-9 -44 -34.5 -78.5t-62.5 -54t-83 -19.5z" />
    <glyph glyph-name="gbreve" unicode="&#x11f;" horiz-adv-x="670" 
d="M314 -230q-64 0 -128.5 18.5t-104.5 48.5l56 114q32 -22 72.5 -34.5t84.5 -12.5q51 0 83 15t47.5 45t15.5 75v88l30 -6q-6 -31 -33.5 -58t-67.5 -43t-84 -16q-72 0 -129 33.5t-89.5 93t-32.5 137.5q0 80 32.5 142t88.5 97t126 35q29 0 56.5 -6.5t51 -18.5t42 -27
t30.5 -33t15 -36l-33 -10l6 120h153v-487q0 -65 -19.5 -116t-57 -86t-90.5 -53.5t-121 -18.5zM318 129q39 0 67.5 17t44 48t15.5 72q0 43 -15.5 74t-44 48.5t-67.5 17.5q-37 0 -65 -17.5t-43.5 -48.5t-15.5 -73t15.5 -73t43.5 -48t65 -17zM335 600q-69 0 -117 42.5
t-63 118.5l104 12q11 -31 31 -49.5t45 -18.5t45.5 18.5t30.5 49.5l104 -12q-15 -76 -63 -118.5t-117 -42.5z" />
    <glyph glyph-name="Gdotaccent" unicode="&#x120;" horiz-adv-x="781" 
d="M412 -10q-84 0 -151.5 27t-116.5 76t-75 115t-26 144t28 144t78.5 115t120 76t152.5 27q57 0 108.5 -15t94 -41t70.5 -59l-105 -110q-36 34 -77.5 53.5t-93.5 19.5q-43 0 -79.5 -15.5t-64 -44t-42.5 -67t-15 -83.5t16 -83t44.5 -66.5t66.5 -44.5t82 -16q31 0 57.5 9.5
t47 26t32 39t11.5 48.5v26l22 -34h-191v135h329q2 -11 3 -30t1.5 -36.5t0.5 -27.5q0 -68 -24.5 -124.5t-69 -97.5t-104.5 -63.5t-130 -22.5zM411 756q-46 0 -71 22t-25 61q0 35 25 59t71 24q47 0 71.5 -22t24.5 -61q0 -35 -25.5 -59t-70.5 -24z" />
    <glyph glyph-name="gdotaccent" unicode="&#x121;" horiz-adv-x="670" 
d="M314 -230q-64 0 -128.5 18.5t-104.5 48.5l56 114q32 -22 72.5 -34.5t84.5 -12.5q51 0 83 15t47.5 45t15.5 75v88l30 -6q-6 -31 -33.5 -58t-67.5 -43t-84 -16q-72 0 -129 33.5t-89.5 93t-32.5 137.5q0 80 32.5 142t88.5 97t126 35q29 0 56.5 -6.5t51 -18.5t42 -27
t30.5 -33t15 -36l-33 -10l6 120h153v-487q0 -65 -19.5 -116t-57 -86t-90.5 -53.5t-121 -18.5zM318 129q39 0 67.5 17t44 48t15.5 72q0 43 -15.5 74t-44 48.5t-67.5 17.5q-37 0 -65 -17.5t-43.5 -48.5t-15.5 -73t15.5 -73t43.5 -48t65 -17zM335 636q-46 0 -71 21.5t-25 61.5
q0 37 25.5 60t70.5 23q46 0 71 -21.5t25 -61.5q0 -37 -25.5 -60t-70.5 -23z" />
    <glyph glyph-name="uni0122" unicode="&#x122;" horiz-adv-x="781" 
d="M412 -10q-84 0 -151.5 27t-116.5 76t-75 115t-26 144t28 144t78.5 115t120 76t152.5 27q57 0 108.5 -15t94 -41t70.5 -59l-105 -110q-36 34 -77.5 53.5t-93.5 19.5q-43 0 -79.5 -15.5t-64 -44t-42.5 -67t-15 -83.5t16 -83t44.5 -66.5t66.5 -44.5t82 -16q31 0 57.5 9.5
t47 26t32 39t11.5 48.5v26l22 -34h-191v135h329q2 -11 3 -30t1.5 -36.5t0.5 -27.5q0 -68 -24.5 -124.5t-69 -97.5t-104.5 -63.5t-130 -22.5zM335 -293l-40 55q14 4 31 13t29.5 21t12.5 24q0 8 -6 12.5t-19 9.5q-21 8 -29.5 21t-8.5 33q0 32 23 48t58 16q42 0 71.5 -24
t29.5 -73q0 -28 -10.5 -52.5t-31 -44t-48 -34.5t-62.5 -25z" />
    <glyph glyph-name="uni0123" unicode="&#x123;" horiz-adv-x="670" 
d="M314 -230q-64 0 -128.5 18.5t-104.5 48.5l56 114q32 -22 72.5 -34.5t84.5 -12.5q51 0 83 15t47.5 45t15.5 75v88l30 -6q-6 -31 -33.5 -58t-67.5 -43t-84 -16q-72 0 -129 33.5t-89.5 93t-32.5 137.5q0 80 32.5 142t88.5 97t126 35q29 0 56.5 -6.5t51 -18.5t42 -27
t30.5 -33t15 -36l-33 -10l6 120h153v-487q0 -65 -19.5 -116t-57 -86t-90.5 -53.5t-121 -18.5zM318 129q39 0 67.5 17t44 48t15.5 72q0 43 -15.5 74t-44 48.5t-67.5 17.5q-37 0 -65 -17.5t-43.5 -48.5t-15.5 -73t15.5 -73t43.5 -48t65 -17zM338 596q-39 0 -69 24.5t-30 76.5
q0 29 13 53t35 43t49 33t55 24l40 -55q-13 -3 -30.5 -12t-30 -20.5t-12.5 -25.5q0 -10 7.5 -13.5t18.5 -8.5q17 -8 27 -19t10 -34q0 -33 -24 -49.5t-59 -16.5z" />
    <glyph glyph-name="Hcircumflex" unicode="&#x124;" horiz-adv-x="780" 
d="M522 0v700h171v-700h-171zM87 0v700h171v-700h-171zM155 272v154h457v-154h-457zM259 753l-51 58l137 107h91l136 -107l-50 -58l-146 71h29z" />
    <glyph glyph-name="hcircumflex" unicode="&#x125;" horiz-adv-x="636" 
d="M71 0v740h159v-317l-33 -12q11 36 39.5 65.5t68.5 47.5t84 18q60 0 101 -24.5t61.5 -73t20.5 -119.5v-325h-161v313q0 32 -9 53t-27 31t-45 9q-21 0 -39 -6.5t-31.5 -19t-20.5 -28.5t-7 -36v-316h-81h-46.5h-33.5zM187 793l-51 58l137 107h91l136 -107l-50 -58l-146 71
h29z" />
    <glyph glyph-name="Hbar" unicode="&#x126;" horiz-adv-x="825" 
d="M35 477v140h93l77 -11h391l84 11h112v-140h-109l-74 10h-414l-71 -10h-89zM545 0v700h171v-700h-171zM110 0v700h171v-700h-171zM178 272v154h457v-154h-457z" />
    <glyph glyph-name="hbar" unicode="&#x127;" horiz-adv-x="636" 
d="M14 577v121h324v-121h-324zM71 0v740h159v-317l-33 -12q11 36 39.5 65.5t68.5 47.5t84 18q60 0 101 -24.5t61.5 -73t20.5 -119.5v-325h-161v313q0 32 -9 53t-27 31t-45 9q-21 0 -39 -6.5t-31.5 -19t-20.5 -28.5t-7 -36v-316h-81h-46.5h-33.5z" />
    <glyph glyph-name="Itilde" unicode="&#x128;" horiz-adv-x="555" 
d="M74 0v144h118v412h-118v144h407v-144h-118v-412h118v-144h-407zM355 767q-20 0 -40.5 6.5t-44.5 16.5q-18 8 -30 12t-22 4q-14 0 -22.5 -10t-8.5 -29h-100q0 67 36.5 105t92.5 38q18 0 35.5 -5t43.5 -17q16 -7 27.5 -11.5t20.5 -4.5q13 0 20 10.5t6 27.5h99
q0 -39 -14 -71.5t-39.5 -52t-59.5 -19.5z" />
    <glyph glyph-name="itilde" unicode="&#x129;" horiz-adv-x="290" 
d="M64 0v531h161v-531h-161zM211 614q-16 0 -33.5 6t-40.5 21q-18 14 -28.5 20t-17.5 6q-15 0 -25 -11.5t-13 -36.5l-90 11q0 57 31.5 97.5t84.5 40.5q17 0 33.5 -5.5t39.5 -21.5q14 -10 25.5 -18t22.5 -8q14 0 23.5 12.5t13.5 35.5l89 -12q-1 -36 -15.5 -67.5t-39.5 -50.5
t-60 -19z" />
    <glyph glyph-name="Imacron" unicode="&#x12a;" horiz-adv-x="555" 
d="M74 0v144h118v412h-118v144h407v-144h-118v-412h118v-144h-407zM97 787v103h361v-103h-361z" />
    <glyph glyph-name="imacron" unicode="&#x12b;" horiz-adv-x="290" 
d="M64 0v531h161v-531h-161zM-22 639v102h334v-102h-334z" />
    <glyph glyph-name="Ibreve" unicode="&#x12c;" horiz-adv-x="555" 
d="M74 0v144h118v412h-118v144h407v-144h-118v-412h118v-144h-407zM278 756q-45 0 -82.5 19.5t-62.5 54t-35 78.5l104 12q10 -25 30.5 -41.5t45.5 -16.5q26 0 46 16.5t30 41.5l104 -12q-9 -44 -34.5 -78.5t-62.5 -54t-83 -19.5z" />
    <glyph glyph-name="ibreve" unicode="&#x12d;" horiz-adv-x="290" 
d="M64 0v531h161v-531h-161zM145 600q-69 0 -117 42.5t-63 118.5l104 12q11 -31 31 -49.5t45 -18.5t45.5 18.5t30.5 49.5l104 -12q-15 -76 -63 -118.5t-117 -42.5z" />
    <glyph glyph-name="Iogonek" unicode="&#x12e;" horiz-adv-x="555" 
d="M74 0v144h118v412h-118v144h407v-144h-118v-412h118v-144h-407zM314 -210q-33 0 -60.5 13.5t-44 38t-16.5 55.5q0 26 11.5 49t33 42.5t52.5 35.5t70 27l38 -51q-39 -7 -65.5 -29.5t-26.5 -47.5q0 -13 7 -21t18 -8t18.5 6t14.5 18l71 -53q-15 -32 -46.5 -53.5t-74.5 -21.5
z" />
    <glyph glyph-name="iogonek" unicode="&#x12f;" horiz-adv-x="290" 
d="M64 0v531h161v-531h-161zM145 636q-46 0 -71 21.5t-25 61.5q0 37 25.5 60t70.5 23q46 0 71 -21.5t25 -61.5q0 -37 -25.5 -60t-70.5 -23zM122 -209q-33 0 -60.5 14.5t-44 40t-16.5 56.5q0 26 10.5 47t32.5 39t54.5 32t75.5 26l40 -46q-27 -6 -50 -18.5t-36.5 -28
t-13.5 -32.5q0 -12 7 -19.5t20 -7.5q9 0 16 6t15 18l71 -51q-15 -28 -46.5 -52t-74.5 -24z" />
    <glyph glyph-name="Idotaccent" unicode="&#x130;" horiz-adv-x="555" 
d="M74 0v144h118v412h-118v144h407v-144h-118v-412h118v-144h-407zM278 756q-46 0 -71 22t-25 61q0 35 25 59t71 24q47 0 71.5 -22t24.5 -61q0 -35 -25.5 -59t-70.5 -24z" />
    <glyph glyph-name="dotlessi" unicode="&#x131;" horiz-adv-x="290" 
d="M64 0v531h161v-531h-161z" />
    <glyph glyph-name="IJ" unicode="&#x132;" horiz-adv-x="1222" 
d="M74 0v144h118v412h-118v144h407v-144h-118v-412h118v-144h-407zM818 -10q-38 0 -71.5 8.5t-61.5 25t-50.5 40t-37.5 52.5l98 102q19 -27 36 -43.5t34 -23.5t36 -7q24 0 42.5 11.5t28.5 31.5t10 45v319h-129v149h403v-149h-108v-338q0 -51 -17.5 -92t-48.5 -70t-73 -45
t-91 -16z" />
    <glyph glyph-name="ij" unicode="&#x133;" horiz-adv-x="638" 
d="M80 0v531h161v-531h-161zM161 636q-46 0 -71.5 21.5t-25.5 61.5q0 37 26 60t71 23q44 0 69.5 -21.5t25.5 -61.5q0 -37 -25.5 -60t-69.5 -23zM344 -210l-62 124q68 0 94.5 27.5t26.5 99.5v490h161v-528q0 -72 -25.5 -119.5t-74.5 -70.5t-120 -23zM486 636
q-46 0 -70.5 21.5t-24.5 61.5q0 37 25 60t70 23t70.5 -21.5t25.5 -61.5q0 -37 -26 -60t-70 -23z" />
    <glyph glyph-name="Jcircumflex" unicode="&#x134;" horiz-adv-x="667" 
d="M262 -10q-38 0 -71.5 8.5t-61.5 25t-50.5 40t-37.5 52.5l98 102q19 -27 36 -43.5t34 -23.5t36 -7q24 0 42.5 11.5t28.5 31.5t10 45v319h-129v149h403v-149h-108v-338q0 -51 -17.5 -92t-48.5 -70t-73 -45t-91 -16zM276 753l-51 58l137 107h91l136 -107l-50 -58l-146 71h29
z" />
    <glyph glyph-name="jcircumflex" unicode="&#x135;" horiz-adv-x="316" 
d="M23 -210l-61 124q68 0 94 27.5t26 99.5v490h161v-528q0 -72 -26 -119.5t-75 -70.5t-119 -23zM30 601l-58 50l144 129h96l144 -129l-58 -50l-149 85h30z" />
    <glyph glyph-name="uni0136" unicode="&#x136;" horiz-adv-x="742" 
d="M214 205l-44 145l346 350h203zM87 0v700h171v-700h-171zM537 0l-259 342l115 99l344 -441h-200zM315 -293l-40 55q14 4 31 13t29.5 21t12.5 24q0 8 -6 12.5t-19 9.5q-21 8 -29.5 21t-8.5 33q0 32 23 48t58 16q42 0 71.5 -24t29.5 -73q0 -28 -10.5 -52.5t-31 -44
t-48 -34.5t-62.5 -25z" />
    <glyph glyph-name="uni0137" unicode="&#x137;" horiz-adv-x="627" 
d="M225 156l-57 122l247 253h211zM71 0v740h161v-740h-161zM430 0l-185 240l114 88l262 -328h-191zM257 -293l-40 55q14 5 31 13.5t29.5 20t12.5 24.5q0 8 -6 13t-19 10q-21 8 -29.5 20.5t-8.5 32.5q0 32 24 48.5t59 16.5q42 0 70.5 -25.5t28.5 -74.5q0 -26 -10.5 -48.5
t-31 -41.5t-48 -35t-62.5 -29z" />
    <glyph glyph-name="kgreenlandic" unicode="&#x138;" horiz-adv-x="627" 
d="M222 134l-57 118l247 279h203zM71 0v531h158v-531h-158zM422 0l-177 260l111 79l253 -340z" />
    <glyph glyph-name="Lacute" unicode="&#x139;" horiz-adv-x="610" 
d="M87 0v700h171v-549h312v-151h-483zM86 748l-37 80l209 116l55 -118z" />
    <glyph glyph-name="lacute" unicode="&#x13a;" horiz-adv-x="304" 
d="M71 0v740h161v-740h-161zM64 788l-37 80l209 116l55 -118z" />
    <glyph glyph-name="uni013B" unicode="&#x13b;" horiz-adv-x="610" 
d="M87 0v700h171v-549h312v-151h-483zM250 -293l-40 55q14 4 31 13t29.5 21t12.5 24q0 8 -6 12.5t-19 9.5q-21 8 -29.5 21t-8.5 33q0 32 23 48t58 16q42 0 71.5 -24t29.5 -73q0 -28 -10.5 -52.5t-31 -44t-48 -34.5t-62.5 -25z" />
    <glyph glyph-name="uni013C" unicode="&#x13c;" horiz-adv-x="304" 
d="M71 0v740h161v-740h-161zM97 -293l-40 55q14 5 31 13.5t29.5 20t12.5 24.5q0 8 -6 13t-19 10q-21 8 -29.5 20.5t-8.5 32.5q0 32 24 48.5t59 16.5q42 0 70.5 -25.5t28.5 -74.5q0 -26 -10.5 -48.5t-31 -41.5t-48 -35t-62.5 -29z" />
    <glyph glyph-name="Lcaron" unicode="&#x13d;" horiz-adv-x="610" 
d="M87 0v700h171v-549h312v-151h-483zM394 447l-40 55q14 4 31 13t29.5 20.5t12.5 24.5q0 8 -6 12.5t-19 8.5q-21 9 -29.5 21.5t-8.5 32.5q0 32 23 48.5t58 16.5q42 0 71.5 -24.5t29.5 -72.5q0 -29 -10.5 -53.5t-31 -44t-48 -34t-62.5 -24.5z" />
    <glyph glyph-name="lcaron" unicode="&#x13e;" horiz-adv-x="403" 
d="M71 0v740h161v-740h-161zM336 487l-40 55q14 4 31 13t29.5 20.5t12.5 24.5q0 8 -6 12.5t-19 8.5q-21 9 -29.5 21.5t-8.5 32.5q0 32 23 48.5t58 16.5q42 0 71.5 -24.5t29.5 -72.5q0 -29 -10.5 -53.5t-31 -44t-48 -34t-62.5 -24.5z" />
    <glyph glyph-name="Ldot" unicode="&#x13f;" horiz-adv-x="610" 
d="M87 0v700h171v-549h312v-151h-483zM479 298q-41 0 -63.5 23.5t-22.5 66.5q0 40 23.5 65.5t62.5 25.5q41 0 64 -23.5t23 -67.5q0 -40 -24.5 -65t-62.5 -25z" />
    <glyph glyph-name="ldot" unicode="&#x140;" horiz-adv-x="450" 
d="M71 0v740h161v-740h-161zM380 298q-41 0 -63.5 23.5t-22.5 66.5q0 40 23.5 65.5t62.5 25.5q41 0 64 -23.5t23 -67.5q0 -40 -24.5 -65t-62.5 -25z" />
    <glyph glyph-name="Lslash" unicode="&#x141;" horiz-adv-x="630" 
d="M43 236l-48 125l356 156l49 -126zM106 0v700h171v-549h312v-151h-483z" />
    <glyph glyph-name="lslash" unicode="&#x142;" horiz-adv-x="372" 
d="M48 255l-50 126l325 142l50 -126zM103 0v740h161v-740h-161z" />
    <glyph glyph-name="Nacute" unicode="&#x143;" horiz-adv-x="808" 
d="M87 0v700h153l368 -499l-33 4q-7 56 -12 104.5t-6.5 101.5t-1.5 122v167h166v-700h-155l-382 514l49 -7q7 -61 11 -101t6 -68.5t3 -53t1 -54.5v-230h-167zM316 748l-37 80l209 116l55 -118z" />
    <glyph glyph-name="nacute" unicode="&#x144;" horiz-adv-x="636" 
d="M71 0v531h153l6 -108l-33 -12q11 36 39.5 65.5t68.5 47.5t84 18q60 0 101 -24.5t61.5 -73t20.5 -119.5v-325h-161v313q0 32 -9 53t-27 31t-45 9q-21 0 -39 -6.5t-31.5 -19t-20.5 -28.5t-7 -36v-316h-81h-46.5h-33.5zM270 589l-48 74l178 141l74 -105z" />
    <glyph glyph-name="uni0145" unicode="&#x145;" horiz-adv-x="808" 
d="M87 0v700h153l368 -499l-33 4q-7 56 -12 104.5t-6.5 101.5t-1.5 122v167h166v-700h-155l-382 514l49 -7q7 -61 11 -101t6 -68.5t3 -53t1 -54.5v-230h-167zM349 -293l-40 55q14 4 31 13t29.5 21t12.5 24q0 8 -6 12.5t-19 9.5q-21 8 -29.5 21t-8.5 33q0 32 23 48t58 16
q42 0 71.5 -24t29.5 -73q0 -28 -10.5 -52.5t-31 -44t-48 -34.5t-62.5 -25z" />
    <glyph glyph-name="uni0146" unicode="&#x146;" horiz-adv-x="636" 
d="M71 0v531h153l6 -108l-33 -12q11 36 39.5 65.5t68.5 47.5t84 18q60 0 101 -24.5t61.5 -73t20.5 -119.5v-325h-161v313q0 32 -9 53t-27 31t-45 9q-21 0 -39 -6.5t-31.5 -19t-20.5 -28.5t-7 -36v-316h-81h-46.5h-33.5zM262 -293l-40 55q14 5 31 13.5t29.5 20t12.5 24.5
q0 8 -6 13t-19 10q-21 8 -29.5 20.5t-8.5 32.5q0 32 24 48.5t59 16.5q42 0 70.5 -25.5t28.5 -74.5q0 -26 -10.5 -48.5t-31 -41.5t-48 -35t-62.5 -29z" />
    <glyph glyph-name="Ncaron" unicode="&#x147;" horiz-adv-x="808" 
d="M87 0v700h153l368 -499l-33 4q-7 56 -12 104.5t-6.5 101.5t-1.5 122v167h166v-700h-155l-382 514l49 -7q7 -61 11 -101t6 -68.5t3 -53t1 -54.5v-230h-167zM357 754l-134 109l50 56l147 -71h-30l147 71l50 -56l-134 -109h-96z" />
    <glyph glyph-name="ncaron" unicode="&#x148;" horiz-adv-x="636" 
d="M71 0v531h153l6 -108l-33 -12q11 36 39.5 65.5t68.5 47.5t84 18q60 0 101 -24.5t61.5 -73t20.5 -119.5v-325h-161v313q0 32 -9 53t-27 31t-45 9q-21 0 -39 -6.5t-31.5 -19t-20.5 -28.5t-7 -36v-316h-81h-46.5h-33.5zM301 607l-139 129l58 50l144 -85h-30l144 85l58 -50
l-139 -129h-96z" />
    <glyph glyph-name="napostrophe" unicode="&#x149;" horiz-adv-x="671" 
d="M-94 436l20 264h166l-85 -264h-101zM106 0v531h153l6 -108l-33 -12q11 36 39.5 65.5t68.5 47.5t84 18q60 0 101 -24.5t61.5 -73t20.5 -119.5v-325h-161v313q0 32 -9 53t-27 31t-45 9q-21 0 -39 -6.5t-31.5 -19t-20.5 -28.5t-7 -36v-316h-81h-46.5h-33.5z" />
    <glyph glyph-name="Eng" unicode="&#x14a;" horiz-adv-x="808" 
d="M495 -203l-68 125q34 0 64 8.5t49 26.5t19 46v60l8 -64l-341 456l13 10q3 -28 5.5 -58t5 -58.5t3.5 -53t1 -41.5v-254h-167v700h153l348 -471l-15 -9q-7 55 -11.5 102t-5.5 97.5t-1 113.5v167h166v-709q0 -66 -27.5 -109t-78 -64t-120.5 -21z" />
    <glyph glyph-name="eng" unicode="&#x14b;" horiz-adv-x="636" 
d="M348 -203l-60 125q64 0 93 29t30 85v277q0 32 -9 53t-27 31t-45 9q-21 0 -39 -6.5t-31.5 -19t-20.5 -28.5t-7 -36v-316h-161v531h153l2 -66q18 23 43.5 40t56.5 27t63 10q60 0 101 -24.5t61.5 -73t20.5 -119.5v-334q0 -64 -26 -107t-76 -65t-122 -22z" />
    <glyph glyph-name="Omacron" unicode="&#x14c;" horiz-adv-x="810" 
d="M406 -10q-79 0 -145.5 27t-115 75.5t-75.5 115t-27 145.5q0 78 27 144.5t75.5 115.5t115 76t145.5 27q78 0 144 -27t114.5 -76t75.5 -115.5t27 -145.5q0 -78 -27 -144t-75.5 -115t-114.5 -76t-144 -27zM406 151q41 0 75 15t59.5 42t39.5 64t14 80q0 44 -14 81t-39.5 64.5
t-59.5 42.5t-75 15t-75.5 -15t-60 -42.5t-39.5 -64.5t-14 -81q0 -58 24.5 -103.5t67 -71.5t97.5 -26zM224 787v103h361v-103h-361z" />
    <glyph glyph-name="omacron" unicode="&#x14d;" horiz-adv-x="640" 
d="M320 -10q-82 0 -147 35.5t-102 98t-37 141.5q0 81 37 143.5t102 98t147 35.5q83 0 147.5 -35.5t101.5 -98t37 -143.5q0 -79 -37 -141.5t-101.5 -98t-147.5 -35.5zM320 128q36 0 63.5 18t43.5 49t15 70q1 41 -15 72.5t-43.5 49t-63.5 17.5q-35 0 -63 -18t-44 -49t-16 -72
q0 -39 16 -70t44 -49t63 -18zM153 639v102h334v-102h-334z" />
    <glyph glyph-name="Obreve" unicode="&#x14e;" horiz-adv-x="810" 
d="M406 -10q-79 0 -145.5 27t-115 75.5t-75.5 115t-27 145.5q0 78 27 144.5t75.5 115.5t115 76t145.5 27q78 0 144 -27t114.5 -76t75.5 -115.5t27 -145.5q0 -78 -27 -144t-75.5 -115t-114.5 -76t-144 -27zM406 151q41 0 75 15t59.5 42t39.5 64t14 80q0 44 -14 81t-39.5 64.5
t-59.5 42.5t-75 15t-75.5 -15t-60 -42.5t-39.5 -64.5t-14 -81q0 -58 24.5 -103.5t67 -71.5t97.5 -26zM406 756q-45 0 -82.5 19.5t-62.5 54t-35 78.5l104 12q10 -25 30.5 -41.5t45.5 -16.5q26 0 46 16.5t30 41.5l104 -12q-9 -44 -34.5 -78.5t-62.5 -54t-83 -19.5z" />
    <glyph glyph-name="obreve" unicode="&#x14f;" horiz-adv-x="640" 
d="M320 -10q-82 0 -147 35.5t-102 98t-37 141.5q0 81 37 143.5t102 98t147 35.5q83 0 147.5 -35.5t101.5 -98t37 -143.5q0 -79 -37 -141.5t-101.5 -98t-147.5 -35.5zM320 128q36 0 63.5 18t43.5 49t15 70q1 41 -15 72.5t-43.5 49t-63.5 17.5q-35 0 -63 -18t-44 -49t-16 -72
q0 -39 16 -70t44 -49t63 -18zM320 600q-69 0 -117 42.5t-63 118.5l104 12q11 -31 31 -49.5t45 -18.5t45.5 18.5t30.5 49.5l104 -12q-15 -76 -63 -118.5t-117 -42.5z" />
    <glyph glyph-name="Ohungarumlaut" unicode="&#x150;" horiz-adv-x="810" 
d="M406 -10q-79 0 -145.5 27t-115 75.5t-75.5 115t-27 145.5q0 78 27 144.5t75.5 115.5t115 76t145.5 27q78 0 144 -27t114.5 -76t75.5 -115.5t27 -145.5q0 -78 -27 -144t-75.5 -115t-114.5 -76t-144 -27zM406 151q41 0 75 15t59.5 42t39.5 64t14 80q0 44 -14 81t-39.5 64.5
t-59.5 42.5t-75 15t-75.5 -15t-60 -42.5t-39.5 -64.5t-14 -81q0 -58 24.5 -103.5t67 -71.5t97.5 -26zM284 753l-53 69l150 144l79 -99zM506 751l-49 71l155 143l79 -103z" />
    <glyph glyph-name="ohungarumlaut" unicode="&#x151;" horiz-adv-x="640" 
d="M320 -10q-82 0 -147 35.5t-102 98t-37 141.5q0 81 37 143.5t102 98t147 35.5q83 0 147.5 -35.5t101.5 -98t37 -143.5q0 -79 -37 -141.5t-101.5 -98t-147.5 -35.5zM320 128q36 0 63.5 18t43.5 49t15 70q1 41 -15 72.5t-43.5 49t-63.5 17.5q-35 0 -63 -18t-44 -49t-16 -72
q0 -39 16 -70t44 -49t63 -18zM367 590l-64 52l152 169l92 -92zM159 588l-67 49l142 175l95 -86z" />
    <glyph glyph-name="OE" unicode="&#x152;" horiz-adv-x="1077" 
d="M375 0q-76 0 -137.5 25t-105 71.5t-66.5 111t-23 142.5t25 142t71 111t111 72t146 25h622v-146h-332v-125h277v-140h-277v-143h332v-146h-643zM216 350q0 -47 11.5 -84t34.5 -62.5t56 -39t76 -13.5h126v398h-117q-45 0 -79.5 -13.5t-58.5 -39.5t-36.5 -62.5t-12.5 -83.5z
" />
    <glyph glyph-name="oe" unicode="&#x153;" horiz-adv-x="1002" 
d="M320 -10q-82 0 -147 35.5t-102 98t-37 141.5q0 81 37 143.5t102 98t147 35.5q47 0 88 -12.5t75.5 -36t60.5 -57.5h-34q24 34 55 57.5t69.5 36t81.5 12.5q57 0 104 -20t81.5 -56t52.5 -85t17 -107l-1 -44h-379l-2 91h277l-46 -39v36q0 27 -13.5 47t-37 31t-54.5 11
q-40 0 -65.5 -17.5t-37 -46.5t-11.5 -66q0 -43 15 -76t48.5 -52t86.5 -19q35 0 62.5 10t59.5 34l77 -106q-31 -26 -66 -43.5t-71.5 -26t-73.5 -8.5q-50 0 -93.5 12.5t-78.5 36.5t-60 58h32q-22 -34 -55.5 -58t-75 -36.5t-88.5 -12.5zM320 128q36 0 63.5 18t43.5 49t15 70
q1 41 -15 72.5t-43.5 49t-63.5 17.5q-35 0 -63 -18t-44 -49t-16 -72q0 -39 16 -70t44 -49t63 -18z" />
    <glyph glyph-name="Racute" unicode="&#x154;" horiz-adv-x="704" 
d="M87 0v700h317q68 0 122 -29t85.5 -79.5t31.5 -115.5q0 -66 -31.5 -118t-85.5 -82.5t-122 -30.5h-154v-245h-163zM476 0l-178 317l175 25l198 -343zM250 378h139q26 0 45.5 11.5t30 31.5t10.5 46q0 27 -12.5 47t-35 31.5t-53.5 11.5h-124v-179zM245 748l-37 80l209 116
l55 -118z" />
    <glyph glyph-name="racute" unicode="&#x155;" horiz-adv-x="456" 
d="M71 0v531h153l7 -173l-30 34q13 42 40 76t64.5 54t78.5 20q18 0 33.5 -2.5t27.5 -7.5l-43 -177q-11 6 -29.5 10.5t-38.5 4.5q-22 0 -40.5 -7.5t-32 -21.5t-21 -33t-7.5 -43v-265h-162zM184 589l-48 74l178 141l74 -105z" />
    <glyph glyph-name="uni0156" unicode="&#x156;" horiz-adv-x="704" 
d="M87 0v700h317q68 0 122 -29t85.5 -79.5t31.5 -115.5q0 -66 -31.5 -118t-85.5 -82.5t-122 -30.5h-154v-245h-163zM476 0l-178 317l175 25l198 -343zM250 378h139q26 0 45.5 11.5t30 31.5t10.5 46q0 27 -12.5 47t-35 31.5t-53.5 11.5h-124v-179zM297 -293l-40 55
q14 4 31 13t29.5 21t12.5 24q0 8 -6 12.5t-19 9.5q-21 8 -29.5 21t-8.5 33q0 32 23 48t58 16q42 0 71.5 -24t29.5 -73q0 -28 -10.5 -52.5t-31 -44t-48 -34.5t-62.5 -25z" />
    <glyph glyph-name="uni0157" unicode="&#x157;" horiz-adv-x="456" 
d="M71 0v531h153l7 -173l-30 34q13 42 40 76t64.5 54t78.5 20q18 0 33.5 -2.5t27.5 -7.5l-43 -177q-11 6 -29.5 10.5t-38.5 4.5q-22 0 -40.5 -7.5t-32 -21.5t-21 -33t-7.5 -43v-265h-162zM92 -293l-40 55q14 5 31 13.5t29.5 20t12.5 24.5q0 8 -6 13t-19 10q-21 8 -29.5 20.5
t-8.5 32.5q0 32 24 48.5t59 16.5q42 0 70.5 -25.5t28.5 -74.5q0 -26 -10.5 -48.5t-31 -41.5t-48 -35t-62.5 -29z" />
    <glyph glyph-name="Rcaron" unicode="&#x158;" horiz-adv-x="704" 
d="M87 0v700h317q68 0 122 -29t85.5 -79.5t31.5 -115.5q0 -66 -31.5 -118t-85.5 -82.5t-122 -30.5h-154v-245h-163zM476 0l-178 317l175 25l198 -343zM250 378h139q26 0 45.5 11.5t30 31.5t10.5 46q0 27 -12.5 47t-35 31.5t-53.5 11.5h-124v-179zM285 754l-134 109l50 56
l147 -71h-30l147 71l50 -56l-134 -109h-96z" />
    <glyph glyph-name="rcaron" unicode="&#x159;" horiz-adv-x="456" 
d="M71 0v531h153l7 -173l-30 34q13 42 40 76t64.5 54t78.5 20q18 0 33.5 -2.5t27.5 -7.5l-43 -177q-11 6 -29.5 10.5t-38.5 4.5q-22 0 -40.5 -7.5t-32 -21.5t-21 -33t-7.5 -43v-265h-162zM215 607l-139 129l58 50l144 -85h-30l144 85l58 -50l-139 -129h-96z" />
    <glyph glyph-name="Sacute" unicode="&#x15a;" horiz-adv-x="635" 
d="M320 -10q-104 0 -175.5 36.5t-122.5 103.5l104 117q49 -67 99 -90t103 -23q27 0 48.5 7t34 20.5t12.5 32.5q0 15 -7.5 27t-20.5 21t-30 16.5t-37.5 12.5t-41.5 9q-58 12 -100.5 31.5t-71 47t-42.5 63t-14 80.5q0 64 36.5 112t96.5 75t130 27q102 0 164.5 -32.5
t99.5 -89.5l-106 -103q-31 40 -70.5 60t-82.5 20q-29 0 -51 -7t-33.5 -20.5t-11.5 -32.5q0 -16 9.5 -28.5t26.5 -21.5t39 -15.5t46 -10.5q55 -11 99.5 -29t76.5 -44.5t49.5 -62t17.5 -81.5q0 -72 -35 -123t-97 -78t-142 -27zM245 748l-37 80l209 116l55 -118z" />
    <glyph glyph-name="sacute" unicode="&#x15b;" horiz-adv-x="495" 
d="M250 -10q-76 0 -136 24.5t-96 67.5l98 84q31 -31 70 -45.5t74 -14.5q13 0 23 3t17.5 8.5t11.5 13t4 17.5q0 20 -17 30q-8 5 -29 12.5t-54 15.5q-47 12 -81.5 29t-56.5 39q-20 20 -30.5 46t-10.5 58q0 49 29.5 86t77.5 57.5t104 20.5q44 0 83.5 -10t74 -28t61.5 -43
l-85 -95q-17 17 -40 30.5t-46 22t-43 8.5q-15 0 -26.5 -2.5t-19 -8t-11.5 -13t-4 -16.5q0 -11 5.5 -19.5t15.5 -15.5q9 -5 31.5 -13t59.5 -18q47 -13 80.5 -29.5t53.5 -38.5q17 -17 24.5 -39.5t7.5 -48.5q0 -51 -28.5 -90.5t-78 -62t-113.5 -22.5zM169 589l-48 74l178 141
l74 -105z" />
    <glyph glyph-name="Scircumflex" unicode="&#x15c;" horiz-adv-x="635" 
d="M320 -10q-104 0 -175.5 36.5t-122.5 103.5l104 117q49 -67 99 -90t103 -23q27 0 48.5 7t34 20.5t12.5 32.5q0 15 -7.5 27t-20.5 21t-30 16.5t-37.5 12.5t-41.5 9q-58 12 -100.5 31.5t-71 47t-42.5 63t-14 80.5q0 64 36.5 112t96.5 75t130 27q102 0 164.5 -32.5
t99.5 -89.5l-106 -103q-31 40 -70.5 60t-82.5 20q-29 0 -51 -7t-33.5 -20.5t-11.5 -32.5q0 -16 9.5 -28.5t26.5 -21.5t39 -15.5t46 -10.5q55 -11 99.5 -29t76.5 -44.5t49.5 -62t17.5 -81.5q0 -72 -35 -123t-97 -78t-142 -27zM200 753l-51 58l137 107h91l136 -107l-50 -58
l-146 71h29z" />
    <glyph glyph-name="scircumflex" unicode="&#x15d;" horiz-adv-x="495" 
d="M250 -10q-76 0 -136 24.5t-96 67.5l98 84q31 -31 70 -45.5t74 -14.5q13 0 23 3t17.5 8.5t11.5 13t4 17.5q0 20 -17 30q-8 5 -29 12.5t-54 15.5q-47 12 -81.5 29t-56.5 39q-20 20 -30.5 46t-10.5 58q0 49 29.5 86t77.5 57.5t104 20.5q44 0 83.5 -10t74 -28t61.5 -43
l-85 -95q-17 17 -40 30.5t-46 22t-43 8.5q-15 0 -26.5 -2.5t-19 -8t-11.5 -13t-4 -16.5q0 -11 5.5 -19.5t15.5 -15.5q9 -5 31.5 -13t59.5 -18q47 -13 80.5 -29.5t53.5 -38.5q17 -17 24.5 -39.5t7.5 -48.5q0 -51 -28.5 -90.5t-78 -62t-113.5 -22.5zM114 601l-58 50l144 129
h96l144 -129l-58 -50l-149 85h30z" />
    <glyph glyph-name="Scedilla" unicode="&#x15e;" horiz-adv-x="635" 
d="M320 -10q-104 0 -175.5 36.5t-122.5 103.5l104 117q49 -67 99 -90t103 -23q27 0 48.5 7t34 20.5t12.5 32.5q0 15 -7.5 27t-20.5 21t-30 16.5t-37.5 12.5t-41.5 9q-58 12 -100.5 31.5t-71 47t-42.5 63t-14 80.5q0 64 36.5 112t96.5 75t130 27q102 0 164.5 -32.5
t99.5 -89.5l-106 -103q-31 40 -70.5 60t-82.5 20q-29 0 -51 -7t-33.5 -20.5t-11.5 -32.5q0 -16 9.5 -28.5t26.5 -21.5t39 -15.5t46 -10.5q55 -11 99.5 -29t76.5 -44.5t49.5 -62t17.5 -81.5q0 -72 -35 -123t-97 -78t-142 -27zM239 -246l-10 75q21 0 43.5 5t38 14.5t15.5 20.5
q0 12 -11.5 19t-27.5 10.5t-31 3.5l-18 13l69 110h83l-45 -67q51 -7 76.5 -33t25.5 -64q0 -30 -19 -51t-50.5 -34t-67.5 -18t-71 -4z" />
    <glyph glyph-name="scedilla" unicode="&#x15f;" horiz-adv-x="495" 
d="M250 -10q-76 0 -136 24.5t-96 67.5l98 84q31 -31 70 -45.5t74 -14.5q13 0 23 3t17.5 8.5t11.5 13t4 17.5q0 20 -17 30q-8 5 -29 12.5t-54 15.5q-47 12 -81.5 29t-56.5 39q-20 20 -30.5 46t-10.5 58q0 49 29.5 86t77.5 57.5t104 20.5q44 0 83.5 -10t74 -28t61.5 -43
l-85 -95q-17 17 -40 30.5t-46 22t-43 8.5q-15 0 -26.5 -2.5t-19 -8t-11.5 -13t-4 -16.5q0 -11 5.5 -19.5t15.5 -15.5q9 -5 31.5 -13t59.5 -18q47 -13 80.5 -29.5t53.5 -38.5q17 -17 24.5 -39.5t7.5 -48.5q0 -51 -28.5 -90.5t-78 -62t-113.5 -22.5zM152 -246l-10 75
q21 0 43.5 5t38 14.5t15.5 20.5q0 12 -11.5 19t-28.5 10.5t-32 3.5l-17 13l70 110h82l-45 -67q52 -7 77 -33t25 -64q0 -30 -19 -51t-50 -34t-67.5 -18t-70.5 -4z" />
    <glyph glyph-name="Scaron" unicode="&#x160;" horiz-adv-x="635" 
d="M320 -10q-104 0 -175.5 36.5t-122.5 103.5l104 117q49 -67 99 -90t103 -23q27 0 48.5 7t34 20.5t12.5 32.5q0 15 -7.5 27t-20.5 21t-30 16.5t-37.5 12.5t-41.5 9q-58 12 -100.5 31.5t-71 47t-42.5 63t-14 80.5q0 64 36.5 112t96.5 75t130 27q102 0 164.5 -32.5
t99.5 -89.5l-106 -103q-31 40 -70.5 60t-82.5 20q-29 0 -51 -7t-33.5 -20.5t-11.5 -32.5q0 -16 9.5 -28.5t26.5 -21.5t39 -15.5t46 -10.5q55 -11 99.5 -29t76.5 -44.5t49.5 -62t17.5 -81.5q0 -72 -35 -123t-97 -78t-142 -27zM284 754l-134 109l50 56l147 -71h-30l147 71
l50 -56l-134 -109h-96z" />
    <glyph glyph-name="scaron" unicode="&#x161;" horiz-adv-x="495" 
d="M250 -10q-76 0 -136 24.5t-96 67.5l98 84q31 -31 70 -45.5t74 -14.5q13 0 23 3t17.5 8.5t11.5 13t4 17.5q0 20 -17 30q-8 5 -29 12.5t-54 15.5q-47 12 -81.5 29t-56.5 39q-20 20 -30.5 46t-10.5 58q0 49 29.5 86t77.5 57.5t104 20.5q44 0 83.5 -10t74 -28t61.5 -43
l-85 -95q-17 17 -40 30.5t-46 22t-43 8.5q-15 0 -26.5 -2.5t-19 -8t-11.5 -13t-4 -16.5q0 -11 5.5 -19.5t15.5 -15.5q9 -5 31.5 -13t59.5 -18q47 -13 80.5 -29.5t53.5 -38.5q17 -17 24.5 -39.5t7.5 -48.5q0 -51 -28.5 -90.5t-78 -62t-113.5 -22.5zM200 607l-139 129l58 50
l144 -85h-30l144 85l58 -50l-139 -129h-96z" />
    <glyph glyph-name="uni0162" unicode="&#x162;" horiz-adv-x="655" 
d="M239 0v549h-206v151h590v-151h-213v-549h-171zM228 -246l-10 75q21 0 43.5 5t38 14.5t15.5 20.5q0 12 -11.5 19t-27.5 10.5t-31 3.5l-18 13l69 110h83l-45 -67q51 -7 76.5 -33t25.5 -64q0 -30 -19 -51t-50.5 -34t-67.5 -18t-71 -4z" />
    <glyph glyph-name="uni0163" unicode="&#x163;" horiz-adv-x="399" 
d="M115 0v665h161v-665h-161zM21 390v141h357v-141h-357zM101 -246l-10 75q21 0 43.5 5t38 14.5t15.5 20.5q0 12 -11.5 19t-28.5 10.5t-32 3.5l-17 13l70 110h82l-45 -67q52 -7 77 -33t25 -64q0 -30 -19 -51t-50 -34t-67.5 -18t-70.5 -4z" />
    <glyph glyph-name="Tcaron" unicode="&#x164;" horiz-adv-x="655" 
d="M239 0v549h-206v151h590v-151h-213v-549h-171zM280 754l-134 109l50 56l147 -71h-30l147 71l50 -56l-134 -109h-96z" />
    <glyph glyph-name="tcaron" unicode="&#x165;" horiz-adv-x="399" 
d="M115 0v665h161v-665h-161zM21 390v141h357v-141h-357zM350 575l-40 55q14 4 31 13t29.5 20.5t12.5 24.5q0 8 -6 12.5t-19 8.5q-21 9 -29.5 21.5t-8.5 32.5q0 32 23 48.5t58 16.5q42 0 71.5 -24.5t29.5 -72.5q0 -29 -10.5 -53.5t-31 -44t-48 -34t-62.5 -24.5z" />
    <glyph glyph-name="Tbar" unicode="&#x166;" horiz-adv-x="655" 
d="M170 291v121h324v-121h-324zM239 0v549h-206v151h590v-151h-213v-549h-171z" />
    <glyph glyph-name="tbar" unicode="&#x167;" horiz-adv-x="399" 
d="M36 194v121h323v-121h-323zM115 0v665h161v-665h-161zM21 390v141h357v-141h-357z" />
    <glyph glyph-name="Utilde" unicode="&#x168;" horiz-adv-x="764" 
d="M383 -6q-87 0 -154.5 35.5t-106.5 98t-39 141.5v432h172v-423q0 -38 17 -68t46.5 -47.5t64.5 -17.5q37 0 67 17.5t47.5 47.5t17.5 68v423h166v-432q0 -79 -38.5 -141.5t-105.5 -98t-154 -35.5zM459 767q-20 0 -40.5 6.5t-44.5 16.5q-18 8 -30 12t-22 4q-14 0 -22.5 -10
t-8.5 -29h-100q0 67 36.5 105t92.5 38q18 0 35.5 -5t43.5 -17q16 -7 27.5 -11.5t20.5 -4.5q13 0 20 10.5t6 27.5h99q0 -39 -14 -71.5t-39.5 -52t-59.5 -19.5z" />
    <glyph glyph-name="utilde" unicode="&#x169;" horiz-adv-x="643" 
d="M252 -10q-58 0 -100 25.5t-64.5 73t-22.5 114.5v328h161v-304q0 -49 23.5 -76.5t65.5 -27.5q21 0 38 6.5t29.5 19t19.5 29.5t7 37v316h161v-531h-151l-6 109l29 12q-11 -37 -39.5 -67t-67.5 -47t-83 -17zM388 614q-16 0 -33.5 6t-40.5 21q-18 14 -28.5 20t-17.5 6
q-15 0 -25 -11.5t-13 -36.5l-90 11q0 57 31.5 97.5t84.5 40.5q17 0 33.5 -5.5t39.5 -21.5q14 -10 25.5 -18t22.5 -8q14 0 23.5 12.5t13.5 35.5l89 -12q-1 -36 -15.5 -67.5t-39.5 -50.5t-60 -19z" />
    <glyph glyph-name="Umacron" unicode="&#x16a;" horiz-adv-x="764" 
d="M383 -6q-87 0 -154.5 35.5t-106.5 98t-39 141.5v432h172v-423q0 -38 17 -68t46.5 -47.5t64.5 -17.5q37 0 67 17.5t47.5 47.5t17.5 68v423h166v-432q0 -79 -38.5 -141.5t-105.5 -98t-154 -35.5zM201 787v103h361v-103h-361z" />
    <glyph glyph-name="umacron" unicode="&#x16b;" horiz-adv-x="643" 
d="M252 -10q-58 0 -100 25.5t-64.5 73t-22.5 114.5v328h161v-304q0 -49 23.5 -76.5t65.5 -27.5q21 0 38 6.5t29.5 19t19.5 29.5t7 37v316h161v-531h-151l-6 109l29 12q-11 -37 -39.5 -67t-67.5 -47t-83 -17zM155 639v102h334v-102h-334z" />
    <glyph glyph-name="Ubreve" unicode="&#x16c;" horiz-adv-x="764" 
d="M383 -6q-87 0 -154.5 35.5t-106.5 98t-39 141.5v432h172v-423q0 -38 17 -68t46.5 -47.5t64.5 -17.5q37 0 67 17.5t47.5 47.5t17.5 68v423h166v-432q0 -79 -38.5 -141.5t-105.5 -98t-154 -35.5zM382 756q-45 0 -82.5 19.5t-62.5 54t-35 78.5l104 12q10 -25 30.5 -41.5
t45.5 -16.5q26 0 46 16.5t30 41.5l104 -12q-9 -44 -34.5 -78.5t-62.5 -54t-83 -19.5z" />
    <glyph glyph-name="ubreve" unicode="&#x16d;" horiz-adv-x="643" 
d="M252 -10q-58 0 -100 25.5t-64.5 73t-22.5 114.5v328h161v-304q0 -49 23.5 -76.5t65.5 -27.5q21 0 38 6.5t29.5 19t19.5 29.5t7 37v316h161v-531h-151l-6 109l29 12q-11 -37 -39.5 -67t-67.5 -47t-83 -17zM322 600q-69 0 -117 42.5t-63 118.5l104 12q11 -31 31 -49.5
t45 -18.5t45.5 18.5t30.5 49.5l104 -12q-15 -76 -63 -118.5t-117 -42.5z" />
    <glyph glyph-name="Uring" unicode="&#x16e;" horiz-adv-x="764" 
d="M383 -6q-87 0 -154.5 35.5t-106.5 98t-39 141.5v432h172v-423q0 -38 17 -68t46.5 -47.5t64.5 -17.5q37 0 67 17.5t47.5 47.5t17.5 68v423h166v-432q0 -79 -38.5 -141.5t-105.5 -98t-154 -35.5zM381 673q-35 0 -65 17t-48.5 45t-18.5 61q0 35 18 64t48.5 46.5t65.5 17.5
q36 0 66 -17.5t48.5 -46.5t18.5 -64q0 -33 -18.5 -61t-48.5 -45t-66 -17zM381 756q17 0 29 11.5t12 28.5t-12 28.5t-29 11.5q-16 0 -28 -11.5t-12 -28.5t12 -28.5t28 -11.5z" />
    <glyph glyph-name="uring" unicode="&#x16f;" horiz-adv-x="643" 
d="M252 -10q-58 0 -100 25.5t-64.5 73t-22.5 114.5v328h161v-304q0 -49 23.5 -76.5t65.5 -27.5q21 0 38 6.5t29.5 19t19.5 29.5t7 37v316h161v-531h-151l-6 109l29 12q-11 -37 -39.5 -67t-67.5 -47t-83 -17zM321 605q-32 0 -59.5 16t-44.5 42t-17 57q0 32 16.5 59t44 43
t60.5 16t60.5 -16t44 -43t16.5 -59q0 -31 -16.5 -57t-44 -42t-60.5 -16zM321 685q16 0 26.5 10.5t10.5 24.5q0 17 -10.5 27.5t-26.5 10.5t-26.5 -10.5t-10.5 -26.5q0 -15 10.5 -25.5t26.5 -10.5z" />
    <glyph glyph-name="Uhungarumlaut" unicode="&#x170;" horiz-adv-x="764" 
d="M383 -6q-87 0 -154.5 35.5t-106.5 98t-39 141.5v432h172v-423q0 -38 17 -68t46.5 -47.5t64.5 -17.5q37 0 67 17.5t47.5 47.5t17.5 68v423h166v-432q0 -79 -38.5 -141.5t-105.5 -98t-154 -35.5zM261 753l-53 69l150 144l79 -99zM483 751l-49 71l155 143l79 -103z" />
    <glyph glyph-name="uhungarumlaut" unicode="&#x171;" horiz-adv-x="643" 
d="M252 -10q-58 0 -100 25.5t-64.5 73t-22.5 114.5v328h161v-304q0 -49 23.5 -76.5t65.5 -27.5q21 0 38 6.5t29.5 19t19.5 29.5t7 37v316h161v-531h-151l-6 109l29 12q-11 -37 -39.5 -67t-67.5 -47t-83 -17zM369 590l-64 52l152 169l92 -92zM161 588l-67 49l142 175l95 -86z
" />
    <glyph glyph-name="Uogonek" unicode="&#x172;" horiz-adv-x="764" 
d="M456 -210q-50 0 -83 30t-33 81q0 33 15 60.5t41 51t60.5 44t74.5 39.5l36 -48q-24 -13 -44.5 -27.5t-36.5 -29.5t-25 -31.5t-9 -33.5q0 -13 7 -22t20 -9q9 0 17.5 5.5t15.5 17.5l69 -52q-14 -30 -47.5 -53t-77.5 -23zM383 -6q-87 0 -154.5 35.5t-106.5 98t-39 141.5v432
h172v-423q0 -38 17 -68t46.5 -47.5t64.5 -17.5q37 0 67 17.5t47.5 47.5t17.5 68v423h166v-432q0 -79 -38.5 -141.5t-105.5 -98t-154 -35.5z" />
    <glyph glyph-name="uogonek" unicode="&#x173;" horiz-adv-x="643" 
d="M252 -10q-58 0 -100 25.5t-64.5 73t-22.5 114.5v328h161v-304q0 -49 23.5 -76.5t65.5 -27.5q21 0 38 6.5t29.5 19t19.5 29.5t7 37v316h161v-531h-151l-6 109l29 12q-11 -37 -39.5 -67t-67.5 -47t-83 -17zM456 -209q-33 0 -60.5 14.5t-44 40t-16.5 56.5q0 26 10.5 47
t32.5 39t54.5 32t75.5 26l40 -46q-27 -6 -50 -18.5t-36.5 -28t-13.5 -32.5q0 -12 7 -19.5t20 -7.5q9 0 16 6t15 18l71 -51q-15 -28 -46.5 -52t-74.5 -24z" />
    <glyph glyph-name="Wcircumflex" unicode="&#x174;" horiz-adv-x="996" 
d="M216 0l-211 700h174l106 -368q9 -32 15 -65.5t10 -62t5 -44.5l-23 -1q7 38 11 67t10 54.5t15 51.5l105 277h137l103 -277q12 -33 19.5 -62.5t12 -55t7.5 -50.5l-21 -4q2 19 3.5 34t2.5 29.5t3 30t6 35t11 44.5l104 367h171l-211 -700h-130l-167 402l19 -2l-153 -400h-134
zM366 753l-51 58l137 107h91l136 -107l-50 -58l-146 71h29z" />
    <glyph glyph-name="wcircumflex" unicode="&#x175;" horiz-adv-x="835" 
d="M187 0l-174 531h169l98 -343l-22 4l110 266h94l117 -267l-24 -2l98 342h169l-181 -531h-118l-116 284l13 -2l-114 -282h-119zM284 601l-58 50l144 129h96l144 -129l-58 -50l-149 85h30z" />
    <glyph glyph-name="Ycircumflex" unicode="&#x176;" horiz-adv-x="690" 
d="M269 0v349l7 -49l-283 400h194l215 -308l-87 3l193 305h189l-271 -411l15 69v-358h-172zM214 753l-51 58l137 107h91l136 -107l-50 -58l-146 71h29z" />
    <glyph glyph-name="ycircumflex" unicode="&#x177;" horiz-adv-x="621" 
d="M139 -230l121 284l2 -84l-257 561h182l112 -268q9 -19 17 -43t12 -45l-23 -13q6 15 13.5 38t16.5 49l98 282h183l-225 -531l-91 -230h-161zM178 601l-58 50l144 129h96l144 -129l-58 -50l-149 85h30z" />
    <glyph glyph-name="Ydieresis" unicode="&#x178;" horiz-adv-x="690" 
d="M269 0v349l7 -49l-283 400h194l215 -308l-87 3l193 305h189l-271 -411l15 69v-358h-172zM467 754q-43 0 -65 22t-22 63q0 35 22.5 60t64.5 25q44 0 65.5 -22.5t21.5 -62.5q0 -36 -22.5 -60.5t-64.5 -24.5zM223 754q-43 0 -65 22t-22 63q0 35 22.5 60t64.5 25
q44 0 66 -22.5t22 -62.5q0 -36 -23 -60.5t-65 -24.5z" />
    <glyph glyph-name="Zacute" unicode="&#x179;" horiz-adv-x="683" 
d="M60 0v114l374 497l58 -67h-406v156h528v-113l-371 -498l-60 61h442v-150h-565zM254 748l-37 80l209 116l55 -118z" />
    <glyph glyph-name="zacute" unicode="&#x17a;" horiz-adv-x="550" 
d="M50 0v94l281 357v-51h-281v131h440v-97l-265 -348l-4 45h277v-131h-448zM196 589l-48 74l178 141l74 -105z" />
    <glyph glyph-name="Zdotaccent" unicode="&#x17b;" horiz-adv-x="683" 
d="M60 0v114l374 497l58 -67h-406v156h528v-113l-371 -498l-60 61h442v-150h-565zM342 756q-46 0 -71 22t-25 61q0 35 25 59t71 24q47 0 71.5 -22t24.5 -61q0 -35 -25.5 -59t-70.5 -24z" />
    <glyph glyph-name="zdotaccent" unicode="&#x17c;" horiz-adv-x="550" 
d="M50 0v94l281 357v-51h-281v131h440v-97l-265 -348l-4 45h277v-131h-448zM275 636q-46 0 -71 21.5t-25 61.5q0 37 25.5 60t70.5 23q46 0 71 -21.5t25 -61.5q0 -37 -25.5 -60t-70.5 -23z" />
    <glyph glyph-name="Zcaron" unicode="&#x17d;" horiz-adv-x="683" 
d="M60 0v114l374 497l58 -67h-406v156h528v-113l-371 -498l-60 61h442v-150h-565zM294 754l-134 109l50 56l147 -71h-30l147 71l50 -56l-134 -109h-96z" />
    <glyph glyph-name="zcaron" unicode="&#x17e;" horiz-adv-x="550" 
d="M50 0v94l281 357v-51h-281v131h440v-97l-265 -348l-4 45h277v-131h-448zM227 607l-139 129l58 50l144 -85h-30l144 85l58 -50l-139 -129h-96z" />
    <glyph glyph-name="uni018F" unicode="&#x18f;" horiz-adv-x="770" 
d="M385 -10q-67 0 -127.5 24t-107.5 67.5t-75 102.5t-32 128v101h637l9 -138h-467q8 -29 24.5 -53t38.5 -41t47.5 -26t52.5 -9q37 0 68.5 13.5t54.5 40t36 64.5t13 87q0 63 -23 108.5t-64.5 70t-97.5 24.5q-59 0 -102 -16t-88 -51l-74 127q43 34 83.5 55t86.5 31t105 10
q71 0 133 -28t109.5 -77.5t74.5 -114.5t27 -140t-26.5 -140t-74 -114.5t-109 -77.5t-132.5 -28z" />
    <glyph glyph-name="florin" unicode="&#x192;" horiz-adv-x="556" 
d="M111 -31q-32 0 -62 8t-53 24l54 126q14 -7 27 -10.5t30 -3.5q14 0 25 8.5t19 25t12 40.5l57 335q15 91 67.5 134t139.5 43q38 0 69.5 -9t62.5 -29l-54 -124q-19 11 -32.5 15t-27.5 4q-31 0 -46 -17t-21 -48l-58 -337q-17 -95 -70 -140t-139 -45zM85 310v129l385 -1v-129z
" />
    <glyph glyph-name="uni019D" unicode="&#x19d;" horiz-adv-x="797" 
d="M17 -203l-67 125q64 0 96 30t32 89v659h152l368 -499l-33 4q-8 56 -12.5 104.5t-6.5 101.5t-2 122v167h166v-700h-154l-383 514l50 -7q6 -51 10 -91.5t6.5 -75t3.5 -67.5t1 -69v-201q0 -70 -26.5 -116t-77 -68t-123.5 -22z" />
    <glyph glyph-name="Ohorn" unicode="&#x1a0;" horiz-adv-x="810" 
d="M406 -10q-79 0 -145.5 27t-115 75.5t-75.5 115t-27 145.5q0 78 27 144.5t75.5 115.5t115 76t145.5 27q21 0 43 -3t43 -8q17 -4 32 -7t31 -3q41 0 62.5 33t21.5 98h128q0 -54 -13 -101t-46.5 -77t-94.5 -33l24 23q40 -32 69 -76t45 -97t16 -113q0 -78 -27 -144t-75.5 -115
t-114.5 -76t-144 -27zM406 151q41 0 75 15t59.5 42t39.5 64t14 80q0 44 -14 81t-39.5 64.5t-59.5 42.5t-75 15t-75.5 -15t-60 -42.5t-39.5 -64.5t-14 -81q0 -58 24.5 -103.5t67 -71.5t97.5 -26z" />
    <glyph glyph-name="ohorn" unicode="&#x1a1;" horiz-adv-x="640" 
d="M320 -10q-82 0 -147 35.5t-102 98t-37 141.5q0 81 37 143.5t102 98t147 35.5q17 0 33.5 -2.5t29.5 -4.5q11 -2 20.5 -4t16.5 -2q40 0 61 29.5t21 86.5h123q0 -46 -13.5 -86t-42 -67.5t-75.5 -37.5l12 25q47 -37 73.5 -91.5t26.5 -122.5q0 -79 -37 -141.5t-101.5 -98
t-147.5 -35.5zM320 128q36 0 63.5 18t43.5 49t15 70q1 41 -15 72.5t-43.5 49t-63.5 17.5q-35 0 -63 -18t-44 -49t-16 -72q0 -39 16 -70t44 -49t63 -18z" />
    <glyph glyph-name="Uhorn" unicode="&#x1af;" horiz-adv-x="764" 
d="M383 -6q-87 0 -154.5 35.5t-106.5 98t-39 141.5v432h172v-423q0 -38 17 -68t46.5 -47.5t64.5 -17.5q37 0 67 17.5t47.5 47.5t17.5 68v423h62q45 0 65.5 32t20.5 93h129q0 -54 -16.5 -99.5t-51.5 -74.5t-89 -35l46 47v-395q0 -79 -38.5 -141.5t-105.5 -98t-154 -35.5z" />
    <glyph glyph-name="uhorn" unicode="&#x1b0;" horiz-adv-x="643" 
d="M252 -10q-58 0 -100 25.5t-64.5 73t-22.5 114.5v328h161v-304q0 -49 23.5 -76.5t65.5 -27.5q21 0 38 6.5t29.5 19t19.5 29.5t7 37v316q54 0 83.5 11.5t41.5 36.5t12 66h122q0 -46 -14 -86.5t-44 -67.5t-77 -33l37 47v-505h-151l-6 116l17 -22q-15 -30 -42.5 -53.5
t-62 -37t-73.5 -13.5z" />
    <glyph glyph-name="uni01C4" unicode="&#x1c4;" horiz-adv-x="1410" 
d="M87 0v700h295q77 0 141 -25.5t110 -72t71 -111t25 -141.5q0 -78 -25 -142t-71 -110.5t-109.5 -72t-141.5 -25.5h-295zM258 118l-22 33h141q41 0 74 14t56.5 40.5t36 63t12.5 81.5t-12.5 81.5t-36 63t-56.5 40.5t-74 14h-144l25 31v-462zM787 0v114l374 497l58 -67h-406
v156h528v-113l-371 -498l-60 61h442v-150h-565zM1021 754l-134 109l50 56l147 -71h-30l147 71l50 -56l-134 -109h-96z" />
    <glyph glyph-name="uni01C5" unicode="&#x1c5;" horiz-adv-x="1320" 
d="M87 0v700h295q77 0 141 -25.5t110 -72t71 -111t25 -141.5q0 -78 -25 -142t-71 -110.5t-109.5 -72t-141.5 -25.5h-295zM258 118l-22 33h141q41 0 74 14t56.5 40.5t36 63t12.5 81.5t-12.5 81.5t-36 63t-56.5 40.5t-74 14h-144l25 31v-462zM821 0v94l281 357v-51h-281v131
h440v-97l-265 -348l-4 45h277v-131h-448zM998 607l-139 129l58 50l144 -85h-30l144 85l58 -50l-139 -129h-96z" />
    <glyph glyph-name="uni01C6" unicode="&#x1c6;" horiz-adv-x="1204" 
d="M273 -10q-68 0 -122.5 35t-85.5 97.5t-31 142.5t31 142.5t85.5 98.5t123.5 36q36 0 69.5 -11t60 -30t43.5 -43t21 -51l-39 -9v342h161v-740h-150l-9 120l32 -6q-2 -24 -18 -46.5t-42.5 -40t-59.5 -27.5t-70 -10zM313 123q37 0 63.5 17.5t41.5 49.5t15 75q0 44 -15 76
t-41.5 49.5t-63.5 17.5q-36 0 -62.5 -17.5t-41.5 -49.5t-15 -76q0 -43 15 -75t41.5 -49.5t62.5 -17.5zM704 0v94l281 357v-51h-281v131h440v-97l-265 -348l-4 45h277v-131h-448zM881 607l-139 129l58 50l144 -85h-30l144 85l58 -50l-139 -129h-96z" />
    <glyph glyph-name="uni01C7" unicode="&#x1c7;" horiz-adv-x="1277" 
d="M87 0v700h171v-549h312v-151h-483zM872 -10q-38 0 -71.5 8.5t-61.5 25t-50.5 40t-37.5 52.5l98 102q19 -27 36 -43.5t34 -23.5t36 -7q24 0 42.5 11.5t28.5 31.5t10 45v319h-129v149h403v-149h-108v-338q0 -51 -17.5 -92t-48.5 -70t-73 -45t-91 -16z" />
    <glyph glyph-name="uni01C8" unicode="&#x1c8;" horiz-adv-x="928" 
d="M87 0v700h171v-549h312v-151h-483zM634 -210l-62 124q68 0 94.5 27.5t26.5 99.5v490h161v-528q0 -72 -25.5 -119.5t-74.5 -70.5t-120 -23zM776 636q-46 0 -70.5 21.5t-24.5 61.5q0 37 25 60t70 23t70.5 -21.5t25.5 -61.5q0 -37 -26 -60t-70 -23z" />
    <glyph glyph-name="uni01C9" unicode="&#x1c9;" horiz-adv-x="607" 
d="M71 0v740h161v-740h-161zM313 -210l-62 124q68 0 94.5 27.5t26.5 99.5v490h161v-528q0 -72 -25.5 -119.5t-74.5 -70.5t-120 -23zM455 636q-46 0 -70.5 21.5t-24.5 61.5q0 37 25 60t70 23t70.5 -21.5t25.5 -61.5q0 -37 -26 -60t-70 -23z" />
    <glyph glyph-name="uni01CA" unicode="&#x1ca;" horiz-adv-x="1475" 
d="M87 0v700h153l368 -499l-33 4q-7 56 -12 104.5t-6.5 101.5t-1.5 122v167h166v-700h-155l-382 514l49 -7q7 -61 11 -101t6 -68.5t3 -53t1 -54.5v-230h-167zM1071 -10q-38 0 -71.5 8.5t-61.5 25t-50.5 40t-37.5 52.5l98 102q19 -27 36 -43.5t34 -23.5t36 -7q24 0 42.5 11.5
t28.5 31.5t10 45v319h-129v149h403v-149h-108v-338q0 -51 -17.5 -92t-48.5 -70t-73 -45t-91 -16z" />
    <glyph glyph-name="uni01CB" unicode="&#x1cb;" horiz-adv-x="1126" 
d="M87 0v700h153l368 -499l-33 4q-7 56 -12 104.5t-6.5 101.5t-1.5 122v167h166v-700h-155l-382 514l49 -7q7 -61 11 -101t6 -68.5t3 -53t1 -54.5v-230h-167zM833 -210l-62 124q68 0 94.5 27.5t26.5 99.5v490h161v-528q0 -72 -25.5 -119.5t-74.5 -70.5t-120 -23zM975 636
q-46 0 -70.5 21.5t-24.5 61.5q0 37 25 60t70 23t70.5 -21.5t25.5 -61.5q0 -37 -26 -60t-70 -23z" />
    <glyph glyph-name="uni01CC" unicode="&#x1cc;" horiz-adv-x="953" 
d="M71 0v531h153l6 -108l-33 -12q11 36 39.5 65.5t68.5 47.5t84 18q60 0 101 -24.5t61.5 -73t20.5 -119.5v-325h-161v313q0 32 -9 53t-27 31t-45 9q-21 0 -39 -6.5t-31.5 -19t-20.5 -28.5t-7 -36v-316h-81h-46.5h-33.5zM659 -210l-62 124q68 0 94.5 27.5t26.5 99.5v490h161
v-528q0 -72 -25.5 -119.5t-74.5 -70.5t-120 -23zM801 636q-46 0 -70.5 21.5t-24.5 61.5q0 37 25 60t70 23t70.5 -21.5t25.5 -61.5q0 -37 -26 -60t-70 -23z" />
    <glyph glyph-name="uni01CD" unicode="&#x1cd;" horiz-adv-x="697" 
d="M0 0l277 700h145l275 -700h-172l-133 355q-7 21 -15.5 45t-16.5 50t-15 50t-12 45l29 1q-6 -25 -13 -49t-15 -48t-16.5 -47.5t-17.5 -48.5l-132 -353h-168zM132 134l54 130h320l54 -130h-428zM302 754l-134 109l50 56l147 -71h-30l147 71l50 -56l-134 -109h-96z" />
    <glyph glyph-name="uni01CE" unicode="&#x1ce;" horiz-adv-x="566" 
d="M354 0v326q0 41 -22.5 60.5t-62.5 19.5q-39 0 -69.5 -14.5t-58.5 -47.5l-96 93q48 49 110 77t135 28q67 0 116 -20t76 -61t27 -104v-357h-155zM216 -10q-50 0 -90.5 20t-64 55.5t-23.5 83.5q0 41 15 72t44.5 51.5t74 31t103.5 10.5h161l-9 -101h-148q-21 0 -37 -3.5
t-27 -11t-16.5 -17.5t-5.5 -24q0 -15 8 -26t21.5 -17t31.5 -6q26 0 49.5 8.5t42 24.5t29.5 37l28 -72q-21 -34 -50.5 -60t-64 -41t-72.5 -15zM235 607l-139 129l58 50l144 -85h-30l144 85l58 -50l-139 -129h-96z" />
    <glyph glyph-name="uni01CF" unicode="&#x1cf;" horiz-adv-x="555" 
d="M74 0v144h118v412h-118v144h407v-144h-118v-412h118v-144h-407zM230 754l-134 109l50 56l147 -71h-30l147 71l50 -56l-134 -109h-96z" />
    <glyph glyph-name="uni01D0" unicode="&#x1d0;" horiz-adv-x="290" 
d="M64 0v531h161v-531h-161zM97 607l-139 129l58 50l144 -85h-30l144 85l58 -50l-139 -129h-96z" />
    <glyph glyph-name="uni01D1" unicode="&#x1d1;" horiz-adv-x="810" 
d="M406 -10q-79 0 -145.5 27t-115 75.5t-75.5 115t-27 145.5q0 78 27 144.5t75.5 115.5t115 76t145.5 27q78 0 144 -27t114.5 -76t75.5 -115.5t27 -145.5q0 -78 -27 -144t-75.5 -115t-114.5 -76t-144 -27zM406 151q41 0 75 15t59.5 42t39.5 64t14 80q0 44 -14 81t-39.5 64.5
t-59.5 42.5t-75 15t-75.5 -15t-60 -42.5t-39.5 -64.5t-14 -81q0 -58 24.5 -103.5t67 -71.5t97.5 -26zM358 754l-134 109l50 56l147 -71h-30l147 71l50 -56l-134 -109h-96z" />
    <glyph glyph-name="uni01D2" unicode="&#x1d2;" horiz-adv-x="640" 
d="M320 -10q-82 0 -147 35.5t-102 98t-37 141.5q0 81 37 143.5t102 98t147 35.5q83 0 147.5 -35.5t101.5 -98t37 -143.5q0 -79 -37 -141.5t-101.5 -98t-147.5 -35.5zM320 128q36 0 63.5 18t43.5 49t15 70q1 41 -15 72.5t-43.5 49t-63.5 17.5q-35 0 -63 -18t-44 -49t-16 -72
q0 -39 16 -70t44 -49t63 -18zM272 607l-139 129l58 50l144 -85h-30l144 85l58 -50l-139 -129h-96z" />
    <glyph glyph-name="uni01D3" unicode="&#x1d3;" horiz-adv-x="764" 
d="M383 -6q-87 0 -154.5 35.5t-106.5 98t-39 141.5v432h172v-423q0 -38 17 -68t46.5 -47.5t64.5 -17.5q37 0 67 17.5t47.5 47.5t17.5 68v423h166v-432q0 -79 -38.5 -141.5t-105.5 -98t-154 -35.5zM334 754l-134 109l50 56l147 -71h-30l147 71l50 -56l-134 -109h-96z" />
    <glyph glyph-name="uni01D4" unicode="&#x1d4;" horiz-adv-x="643" 
d="M252 -10q-58 0 -100 25.5t-64.5 73t-22.5 114.5v328h161v-304q0 -49 23.5 -76.5t65.5 -27.5q21 0 38 6.5t29.5 19t19.5 29.5t7 37v316h161v-531h-151l-6 109l29 12q-11 -37 -39.5 -67t-67.5 -47t-83 -17zM274 607l-139 129l58 50l144 -85h-30l144 85l58 -50l-139 -129
h-96z" />
    <glyph glyph-name="Gcaron" unicode="&#x1e6;" horiz-adv-x="781" 
d="M412 -10q-84 0 -151.5 27t-116.5 76t-75 115t-26 144t28 144t78.5 115t120 76t152.5 27q57 0 108.5 -15t94 -41t70.5 -59l-105 -110q-36 34 -77.5 53.5t-93.5 19.5q-43 0 -79.5 -15.5t-64 -44t-42.5 -67t-15 -83.5t16 -83t44.5 -66.5t66.5 -44.5t82 -16q31 0 57.5 9.5
t47 26t32 39t11.5 48.5v26l22 -34h-191v135h329q2 -11 3 -30t1.5 -36.5t0.5 -27.5q0 -68 -24.5 -124.5t-69 -97.5t-104.5 -63.5t-130 -22.5zM363 754l-134 109l50 56l147 -71h-30l147 71l50 -56l-134 -109h-96z" />
    <glyph glyph-name="gcaron" unicode="&#x1e7;" horiz-adv-x="670" 
d="M314 -230q-64 0 -128.5 18.5t-104.5 48.5l56 114q32 -22 72.5 -34.5t84.5 -12.5q51 0 83 15t47.5 45t15.5 75v88l30 -6q-6 -31 -33.5 -58t-67.5 -43t-84 -16q-72 0 -129 33.5t-89.5 93t-32.5 137.5q0 80 32.5 142t88.5 97t126 35q29 0 56.5 -6.5t51 -18.5t42 -27
t30.5 -33t15 -36l-33 -10l6 120h153v-487q0 -65 -19.5 -116t-57 -86t-90.5 -53.5t-121 -18.5zM318 129q39 0 67.5 17t44 48t15.5 72q0 43 -15.5 74t-44 48.5t-67.5 17.5q-37 0 -65 -17.5t-43.5 -48.5t-15.5 -73t15.5 -73t43.5 -48t65 -17zM287 607l-139 129l58 50l144 -85
h-30l144 85l58 -50l-139 -129h-96z" />
    <glyph glyph-name="uni01EA" unicode="&#x1ea;" horiz-adv-x="810" 
d="M498 -210q-50 0 -83 30t-33 81q0 33 15 60.5t41 51t60.5 44t74.5 39.5l36 -48q-24 -13 -44.5 -27.5t-36.5 -29.5t-25 -31.5t-9 -33.5q0 -13 7 -22t20 -9q9 0 16.5 5.5t14.5 17.5l71 -52q-14 -30 -47.5 -53t-77.5 -23zM406 -10q-79 0 -145.5 27t-115 75.5t-75.5 115
t-27 145.5q0 78 27 144.5t75.5 115.5t115 76t145.5 27q78 0 144 -27t114.5 -76t75.5 -115.5t27 -145.5q0 -78 -27 -144t-75.5 -115t-114.5 -76t-144 -27zM406 151q41 0 75 15t59.5 42t39.5 64t14 80q0 44 -14 81t-39.5 64.5t-59.5 42.5t-75 15t-75.5 -15t-60 -42.5
t-39.5 -64.5t-14 -81q0 -58 24.5 -103.5t67 -71.5t97.5 -26z" />
    <glyph glyph-name="uni01EB" unicode="&#x1eb;" horiz-adv-x="640" 
d="M378 -204q-52 0 -82 32t-30 75q0 42 25 74t70.5 59.5t104.5 54.5l22 -51q-52 -31 -81 -55t-29 -53q0 -14 6.5 -23t18.5 -9q10 0 18 6t16 17l70 -51q-16 -28 -48 -52t-81 -24zM320 -10q-82 0 -147 35.5t-102 98t-37 141.5q0 81 37 143.5t102 98t147 35.5q83 0 147.5 -35.5
t101.5 -98t37 -143.5q0 -79 -37 -141.5t-101.5 -98t-147.5 -35.5zM320 128q36 0 63.5 18t43.5 49t15 70q1 41 -15 72.5t-43.5 49t-63.5 17.5q-35 0 -63 -18t-44 -49t-16 -72q0 -39 16 -70t44 -49t63 -18z" />
    <glyph glyph-name="uni01F1" unicode="&#x1f1;" horiz-adv-x="1410" 
d="M87 0v700h295q77 0 141 -25.5t110 -72t71 -111t25 -141.5q0 -78 -25 -142t-71 -110.5t-109.5 -72t-141.5 -25.5h-295zM258 118l-22 33h141q41 0 74 14t56.5 40.5t36 63t12.5 81.5t-12.5 81.5t-36 63t-56.5 40.5t-74 14h-144l25 31v-462zM787 0v114l374 497l58 -67h-406
v156h528v-113l-371 -498l-60 61h442v-150h-565z" />
    <glyph glyph-name="uni01F1" unicode="&#x1f3;" horiz-adv-x="1410" 
d="M87 0v700h295q77 0 141 -25.5t110 -72t71 -111t25 -141.5q0 -78 -25 -142t-71 -110.5t-109.5 -72t-141.5 -25.5h-295zM258 118l-22 33h141q41 0 74 14t56.5 40.5t36 63t12.5 81.5t-12.5 81.5t-36 63t-56.5 40.5t-74 14h-144l25 31v-462zM787 0v114l374 497l58 -67h-406
v156h528v-113l-371 -498l-60 61h442v-150h-565z" />
    <glyph glyph-name="uni01F2" unicode="&#x1f2;" horiz-adv-x="1320" 
d="M87 0v700h295q77 0 141 -25.5t110 -72t71 -111t25 -141.5q0 -78 -25 -142t-71 -110.5t-109.5 -72t-141.5 -25.5h-295zM258 118l-22 33h141q41 0 74 14t56.5 40.5t36 63t12.5 81.5t-12.5 81.5t-36 63t-56.5 40.5t-74 14h-144l25 31v-462zM821 0v94l281 357v-51h-281v131
h440v-97l-265 -348l-4 45h277v-131h-448z" />
    <glyph glyph-name="Aringacute" unicode="&#x1fa;" horiz-adv-x="697" 
d="M0 0l277 700h145l275 -700h-172l-133 355q-7 21 -15.5 45t-16.5 50t-15 50t-12 45l29 1q-6 -25 -13 -49t-15 -48t-16.5 -47.5t-17.5 -48.5l-132 -353h-168zM132 134l54 130h320l54 -130h-428zM349 673q-35 0 -65 17t-48.5 45t-18.5 61q0 35 18 64t48.5 46.5t65.5 17.5
q36 0 66 -17.5t48.5 -46.5t18.5 -64q0 -33 -18.5 -61t-48.5 -45t-66 -17zM349 756q17 0 29 11.5t12 28.5t-12 28.5t-29 11.5q-16 0 -28 -11.5t-12 -28.5t12 -28.5t28 -11.5zM261 941l-37 80l209 116l55 -118z" />
    <glyph glyph-name="aringacute" unicode="&#x1fb;" horiz-adv-x="566" 
d="M354 0v326q0 41 -22.5 60.5t-62.5 19.5q-39 0 -69.5 -14.5t-58.5 -47.5l-96 93q48 49 110 77t135 28q67 0 116 -20t76 -61t27 -104v-357h-155zM216 -10q-50 0 -90.5 20t-64 55.5t-23.5 83.5q0 41 15 72t44.5 51.5t74 31t103.5 10.5h161l-9 -101h-148q-21 0 -37 -3.5
t-27 -11t-16.5 -17.5t-5.5 -24q0 -15 8 -26t21.5 -17t31.5 -6q26 0 49.5 8.5t42 24.5t29.5 37l28 -72q-21 -34 -50.5 -60t-64 -41t-72.5 -15zM283 605q-32 0 -59.5 16t-44.5 42t-17 57q0 32 16.5 59t44 43t60.5 16t60.5 -16t44 -43t16.5 -59q0 -31 -16.5 -57t-44 -42
t-60.5 -16zM283 685q16 0 26.5 10.5t10.5 24.5q0 17 -10.5 27.5t-26.5 10.5t-26.5 -10.5t-10.5 -26.5q0 -15 10.5 -25.5t26.5 -10.5zM204 864l-48 74l178 141l74 -105z" />
    <glyph glyph-name="AEacute" unicode="&#x1fc;" horiz-adv-x="1073" 
d="M-8 0l488 700h533v-141h-327v-137h282v-136h-282v-145h327v-141h-490v141h-267l92 134h175v279l26 -8l-373 -546h-184zM629 748l-37 80l209 116l55 -118z" />
    <glyph glyph-name="aeacute" unicode="&#x1fd;" horiz-adv-x="899" 
d="M220 -10q-51 0 -92.5 20t-65.5 55.5t-24 83.5q0 41 15.5 72t46 52t75.5 31t104 10h454l-10 -11v21q-2 24 -15 43t-34 29.5t-48 10.5q-39 0 -66.5 -15.5t-41.5 -44.5t-14 -72q0 -42 20 -75t57 -51.5t87 -18.5q35 0 63 10t59 34l70 -107q-31 -26 -66 -43.5t-71.5 -25.5
t-72.5 -8q-87 0 -151.5 34.5t-100 96t-35.5 141.5q0 61 19.5 112.5t55 89t83 58t103.5 20.5q73 0 129.5 -35t88.5 -95.5t31 -137.5l-1 -49h-591q-21 0 -36.5 -4.5t-26 -12.5t-16 -20t-5.5 -27t7.5 -27t21 -19t31.5 -7q27 0 50.5 8.5t42 24.5t29.5 37l52 -84
q-21 -32 -54.5 -55.5t-74 -36t-82.5 -12.5zM360 248v85q0 19 -6.5 32.5t-18 22.5t-28 13.5t-37.5 4.5q-39 0 -66.5 -14.5t-50.5 -47.5l-96 94q38 47 99.5 75.5t136.5 28.5q48 0 86.5 -10.5t66 -32t42 -54.5t14.5 -77v-117zM377 589l-48 74l178 141l74 -105z" />
    <glyph glyph-name="Oslashacute" unicode="&#x1fe;" horiz-adv-x="805" 
d="M139 -33l-64 54l589 721l69 -48zM405 -10q-79 0 -145.5 27t-115 75.5t-75.5 115t-27 145.5q0 78 27 144.5t75.5 115.5t115 76t145.5 27q78 0 144 -27t114.5 -76t75.5 -115.5t27 -145.5q0 -78 -27 -144t-75.5 -115t-114.5 -76t-144 -27zM405 151q41 0 75 15t59.5 42
t39.5 64t14 80q0 44 -14 81t-39.5 64.5t-59.5 42.5t-75 15t-75.5 -15t-60 -42.5t-39.5 -64.5t-14 -81q0 -58 24.5 -103.5t67 -71.5t97.5 -26zM314 748l-37 80l209 116l55 -118z" />
    <glyph glyph-name="oslashacute" unicode="&#x1ff;" horiz-adv-x="640" 
d="M120 -36l-67 50l462 546l68 -50zM320 -10q-82 0 -147 35.5t-102 98t-37 141.5q0 81 37 143.5t102 98t147 35.5q83 0 147.5 -35.5t101.5 -98t37 -143.5q0 -79 -37 -141.5t-101.5 -98t-147.5 -35.5zM320 128q36 0 63.5 18t43.5 49t15 70q1 41 -15 72.5t-43.5 49t-63.5 17.5
q-35 0 -63 -18t-44 -49t-16 -72q0 -39 16 -70t44 -49t63 -18zM242 589l-48 74l178 141l74 -105z" />
    <glyph glyph-name="uni0200" unicode="&#x200;" horiz-adv-x="697" 
d="M0 0l277 700h145l275 -700h-172l-133 355q-7 21 -15.5 45t-16.5 50t-15 50t-12 45l29 1q-6 -25 -13 -49t-15 -48t-16.5 -47.5t-17.5 -48.5l-132 -353h-168zM132 134l54 130h320l54 -130h-428zM473 743l-171 123l85 95l142 -152zM249 739l-178 121l84 100l149 -151z" />
    <glyph glyph-name="uni0201" unicode="&#x201;" horiz-adv-x="566" 
d="M354 0v326q0 41 -22.5 60.5t-62.5 19.5q-39 0 -69.5 -14.5t-58.5 -47.5l-96 93q48 49 110 77t135 28q67 0 116 -20t76 -61t27 -104v-357h-155zM216 -10q-50 0 -90.5 20t-64 55.5t-23.5 83.5q0 41 15 72t44.5 51.5t74 31t103.5 10.5h161l-9 -101h-148q-21 0 -37 -3.5
t-27 -11t-16.5 -17.5t-5.5 -24q0 -15 8 -26t21.5 -17t31.5 -6q26 0 49.5 8.5t42 24.5t29.5 37l28 -72q-21 -34 -50.5 -60t-64 -41t-72.5 -15zM380 588l-170 138l96 86l142 -175zM173 590l-180 129l91 92l152 -169z" />
    <glyph glyph-name="uni0202" unicode="&#x202;" horiz-adv-x="697" 
d="M0 0l277 700h145l275 -700h-172l-133 355q-7 21 -15.5 45t-16.5 50t-15 50t-12 45l29 1q-6 -25 -13 -49t-15 -48t-16.5 -47.5t-17.5 -48.5l-132 -353h-168zM132 134l54 130h320l54 -130h-428zM274 757l-104 13q10 45 35 79t62.5 53t82.5 19q46 0 83 -19t62.5 -53
t34.5 -79l-104 -13q-10 26 -30 42.5t-46 16.5q-25 0 -45.5 -16.5t-30.5 -42.5z" />
    <glyph glyph-name="uni0203" unicode="&#x203;" horiz-adv-x="566" 
d="M354 0v326q0 41 -22.5 60.5t-62.5 19.5q-39 0 -69.5 -14.5t-58.5 -47.5l-96 93q48 49 110 77t135 28q67 0 116 -20t76 -61t27 -104v-357h-155zM216 -10q-50 0 -90.5 20t-64 55.5t-23.5 83.5q0 41 15 72t44.5 51.5t74 31t103.5 10.5h161l-9 -101h-148q-21 0 -37 -3.5
t-27 -11t-16.5 -17.5t-5.5 -24q0 -15 8 -26t21.5 -17t31.5 -6q26 0 49.5 8.5t42 24.5t29.5 37l28 -72q-21 -34 -50.5 -60t-64 -41t-72.5 -15zM207 610l-104 12q15 75 63 118t117 43t117 -43t63 -118l-104 -12q-10 32 -30.5 50.5t-45.5 18.5t-45 -18.5t-31 -50.5z" />
    <glyph glyph-name="uni0204" unicode="&#x204;" horiz-adv-x="645" 
d="M87 0v700h488v-146h-321v-408h332v-146h-499zM168 286v140h363v-140h-363zM467 743l-171 123l85 95l142 -152zM243 739l-178 121l84 100l149 -151z" />
    <glyph glyph-name="uni0205" unicode="&#x205;" horiz-adv-x="586" 
d="M324 -10q-88 0 -153.5 35t-101 96.5t-35.5 140.5q0 62 20 113.5t56.5 88.5t86 57.5t108.5 20.5q56 0 102 -20t80 -56t52 -85t17 -107l-1 -44h-422l-24 91h315l-17 -18v20q-2 25 -15.5 43.5t-35 29.5t-48.5 11q-40 0 -67.5 -15.5t-41.5 -44.5t-14 -72t18.5 -76t54 -51
t84.5 -18q33 0 60 10t58 34l75 -106q-31 -26 -66 -43.5t-71.5 -26t-73.5 -8.5zM401 588l-170 138l96 86l142 -175zM194 590l-180 129l91 92l152 -169z" />
    <glyph glyph-name="uni0206" unicode="&#x206;" horiz-adv-x="645" 
d="M87 0v700h488v-146h-321v-408h332v-146h-499zM168 286v140h363v-140h-363zM266 757l-104 13q10 45 35 79t62.5 53t82.5 19q46 0 83 -19t62.5 -53t34.5 -79l-104 -13q-10 26 -30 42.5t-46 16.5q-25 0 -45.5 -16.5t-30.5 -42.5z" />
    <glyph glyph-name="uni0207" unicode="&#x207;" horiz-adv-x="586" 
d="M324 -10q-88 0 -153.5 35t-101 96.5t-35.5 140.5q0 62 20 113.5t56.5 88.5t86 57.5t108.5 20.5q56 0 102 -20t80 -56t52 -85t17 -107l-1 -44h-422l-24 91h315l-17 -18v20q-2 25 -15.5 43.5t-35 29.5t-48.5 11q-40 0 -67.5 -15.5t-41.5 -44.5t-14 -72t18.5 -76t54 -51
t84.5 -18q33 0 60 10t58 34l75 -106q-31 -26 -66 -43.5t-71.5 -26t-73.5 -8.5zM229 610l-104 12q15 75 63 118t117 43t117 -43t63 -118l-104 -12q-10 32 -30.5 50.5t-45.5 18.5t-45 -18.5t-31 -50.5z" />
    <glyph glyph-name="uni0208" unicode="&#x208;" horiz-adv-x="555" 
d="M74 0v144h118v412h-118v144h407v-144h-118v-412h118v-144h-407zM402 743l-171 123l85 95l142 -152zM178 739l-178 121l84 100l149 -151z" />
    <glyph glyph-name="uni0209" unicode="&#x209;" horiz-adv-x="290" 
d="M64 0v531h161v-531h-161zM241 588l-170 138l96 86l142 -175zM34 590l-180 129l91 92l152 -169z" />
    <glyph glyph-name="uni020A" unicode="&#x20a;" horiz-adv-x="555" 
d="M74 0v144h118v412h-118v144h407v-144h-118v-412h118v-144h-407zM202 757l-104 13q10 45 35 79t62.5 53t82.5 19q46 0 83 -19t62.5 -53t34.5 -79l-104 -13q-10 26 -30 42.5t-46 16.5q-25 0 -45.5 -16.5t-30.5 -42.5z" />
    <glyph glyph-name="uni020B" unicode="&#x20b;" horiz-adv-x="290" 
d="M64 0v531h161v-531h-161zM69 610l-104 12q15 75 63 118t117 43t117 -43t63 -118l-104 -12q-10 32 -30.5 50.5t-45.5 18.5t-45 -18.5t-31 -50.5z" />
    <glyph glyph-name="uni020C" unicode="&#x20c;" horiz-adv-x="810" 
d="M406 -10q-79 0 -145.5 27t-115 75.5t-75.5 115t-27 145.5q0 78 27 144.5t75.5 115.5t115 76t145.5 27q78 0 144 -27t114.5 -76t75.5 -115.5t27 -145.5q0 -78 -27 -144t-75.5 -115t-114.5 -76t-144 -27zM406 151q41 0 75 15t59.5 42t39.5 64t14 80q0 44 -14 81t-39.5 64.5
t-59.5 42.5t-75 15t-75.5 -15t-60 -42.5t-39.5 -64.5t-14 -81q0 -58 24.5 -103.5t67 -71.5t97.5 -26zM529 743l-171 123l85 95l142 -152zM305 739l-178 121l84 100l149 -151z" />
    <glyph glyph-name="uni020D" unicode="&#x20d;" horiz-adv-x="640" 
d="M320 -10q-82 0 -147 35.5t-102 98t-37 141.5q0 81 37 143.5t102 98t147 35.5q83 0 147.5 -35.5t101.5 -98t37 -143.5q0 -79 -37 -141.5t-101.5 -98t-147.5 -35.5zM320 128q36 0 63.5 18t43.5 49t15 70q1 41 -15 72.5t-43.5 49t-63.5 17.5q-35 0 -63 -18t-44 -49t-16 -72
q0 -39 16 -70t44 -49t63 -18zM418 588l-170 138l96 86l142 -175zM211 590l-180 129l91 92l152 -169z" />
    <glyph glyph-name="uni020E" unicode="&#x20e;" horiz-adv-x="810" 
d="M406 -10q-79 0 -145.5 27t-115 75.5t-75.5 115t-27 145.5q0 78 27 144.5t75.5 115.5t115 76t145.5 27q78 0 144 -27t114.5 -76t75.5 -115.5t27 -145.5q0 -78 -27 -144t-75.5 -115t-114.5 -76t-144 -27zM406 151q41 0 75 15t59.5 42t39.5 64t14 80q0 44 -14 81t-39.5 64.5
t-59.5 42.5t-75 15t-75.5 -15t-60 -42.5t-39.5 -64.5t-14 -81q0 -58 24.5 -103.5t67 -71.5t97.5 -26zM330 757l-104 13q10 45 35 79t62.5 53t82.5 19q46 0 83 -19t62.5 -53t34.5 -79l-104 -13q-10 26 -30 42.5t-46 16.5q-25 0 -45.5 -16.5t-30.5 -42.5z" />
    <glyph glyph-name="uni020F" unicode="&#x20f;" horiz-adv-x="640" 
d="M320 -10q-82 0 -147 35.5t-102 98t-37 141.5q0 81 37 143.5t102 98t147 35.5q83 0 147.5 -35.5t101.5 -98t37 -143.5q0 -79 -37 -141.5t-101.5 -98t-147.5 -35.5zM320 128q36 0 63.5 18t43.5 49t15 70q1 41 -15 72.5t-43.5 49t-63.5 17.5q-35 0 -63 -18t-44 -49t-16 -72
q0 -39 16 -70t44 -49t63 -18zM244 610l-104 12q15 75 63 118t117 43t117 -43t63 -118l-104 -12q-10 32 -30.5 50.5t-45.5 18.5t-45 -18.5t-31 -50.5z" />
    <glyph glyph-name="uni0210" unicode="&#x210;" horiz-adv-x="704" 
d="M87 0v700h317q68 0 122 -29t85.5 -79.5t31.5 -115.5q0 -66 -31.5 -118t-85.5 -82.5t-122 -30.5h-154v-245h-163zM476 0l-178 317l175 25l198 -343zM250 378h139q26 0 45.5 11.5t30 31.5t10.5 46q0 27 -12.5 47t-35 31.5t-53.5 11.5h-124v-179zM457 743l-171 123l85 95
l142 -152zM233 739l-178 121l84 100l149 -151z" />
    <glyph glyph-name="uni0211" unicode="&#x211;" horiz-adv-x="456" 
d="M71 0v531h153l7 -173l-30 34q13 42 40 76t64.5 54t78.5 20q18 0 33.5 -2.5t27.5 -7.5l-43 -177q-11 6 -29.5 10.5t-38.5 4.5q-22 0 -40.5 -7.5t-32 -21.5t-21 -33t-7.5 -43v-265h-162zM360 588l-170 138l96 86l142 -175zM153 590l-180 129l91 92l152 -169z" />
    <glyph glyph-name="uni0212" unicode="&#x212;" horiz-adv-x="704" 
d="M87 0v700h317q68 0 122 -29t85.5 -79.5t31.5 -115.5q0 -66 -31.5 -118t-85.5 -82.5t-122 -30.5h-154v-245h-163zM476 0l-178 317l175 25l198 -343zM250 378h139q26 0 45.5 11.5t30 31.5t10.5 46q0 27 -12.5 47t-35 31.5t-53.5 11.5h-124v-179zM257 757l-104 13
q10 45 35 79t62.5 53t82.5 19q46 0 83 -19t62.5 -53t34.5 -79l-104 -13q-10 26 -30 42.5t-46 16.5q-25 0 -45.5 -16.5t-30.5 -42.5z" />
    <glyph glyph-name="uni0213" unicode="&#x213;" horiz-adv-x="456" 
d="M71 0v531h153l7 -173l-30 34q13 42 40 76t64.5 54t78.5 20q18 0 33.5 -2.5t27.5 -7.5l-43 -177q-11 6 -29.5 10.5t-38.5 4.5q-22 0 -40.5 -7.5t-32 -21.5t-21 -33t-7.5 -43v-265h-162zM187 610l-104 12q15 75 63 118t117 43t117 -43t63 -118l-104 -12q-10 32 -30.5 50.5
t-45.5 18.5t-45 -18.5t-31 -50.5z" />
    <glyph glyph-name="uni0214" unicode="&#x214;" horiz-adv-x="764" 
d="M383 -6q-87 0 -154.5 35.5t-106.5 98t-39 141.5v432h172v-423q0 -38 17 -68t46.5 -47.5t64.5 -17.5q37 0 67 17.5t47.5 47.5t17.5 68v423h166v-432q0 -79 -38.5 -141.5t-105.5 -98t-154 -35.5zM506 743l-171 123l85 95l142 -152zM282 739l-178 121l84 100l149 -151z" />
    <glyph glyph-name="uni0215" unicode="&#x215;" horiz-adv-x="643" 
d="M252 -10q-58 0 -100 25.5t-64.5 73t-22.5 114.5v328h161v-304q0 -49 23.5 -76.5t65.5 -27.5q21 0 38 6.5t29.5 19t19.5 29.5t7 37v316h161v-531h-151l-6 109l29 12q-11 -37 -39.5 -67t-67.5 -47t-83 -17zM419 588l-170 138l96 86l142 -175zM212 590l-180 129l91 92
l152 -169z" />
    <glyph glyph-name="uni0216" unicode="&#x216;" horiz-adv-x="764" 
d="M383 -6q-87 0 -154.5 35.5t-106.5 98t-39 141.5v432h172v-423q0 -38 17 -68t46.5 -47.5t64.5 -17.5q37 0 67 17.5t47.5 47.5t17.5 68v423h166v-432q0 -79 -38.5 -141.5t-105.5 -98t-154 -35.5zM306 757l-104 13q10 45 35 79t62.5 53t82.5 19q46 0 83 -19t62.5 -53
t34.5 -79l-104 -13q-10 26 -30 42.5t-46 16.5q-25 0 -45.5 -16.5t-30.5 -42.5z" />
    <glyph glyph-name="uni0217" unicode="&#x217;" horiz-adv-x="643" 
d="M252 -10q-58 0 -100 25.5t-64.5 73t-22.5 114.5v328h161v-304q0 -49 23.5 -76.5t65.5 -27.5q21 0 38 6.5t29.5 19t19.5 29.5t7 37v316h161v-531h-151l-6 109l29 12q-11 -37 -39.5 -67t-67.5 -47t-83 -17zM246 610l-104 12q15 75 63 118t117 43t117 -43t63 -118l-104 -12
q-10 32 -30.5 50.5t-45.5 18.5t-45 -18.5t-31 -50.5z" />
    <glyph glyph-name="uni0218" unicode="&#x218;" horiz-adv-x="635" 
d="M320 -10q-104 0 -175.5 36.5t-122.5 103.5l104 117q49 -67 99 -90t103 -23q27 0 48.5 7t34 20.5t12.5 32.5q0 15 -7.5 27t-20.5 21t-30 16.5t-37.5 12.5t-41.5 9q-58 12 -100.5 31.5t-71 47t-42.5 63t-14 80.5q0 64 36.5 112t96.5 75t130 27q102 0 164.5 -32.5
t99.5 -89.5l-106 -103q-31 40 -70.5 60t-82.5 20q-29 0 -51 -7t-33.5 -20.5t-11.5 -32.5q0 -16 9.5 -28.5t26.5 -21.5t39 -15.5t46 -10.5q55 -11 99.5 -29t76.5 -44.5t49.5 -62t17.5 -81.5q0 -72 -35 -123t-97 -78t-142 -27zM281 -293l-40 55q14 4 31 13t29.5 21t12.5 24
q0 8 -6 12.5t-19 9.5q-21 8 -29.5 21t-8.5 33q0 32 23 48t58 16q42 0 71.5 -24t29.5 -73q0 -28 -10.5 -52.5t-31 -44t-48 -34.5t-62.5 -25z" />
    <glyph glyph-name="uni0219" unicode="&#x219;" horiz-adv-x="495" 
d="M250 -10q-76 0 -136 24.5t-96 67.5l98 84q31 -31 70 -45.5t74 -14.5q13 0 23 3t17.5 8.5t11.5 13t4 17.5q0 20 -17 30q-8 5 -29 12.5t-54 15.5q-47 12 -81.5 29t-56.5 39q-20 20 -30.5 46t-10.5 58q0 49 29.5 86t77.5 57.5t104 20.5q44 0 83.5 -10t74 -28t61.5 -43
l-85 -95q-17 17 -40 30.5t-46 22t-43 8.5q-15 0 -26.5 -2.5t-19 -8t-11.5 -13t-4 -16.5q0 -11 5.5 -19.5t15.5 -15.5q9 -5 31.5 -13t59.5 -18q47 -13 80.5 -29.5t53.5 -38.5q17 -17 24.5 -39.5t7.5 -48.5q0 -51 -28.5 -90.5t-78 -62t-113.5 -22.5zM195 -293l-40 55
q14 5 31 13.5t29.5 20t12.5 24.5q0 8 -6 13t-19 10q-21 8 -29.5 20.5t-8.5 32.5q0 32 24 48.5t59 16.5q42 0 70.5 -25.5t28.5 -74.5q0 -26 -10.5 -48.5t-31 -41.5t-48 -35t-62.5 -29z" />
    <glyph glyph-name="uni021A" unicode="&#x21a;" horiz-adv-x="655" 
d="M239 0v549h-206v151h590v-151h-213v-549h-171zM272 -293l-40 55q14 4 31 13t29.5 21t12.5 24q0 8 -6 12.5t-19 9.5q-21 8 -29.5 21t-8.5 33q0 32 23 48t58 16q42 0 71.5 -24t29.5 -73q0 -28 -10.5 -52.5t-31 -44t-48 -34.5t-62.5 -25z" />
    <glyph glyph-name="uni021B" unicode="&#x21b;" horiz-adv-x="399" 
d="M115 0v665h161v-665h-161zM21 390v141h357v-141h-357zM143 -293l-40 55q14 5 31 13.5t29.5 20t12.5 24.5q0 8 -6 13t-19 10q-21 8 -29.5 20.5t-8.5 32.5q0 32 24 48.5t59 16.5q42 0 70.5 -25.5t28.5 -74.5q0 -26 -10.5 -48.5t-31 -41.5t-48 -35t-62.5 -29z" />
    <glyph glyph-name="uni022A" unicode="&#x22a;" horiz-adv-x="810" 
d="M406 -10q-79 0 -145.5 27t-115 75.5t-75.5 115t-27 145.5q0 78 27 144.5t75.5 115.5t115 76t145.5 27q78 0 144 -27t114.5 -76t75.5 -115.5t27 -145.5q0 -78 -27 -144t-75.5 -115t-114.5 -76t-144 -27zM406 151q41 0 75 15t59.5 42t39.5 64t14 80q0 44 -14 81t-39.5 64.5
t-59.5 42.5t-75 15t-75.5 -15t-60 -42.5t-39.5 -64.5t-14 -81q0 -58 24.5 -103.5t67 -71.5t97.5 -26zM526 754q-43 0 -65 22t-22 63q0 35 22.5 60t64.5 25q44 0 65.5 -22.5t21.5 -62.5q0 -36 -22.5 -60.5t-64.5 -24.5zM282 754q-43 0 -65 22t-22 63q0 35 22.5 60t64.5 25
q44 0 66 -22.5t22 -62.5q0 -36 -23 -60.5t-65 -24.5zM223 976v103h361v-103h-361z" />
    <glyph glyph-name="uni022B" unicode="&#x22b;" horiz-adv-x="640" 
d="M320 -10q-82 0 -147 35.5t-102 98t-37 141.5q0 81 37 143.5t102 98t147 35.5q83 0 147.5 -35.5t101.5 -98t37 -143.5q0 -79 -37 -141.5t-101.5 -98t-147.5 -35.5zM320 128q36 0 63.5 18t43.5 49t15 70q1 41 -15 72.5t-43.5 49t-63.5 17.5q-35 0 -63 -18t-44 -49t-16 -72
q0 -39 16 -70t44 -49t63 -18zM441 631q-42 0 -65 23t-23 63q0 38 24 62t64 24q41 0 64 -22.5t23 -63.5q0 -37 -23.5 -61.5t-63.5 -24.5zM200 631q-42 0 -64.5 23t-22.5 63q0 38 23.5 62t63.5 24q42 0 64.5 -22.5t22.5 -63.5q0 -37 -23.5 -61.5t-63.5 -24.5zM153 853v102h334
v-102h-334z" />
    <glyph glyph-name="uni022C" unicode="&#x22c;" horiz-adv-x="810" 
d="M406 -10q-79 0 -145.5 27t-115 75.5t-75.5 115t-27 145.5q0 78 27 144.5t75.5 115.5t115 76t145.5 27q78 0 144 -27t114.5 -76t75.5 -115.5t27 -145.5q0 -78 -27 -144t-75.5 -115t-114.5 -76t-144 -27zM406 151q41 0 75 15t59.5 42t39.5 64t14 80q0 44 -14 81t-39.5 64.5
t-59.5 42.5t-75 15t-75.5 -15t-60 -42.5t-39.5 -64.5t-14 -81q0 -58 24.5 -103.5t67 -71.5t97.5 -26zM483 767q-20 0 -40.5 6.5t-44.5 16.5q-18 8 -30 12t-22 4q-14 0 -22.5 -10t-8.5 -29h-100q0 67 36.5 105t92.5 38q18 0 35.5 -5t43.5 -17q16 -7 27.5 -11.5t20.5 -4.5
q13 0 20 10.5t6 27.5h99q0 -39 -14 -71.5t-39.5 -52t-59.5 -19.5zM225 976v103h361v-103h-361z" />
    <glyph glyph-name="uni022D" unicode="&#x22d;" horiz-adv-x="640" 
d="M320 -10q-82 0 -147 35.5t-102 98t-37 141.5q0 81 37 143.5t102 98t147 35.5q83 0 147.5 -35.5t101.5 -98t37 -143.5q0 -79 -37 -141.5t-101.5 -98t-147.5 -35.5zM320 128q36 0 63.5 18t43.5 49t15 70q1 41 -15 72.5t-43.5 49t-63.5 17.5q-35 0 -63 -18t-44 -49t-16 -72
q0 -39 16 -70t44 -49t63 -18zM386 614q-16 0 -33.5 6t-40.5 21q-18 14 -28.5 20t-17.5 6q-15 0 -25 -11.5t-13 -36.5l-90 11q0 57 31.5 97.5t84.5 40.5q17 0 33.5 -5.5t39.5 -21.5q14 -10 25.5 -18t22.5 -8q14 0 23.5 12.5t13.5 35.5l89 -12q-1 -36 -15.5 -67.5t-39.5 -50.5
t-60 -19zM153 847v102h334v-102h-334z" />
    <glyph glyph-name="uni0230" unicode="&#x230;" horiz-adv-x="810" 
d="M406 -10q-79 0 -145.5 27t-115 75.5t-75.5 115t-27 145.5q0 78 27 144.5t75.5 115.5t115 76t145.5 27q78 0 144 -27t114.5 -76t75.5 -115.5t27 -145.5q0 -78 -27 -144t-75.5 -115t-114.5 -76t-144 -27zM406 151q41 0 75 15t59.5 42t39.5 64t14 80q0 44 -14 81t-39.5 64.5
t-59.5 42.5t-75 15t-75.5 -15t-60 -42.5t-39.5 -64.5t-14 -81q0 -58 24.5 -103.5t67 -71.5t97.5 -26zM405 756q-46 0 -71 22t-25 61q0 35 25 59t71 24q47 0 71.5 -22t24.5 -61q0 -35 -25.5 -59t-70.5 -24zM224 976v103h361v-103h-361z" />
    <glyph glyph-name="uni0231" unicode="&#x231;" horiz-adv-x="640" 
d="M320 -10q-82 0 -147 35.5t-102 98t-37 141.5q0 81 37 143.5t102 98t147 35.5q83 0 147.5 -35.5t101.5 -98t37 -143.5q0 -79 -37 -141.5t-101.5 -98t-147.5 -35.5zM320 128q36 0 63.5 18t43.5 49t15 70q1 41 -15 72.5t-43.5 49t-63.5 17.5q-35 0 -63 -18t-44 -49t-16 -72
q0 -39 16 -70t44 -49t63 -18zM320 636q-46 0 -71 21.5t-25 61.5q0 37 25.5 60t70.5 23q46 0 71 -21.5t25 -61.5q0 -37 -25.5 -60t-70.5 -23zM153 853v102h334v-102h-334z" />
    <glyph glyph-name="uni0232" unicode="&#x232;" horiz-adv-x="690" 
d="M269 0v349l7 -49l-283 400h194l215 -308l-87 3l193 305h189l-271 -411l15 69v-358h-172zM164 787v103h361v-103h-361z" />
    <glyph glyph-name="uni0233" unicode="&#x233;" horiz-adv-x="621" 
d="M139 -230l121 284l2 -84l-257 561h182l112 -268q9 -19 17 -43t12 -45l-23 -13q6 15 13.5 38t16.5 49l98 282h183l-225 -531l-91 -230h-161zM145 639v102h334v-102h-334z" />
    <glyph glyph-name="uni0237" unicode="&#x237;" horiz-adv-x="316" 
d="M23 -210l-61 124q68 0 94 27.5t26 99.5v490h161v-528q0 -72 -26 -119.5t-75 -70.5t-119 -23z" />
    <glyph glyph-name="uni0259" unicode="&#x259;" horiz-adv-x="587" 
d="M282 -12q-73 1 -130 35.5t-89 95.5t-32 138l1 43h423l23 -91h-315l18 19v-21q2 -24 15 -42.5t35 -29.5t49 -11q40 0 67 15.5t41 44.5t14 71q0 44 -18.5 76.5t-53 50.5t-84.5 18q-34 0 -60.5 -9.5t-57.5 -35.5l-76 108q32 27 67 44t71.5 25.5t72.5 8.5q89 0 154 -35.5
t100.5 -97t35.5 -140.5q0 -61 -20 -112.5t-56.5 -88.5t-86 -58t-108.5 -21z" />
    <glyph glyph-name="uni0272" unicode="&#x272;" horiz-adv-x="648" 
d="M24 -210l-62 124q34 0 57.5 6t37.5 19t20 35t6 54v503h152l6 -112l-18 23q16 29 43.5 51.5t62 35.5t71.5 13q60 0 101 -24.5t62 -73t21 -119.5v-325h-161v313q0 32 -9 53t-27 31t-46 9q-21 0 -39 -6.5t-31 -19t-20 -28.5t-7 -36v-313q-1 -68 -27 -116t-75 -72.5
t-118 -24.5z" />
    <glyph glyph-name="uni02BB" unicode="&#x2bb;" horiz-adv-x="275" 
d="M147 431q-30 0 -54.5 16t-39 44.5t-14.5 66.5q0 31 12.5 61.5t34.5 57.5t52.5 47t66.5 30l46 -57q-42 -18 -67.5 -44t-25.5 -45q0 -11 7.5 -21.5t20.5 -20.5q24 -17 33.5 -33t9.5 -35q0 -31 -23 -49t-59 -18z" />
    <glyph glyph-name="uni02BC" unicode="&#x2bc;" horiz-adv-x="251" 
d="M43 436l20 264h166l-85 -264h-101z" />
    <glyph glyph-name="uni02BE" unicode="&#x2be;" horiz-adv-x="220" 
d="M53 521v81q15 0 25 9.5t10 24.5q0 16 -9.5 25.5t-25.5 9.5v83q33 0 60.5 -16.5t43.5 -43t16 -58.5q0 -31 -16.5 -57.5t-44 -42t-59.5 -15.5z" />
    <glyph glyph-name="uni02BF" unicode="&#x2bf;" horiz-adv-x="219" 
d="M159 521q-31 0 -59 15.5t-45 41.5t-17 58t16.5 58.5t43.5 43t60 16.5l1 -83q-15 0 -25.5 -9t-10.5 -26q0 -15 10.5 -24.5t25.5 -9.5v-81z" />
    <glyph glyph-name="circumflex" unicode="&#x2c6;" horiz-adv-x="500" 
d="M116 595l-58 50l144 129h96l144 -129l-58 -50l-149 85h30z" />
    <glyph glyph-name="caron" unicode="&#x2c7;" horiz-adv-x="500" 
d="M202 601l-139 129l58 50l144 -85h-30l144 85l58 -50l-139 -129h-96z" />
    <glyph glyph-name="uni02C8" unicode="&#x2c8;" horiz-adv-x="231" 
d="M66 368v344h99v-344h-99z" />
    <glyph glyph-name="uni02CC" unicode="&#x2cc;" horiz-adv-x="253" 
d="M63 -147v344h128v-344h-128z" />
    <glyph glyph-name="breve" unicode="&#x2d8;" horiz-adv-x="404" 
d="M250 594q-69 0 -117 42.5t-63 118.5l104 12q11 -31 31 -49.5t45 -18.5t45.5 18.5t30.5 49.5l104 -12q-15 -76 -63 -118.5t-117 -42.5z" />
    <glyph glyph-name="dotaccent" unicode="&#x2d9;" horiz-adv-x="500" 
d="M250 630q-46 0 -71 21.5t-25 61.5q0 37 25.5 60t70.5 23q46 0 71 -21.5t25 -61.5q0 -37 -25.5 -60t-70.5 -23z" />
    <glyph glyph-name="ring" unicode="&#x2da;" horiz-adv-x="500" 
d="M250 599q-32 0 -59.5 16t-44.5 42t-17 57q0 32 16.5 59t44 43t60.5 16t60.5 -16t44 -43t16.5 -59q0 -31 -16.5 -57t-44 -42t-60.5 -16zM250 679q16 0 26.5 10.5t10.5 24.5q0 17 -10.5 27.5t-26.5 10.5t-26.5 -10.5t-10.5 -26.5q0 -15 10.5 -25.5t26.5 -10.5z" />
    <glyph glyph-name="ogonek" unicode="&#x2db;" horiz-adv-x="500" 
d="M250 -209q-33 0 -60.5 14.5t-44 40t-16.5 56.5q0 26 10.5 47t32.5 39t54.5 32t75.5 26l40 -46q-27 -6 -50 -18.5t-36.5 -28t-13.5 -32.5q0 -12 7 -19.5t20 -7.5q9 0 16 6t15 18l71 -51q-15 -28 -46.5 -52t-74.5 -24z" />
    <glyph glyph-name="tilde" unicode="&#x2dc;" horiz-adv-x="500" 
d="M317 608q-16 0 -33.5 6t-40.5 21q-18 14 -28.5 20t-17.5 6q-15 0 -25 -11.5t-13 -36.5l-90 11q0 57 31.5 97.5t84.5 40.5q17 0 33.5 -5.5t39.5 -21.5q14 -10 25.5 -18t22.5 -8q14 0 23.5 12.5t13.5 35.5l89 -12q-1 -36 -15.5 -67.5t-39.5 -50.5t-60 -19z" />
    <glyph glyph-name="hungarumlaut" unicode="&#x2dd;" horiz-adv-x="500" 
d="M298 584l-64 52l152 169l92 -92zM90 582l-67 49l142 175l95 -86z" />
    <glyph glyph-name="gravecomb" unicode="&#x300;" 
d="M328 584l-204 110l74 105l178 -141z" />
    <glyph glyph-name="acutecomb" unicode="&#x301;" 
d="M172 583l-48 74l178 141l74 -105z" />
    <glyph glyph-name="uni0302" unicode="&#x302;" 
d="M116 595l-58 50l144 129h96l144 -129l-58 -50l-149 85h30z" />
    <glyph glyph-name="tildecomb" unicode="&#x303;" 
d="M317 608q-16 0 -33.5 6t-40.5 21q-18 14 -28.5 20t-17.5 6q-15 0 -25 -11.5t-13 -36.5l-90 11q0 57 31.5 97.5t84.5 40.5q17 0 33.5 -5.5t39.5 -21.5q14 -10 25.5 -18t22.5 -8q14 0 23.5 12.5t13.5 35.5l89 -12q-1 -36 -15.5 -67.5t-39.5 -50.5t-60 -19z" />
    <glyph glyph-name="uni0304" unicode="&#x304;" 
d="M83 633v102h334v-102h-334z" />
    <glyph glyph-name="uni0306" unicode="&#x306;" 
d="M250 594q-69 0 -117 42.5t-63 118.5l104 12q11 -31 31 -49.5t45 -18.5t45.5 18.5t30.5 49.5l104 -12q-15 -76 -63 -118.5t-117 -42.5z" />
    <glyph glyph-name="uni0307" unicode="&#x307;" 
d="M250 630q-46 0 -71 21.5t-25 61.5q0 37 25.5 60t70.5 23q46 0 71 -21.5t25 -61.5q0 -37 -25.5 -60t-70.5 -23z" />
    <glyph glyph-name="uni0308" unicode="&#x308;" 
d="M371 625q-42 0 -65 23t-23 63q0 38 24 62t64 24q41 0 64 -22.5t23 -63.5q0 -37 -23.5 -61.5t-63.5 -24.5zM130 625q-42 0 -64.5 23t-22.5 63q0 38 23.5 62t63.5 24q42 0 64.5 -22.5t22.5 -63.5q0 -37 -23.5 -61.5t-63.5 -24.5z" />
    <glyph glyph-name="hookabovecomb" unicode="&#x309;" 
d="M225 586q-8 9 -13.5 19.5t-5.5 23.5q0 11 6 23t25 25q13 9 21.5 15.5t8.5 16.5q0 8 -8.5 12.5t-22.5 4.5q-19 0 -41 -6t-43 -15l-24 86q22 12 54.5 20t66.5 8q56 0 89.5 -24.5t33.5 -65.5q0 -33 -13.5 -49.5t-28.5 -27.5q-16 -10 -27.5 -19t-11.5 -19q0 -3 1 -6.5t2 -6.5
z" />
    <glyph glyph-name="uni030A" unicode="&#x30a;" 
d="M250 599q-32 0 -59.5 16t-44.5 42t-17 57q0 32 16.5 59t44 43t60.5 16t60.5 -16t44 -43t16.5 -59q0 -31 -16.5 -57t-44 -42t-60.5 -16zM250 679q16 0 26.5 10.5t10.5 24.5q0 17 -10.5 27.5t-26.5 10.5t-26.5 -10.5t-10.5 -26.5q0 -15 10.5 -25.5t26.5 -10.5z" />
    <glyph glyph-name="uni030B" unicode="&#x30b;" 
d="M298 584l-64 52l152 169l92 -92zM90 582l-67 49l142 175l95 -86z" />
    <glyph glyph-name="uni030C" unicode="&#x30c;" 
d="M202 601l-139 129l58 50l144 -85h-30l144 85l58 -50l-139 -129h-96z" />
    <glyph glyph-name="uni030F" unicode="&#x30f;" 
d="M410 582l-170 138l96 86l142 -175zM203 584l-180 129l91 92l152 -169z" />
    <glyph glyph-name="uni0311" unicode="&#x311;" 
d="M174 604l-104 12q15 75 63 118t117 43t117 -43t63 -118l-104 -12q-10 32 -30.5 50.5t-45.5 18.5t-45 -18.5t-31 -50.5z" />
    <glyph glyph-name="uni0312" unicode="&#x312;" 
d="M253 590q-39 0 -69 24.5t-30 76.5q0 29 13 53t35 43t49 33t55 24l40 -55q-13 -3 -30.5 -12t-30 -20.5t-12.5 -25.5q0 -10 7.5 -13.5t18.5 -8.5q17 -8 27 -19t10 -34q0 -33 -24 -49.5t-59 -16.5z" />
    <glyph glyph-name="uni031B" unicode="&#x31b;" 
d="M142 447v99q47 0 70.5 28.5t23.5 85.5h122q0 -60 -24 -108.5t-71.5 -76.5t-120.5 -28z" />
    <glyph glyph-name="dotbelowcomb" unicode="&#x323;" 
d="M250 -225q-46 0 -71.5 22.5t-25.5 62.5q0 38 25.5 62t71.5 24q47 0 73 -22.5t26 -63.5q0 -38 -26.5 -61.5t-72.5 -23.5z" />
    <glyph glyph-name="uni0324" unicode="&#x324;" 
d="M371 -226q-42 0 -65 22.5t-23 62.5q0 38 24 62.5t64 24.5q41 0 64 -23t23 -64q0 -37 -23.5 -61t-63.5 -24zM130 -226q-42 0 -64.5 22.5t-22.5 62.5q0 38 23.5 62.5t63.5 24.5q42 0 64.5 -23t22.5 -64q0 -37 -23.5 -61t-63.5 -24z" />
    <glyph glyph-name="uni0326" unicode="&#x326;" 
d="M194 -293l-40 55q14 5 31 13.5t29.5 20t12.5 24.5q0 8 -6 13t-19 10q-21 8 -29.5 20.5t-8.5 32.5q0 32 24 48.5t59 16.5q42 0 70.5 -25.5t28.5 -74.5q0 -26 -10.5 -48.5t-31 -41.5t-48 -35t-62.5 -29z" />
    <glyph glyph-name="uni0327" unicode="&#x327;" 
d="M152 -246l-10 75q21 0 43.5 5t38 14.5t15.5 20.5q0 12 -11.5 19t-28.5 10.5t-32 3.5l-17 13l70 110h82l-45 -67q52 -7 77 -33t25 -64q0 -30 -19 -51t-50 -34t-67.5 -18t-70.5 -4z" />
    <glyph glyph-name="uni0328" unicode="&#x328;" 
d="M250 -209q-33 0 -60.5 14.5t-44 40t-16.5 56.5q0 26 10.5 47t32.5 39t54.5 32t75.5 26l40 -46q-27 -6 -50 -18.5t-36.5 -28t-13.5 -32.5q0 -12 7 -19.5t20 -7.5q9 0 16 6t15 18l71 -51q-15 -28 -46.5 -52t-74.5 -24z" />
    <glyph glyph-name="uni032E" unicode="&#x32e;" 
d="M250 -237q-67 0 -116 43t-64 118l104 12q11 -31 32 -49t44 -18t44.5 18t31.5 49l104 -12q-15 -75 -63.5 -118t-116.5 -43z" />
    <glyph glyph-name="uni0331" unicode="&#x331;" 
d="M97 -199v118h306v-118h-306z" />
    <glyph glyph-name="uni0335" unicode="&#x335;" 
d="M89 233v120h323v-120h-323z" />
    <glyph glyph-name="uni0394" unicode="&#x394;" horiz-adv-x="711" 
d="M-3 0l358 734l363 -734h-721zM170 66l-51 63h482l-58 -66l-229 463h82z" />
    <glyph glyph-name="uni03A9" unicode="&#x3a9;" horiz-adv-x="726" 
d="M49 0v144h185l-44 -33q-48 46 -84.5 95.5t-57.5 102t-21 106.5q0 65 25.5 120t71 95.5t106.5 63t133 22.5t133 -22.5t106.5 -63t70.5 -96t25 -120.5q0 -53 -20.5 -105.5t-57 -102t-84.5 -94.5l-41 32h181v-144h-269v151q26 28 48.5 52t33.5 42q22 35 34.5 71.5t12.5 80.5
q0 47 -22.5 83.5t-61.5 57.5t-89 21t-89 -21t-61.5 -57.5t-22.5 -83.5q0 -37 8.5 -67t23.5 -56.5t34 -53.5q18 -25 35 -42.5t27 -26.5v-151h-269z" />
    <glyph glyph-name="uni03BC" unicode="&#x3bc;" horiz-adv-x="639" 
d="M75 -162v693h158v-308q0 -33 9 -55t27 -33.5t44 -11.5q21 0 38.5 7.5t31 21t20.5 31t7 38.5v310h158v-531h-149l-5 100l14 -10q-19 -36 -42.5 -57t-53 -31.5t-67.5 -12.5q-12 0 -22.5 3t-17.5 8.5t-11 11.5l13 52l6 -226h-158z" />
    <glyph glyph-name="pi" unicode="&#x3c0;" horiz-adv-x="645" 
d="M106 0v480l17 -90h-91v141h590v-141h-83l9 51v-441h-151v463l10 -73h-164l13 51v-441h-150z" />
    <glyph glyph-name="uni060C" unicode="&#x60c;" horiz-adv-x="244" 
d="M175 307l47 -57q-40 -19 -65 -46.5t-25 -47.5q0 -10 5 -20t22 -24q23 -17 31.5 -33.5t8.5 -36.5q0 -31 -23 -49t-58 -18q-30 0 -53.5 16t-37 44.5t-13.5 66.5q0 33 12 65t34 60t51.5 49t63.5 31z" />
    <glyph glyph-name="uni061B" unicode="&#x61b;" horiz-adv-x="261" 
d="M175 551l47 -57q-40 -19 -65 -46.5t-25 -47.5q0 -10 5 -20t22 -24q23 -17 31.5 -33.5t8.5 -36.5q0 -31 -23 -49t-58 -18q-30 0 -53.5 16t-37 44.5t-13.5 66.5q0 33 12 65t34 60t51.5 49t63.5 31zM148 -11q-41 0 -63.5 23.5t-22.5 66.5q0 40 23.5 65.5t62.5 25.5
q41 0 64 -23.5t23 -67.5q0 -40 -24.5 -65t-62.5 -25z" />
    <glyph glyph-name="uni061F" unicode="&#x61f;" horiz-adv-x="485" 
d="M303 241h-87l-11 35q-64 32 -109.5 67t-69.5 76.5t-24 90.5q0 58 26 104.5t75 73.5t117 27q52 0 97 -16.5t84 -43.5t70 -60l-82 -113q-31 28 -56.5 47t-49.5 28.5t-50 9.5q-18 0 -34.5 -8t-26.5 -22t-10 -34q0 -26 13.5 -46.5t37 -36t55 -28t68.5 -21.5zM340 79
q0 -43 -23 -66.5t-64 -23.5q-39 0 -62.5 25t-23.5 65q0 44 22.5 67.5t63.5 23.5q39 0 63 -25.5t24 -65.5z" />
    <glyph glyph-name="uni0621" unicode="&#x621;" horiz-adv-x="405" 
d="M19 0v131h55q-5 11 -9 26.5t-4 34.5q0 53 22.5 90.5t61.5 58t88 20.5q31 0 64.5 -6.5t59.5 -19.5l-49 -114q-19 7 -34.5 8.5t-23.5 1.5q-26 0 -40 -13.5t-14 -34.5q0 -17 8 -28.5t26 -17.5t46 -6h91v-131h-348z" />
    <glyph glyph-name="uni0622" unicode="&#x622;" horiz-adv-x="299" 
d="M69 740h161v-740h-161v740zM249 820q-33 0 -57.5 8t-44.5 18t-40 18t-43 8q-22 0 -41 -8t-34 -22l-54 65q29 33 50.5 48.5t41.5 20.5t43 5q34 0 62 -13t58.5 -26t70.5 -13q18 0 37.5 6.5t38.5 13.5l28 -81q-23 -29 -53.5 -38.5t-62.5 -9.5z" />
    <glyph glyph-name="uni0623" unicode="&#x623;" horiz-adv-x="299" 
d="M69 740h161v-740h-161v740zM40 810v83h24q-3 5 -5.5 14t-2.5 20q0 42 30 67t79 25q21 0 40 -5t34 -13l-31 -74q-9 4 -17.5 6t-17.5 2q-15 0 -22.5 -6t-7.5 -15q0 -8 8 -14.5t35 -6.5h60v-83h-206z" />
    </font>
</defs>
</svg>
