<?xml version="1.0" encoding="UTF-8" standalone="no"?>
<svg
   xmlns:dc="http://purl.org/dc/elements/1.1/"
   xmlns:cc="http://creativecommons.org/ns#"
   xmlns:rdf="http://www.w3.org/1999/02/22-rdf-syntax-ns#"
   xmlns:svg="http://www.w3.org/2000/svg"
   xmlns="http://www.w3.org/2000/svg"
   xmlns:sodipodi="http://sodipodi.sourceforge.net/DTD/sodipodi-0.dtd"
   xmlns:inkscape="http://www.inkscape.org/namespaces/inkscape"
   width="18"
   height="18"
   viewBox="0 0 18 18"
   fill="none"
   version="1.1"
   id="svg12"
   sodipodi:docname="briefcase.svg"
   inkscape:version="1.0.2 (e86c870879, 2021-01-15, custom)">
  <metadata
     id="metadata18">
    <rdf:RDF>
      <cc:Work
         rdf:about="">
        <dc:format>image/svg+xml</dc:format>
        <dc:type
           rdf:resource="http://purl.org/dc/dcmitype/StillImage" />
      </cc:Work>
    </rdf:RDF>
  </metadata>
  <defs
     id="defs16" />
  <sodipodi:namedview
     pagecolor="#ffffff"
     bordercolor="#666666"
     borderopacity="1"
     objecttolerance="10"
     gridtolerance="10"
     guidetolerance="10"
     inkscape:pageopacity="0"
     inkscape:pageshadow="2"
     inkscape:window-width="1366"
     inkscape:window-height="705"
     id="namedview14"
     showgrid="false"
     inkscape:zoom="28.649218"
     inkscape:cx="9"
     inkscape:cy="9"
     inkscape:window-x="-4"
     inkscape:window-y="-4"
     inkscape:window-maximized="1"
     inkscape:current-layer="svg12" />
  <g
     id="g868">
    <path
       style="color:#000000;font-style:normal;font-variant:normal;font-weight:normal;font-stretch:normal;font-size:medium;line-height:normal;font-family:sans-serif;font-variant-ligatures:normal;font-variant-position:normal;font-variant-caps:normal;font-variant-numeric:normal;font-variant-alternates:normal;font-variant-east-asian:normal;font-feature-settings:normal;font-variation-settings:normal;text-indent:0;text-align:start;text-decoration:none;text-decoration-line:none;text-decoration-style:solid;text-decoration-color:#000000;letter-spacing:normal;word-spacing:normal;text-transform:none;writing-mode:lr-tb;direction:ltr;text-orientation:mixed;dominant-baseline:auto;baseline-shift:baseline;text-anchor:start;white-space:normal;shape-padding:0;shape-margin:0;inline-size:0;clip-rule:nonzero;display:inline;overflow:visible;visibility:visible;opacity:1;isolation:auto;mix-blend-mode:normal;color-interpolation:sRGB;color-interpolation-filters:linearRGB;solid-color:#000000;solid-opacity:1;vector-effect:none;fill:#7f879e;fill-opacity:1;fill-rule:nonzero;stroke:none;stroke-linecap:round;stroke-linejoin:round;stroke-miterlimit:10;stroke-dasharray:none;stroke-dashoffset:0;stroke-opacity:1;color-rendering:auto;image-rendering:auto;shape-rendering:auto;text-rendering:auto;enable-background:accumulate;stop-color:#000000;stop-opacity:1"
       d="m 5.25,3.9003906 c -1.6944584,0 -2.8369553,0.4015356 -3.4980469,1.1875 C 1.0908615,5.8738551 1.0194608,6.8996097 1.1289062,7.8886719 l 0.5605469,5.9902341 a 0.60006002,0.60006002 0 0 0 0.00195,0.0078 c 0.084634,0.789919 0.2905413,1.642795 0.9765626,2.269531 C 3.35399,16.782986 4.4124005,17.099609 6,17.099609 h 6 c 1.5876,0 2.64601,-0.316623 3.332031,-0.943359 0.686022,-0.626736 0.891929,-1.479612 0.976563,-2.269531 a 0.60006002,0.60006002 0 0 0 0,-0.0078 l 0.5625,-5.9902341 v -0.00781 c 0.1082,-0.9866323 0.0363,-2.0090831 -0.623047,-2.7929688 -0.661092,-0.7859644 -1.803589,-1.1875 -3.498047,-1.1875 z m 0,1.1992188 h 7.5 c 1.508042,0 2.22867,0.3439332 2.580078,0.7617187 0.351409,0.4177856 0.440711,1.0535935 0.347656,1.8945313 a 0.60006002,0.60006002 0 0 0 0,0.00977 l -0.5625,5.9921866 c -0.07286,0.680082 -0.214693,1.167205 -0.591796,1.511719 C 14.146334,15.614046 13.4274,15.900391 12,15.900391 H 6 c -1.4274005,0 -2.1463338,-0.286345 -2.5234375,-0.63086 C 3.101313,14.926711 2.9579617,14.440468 2.8847656,13.765625 v -0.0039 l -0.5625,-5.996094 a 0.60006002,0.60006002 0 0 0 -0.00195,-0.00977 C 2.2272579,6.9149216 2.3185135,6.2791137 2.6699219,5.8613281 3.0213303,5.4435426 3.7419584,5.0996094 5.25,5.0996094 Z"
       id="path2" />
    <path
       style="color:#000000;font-style:normal;font-variant:normal;font-weight:normal;font-stretch:normal;font-size:medium;line-height:normal;font-family:sans-serif;font-variant-ligatures:normal;font-variant-position:normal;font-variant-caps:normal;font-variant-numeric:normal;font-variant-alternates:normal;font-variant-east-asian:normal;font-feature-settings:normal;font-variation-settings:normal;text-indent:0;text-align:start;text-decoration:none;text-decoration-line:none;text-decoration-style:solid;text-decoration-color:#000000;letter-spacing:normal;word-spacing:normal;text-transform:none;writing-mode:lr-tb;direction:ltr;text-orientation:mixed;dominant-baseline:auto;baseline-shift:baseline;text-anchor:start;white-space:normal;shape-padding:0;shape-margin:0;inline-size:0;clip-rule:nonzero;display:inline;overflow:visible;visibility:visible;opacity:1;isolation:auto;mix-blend-mode:normal;color-interpolation:sRGB;color-interpolation-filters:linearRGB;solid-color:#000000;solid-opacity:1;vector-effect:none;fill:#7f879e;fill-opacity:1;fill-rule:nonzero;stroke:none;stroke-linecap:round;stroke-linejoin:round;stroke-miterlimit:10;stroke-dasharray:none;stroke-dashoffset:0;stroke-opacity:1;color-rendering:auto;image-rendering:auto;shape-rendering:auto;text-rendering:auto;enable-background:accumulate;stop-color:#000000;stop-opacity:1"
       d="m 8.4003906,0.90039062 c -1.289375,0 -2.1467132,0.31413118 -2.59375,0.96093748 -0.4470367,0.6468063 -0.40625,1.3753125 -0.40625,2.0390625 V 4.5 A 0.60000002,0.60000002 0 0 0 6,5.0996094 0.60000002,0.60000002 0 0 0 6.5996094,4.5 V 3.9003906 c 0,-0.66375 0.040396,-1.1361032 0.1933594,-1.3574218 C 6.945932,2.3216501 7.2897656,2.0996094 8.4003906,2.0996094 h 1.1992188 c 1.1106246,0 1.4544586,0.2220407 1.6074216,0.4433594 0.152963,0.2213186 0.19336,0.6936718 0.19336,1.3574218 V 4.5 A 0.60000002,0.60000002 0 0 0 12,5.0996094 0.60000002,0.60000002 0 0 0 12.599609,4.5 V 3.9003906 c 0,-0.66375 0.04079,-1.3922562 -0.40625,-2.0390625 C 11.746323,1.2145218 10.888984,0.90039062 9.5996094,0.90039062 Z"
       id="path4" />
    <path
       style="color:#000000;font-style:normal;font-variant:normal;font-weight:normal;font-stretch:normal;font-size:medium;line-height:normal;font-family:sans-serif;font-variant-ligatures:normal;font-variant-position:normal;font-variant-caps:normal;font-variant-numeric:normal;font-variant-alternates:normal;font-variant-east-asian:normal;font-feature-settings:normal;font-variation-settings:normal;text-indent:0;text-align:start;text-decoration:none;text-decoration-line:none;text-decoration-style:solid;text-decoration-color:#000000;letter-spacing:normal;word-spacing:normal;text-transform:none;writing-mode:lr-tb;direction:ltr;text-orientation:mixed;dominant-baseline:auto;baseline-shift:baseline;text-anchor:start;white-space:normal;shape-padding:0;shape-margin:0;inline-size:0;clip-rule:nonzero;display:inline;overflow:visible;visibility:visible;opacity:1;isolation:auto;mix-blend-mode:normal;color-interpolation:sRGB;color-interpolation-filters:linearRGB;solid-color:#000000;solid-opacity:1;vector-effect:none;fill:#7f879e;fill-opacity:1;fill-rule:nonzero;stroke:none;stroke-linecap:round;stroke-linejoin:round;stroke-miterlimit:10;stroke-dasharray:none;stroke-dashoffset:0;stroke-opacity:1;color-rendering:auto;image-rendering:auto;shape-rendering:auto;text-rendering:auto;enable-background:accumulate;stop-color:#000000;stop-opacity:1"
       d="m 8.25,8.4003906 c -0.1875,0 -0.3363527,-0.00256 -0.5,0.015625 C 7.5863527,8.4341987 7.3582182,8.4816255 7.1699219,8.6699219 6.9816255,8.8582182 6.9341987,9.0863527 6.9160156,9.25 6.8978326,9.4136473 6.9003906,9.5625 6.9003906,9.75 v 0.773438 c 0,0.412419 -0.035336,0.913643 0.3027344,1.390624 0.3380708,0.476982 0.9654861,0.685547 1.796875,0.685547 0.8356972,0 1.464649,-0.211456 1.800781,-0.691406 0.336133,-0.47995 0.298828,-0.981993 0.298828,-1.392578 V 10.5 9.75 c 0,-0.1875 0.0026,-0.3363527 -0.01563,-0.5 C 11.065801,9.0863527 11.018374,8.8582182 10.830078,8.6699219 10.641782,8.4816255 10.413647,8.4341987 10.25,8.4160156 10.086353,8.3978326 9.9375,8.4003906 9.75,8.4003906 Z m 0,1.1992188 h 1.5 c 0.074809,0 0.091096,0.00304 0.1464844,0.00391 8.684e-4,0.055389 0.00391,0.071675 0.00391,0.1464844 v 0.7500002 0.01563 c 0,0.406915 -0.041289,0.646903 -0.082031,0.705078 C 9.7776168,11.278878 9.6568028,11.400391 9,11.400391 c -0.6536111,0 -0.775727,-0.122294 -0.8164062,-0.179688 -0.040679,-0.05739 -0.083984,-0.292185 -0.083984,-0.697265 V 9.75 c 0,-0.074809 0.00304,-0.091096 0.00391,-0.1464844 0.055389,-8.684e-4 0.071675,-0.00391 0.1464844,-0.00391 z"
       id="path6" />
    <path
       style="color:#000000;font-style:normal;font-variant:normal;font-weight:normal;font-stretch:normal;font-size:medium;line-height:normal;font-family:sans-serif;font-variant-ligatures:normal;font-variant-position:normal;font-variant-caps:normal;font-variant-numeric:normal;font-variant-alternates:normal;font-variant-east-asian:normal;font-feature-settings:normal;font-variation-settings:normal;text-indent:0;text-align:start;text-decoration:none;text-decoration-line:none;text-decoration-style:solid;text-decoration-color:#000000;letter-spacing:normal;word-spacing:normal;text-transform:none;writing-mode:lr-tb;direction:ltr;text-orientation:mixed;dominant-baseline:auto;baseline-shift:baseline;text-anchor:start;white-space:normal;shape-padding:0;shape-margin:0;inline-size:0;clip-rule:nonzero;display:inline;overflow:visible;visibility:visible;opacity:1;isolation:auto;mix-blend-mode:normal;color-interpolation:sRGB;color-interpolation-filters:linearRGB;solid-color:#000000;solid-opacity:1;vector-effect:none;fill:#7f879e;fill-opacity:1;fill-rule:nonzero;stroke:none;stroke-linecap:round;stroke-linejoin:round;stroke-miterlimit:10;stroke-dasharray:none;stroke-dashoffset:0;stroke-opacity:1;color-rendering:auto;image-rendering:auto;shape-rendering:auto;text-rendering:auto;enable-background:accumulate;stop-color:#000000;stop-opacity:1"
       d="M 16.216797,7.6503906 A 0.60000002,0.60000002 0 0 0 15.884766,7.765625 c -1.648234,1.1987151 -3.530575,1.9114601 -5.458985,2.1542969 a 0.60000002,0.60000002 0 0 0 -0.5214841,0.6699221 0.60000002,0.60000002 0 0 0 0.6699221,0.519531 c 2.12159,-0.267163 4.198858,-1.053715 6.015625,-2.375 A 0.60000002,0.60000002 0 0 0 16.722656,7.8964844 0.60000002,0.60000002 0 0 0 16.216797,7.6503906 Z"
       id="path8" />
    <path
       style="color:#000000;font-style:normal;font-variant:normal;font-weight:normal;font-stretch:normal;font-size:medium;line-height:normal;font-family:sans-serif;font-variant-ligatures:normal;font-variant-position:normal;font-variant-caps:normal;font-variant-numeric:normal;font-variant-alternates:normal;font-variant-east-asian:normal;font-feature-settings:normal;font-variation-settings:normal;text-indent:0;text-align:start;text-decoration:none;text-decoration-line:none;text-decoration-style:solid;text-decoration-color:#000000;letter-spacing:normal;word-spacing:normal;text-transform:none;writing-mode:lr-tb;direction:ltr;text-orientation:mixed;dominant-baseline:auto;baseline-shift:baseline;text-anchor:start;white-space:normal;shape-padding:0;shape-margin:0;inline-size:0;clip-rule:nonzero;display:inline;overflow:visible;visibility:visible;opacity:1;isolation:auto;mix-blend-mode:normal;color-interpolation:sRGB;color-interpolation-filters:linearRGB;solid-color:#000000;solid-opacity:1;vector-effect:none;fill:#7f879e;fill-opacity:1;fill-rule:nonzero;stroke:none;stroke-linecap:round;stroke-linejoin:round;stroke-miterlimit:10;stroke-dasharray:none;stroke-dashoffset:0;stroke-opacity:1;color-rendering:auto;image-rendering:auto;shape-rendering:auto;text-rendering:auto;enable-background:accumulate;stop-color:#000000;stop-opacity:1"
       d="M 1.9335938,7.8535156 A 0.60000002,0.60000002 0 0 0 1.46875,8.1132812 0.60000002,0.60000002 0 0 0 1.625,8.9472656 C 3.3932699,10.157548 5.3932315,10.890683 7.4335938,11.119141 A 0.60000002,0.60000002 0 0 0 8.0957031,10.589844 0.60000002,0.60000002 0 0 0 7.5664062,9.9257812 C 5.7217685,9.7192388 3.9114176,9.0567488 2.3046875,7.9570312 A 0.60000002,0.60000002 0 0 0 1.9335938,7.8535156 Z"
       id="path10" />
  </g>
</svg>
