<?xml version="1.0" encoding="UTF-8" standalone="no"?>
<svg
   xmlns:dc="http://purl.org/dc/elements/1.1/"
   xmlns:cc="http://creativecommons.org/ns#"
   xmlns:rdf="http://www.w3.org/1999/02/22-rdf-syntax-ns#"
   xmlns:svg="http://www.w3.org/2000/svg"
   xmlns="http://www.w3.org/2000/svg"
   xmlns:sodipodi="http://sodipodi.sourceforge.net/DTD/sodipodi-0.dtd"
   xmlns:inkscape="http://www.inkscape.org/namespaces/inkscape"
   width="19"
   height="19"
   viewBox="0 0 19 19"
   fill="none"
   version="1.1"
   id="svg8"
   sodipodi:docname="dollar-circle.svg"
   inkscape:version="1.0.2 (e86c870879, 2021-01-15, custom)">
  <metadata
     id="metadata14">
    <rdf:RDF>
      <cc:Work
         rdf:about="">
        <dc:format>image/svg+xml</dc:format>
        <dc:type
           rdf:resource="http://purl.org/dc/dcmitype/StillImage" />
        <dc:title></dc:title>
      </cc:Work>
    </rdf:RDF>
  </metadata>
  <defs
     id="defs12" />
  <sodipodi:namedview
     pagecolor="#ffffff"
     bordercolor="#666666"
     borderopacity="1"
     objecttolerance="10"
     gridtolerance="10"
     guidetolerance="10"
     inkscape:pageopacity="0"
     inkscape:pageshadow="2"
     inkscape:window-width="1366"
     inkscape:window-height="705"
     id="namedview10"
     showgrid="false"
     inkscape:zoom="27.141364"
     inkscape:cx="9.5"
     inkscape:cy="9.5"
     inkscape:window-x="-4"
     inkscape:window-y="-4"
     inkscape:window-maximized="1"
     inkscape:current-layer="svg8" />
  <path
     style="color:#000000;font-style:normal;font-variant:normal;font-weight:normal;font-stretch:normal;font-size:medium;line-height:normal;font-family:sans-serif;font-variant-ligatures:normal;font-variant-position:normal;font-variant-caps:normal;font-variant-numeric:normal;font-variant-alternates:normal;font-variant-east-asian:normal;font-feature-settings:normal;font-variation-settings:normal;text-indent:0;text-align:start;text-decoration:none;text-decoration-line:none;text-decoration-style:solid;text-decoration-color:#000000;letter-spacing:normal;word-spacing:normal;text-transform:none;writing-mode:lr-tb;direction:ltr;text-orientation:mixed;dominant-baseline:auto;baseline-shift:baseline;text-anchor:start;white-space:normal;shape-padding:0;shape-margin:0;inline-size:0;clip-rule:nonzero;display:inline;overflow:visible;visibility:visible;isolation:auto;mix-blend-mode:normal;color-interpolation:sRGB;color-interpolation-filters:linearRGB;solid-color:#000000;solid-opacity:1;vector-effect:none;fill:#7f879e;fill-opacity:1;fill-rule:nonzero;stroke:none;stroke-linecap:round;stroke-linejoin:round;stroke-miterlimit:4;stroke-dasharray:none;stroke-dashoffset:0;stroke-opacity:1;color-rendering:auto;image-rendering:auto;shape-rendering:auto;text-rendering:auto;enable-background:accumulate;stop-color:#000000;stop-opacity:1;opacity:1"
     d="M 8.4589844 5.4042969 C 7.3162974 5.4042969 6.4042969 6.3766295 6.4042969 7.5273438 C 6.4042969 8.071729 6.53236 8.537364 6.8046875 8.8847656 C 7.077015 9.2321672 7.445385 9.4178214 7.7929688 9.5410156 A 0.60006002 0.60006002 0 0 0 7.796875 9.5410156 L 10.820312 10.591797 C 11.061186 10.677795 11.187799 10.759218 11.261719 10.853516 C 11.336266 10.948614 11.40625 11.102041 11.40625 11.472656 C 11.40625 12.001942 11.013094 12.394531 10.550781 12.394531 L 8.6679688 12.394531 C 8.0836801 12.394531 7.6035156 11.90857 7.6035156 11.248047 A 0.60000002 0.60000002 0 0 0 7.0039062 10.646484 A 0.60000002 0.60000002 0 0 0 6.4042969 11.248047 C 6.4042969 12.522524 7.4072574 13.595703 8.6679688 13.595703 L 10.550781 13.595703 C 11.693468 13.595703 12.605469 12.623371 12.605469 11.472656 C 12.605469 10.928271 12.477406 10.460683 12.205078 10.113281 C 11.932751 9.7658796 11.564381 9.5821786 11.216797 9.4589844 A 0.60006002 0.60006002 0 0 0 11.212891 9.4589844 L 8.1953125 8.4101562 L 8.1914062 8.4082031 C 7.9505116 8.3222011 7.8219701 8.2388333 7.7480469 8.1445312 C 7.6734994 8.0494329 7.6035156 7.8979585 7.6035156 7.5273438 C 7.6035156 6.998058 7.9966713 6.6054687 8.4589844 6.6054688 L 10.341797 6.6054688 C 10.926085 6.6054688 11.40625 7.0914299 11.40625 7.7519531 A 0.60000002 0.60000002 0 0 0 12.005859 8.3515625 A 0.60000002 0.60000002 0 0 0 12.605469 7.7519531 C 12.605469 6.4774764 11.602508 5.4042969 10.341797 5.4042969 L 8.4589844 5.4042969 z "
     id="path2" />
  <path
     style="color:#000000;font-style:normal;font-variant:normal;font-weight:normal;font-stretch:normal;font-size:medium;line-height:normal;font-family:sans-serif;font-variant-ligatures:normal;font-variant-position:normal;font-variant-caps:normal;font-variant-numeric:normal;font-variant-alternates:normal;font-variant-east-asian:normal;font-feature-settings:normal;font-variation-settings:normal;text-indent:0;text-align:start;text-decoration:none;text-decoration-line:none;text-decoration-style:solid;text-decoration-color:#000000;letter-spacing:normal;word-spacing:normal;text-transform:none;writing-mode:lr-tb;direction:ltr;text-orientation:mixed;dominant-baseline:auto;baseline-shift:baseline;text-anchor:start;white-space:normal;shape-padding:0;shape-margin:0;inline-size:0;clip-rule:nonzero;display:inline;overflow:visible;visibility:visible;isolation:auto;mix-blend-mode:normal;color-interpolation:sRGB;color-interpolation-filters:linearRGB;solid-color:#000000;solid-opacity:1;vector-effect:none;fill:#7f879e;fill-opacity:1;fill-rule:nonzero;stroke:none;stroke-linecap:round;stroke-linejoin:round;stroke-miterlimit:4;stroke-dasharray:none;stroke-dashoffset:0;stroke-opacity:1;color-rendering:auto;image-rendering:auto;shape-rendering:auto;text-rendering:auto;enable-background:accumulate;stop-color:#000000;stop-opacity:1;opacity:1"
     d="M 9.5 4.4003906 A 0.60000002 0.60000002 0 0 0 8.9003906 5 L 8.9003906 14 A 0.60000002 0.60000002 0 0 0 9.5 14.599609 A 0.60000002 0.60000002 0 0 0 10.099609 14 L 10.099609 5 A 0.60000002 0.60000002 0 0 0 9.5 4.4003906 z "
     id="path4" />
  <path
     style="color:#000000;font-style:normal;font-variant:normal;font-weight:normal;font-stretch:normal;font-size:medium;line-height:normal;font-family:sans-serif;font-variant-ligatures:normal;font-variant-position:normal;font-variant-caps:normal;font-variant-numeric:normal;font-variant-alternates:normal;font-variant-east-asian:normal;font-feature-settings:normal;font-variation-settings:normal;text-indent:0;text-align:start;text-decoration:none;text-decoration-line:none;text-decoration-style:solid;text-decoration-color:#000000;letter-spacing:normal;word-spacing:normal;text-transform:none;writing-mode:lr-tb;direction:ltr;text-orientation:mixed;dominant-baseline:auto;baseline-shift:baseline;text-anchor:start;white-space:normal;shape-padding:0;shape-margin:0;inline-size:0;clip-rule:nonzero;display:inline;overflow:visible;visibility:visible;isolation:auto;mix-blend-mode:normal;color-interpolation:sRGB;color-interpolation-filters:linearRGB;solid-color:#000000;solid-opacity:1;vector-effect:none;fill:#7f879e;fill-opacity:1;fill-rule:nonzero;stroke:none;stroke-linecap:round;stroke-linejoin:round;stroke-miterlimit:4;stroke-dasharray:none;stroke-dashoffset:0;stroke-opacity:1;color-rendering:auto;image-rendering:auto;shape-rendering:auto;text-rendering:auto;enable-background:accumulate;stop-color:#000000;stop-opacity:1;opacity:1"
     d="M 9.5 1.4003906 C 5.0335967 1.4003906 1.4003906 5.0335967 1.4003906 9.5 C 1.4003906 13.966366 5.0335928 17.599609 9.5 17.599609 C 13.96637 17.599609 17.599609 13.96637 17.599609 9.5 C 17.599609 5.0335928 13.966366 1.4003906 9.5 1.4003906 z M 9.5 2.5996094 C 13.317834 2.5996094 16.400391 5.6821272 16.400391 9.5 C 16.400391 13.31783 13.31783 16.400391 9.5 16.400391 C 5.6821272 16.400391 2.5996094 13.317834 2.5996094 9.5 C 2.5996094 5.6821233 5.6821233 2.5996094 9.5 2.5996094 z "
     id="path6" />
</svg>
