<?xml version="1.0" encoding="UTF-8" standalone="no"?>
<svg
   xmlns:dc="http://purl.org/dc/elements/1.1/"
   xmlns:cc="http://creativecommons.org/ns#"
   xmlns:rdf="http://www.w3.org/1999/02/22-rdf-syntax-ns#"
   xmlns:svg="http://www.w3.org/2000/svg"
   xmlns="http://www.w3.org/2000/svg"
   xmlns:sodipodi="http://sodipodi.sourceforge.net/DTD/sodipodi-0.dtd"
   xmlns:inkscape="http://www.inkscape.org/namespaces/inkscape"
   width="24"
   height="24"
   viewBox="0 0 24 24"
   fill="none"
   version="1.1"
   id="svg4"
   sodipodi:docname="heart.svg"
   inkscape:version="1.0.2 (e86c870879, 2021-01-15, custom)">
  <metadata
     id="metadata10">
    <rdf:RDF>
      <cc:Work
         rdf:about="">
        <dc:format>image/svg+xml</dc:format>
        <dc:type
           rdf:resource="http://purl.org/dc/dcmitype/StillImage" />
      </cc:Work>
    </rdf:RDF>
  </metadata>
  <defs
     id="defs8" />
  <sodipodi:namedview
     pagecolor="#ffffff"
     bordercolor="#666666"
     borderopacity="1"
     objecttolerance="10"
     gridtolerance="10"
     guidetolerance="10"
     inkscape:pageopacity="0"
     inkscape:pageshadow="2"
     inkscape:window-width="1366"
     inkscape:window-height="705"
     id="namedview6"
     showgrid="false"
     inkscape:zoom="21.486913"
     inkscape:cx="12"
     inkscape:cy="12"
     inkscape:window-x="-4"
     inkscape:window-y="-4"
     inkscape:window-maximized="1"
     inkscape:current-layer="svg4" />
  <g
     id="g840">
    <path
       style="color:#000000;font-style:normal;font-variant:normal;font-weight:normal;font-stretch:normal;font-size:medium;line-height:normal;font-family:sans-serif;font-variant-ligatures:normal;font-variant-position:normal;font-variant-caps:normal;font-variant-numeric:normal;font-variant-alternates:normal;font-variant-east-asian:normal;font-feature-settings:normal;font-variation-settings:normal;text-indent:0;text-align:start;text-decoration:none;text-decoration-line:none;text-decoration-style:solid;text-decoration-color:#000000;letter-spacing:normal;word-spacing:normal;text-transform:none;writing-mode:lr-tb;direction:ltr;text-orientation:mixed;dominant-baseline:auto;baseline-shift:baseline;text-anchor:start;white-space:normal;shape-padding:0;shape-margin:0;inline-size:0;clip-rule:nonzero;display:inline;overflow:visible;visibility:visible;opacity:1;isolation:auto;mix-blend-mode:normal;color-interpolation:sRGB;color-interpolation-filters:linearRGB;solid-color:#000000;solid-opacity:1;vector-effect:none;fill:#7f879e;fill-opacity:1;fill-rule:nonzero;stroke:none;stroke-linecap:round;stroke-linejoin:round;stroke-miterlimit:4;stroke-dasharray:none;stroke-dashoffset:0;stroke-opacity:1;color-rendering:auto;image-rendering:auto;shape-rendering:auto;text-rendering:auto;enable-background:accumulate;stop-color:#000000;stop-opacity:1"
       d="M 7.5605469,2.3496094 C 4.0833808,2.3496094 1.25,5.1965405 1.25,8.6894531 c 0,3.7314289 1.7374247,6.7077869 3.8164062,8.8378909 2.0775534,2.12864 4.4782011,3.446702 6.0683598,3.990234 0.58105,0.204174 1.149418,0.204174 1.730468,0 1.590159,-0.543532 3.990806,-1.861594 6.06836,-3.990234 C 21.012575,15.39724 22.75,12.420882 22.75,8.6894531 22.75,5.1965405 19.916619,2.3496094 16.439453,2.3496094 14.669509,2.3496094 13.145946,3.1888843 12,4.3828125 10.856322,3.1898874 9.3378125,2.3496094 7.5605469,2.3496094 Z m 0,1.5 c 1.5782417,0 2.9630191,0.7594553 3.8378911,1.9375 a 0.750075,0.750075 0 0 0 1.203124,0 c 0.873459,-1.1761424 2.270985,-1.9375 3.837891,-1.9375 2.662834,0 4.810547,2.1527563 4.810547,4.8398437 0,3.2685719 -1.502653,5.8586199 -3.388672,7.7910159 -1.886018,1.932396 -4.17451,3.17198 -5.484375,3.61914 a 0.750075,0.750075 0 0 0 -0.0059,0.0039 c -0.09627,0.03398 -0.645914,0.03398 -0.742188,0 a 0.750075,0.750075 0 0 0 -0.0059,-0.0039 C 10.313182,19.652449 8.0246904,18.412865 6.1386719,16.480469 4.2526534,14.548073 2.75,11.958025 2.75,8.6894531 2.75,6.0023657 4.897713,3.8496094 7.5605469,3.8496094 Z"
       id="path2" />
  </g>
</svg>
