<svg width="709" height="755" viewBox="0 0 709 755" fill="none" xmlns="http://www.w3.org/2000/svg">
<path d="M168.193 160.758C168.193 119.398 133.873 85.0776 92.5133 85.0776C51.15 85.0776 16.839 119.396 16.839 160.758C16.839 202.123 51.1481 236.432 92.5133 236.432C133.875 236.432 168.193 202.121 168.193 160.758Z" fill="url(#paint0_linear_439_30073)" stroke="url(#paint1_linear_439_30073)" stroke-width="32"/>
<mask id="path-2-inside-1_439_30073" fill="white">
<path fill-rule="evenodd" clip-rule="evenodd" d="M684.688 28.407C641.313 10.3001 593.71 0.300049 543.77 0.300049C341.598 0.300049 177.706 164.193 177.706 366.365C177.706 412.179 186.122 456.028 201.493 496.45C244.868 514.557 292.472 524.557 342.411 524.557C544.583 524.557 708.476 360.664 708.476 158.492C708.476 112.677 700.059 68.8285 684.688 28.407Z"/>
</mask>
<path fill-rule="evenodd" clip-rule="evenodd" d="M684.688 28.407C641.313 10.3001 593.71 0.300049 543.77 0.300049C341.598 0.300049 177.706 164.193 177.706 366.365C177.706 412.179 186.122 456.028 201.493 496.45C244.868 514.557 292.472 524.557 342.411 524.557C544.583 524.557 708.476 360.664 708.476 158.492C708.476 112.677 700.059 68.8285 684.688 28.407Z" fill="url(#paint2_linear_439_30073)"/>
<path d="M684.688 28.407L704.335 -18.6567L724.566 -10.2114L732.358 10.2796L684.688 28.407ZM201.493 496.45L181.846 543.514L161.616 535.068L153.824 514.577L201.493 496.45ZM665.041 75.4708C627.78 59.9161 586.846 51.3 543.77 51.3V-50.7C600.573 -50.7 654.846 -39.3159 704.335 -18.6567L665.041 75.4708ZM543.77 51.3C369.765 51.3 228.706 192.359 228.706 366.365H126.706C126.706 136.026 313.432 -50.7 543.77 -50.7V51.3ZM228.706 366.365C228.706 405.889 235.959 443.601 249.163 478.322L153.824 514.577C136.285 468.456 126.706 418.469 126.706 366.365H228.706ZM221.14 449.386C258.401 464.941 299.335 473.557 342.411 473.557V575.557C285.608 575.557 231.335 564.173 181.846 543.514L221.14 449.386ZM342.411 473.557C516.416 473.557 657.476 332.498 657.476 158.492H759.476C759.476 388.831 572.749 575.557 342.411 575.557V473.557ZM657.476 158.492C657.476 118.967 650.222 81.2557 637.018 46.5344L732.358 10.2796C749.896 56.4013 759.476 106.387 759.476 158.492H657.476Z" fill="url(#paint3_linear_439_30073)" mask="url(#path-2-inside-1_439_30073)"/>
<g style="mix-blend-mode:darken">
<mask id="path-4-inside-2_439_30073" fill="white">
<path fill-rule="evenodd" clip-rule="evenodd" d="M201.494 258.539C244.868 240.432 292.472 230.432 342.411 230.432C544.583 230.432 708.476 394.325 708.476 596.496C708.476 642.311 700.06 686.16 684.688 726.582C641.314 744.689 593.71 754.689 543.771 754.689C341.599 754.689 177.706 590.796 177.706 388.624C177.706 342.809 186.123 298.96 201.494 258.539Z"/>
</mask>
<path fill-rule="evenodd" clip-rule="evenodd" d="M201.494 258.539C244.868 240.432 292.472 230.432 342.411 230.432C544.583 230.432 708.476 394.325 708.476 596.496C708.476 642.311 700.06 686.16 684.688 726.582C641.314 744.689 593.71 754.689 543.771 754.689C341.599 754.689 177.706 590.796 177.706 388.624C177.706 342.809 186.123 298.96 201.494 258.539Z" fill="url(#paint4_linear_439_30073)"/>
<path d="M201.494 258.539L181.847 211.475L161.616 219.92L153.824 240.411L201.494 258.539ZM684.688 726.582L704.335 773.646L724.566 765.2L732.358 744.709L684.688 726.582ZM221.141 305.603C258.402 290.048 299.336 281.432 342.411 281.432V179.432C285.609 179.432 231.335 190.816 181.847 211.475L221.141 305.603ZM342.411 281.432C516.417 281.432 657.476 422.491 657.476 596.496H759.476C759.476 366.158 572.75 179.432 342.411 179.432V281.432ZM657.476 596.496C657.476 636.021 650.222 673.733 637.019 708.454L732.358 744.709C749.897 698.587 759.476 648.601 759.476 596.496H657.476ZM665.041 679.518C627.78 695.073 586.846 703.689 543.771 703.689V805.689C600.573 805.689 654.847 794.305 704.335 773.646L665.041 679.518ZM543.771 703.689C369.765 703.689 228.706 562.629 228.706 388.624H126.706C126.706 618.962 313.432 805.689 543.771 805.689V703.689ZM228.706 388.624C228.706 349.099 235.96 311.387 249.163 276.666L153.824 240.411C136.285 286.533 126.706 336.519 126.706 388.624H228.706Z" fill="url(#paint5_linear_439_30073)" mask="url(#path-4-inside-2_439_30073)"/>
</g>
<defs>
<linearGradient id="paint0_linear_439_30073" x1="35" y1="80.5679" x2="184.193" y2="252.432" gradientUnits="userSpaceOnUse">
<stop stop-color="#FAEBDF"/>
<stop offset="1" stop-color="#DBF2D7"/>
</linearGradient>
<linearGradient id="paint1_linear_439_30073" x1="169" y1="252.432" x2="-47" y2="34.5679" gradientUnits="userSpaceOnUse">
<stop stop-color="#DBF2D7"/>
<stop offset="1" stop-color="#FFD4AE"/>
</linearGradient>
<linearGradient id="paint2_linear_439_30073" x1="696.999" y1="28.5679" x2="177.706" y2="494.568" gradientUnits="userSpaceOnUse">
<stop stop-color="#DBF2D7"/>
<stop offset="1" stop-color="#DBF2D7" stop-opacity="0"/>
</linearGradient>
<linearGradient id="paint3_linear_439_30073" x1="695" y1="31.5679" x2="129" y2="441.568" gradientUnits="userSpaceOnUse">
<stop stop-color="#97DBB3" stop-opacity="0.16"/>
<stop offset="1" stop-color="#DDF0E7"/>
</linearGradient>
<linearGradient id="paint4_linear_439_30073" x1="708.476" y1="712.568" x2="190.999" y2="278.568" gradientUnits="userSpaceOnUse">
<stop stop-color="#FDF3D0"/>
<stop offset="1" stop-color="#DBF2D7"/>
</linearGradient>
<linearGradient id="paint5_linear_439_30073" x1="764.504" y1="790.61" x2="202.167" y2="260.519" gradientUnits="userSpaceOnUse">
<stop stop-color="#EEEFAD"/>
<stop offset="1" stop-color="#E0F0E9"/>
</linearGradient>
</defs>
</svg>
