<svg width="130" height="33" viewBox="0 0 130 33" fill="none" xmlns="http://www.w3.org/2000/svg">
<path d="M14.8345 7.53898V26.952H11.6949V25.1467C11.1542 25.8095 10.4827 26.3066 9.68033 26.638C8.89544 26.9694 8.02334 27.1351 7.06403 27.1351C5.72099 27.1351 4.50877 26.8386 3.42736 26.2456C2.3634 25.6525 1.52618 24.8153 0.915707 23.7339C0.305236 22.6351 0 21.3792 0 19.9664C0 18.5536 0.305236 17.3065 0.915707 16.2251C1.52618 15.1437 2.3634 14.3065 3.42736 13.7135C4.50877 13.1204 5.72099 12.8239 7.06403 12.8239C7.98845 12.8239 8.83439 12.9809 9.60184 13.2949C10.3693 13.6088 11.0234 14.0797 11.5641 14.7077V7.53898H14.8345ZM7.45647 24.3357C8.24136 24.3357 8.94777 24.1612 9.57568 23.8124C10.2036 23.4461 10.7007 22.9316 11.067 22.2688C11.4333 21.606 11.6164 20.8385 11.6164 19.9664C11.6164 19.0943 11.4333 18.3269 11.067 17.6641C10.7007 17.0013 10.2036 16.4955 9.57568 16.1466C8.94777 15.7803 8.24136 15.5972 7.45647 15.5972C6.67158 15.5972 5.96518 15.7803 5.33726 16.1466C4.70935 16.4955 4.21225 17.0013 3.84597 17.6641C3.47969 18.3269 3.29655 19.0943 3.29655 19.9664C3.29655 20.8385 3.47969 21.606 3.84597 22.2688C4.21225 22.9316 4.70935 23.4461 5.33726 23.8124C5.96518 24.1612 6.67158 24.3357 7.45647 24.3357Z" fill="#252A3F"/>
<path d="M24.7116 24.3618C26.2291 24.3618 27.4936 23.856 28.5053 22.8444L30.232 24.8589C29.6216 25.6089 28.8367 26.1758 27.8773 26.5595C26.918 26.9433 25.8366 27.1351 24.6331 27.1351C23.0982 27.1351 21.7465 26.8299 20.5779 26.2194C19.4092 25.6089 18.5023 24.763 17.8569 23.6816C17.229 22.5827 16.915 21.3444 16.915 19.9664C16.915 18.606 17.2203 17.385 17.8307 16.3036C18.4586 15.2048 19.3133 14.3501 20.3947 13.7396C21.4936 13.1292 22.7319 12.8239 24.1099 12.8239C25.418 12.8239 26.6041 13.1117 27.668 13.6873C28.7495 14.2454 29.6041 15.0565 30.232 16.1205C30.8599 17.167 31.1739 18.3967 31.1739 19.8095L20.4732 21.9025C20.8046 22.7048 21.3366 23.3153 22.0692 23.7339C22.8017 24.1525 23.6825 24.3618 24.7116 24.3618ZM24.1099 15.4402C22.9064 15.4402 21.9296 15.8327 21.1796 16.6176C20.447 17.4025 20.0808 18.4577 20.0808 19.7833V19.8095L27.982 18.292C27.7553 17.4373 27.293 16.7484 26.5954 16.2251C25.9151 15.7019 25.0866 15.4402 24.1099 15.4402Z" fill="#252A3F"/>
<path d="M46.0954 12.9809L40.1041 26.952H36.729L30.7377 12.9809H34.1389L38.482 23.3415L42.9559 12.9809H46.0954Z" fill="#252A3F"/>
<path d="M53.3551 24.3618C54.8725 24.3618 56.1371 23.856 57.1487 22.8444L58.8755 24.8589C58.265 25.6089 57.4801 26.1758 56.5208 26.5595C55.5615 26.9433 54.4801 27.1351 53.2766 27.1351C51.7417 27.1351 50.3899 26.8299 49.2213 26.2194C48.0527 25.6089 47.1457 24.763 46.5003 23.6816C45.8724 22.5827 45.5585 21.3444 45.5585 19.9664C45.5585 18.606 45.8637 17.385 46.4742 16.3036C47.1021 15.2048 47.9567 14.3501 49.0382 13.7396C50.137 13.1292 51.3754 12.8239 52.7533 12.8239C54.0615 12.8239 55.2475 13.1117 56.3115 13.6873C57.3929 14.2454 58.2476 15.0565 58.8755 16.1205C59.5034 17.167 59.8173 18.3967 59.8173 19.8095L49.1166 21.9025C49.448 22.7048 49.98 23.3153 50.7126 23.7339C51.4452 24.1525 52.326 24.3618 53.3551 24.3618ZM52.7533 15.4402C51.5498 15.4402 50.5731 15.8327 49.823 16.6176C49.0905 17.4025 48.7242 18.4577 48.7242 19.7833V19.8095L56.6254 18.292C56.3987 17.4373 55.9365 16.7484 55.2388 16.2251C54.5586 15.7019 53.7301 15.4402 52.7533 15.4402Z" fill="#252A3F"/>
<path d="M66.5175 27.1351C65.0698 27.1351 63.9361 26.7427 63.1163 25.9578C62.314 25.1554 61.9128 24.0304 61.9128 22.5827V7.53898H65.1832V22.3473C65.1832 23.7426 65.8373 24.4403 67.1454 24.4403C67.5815 24.4403 67.9739 24.3531 68.3228 24.1787L68.4798 26.795C67.8693 27.0217 67.2152 27.1351 66.5175 27.1351Z" fill="#252A3F"/>
<path d="M75.6791 27.1351C74.2663 27.1351 72.993 26.8299 71.8593 26.2194C70.7256 25.6089 69.836 24.763 69.1907 23.6816C68.5627 22.5827 68.2488 21.3444 68.2488 19.9664C68.2488 18.5885 68.5627 17.3588 69.1907 16.2774C69.836 15.196 70.7256 14.3501 71.8593 13.7396C72.993 13.1292 74.2663 12.8239 75.6791 12.8239C77.1093 12.8239 78.3913 13.1292 79.5251 13.7396C80.6588 14.3501 81.5396 15.196 82.1675 16.2774C82.8129 17.3588 83.1356 18.5885 83.1356 19.9664C83.1356 21.3444 82.8129 22.5827 82.1675 23.6816C81.5396 24.763 80.6588 25.6089 79.5251 26.2194C78.3913 26.8299 77.1093 27.1351 75.6791 27.1351ZM75.6791 24.3357C76.8826 24.3357 77.8768 23.9345 78.6617 23.1322C79.4466 22.3298 79.839 21.2746 79.839 19.9664C79.839 18.6583 79.4466 17.603 78.6617 16.8007C77.8768 15.9984 76.8826 15.5972 75.6791 15.5972C74.4756 15.5972 73.4814 15.9984 72.6965 16.8007C71.9291 17.603 71.5453 18.6583 71.5453 19.9664C71.5453 21.2746 71.9291 22.3298 72.6965 23.1322C73.4814 23.9345 74.4756 24.3357 75.6791 24.3357Z" fill="#252A3F"/>
<path d="M92.9606 12.8239C94.3211 12.8239 95.5333 13.1204 96.5973 13.7135C97.6787 14.3065 98.5246 15.1437 99.1351 16.2251C99.7456 17.3065 100.051 18.5536 100.051 19.9664C100.051 21.3792 99.7456 22.6351 99.1351 23.7339C98.5246 24.8153 97.6787 25.6525 96.5973 26.2456C95.5333 26.8386 94.3211 27.1351 92.9606 27.1351C91.0769 27.1351 89.5856 26.5072 88.4867 25.2514V32.0276H85.2163V12.9809H88.3297V14.8123C88.8704 14.1495 89.5332 13.6524 90.3181 13.321C91.1205 12.9896 92.0013 12.8239 92.9606 12.8239ZM92.5943 24.3357C93.7978 24.3357 94.7833 23.9345 95.5507 23.1322C96.3356 22.3298 96.7281 21.2746 96.7281 19.9664C96.7281 18.6583 96.3356 17.603 95.5507 16.8007C94.7833 15.9984 93.7978 15.5972 92.5943 15.5972C91.8094 15.5972 91.103 15.7803 90.4751 16.1466C89.8472 16.4955 89.3501 17.0013 88.9838 17.6641C88.6175 18.3269 88.4344 19.0943 88.4344 19.9664C88.4344 20.8385 88.6175 21.606 88.9838 22.2688C89.3501 22.9316 89.8472 23.4461 90.4751 23.8124C91.103 24.1612 91.8094 24.3357 92.5943 24.3357Z" fill="#252A3F"/>
<path d="M106.711 27.1351C105.263 27.1351 104.129 26.7427 103.309 25.9578C102.507 25.1554 102.106 24.0304 102.106 22.5827V7.53898H105.376V22.3473C105.376 23.7426 106.03 24.4403 107.338 24.4403C107.774 24.4403 108.167 24.3531 108.516 24.1787L108.673 26.795C108.062 27.0217 107.408 27.1351 106.711 27.1351Z" fill="#252A3F"/>
<path d="M109.848 12.9809H113.119V26.952H109.848V12.9809ZM111.497 10.6785C110.904 10.6785 110.407 10.4954 110.005 10.1291C109.604 9.7454 109.404 9.27446 109.404 8.71632C109.404 8.15817 109.604 7.69596 110.005 7.32968C110.407 6.94595 110.904 6.75409 111.497 6.75409C112.09 6.75409 112.587 6.93723 112.988 7.30351C113.389 7.65235 113.59 8.09713 113.59 8.63783C113.59 9.21342 113.389 9.70179 112.988 10.103C112.604 10.4867 112.107 10.6785 111.497 10.6785Z" fill="#252A3F"/>
<path d="M125.366 0.210012V0.211325C125.633 0.211325 125.898 0.220665 126.159 0.24095C126.244 0.246641 126.329 0.254084 126.414 0.262986C126.523 0.274223 126.631 0.286919 126.739 0.301365C126.8 0.308807 126.859 0.318147 126.918 0.326173H126.931C126.977 0.331719 127.022 0.340912 127.068 0.348063C127.099 0.353755 127.129 0.357549 127.159 0.362949C127.251 0.379731 127.344 0.396367 127.436 0.414609C127.564 0.440585 127.691 0.469041 127.817 0.499395C127.83 0.503043 127.846 0.504941 127.859 0.508589C127.88 0.514134 127.9 0.517929 127.919 0.52362L127.932 0.527122C128.088 0.566525 128.242 0.609428 128.395 0.655544C128.453 0.672326 128.51 0.691006 128.567 0.708956C128.613 0.723841 128.657 0.738435 128.703 0.753757C128.736 0.764848 128.77 0.775939 128.803 0.787905C128.816 0.791408 128.824 0.795202 128.835 0.798997C128.848 0.802645 128.86 0.808336 128.872 0.811839C128.924 0.830518 128.977 0.849198 129.028 0.868314C129.041 0.872109 129.05 0.877654 129.061 0.881303C129.083 0.890788 129.105 0.898231 129.127 0.907717C129.169 0.924499 129.211 0.939676 129.253 0.956313C129.486 1.53698 129.668 2.14332 129.794 2.76968C129.929 3.43878 130 4.13022 130 4.83814C129.704 9.27938 127.534 12.7911 123.678 14.7256C123.572 14.7771 123.465 14.8269 123.358 14.8752C123.334 14.8847 123.311 14.8957 123.288 14.9058C123.183 14.9518 123.079 14.9963 122.973 15.0392C122.276 15.3222 121.545 15.5376 120.788 15.6771C120.775 15.6771 120.775 15.6828 120.768 15.6828C120.109 15.8029 119.43 15.866 118.737 15.866V15.8604C118.545 15.8604 118.354 15.8548 118.165 15.8455C118.143 15.8455 118.121 15.8399 118.099 15.8399C118.054 15.8342 118.01 15.8342 117.966 15.8307C117.937 15.8307 117.91 15.8307 117.882 15.825C117.79 15.8174 117.699 15.8102 117.608 15.8008C117.532 15.7932 117.457 15.784 117.381 15.7757C117.363 15.77 117.343 15.77 117.325 15.77C117.239 15.7589 117.152 15.7468 117.066 15.7343C116.879 15.706 116.693 15.6737 116.509 15.6368C116.42 15.6181 116.331 15.5997 116.243 15.5799C116.198 15.5704 116.154 15.5589 116.109 15.5476C116.062 15.4585 116.015 15.369 115.97 15.2784C115.97 15.2727 115.957 15.2652 115.957 15.2575C115.903 15.1475 115.851 15.0361 115.801 14.9239C115.801 14.9146 115.788 14.903 115.788 14.8928C115.741 14.7882 115.697 14.683 115.654 14.5764C115.654 14.5691 115.654 14.5634 115.641 14.5557C115.408 13.975 115.226 13.369 115.1 12.7428C115.1 12.7298 115.1 12.7149 115.087 12.7013C115.074 12.6685 115.074 12.6354 115.069 12.6025C115.056 12.5547 115.05 12.5068 115.043 12.4588C115.03 12.422 115.03 12.3863 115.026 12.3498C115.013 12.3015 115.009 12.2535 115.003 12.2049C115.003 12.1751 114.99 12.1452 114.99 12.1156C114.977 12.0607 114.973 12.0067 114.968 11.9517C114.968 11.9295 114.968 11.9067 114.955 11.8844C114.941 11.8199 114.94 11.7555 114.934 11.6906V11.6718C114.903 11.3433 114.886 11.0107 114.886 10.6743C114.886 9.96611 114.957 9.27452 115.092 8.60557C115.092 8.58003 115.105 8.55493 115.109 8.52983C115.109 8.51086 115.122 8.49218 115.122 8.47335C115.122 8.44811 115.135 8.42155 115.138 8.39572C115.151 8.36186 115.155 8.32771 115.162 8.29415C115.175 8.24788 115.183 8.20177 115.195 8.15595C115.208 8.12355 115.211 8.09071 115.219 8.05817C115.219 8.04708 115.219 8.03555 115.232 8.02402C115.251 7.95412 115.269 7.88451 115.289 7.81519C115.302 7.7755 115.311 7.73508 115.324 7.69553C115.337 7.65744 115.347 7.61979 115.359 7.58199C115.359 7.56681 115.372 7.55178 115.372 7.53661C115.394 7.46685 115.417 7.39739 115.44 7.32865C115.453 7.29976 115.458 7.27086 115.469 7.24182C115.522 7.09034 115.577 6.94047 115.637 6.79236V6.78856C115.65 6.76711 115.656 6.74537 115.666 6.72362C115.804 6.38549 115.959 6.05583 116.13 5.73622C116.189 5.62516 116.252 5.51542 116.315 5.40685C117.162 3.95773 118.348 2.7297 119.764 1.83163C119.857 1.77238 119.951 1.71503 120.046 1.65913C120.063 1.64979 120.08 1.63856 120.097 1.62849C120.138 1.60528 120.179 1.58266 120.22 1.5596C120.281 1.52531 120.341 1.49014 120.403 1.45687C120.416 1.45118 120.427 1.44388 120.44 1.43746C120.532 1.38813 120.626 1.34012 120.72 1.29327C120.74 1.28408 120.76 1.27401 120.778 1.26467C120.803 1.25168 120.829 1.24147 120.853 1.2295C120.933 1.19141 121.012 1.15289 121.093 1.11699C121.108 1.1113 121.123 1.10371 121.139 1.09699C121.236 1.05438 121.332 1.01323 121.43 0.973243C122.644 0.48029 123.971 0.20813 125.36 0.20813L125.366 0.210012ZM111.433 6.23677C112.727 6.23677 113.797 7.30558 113.797 8.59898C113.797 9.89254 112.727 10.9612 111.433 10.9612C110.139 10.9612 109.07 9.89254 109.07 8.59898C109.07 7.30558 110.139 6.23677 111.433 6.23677ZM128.99 12.0506C129.632 13.405 129.994 14.9177 129.994 16.5142C129.994 17.2223 129.922 17.914 129.788 18.5828C129.662 19.2092 129.48 19.8151 129.247 20.3959C129.183 20.4215 129.119 20.4463 129.055 20.4705C128.987 20.496 128.919 20.5208 128.851 20.5446C128.851 20.5503 128.838 20.5503 128.832 20.5503C128.819 20.5559 128.808 20.5597 128.795 20.5633C128.734 20.5842 128.673 20.605 128.612 20.6253C128.595 20.631 128.58 20.6364 128.564 20.6421C128.521 20.6551 128.478 20.6691 128.435 20.6821C128.418 20.6878 128.403 20.6914 128.387 20.6971C128.246 20.7394 128.105 20.7786 127.962 20.8152C127.947 20.8207 127.933 20.8225 127.918 20.8263C127.899 20.8318 127.88 20.8356 127.86 20.8394C127.8 20.8543 127.741 20.868 127.68 20.882C127.599 20.9007 127.518 20.9185 127.436 20.9346C126.808 21.0609 126.161 21.1304 125.499 21.1386H125.367C125.284 21.1386 125.203 21.1386 125.122 21.1329H125.052C124.991 21.1329 124.93 21.1275 124.87 21.1256C124.847 21.1256 124.826 21.1199 124.804 21.1199C124.731 21.1145 124.657 21.1107 124.585 21.1069H124.558C124.479 21.1014 124.401 21.0938 124.323 21.086C124.299 21.0803 124.274 21.0803 124.249 21.0787C124.189 21.0731 124.129 21.0656 124.068 21.0582C124.049 21.0526 124.029 21.0526 124.008 21.0507C123.946 21.0412 123.882 21.0339 123.819 21.0243C123.8 21.0188 123.78 21.0188 123.761 21.015C123.685 21.002 123.609 20.9904 123.533 20.9769C123.512 20.9712 123.491 20.9693 123.469 20.9636C123.413 20.9544 123.358 20.9432 123.303 20.9321C123.274 20.9264 123.244 20.9191 123.216 20.9134C123.159 20.9006 123.103 20.889 123.046 20.8765C123.03 20.8708 123.011 20.8689 122.993 20.8635C122.916 20.8448 122.839 20.8266 122.763 20.807C122.748 20.8013 122.734 20.7994 122.72 20.7956C122.667 20.7826 122.613 20.7675 122.56 20.7526C122.447 20.7214 122.336 20.6884 122.224 20.6532C122.208 20.6478 122.191 20.6421 122.174 20.6367C122.076 20.6049 121.979 20.5722 121.882 20.5378C121.86 20.5302 121.837 20.521 121.816 20.5141C121.709 20.4752 121.602 20.435 121.496 20.3926C121.475 20.3834 121.453 20.3739 121.431 20.3662C121.337 20.3281 121.246 20.2892 121.154 20.2488C121.135 20.2415 121.117 20.2339 121.1 20.2252C120.995 20.1785 120.892 20.1297 120.79 20.0798C120.769 20.0705 120.747 20.0584 120.726 20.0477C120.631 20.0007 120.537 19.952 120.444 19.9024C120.431 19.8967 120.423 19.891 120.413 19.8856C120.311 19.8309 120.211 19.7737 120.111 19.7157C120.09 19.7045 120.07 19.6912 120.05 19.6794C119.953 19.622 119.857 19.5637 119.762 19.5032V19.4977C119.661 19.4333 119.562 19.3674 119.463 19.2998C119.446 19.2886 119.432 19.2776 119.417 19.2668C119.323 19.2017 119.23 19.1358 119.139 19.0678C119.139 19.0678 119.139 19.0621 119.126 19.0621C119.031 18.9915 118.937 18.9185 118.845 18.8447C118.83 18.8317 118.816 18.8213 118.801 18.8099C118.616 18.6609 118.437 18.5056 118.263 18.3448C118.25 18.3319 118.238 18.3212 118.225 18.3091C118.052 18.1471 117.884 17.9796 117.723 17.806C117.71 17.7931 117.698 17.7798 117.686 17.7668C117.524 17.5924 117.369 17.4129 117.221 17.2283C117.208 17.2153 117.198 17.2009 117.187 17.1874C117.112 17.0935 117.038 16.9982 116.966 16.9014C116.896 16.8063 116.827 16.7096 116.759 16.6122C116.746 16.5992 116.741 16.5859 116.733 16.5732C116.665 16.4747 116.599 16.3746 116.534 16.2737C116.534 16.2682 116.521 16.2606 116.521 16.2552C116.458 16.1568 116.398 16.057 116.339 15.9566C116.339 15.9473 116.326 15.9381 116.322 15.9296C116.261 15.8238 116.201 15.7164 116.142 15.6081C116.142 15.6024 116.142 15.597 116.129 15.5914C116.116 15.5765 116.112 15.5598 116.104 15.5444L116.117 15.5499C116.154 15.5629 116.189 15.5778 116.225 15.5912C116.295 15.6167 116.363 15.6414 116.432 15.6661C116.445 15.6718 116.455 15.6753 116.467 15.6791C116.48 15.6846 116.491 15.6884 116.502 15.692C116.556 15.7109 116.61 15.7288 116.665 15.7463C116.684 15.752 116.702 15.7596 116.721 15.765C116.782 15.7853 116.844 15.8037 116.906 15.8228C116.929 15.8302 116.953 15.8359 116.977 15.8437C117.039 15.8624 117.1 15.8794 117.161 15.8964C117.181 15.902 117.202 15.9074 117.223 15.9131C117.287 15.9318 117.351 15.948 117.415 15.9638C117.437 15.9695 117.458 15.975 117.48 15.9806C117.543 15.9953 117.607 16.0111 117.671 16.0257C117.759 16.0455 117.847 16.0651 117.936 16.083C118.121 16.1201 118.306 16.1526 118.494 16.1808C118.58 16.1936 118.666 16.2054 118.752 16.2158C118.771 16.2215 118.79 16.2215 118.809 16.2215C118.884 16.231 118.959 16.2402 119.035 16.2466C119.126 16.2561 119.218 16.2634 119.309 16.2708C119.338 16.2765 119.366 16.2765 119.393 16.2765C119.437 16.2819 119.482 16.2819 119.526 16.2857C119.548 16.2857 119.57 16.2914 119.593 16.2914C119.782 16.3006 119.973 16.3063 120.164 16.3063V16.3118C120.858 16.3118 121.536 16.2485 122.196 16.1282C122.209 16.1282 122.209 16.1226 122.216 16.1226C122.973 15.9832 123.704 15.7674 124.4 15.4844C124.506 15.4418 124.611 15.3973 124.715 15.3512C124.738 15.342 124.762 15.3304 124.785 15.3202C124.892 15.2719 124.999 15.2221 125.105 15.1705C126.623 14.4286 127.951 13.3558 128.995 12.0468L128.99 12.0506Z" fill="#252A3F"/>
</svg>
