<svg width="164" height="41" viewBox="0 0 164 41" fill="none" xmlns="http://www.w3.org/2000/svg">
<path d="M18.6483 9.3712V33.7751H14.7015V31.5057C14.0218 32.3389 13.1777 32.9638 12.1691 33.3804C11.1824 33.797 10.0861 34.0053 8.88013 34.0053C7.19181 34.0053 5.66793 33.6326 4.30851 32.8871C2.97101 32.1416 1.91855 31.0891 1.15113 29.7297C0.383709 28.3484 0 26.7697 0 24.9936C0 23.2176 0.383709 21.6499 1.15113 20.2905C1.91855 18.931 2.97101 17.8786 4.30851 17.1331C5.66793 16.3876 7.19181 16.0149 8.88013 16.0149C10.0422 16.0149 11.1056 16.2122 12.0704 16.6069C13.0351 17.0015 13.8574 17.5935 14.5371 18.3829V9.3712H18.6483ZM9.37346 30.4862C10.3601 30.4862 11.2482 30.2669 12.0375 29.8284C12.8268 29.3679 13.4517 28.7211 13.9122 27.8879C14.3726 27.0547 14.6029 26.09 14.6029 24.9936C14.6029 23.8973 14.3726 22.9326 13.9122 22.0994C13.4517 21.2662 12.8268 20.6303 12.0375 20.1918C11.2482 19.7313 10.3601 19.5011 9.37346 19.5011C8.38678 19.5011 7.49877 19.7313 6.70943 20.1918C5.92008 20.6303 5.29519 21.2662 4.83473 22.0994C4.37428 22.9326 4.14406 23.8973 4.14406 24.9936C4.14406 26.09 4.37428 27.0547 4.83473 27.8879C5.29519 28.7211 5.92008 29.3679 6.70943 29.8284C7.49877 30.2669 8.38678 30.4862 9.37346 30.4862Z" fill="#242D3C"/>
<path d="M31.0648 30.5191C32.9723 30.5191 34.562 29.8832 35.8337 28.6115L38.0044 31.144C37.237 32.0868 36.2503 32.7994 35.0444 33.2818C33.8384 33.7641 32.479 34.0053 30.9661 34.0053C29.0366 34.0053 27.3373 33.6216 25.8682 32.8542C24.3992 32.0868 23.259 31.0234 22.4478 29.6639C21.6584 28.2826 21.2637 26.7258 21.2637 24.9936C21.2637 23.2834 21.6474 21.7486 22.4149 20.3891C23.2042 19.0078 24.2786 17.9334 25.638 17.166C27.0194 16.3986 28.5761 16.0149 30.3083 16.0149C31.9528 16.0149 33.4438 16.3766 34.7813 17.1002C36.1407 17.8018 37.2151 18.8214 38.0044 20.1589C38.7938 21.4745 39.1884 23.0203 39.1884 24.7963L25.7367 27.4275C26.1533 28.4361 26.822 29.2035 27.7429 29.7297C28.6638 30.2559 29.7711 30.5191 31.0648 30.5191ZM30.3083 19.3038C28.7954 19.3038 27.5675 19.7971 26.6247 20.7838C25.7038 21.7705 25.2433 23.097 25.2433 24.7634V24.7963L35.1759 22.8887C34.8909 21.8143 34.3098 20.9483 33.4328 20.2905C32.5777 19.6327 31.5362 19.3038 30.3083 19.3038Z" fill="#242D3C"/>
<path d="M57.9462 16.2122L50.4145 33.7751H46.1718L38.6401 16.2122H42.9157L48.3754 29.2364L53.9994 16.2122H57.9462Z" fill="#242D3C"/>
<path d="M67.0722 30.5191C68.9798 30.5191 70.5694 29.8832 71.8411 28.6115L74.0118 31.144C73.2444 32.0868 72.2577 32.7994 71.0518 33.2818C69.8458 33.7641 68.4864 34.0053 66.9735 34.0053C65.044 34.0053 63.3447 33.6216 61.8757 32.8542C60.4066 32.0868 59.2664 31.0234 58.4552 29.6639C57.6658 28.2826 57.2712 26.7258 57.2712 24.9936C57.2712 23.2834 57.6549 21.7486 58.4223 20.3891C59.2116 19.0078 60.286 17.9334 61.6454 17.166C63.0268 16.3986 64.5836 16.0149 66.3157 16.0149C67.9602 16.0149 69.4512 16.3766 70.7887 17.1002C72.1481 17.8018 73.2225 18.8214 74.0118 20.1589C74.8012 21.4745 75.1958 23.0203 75.1958 24.7963L61.7441 27.4275C62.1607 28.4361 62.8295 29.2035 63.7504 29.7297C64.6713 30.2559 65.7785 30.5191 67.0722 30.5191ZM66.3157 19.3038C64.8028 19.3038 63.5749 19.7971 62.6321 20.7838C61.7112 21.7705 61.2508 23.097 61.2508 24.7634V24.7963L71.1833 22.8887C70.8983 21.8143 70.3173 20.9483 69.4402 20.2905C68.5851 19.6327 67.5436 19.3038 66.3157 19.3038Z" fill="#242D3C"/>
<path d="M83.6186 34.0053C81.7987 34.0053 80.3735 33.512 79.343 32.5253C78.3344 31.5167 77.8301 30.1025 77.8301 28.2826V9.3712H81.9413V27.9866C81.9413 29.7407 82.7635 30.6177 84.408 30.6177C84.9561 30.6177 85.4494 30.5081 85.888 30.2888L86.0853 33.5778C85.3179 33.8628 84.4957 34.0053 83.6186 34.0053Z" fill="#242D3C"/>
<path d="M95.1355 34.0053C93.3595 34.0053 91.7589 33.6216 90.3337 32.8542C88.9085 32.0868 87.7902 31.0234 86.979 29.6639C86.1896 28.2826 85.795 26.7258 85.795 24.9936C85.795 23.2615 86.1896 21.7157 86.979 20.3562C87.7902 18.9968 88.9085 17.9334 90.3337 17.166C91.7589 16.3986 93.3595 16.0149 95.1355 16.0149C96.9335 16.0149 98.5451 16.3986 99.9703 17.166C101.395 17.9334 102.503 18.9968 103.292 20.3562C104.103 21.7157 104.509 23.2615 104.509 24.9936C104.509 26.7258 104.103 28.2826 103.292 29.6639C102.503 31.0234 101.395 32.0868 99.9703 32.8542C98.5451 33.6216 96.9335 34.0053 95.1355 34.0053ZM95.1355 30.4862C96.6485 30.4862 97.8982 29.9819 98.8849 28.9733C99.8716 27.9646 100.365 26.6381 100.365 24.9936C100.365 23.3492 99.8716 22.0226 98.8849 21.014C97.8982 20.0054 96.6485 19.5011 95.1355 19.5011C93.6226 19.5011 92.3728 20.0054 91.3861 21.014C90.4214 22.0226 89.939 23.3492 89.939 24.9936C89.939 26.6381 90.4214 27.9646 91.3861 28.9733C92.3728 29.9819 93.6226 30.4862 95.1355 30.4862Z" fill="#242D3C"/>
<path d="M116.86 16.0149C118.57 16.0149 120.094 16.3876 121.432 17.1331C122.791 17.8786 123.854 18.931 124.622 20.2905C125.389 21.6499 125.773 23.2176 125.773 24.9936C125.773 26.7697 125.389 28.3484 124.622 29.7297C123.854 31.0891 122.791 32.1416 121.432 32.8871C120.094 33.6326 118.57 34.0053 116.86 34.0053C114.492 34.0053 112.617 33.216 111.236 31.6373V40.1556H107.125V16.2122H111.039V18.5144C111.718 17.6812 112.551 17.0563 113.538 16.6397C114.547 16.2232 115.654 16.0149 116.86 16.0149ZM116.4 30.4862C117.912 30.4862 119.151 29.9819 120.116 28.9733C121.103 27.9646 121.596 26.6381 121.596 24.9936C121.596 23.3492 121.103 22.0226 120.116 21.014C119.151 20.0054 117.912 19.5011 116.4 19.5011C115.413 19.5011 114.525 19.7313 113.735 20.1918C112.946 20.6303 112.321 21.2662 111.861 22.0994C111.4 22.9326 111.17 23.8973 111.17 24.9936C111.17 26.09 111.4 27.0547 111.861 27.8879C112.321 28.7211 112.946 29.3679 113.735 29.8284C114.525 30.2669 115.413 30.4862 116.4 30.4862Z" fill="#242D3C"/>
<path d="M134.145 34.0053C132.325 34.0053 130.9 33.512 129.869 32.5253C128.861 31.5167 128.356 30.1025 128.356 28.2826V9.3712H132.468V27.9866C132.468 29.7407 133.29 30.6177 134.934 30.6177C135.482 30.6177 135.976 30.5081 136.414 30.2888L136.612 33.5778C135.844 33.8628 135.022 34.0053 134.145 34.0053Z" fill="#242D3C"/>
<path d="M138.09 16.2122H142.201V33.7751H138.09V16.2122ZM140.162 13.3179C139.416 13.3179 138.791 13.0877 138.287 12.6272C137.783 12.1449 137.53 11.5529 137.53 10.8512C137.53 10.1496 137.783 9.56854 138.287 9.10809C138.791 8.62571 139.416 8.38452 140.162 8.38452C140.907 8.38452 141.532 8.61475 142.036 9.0752C142.541 9.51372 142.793 10.0728 142.793 10.7526C142.793 11.4761 142.541 12.0901 142.036 12.5944C141.554 13.0767 140.929 13.3179 140.162 13.3179Z" fill="#242D3C"/>
<path d="M157.598 0.158127V0.159779C157.933 0.159779 158.266 0.171519 158.595 0.197019C158.701 0.204174 158.808 0.21353 158.914 0.22472C159.052 0.238846 159.188 0.254806 159.324 0.272966C159.4 0.282322 159.474 0.294063 159.549 0.304153H159.565C159.622 0.311124 159.679 0.322682 159.737 0.331671C159.775 0.338825 159.814 0.343595 159.851 0.350383C159.967 0.37148 160.084 0.392394 160.2 0.415325C160.361 0.447979 160.52 0.483751 160.679 0.521909C160.695 0.526495 160.715 0.52888 160.731 0.533466C160.758 0.540437 160.783 0.545207 160.807 0.552361L160.823 0.556764C161.019 0.606297 161.213 0.66023 161.406 0.718202C161.478 0.739299 161.55 0.762781 161.622 0.785346C161.679 0.804058 161.735 0.822403 161.792 0.841665C161.834 0.855607 161.877 0.86955 161.919 0.884592C161.935 0.888995 161.945 0.893765 161.959 0.898535C161.975 0.903121 161.99 0.910276 162.005 0.914679C162.07 0.938161 162.136 0.961642 162.201 0.985674C162.217 0.990443 162.229 0.997415 162.243 1.002C162.27 1.01393 162.298 1.02328 162.326 1.03521C162.378 1.0563 162.431 1.07538 162.484 1.0963C162.777 1.82625 163.005 2.58847 163.164 3.37587C163.334 4.21699 163.423 5.08619 163.423 5.97611C163.05 11.5592 160.323 15.9737 155.475 18.4055C155.342 18.4703 155.208 18.5328 155.073 18.5936C155.044 18.6055 155.014 18.6194 154.985 18.6321C154.854 18.6899 154.722 18.7458 154.59 18.7998C153.714 19.1555 152.795 19.4263 151.842 19.6016C151.826 19.6016 151.826 19.6088 151.818 19.6088C150.989 19.7598 150.136 19.8392 149.264 19.8392V19.832C149.023 19.832 148.783 19.8251 148.545 19.8133C148.517 19.8133 148.49 19.8063 148.462 19.8063C148.406 19.7992 148.351 19.7992 148.295 19.7948C148.259 19.7948 148.225 19.7948 148.19 19.7876C148.074 19.7781 147.959 19.7689 147.845 19.7572C147.749 19.7476 147.655 19.7361 147.56 19.7256C147.537 19.7185 147.512 19.7185 147.489 19.7185C147.381 19.7045 147.272 19.6893 147.164 19.6735C146.928 19.6379 146.695 19.5974 146.463 19.551C146.352 19.5275 146.24 19.5044 146.13 19.4794C146.072 19.4675 146.017 19.453 145.96 19.4389C145.901 19.3268 145.842 19.2144 145.786 19.1004C145.786 19.0933 145.77 19.0839 145.77 19.0742C145.702 18.9359 145.636 18.7959 145.574 18.6548C145.574 18.6431 145.557 18.6286 145.557 18.6157C145.499 18.4842 145.443 18.3519 145.389 18.218C145.389 18.2088 145.389 18.2017 145.372 18.192C145.08 17.462 144.851 16.7001 144.693 15.913C144.693 15.8966 144.693 15.8779 144.676 15.8609C144.66 15.8196 144.66 15.7779 144.653 15.7367C144.637 15.6765 144.629 15.6163 144.62 15.556C144.604 15.5097 144.604 15.4648 144.599 15.4189C144.583 15.3582 144.578 15.2978 144.57 15.2368C144.57 15.1993 144.554 15.1617 144.554 15.1245C144.537 15.0555 144.533 14.9876 144.526 14.9185C144.526 14.8906 144.526 14.862 144.509 14.8339C144.493 14.7528 144.491 14.6719 144.483 14.5903V14.5666C144.444 14.1537 144.423 13.7356 144.423 13.3127C144.423 12.4224 144.513 11.553 144.682 10.7121C144.682 10.68 144.698 10.6484 144.703 10.6169C144.703 10.593 144.719 10.5696 144.719 10.5459C144.719 10.5142 144.736 10.4808 144.741 10.4483C144.757 10.4057 144.761 10.3628 144.77 10.3206C144.786 10.2625 144.796 10.2045 144.811 10.1469C144.828 10.1062 144.832 10.0649 144.842 10.024C144.842 10.01 144.842 9.99555 144.859 9.98105C144.882 9.89318 144.905 9.80567 144.93 9.71854C144.946 9.66864 144.958 9.61782 144.973 9.56811C144.99 9.52023 145.003 9.4729 145.018 9.42538C145.018 9.4063 145.034 9.3874 145.034 9.36833C145.062 9.28064 145.09 9.19331 145.119 9.10691C145.136 9.07059 145.143 9.03426 145.156 8.99776C145.223 8.80733 145.292 8.61893 145.367 8.43273V8.42797C145.384 8.401 145.391 8.37367 145.403 8.34633C145.577 7.92127 145.771 7.50685 145.987 7.10508C146.061 6.96547 146.14 6.82751 146.219 6.69103C147.285 4.86935 148.775 3.32561 150.555 2.19665C150.672 2.12217 150.79 2.05007 150.909 1.97981C150.931 1.96806 150.953 1.95394 150.974 1.94128C151.025 1.91211 151.076 1.88367 151.129 1.85469C151.205 1.81158 151.28 1.76736 151.358 1.72554C151.375 1.71838 151.389 1.70921 151.405 1.70114C151.52 1.63913 151.639 1.57878 151.757 1.51989C151.782 1.50833 151.807 1.49567 151.83 1.48393C151.861 1.4676 151.894 1.45476 151.924 1.43972C152.025 1.39184 152.124 1.34341 152.226 1.29828C152.245 1.29112 152.263 1.28158 152.283 1.27315C152.405 1.21958 152.527 1.16784 152.65 1.11758C154.176 0.497892 155.844 0.155762 157.59 0.155762L157.598 0.158127ZM140.083 7.73431C141.709 7.73431 143.054 9.0779 143.054 10.7038C143.054 12.3299 141.709 13.6733 140.083 13.6733C138.456 13.6733 137.111 12.3299 137.111 10.7038C137.111 9.0779 138.456 7.73431 140.083 7.73431ZM162.153 15.0428C162.961 16.7454 163.415 18.6471 163.415 20.654C163.415 21.5441 163.325 22.4137 163.156 23.2545C162.998 24.0419 162.769 24.8035 162.476 25.5337C162.396 25.5658 162.315 25.5969 162.235 25.6274C162.149 25.6595 162.064 25.6907 161.978 25.7206C161.978 25.7277 161.962 25.7277 161.955 25.7277C161.938 25.7347 161.924 25.7395 161.908 25.7441C161.831 25.7703 161.755 25.7965 161.677 25.822C161.656 25.8292 161.637 25.836 161.617 25.8431C161.563 25.8595 161.509 25.8771 161.455 25.8934C161.434 25.9006 161.415 25.9051 161.395 25.9123C161.218 25.9655 161.04 26.0147 160.861 26.0607C160.842 26.0677 160.824 26.0699 160.805 26.0747C160.782 26.0816 160.757 26.0864 160.733 26.0912C160.657 26.1099 160.583 26.1271 160.507 26.1447C160.404 26.1682 160.302 26.1906 160.199 26.2108C159.411 26.3696 158.596 26.457 157.764 26.4672H157.598C157.495 26.4672 157.393 26.4672 157.291 26.4601H157.202C157.127 26.4601 157.05 26.4533 156.974 26.4509C156.946 26.4509 156.918 26.4438 156.89 26.4438C156.799 26.437 156.707 26.4322 156.615 26.4274H156.581C156.483 26.4205 156.385 26.4109 156.287 26.4012C156.256 26.394 156.225 26.394 156.194 26.392C156.118 26.3849 156.043 26.3755 155.966 26.3662C155.942 26.3592 155.917 26.3592 155.891 26.3568C155.812 26.3449 155.732 26.3357 155.653 26.3236C155.628 26.3166 155.604 26.3166 155.58 26.3119C155.485 26.2955 155.388 26.281 155.293 26.264C155.267 26.2568 155.24 26.2544 155.213 26.2473C155.143 26.2357 155.073 26.2216 155.005 26.2077C154.968 26.2005 154.93 26.1913 154.895 26.1842C154.824 26.168 154.753 26.1535 154.682 26.1378C154.661 26.1306 154.637 26.1282 154.615 26.1214C154.518 26.098 154.421 26.075 154.325 26.0504C154.306 26.0433 154.289 26.0409 154.271 26.0361C154.204 26.0198 154.136 26.0007 154.07 25.982C153.928 25.9428 153.788 25.9013 153.648 25.8571C153.627 25.8503 153.607 25.8431 153.585 25.8363C153.461 25.7964 153.339 25.7553 153.218 25.712C153.19 25.7024 153.162 25.6909 153.134 25.6823C153 25.6333 152.865 25.5828 152.732 25.5294C152.706 25.5179 152.678 25.506 152.65 25.4962C152.533 25.4484 152.418 25.3996 152.302 25.3487C152.279 25.3396 152.256 25.33 152.235 25.319C152.103 25.2603 151.974 25.199 151.845 25.1363C151.819 25.1246 151.791 25.1093 151.765 25.0959C151.646 25.0369 151.527 24.9756 151.41 24.9132C151.393 24.9061 151.384 24.8989 151.371 24.8921C151.243 24.8233 151.117 24.7514 150.992 24.6786C150.966 24.6645 150.94 24.6478 150.915 24.6329C150.793 24.5608 150.672 24.4874 150.553 24.4115V24.4045C150.426 24.3236 150.301 24.2407 150.177 24.1558C150.156 24.1416 150.138 24.1279 150.118 24.1143C150.001 24.0325 149.884 23.9496 149.769 23.8641C149.769 23.8641 149.769 23.8569 149.753 23.8569C149.634 23.7681 149.516 23.6764 149.4 23.5836C149.382 23.5672 149.363 23.5542 149.344 23.5399C149.113 23.3526 148.887 23.1574 148.669 22.9553C148.652 22.9389 148.636 22.9255 148.621 22.9103C148.403 22.7067 148.192 22.4961 147.989 22.2779C147.973 22.2616 147.958 22.2449 147.942 22.2286C147.74 22.0094 147.545 21.7837 147.358 21.5517C147.342 21.5353 147.33 21.5172 147.316 21.5003C147.222 21.3822 147.129 21.2624 147.038 21.1407C146.951 21.0211 146.863 20.8997 146.778 20.7771C146.762 20.7608 146.755 20.7441 146.744 20.7281C146.659 20.6043 146.576 20.4785 146.495 20.3517C146.495 20.3447 146.479 20.3352 146.479 20.3284C146.4 20.2048 146.324 20.0793 146.25 19.9531C146.25 19.9413 146.233 19.9298 146.229 19.9191C146.151 19.7861 146.076 19.6511 146.002 19.515C146.002 19.5078 146.002 19.501 145.986 19.4939C145.969 19.4752 145.964 19.4543 145.955 19.4348L145.971 19.4418C146.017 19.4581 146.061 19.4768 146.107 19.4937C146.194 19.5258 146.28 19.5568 146.367 19.5878C146.383 19.595 146.396 19.5994 146.41 19.6041C146.427 19.6111 146.441 19.6159 146.455 19.6205C146.523 19.6441 146.591 19.6667 146.66 19.6887C146.683 19.6959 146.706 19.7054 146.729 19.7122C146.807 19.7377 146.885 19.7608 146.962 19.7848C146.992 19.7942 147.021 19.8013 147.052 19.8111C147.129 19.8345 147.207 19.856 147.283 19.8773C147.308 19.8844 147.334 19.8912 147.361 19.8984C147.441 19.9219 147.521 19.9422 147.603 19.9621C147.631 19.9692 147.657 19.9762 147.685 19.9831C147.764 20.0017 147.844 20.0215 147.924 20.0398C148.035 20.0648 148.145 20.0894 148.257 20.1119C148.489 20.1585 148.723 20.1994 148.959 20.2348C149.067 20.251 149.175 20.2658 149.283 20.2789C149.307 20.286 149.331 20.286 149.354 20.286C149.449 20.298 149.544 20.3095 149.639 20.3176C149.754 20.3295 149.869 20.3387 149.984 20.348C150.02 20.3552 150.055 20.3552 150.089 20.3552C150.145 20.362 150.2 20.362 150.256 20.3667C150.284 20.3667 150.312 20.3739 150.34 20.3739C150.578 20.3855 150.817 20.3926 151.058 20.3926V20.3996C151.93 20.3996 152.783 20.32 153.612 20.1688C153.629 20.1688 153.629 20.1616 153.637 20.1616C154.589 19.9864 155.508 19.7151 156.384 19.3594C156.517 19.3058 156.648 19.2499 156.779 19.1919C156.808 19.1804 156.838 19.1659 156.867 19.153C157.002 19.0923 157.136 19.0298 157.269 18.9648C159.178 18.0322 160.847 16.6836 162.16 15.038L162.153 15.0428Z" fill="#58C791"/>
</svg>
